<svg id="Layer_1" data-name="Layer 1" xmlns="http://www.w3.org/2000/svg" xmlns:xlink="http://www.w3.org/1999/xlink" viewBox="0 0 1521.69 1043.16"><defs><style>.cls-1{fill:url(#radial-gradient);}.cls-2{fill:url(#radial-gradient-2);}.cls-3{fill:url(#radial-gradient-3);}.cls-4{fill:url(#radial-gradient-4);}.cls-5{fill:url(#radial-gradient-5);}.cls-6{fill:url(#radial-gradient-6);}.cls-7{fill:url(#radial-gradient-7);}.cls-8{fill:url(#radial-gradient-8);}.cls-9{fill:url(#radial-gradient-9);}.cls-10{fill:url(#radial-gradient-10);}.cls-11{fill:url(#radial-gradient-11);}.cls-12{fill:url(#radial-gradient-12);}.cls-13{fill:url(#radial-gradient-13);}.cls-14{fill:url(#radial-gradient-14);}.cls-15{fill:url(#radial-gradient-15);}.cls-16{fill:url(#radial-gradient-16);}.cls-17{fill:url(#radial-gradient-17);}.cls-18{fill:url(#radial-gradient-18);}</style><radialGradient id="radial-gradient" cx="626.74" cy="294.4" r="92.57" gradientUnits="userSpaceOnUse"><stop offset="0" stop-color="#fff" stop-opacity="0"/><stop offset="0.27" stop-color="#fffdfe" stop-opacity="0.01"/><stop offset="0.44" stop-color="#fff7fa" stop-opacity="0.04"/><stop offset="0.58" stop-color="#ffedf4" stop-opacity="0.1"/><stop offset="0.71" stop-color="#ffdfec" stop-opacity="0.18"/><stop offset="0.83" stop-color="#ffcde1" stop-opacity="0.29"/><stop offset="0.94" stop-color="#ffb7d3" stop-opacity="0.42"/><stop offset="1" stop-color="#ffa9cb" stop-opacity="0.5"/></radialGradient><radialGradient id="radial-gradient-2" cx="489.66" cy="1000.55" r="62.26" xlink:href="#radial-gradient"/><radialGradient id="radial-gradient-3" cx="744.78" cy="371.96" r="27.22" xlink:href="#radial-gradient"/><radialGradient id="radial-gradient-4" cx="191.89" cy="140.17" r="92.57" xlink:href="#radial-gradient"/><radialGradient id="radial-gradient-5" cx="1038.4" cy="790.62" r="62.26" xlink:href="#radial-gradient"/><radialGradient id="radial-gradient-6" cx="626.03" cy="763.4" r="27.22" xlink:href="#radial-gradient"/><radialGradient id="radial-gradient-7" cx="105.99" cy="679.71" r="62.26" xlink:href="#radial-gradient"/><radialGradient id="radial-gradient-8" cx="216.49" cy="639.79" r="27.22" xlink:href="#radial-gradient"/><radialGradient id="radial-gradient-9" cx="1025.34" cy="396.37" r="92.57" xlink:href="#radial-gradient"/><radialGradient id="radial-gradient-10" cx="1468.99" cy="634.24" r="27.22" xlink:href="#radial-gradient"/><radialGradient id="radial-gradient-11" cx="615.64" cy="553.28" r="62.26" xlink:href="#radial-gradient"/><radialGradient id="radial-gradient-12" cx="1390.98" cy="63.45" r="27.22" xlink:href="#radial-gradient"/><radialGradient id="radial-gradient-13" cx="1233.29" cy="990.7" r="62.26" xlink:href="#radial-gradient"/><radialGradient id="radial-gradient-14" cx="1343.79" cy="950.78" r="27.22" xlink:href="#radial-gradient"/><radialGradient id="radial-gradient-15" cx="315.02" cy="525.54" r="92.57" xlink:href="#radial-gradient"/><radialGradient id="radial-gradient-16" cx="758.68" cy="763.4" r="27.22" xlink:href="#radial-gradient"/><radialGradient id="radial-gradient-17" cx="1233.29" cy="29.8" r="62.26" xlink:href="#radial-gradient"/><radialGradient id="radial-gradient-18" cx="1343.79" cy="-10.12" r="27.22" xlink:href="#radial-gradient"/></defs><title>background1</title><circle class="cls-1" cx="626.74" cy="294.4" r="92.57"/><circle class="cls-2" cx="489.66" cy="1000.55" r="62.26"/><circle class="cls-3" cx="744.78" cy="371.96" r="27.22"/><circle class="cls-4" cx="191.89" cy="140.17" r="92.57"/><circle class="cls-5" cx="1038.4" cy="790.62" r="62.26"/><circle class="cls-6" cx="626.03" cy="763.4" r="27.22"/><circle class="cls-7" cx="105.99" cy="679.71" r="62.26"/><circle class="cls-8" cx="216.49" cy="639.79" r="27.22"/><circle class="cls-9" cx="1025.34" cy="396.37" r="92.57"/><circle class="cls-10" cx="1468.99" cy="634.24" r="27.22"/><circle class="cls-11" cx="615.64" cy="553.28" r="62.26"/><circle class="cls-12" cx="1390.98" cy="63.45" r="27.22"/><circle class="cls-13" cx="1233.29" cy="990.7" r="62.26"/><circle class="cls-14" cx="1343.79" cy="950.78" r="27.22"/><circle class="cls-15" cx="315.02" cy="525.54" r="92.57"/><circle class="cls-16" cx="758.68" cy="763.4" r="27.22"/><circle class="cls-17" cx="1233.29" cy="29.8" r="62.26"/><circle class="cls-18" cx="1343.79" cy="-10.12" r="27.22"/></svg>