<svg id="Layer_1" data-name="Layer 1" xmlns="http://www.w3.org/2000/svg" xmlns:xlink="http://www.w3.org/1999/xlink" viewBox="0 0 1521.69 1043.16"><defs><style>.cls-1{fill:#fff;}.cls-2{fill:url(#radial-gradient);}.cls-3{fill:url(#radial-gradient-2);}.cls-4{fill:url(#radial-gradient-3);}.cls-5{fill:url(#radial-gradient-4);}.cls-6{fill:url(#radial-gradient-5);}.cls-7{fill:url(#radial-gradient-6);}.cls-8{fill:url(#radial-gradient-7);}.cls-9{fill:url(#radial-gradient-8);}.cls-10{fill:url(#radial-gradient-9);}.cls-11{fill:url(#radial-gradient-10);}.cls-12{fill:url(#radial-gradient-11);}.cls-13{fill:url(#radial-gradient-12);}.cls-14{fill:url(#radial-gradient-13);}.cls-15{fill:url(#radial-gradient-14);}.cls-16{fill:url(#radial-gradient-15);}.cls-17{fill:url(#radial-gradient-16);}.cls-18{fill:url(#radial-gradient-17);}.cls-19{fill:url(#radial-gradient-18);}.cls-20{fill:url(#radial-gradient-19);}.cls-21{fill:url(#radial-gradient-20);}.cls-22{fill:url(#radial-gradient-21);}.cls-23{fill:url(#radial-gradient-22);}.cls-24{fill:url(#radial-gradient-23);}.cls-25{fill:url(#radial-gradient-24);}.cls-26{fill:url(#radial-gradient-25);}</style><radialGradient id="radial-gradient" cx="1138.74" cy="586.32" r="10.3" gradientUnits="userSpaceOnUse"><stop offset="0" stop-color="#fff"/><stop offset="0.1" stop-color="#fff" stop-opacity="0.98"/><stop offset="0.22" stop-color="#fff" stop-opacity="0.92"/><stop offset="0.36" stop-color="#fff" stop-opacity="0.82"/><stop offset="0.5" stop-color="#fff" stop-opacity="0.69"/><stop offset="0.66" stop-color="#fff" stop-opacity="0.51"/><stop offset="0.81" stop-color="#fff" stop-opacity="0.3"/><stop offset="0.97" stop-color="#fff" stop-opacity="0.05"/><stop offset="1" stop-color="#fff" stop-opacity="0"/></radialGradient><radialGradient id="radial-gradient-2" cx="861.64" cy="476.8" r="10.3" xlink:href="#radial-gradient"/><radialGradient id="radial-gradient-3" cx="957.56" cy="242.35" r="10.3" xlink:href="#radial-gradient"/><radialGradient id="radial-gradient-4" cx="1158.52" cy="527.15" r="10.3" xlink:href="#radial-gradient"/><radialGradient id="radial-gradient-5" cx="818.38" cy="569.41" r="10.5" xlink:href="#radial-gradient"/><radialGradient id="radial-gradient-6" cx="1326.77" cy="900.5" r="12.56" xlink:href="#radial-gradient"/><radialGradient id="radial-gradient-7" cx="1285.09" cy="85.49" r="10.58" xlink:href="#radial-gradient"/><radialGradient id="radial-gradient-8" cx="740.62" cy="286.07" r="10.58" xlink:href="#radial-gradient"/><radialGradient id="radial-gradient-9" cx="688.06" cy="1039.09" r="20.72" gradientTransform="translate(591.52 -320.7) scale(0.68 0.76)" xlink:href="#radial-gradient"/><radialGradient id="radial-gradient-10" cx="220.6" cy="974.48" r="15.55" xlink:href="#radial-gradient"/><radialGradient id="radial-gradient-11" cx="441.67" cy="670.24" r="10.3" xlink:href="#radial-gradient"/><radialGradient id="radial-gradient-12" cx="164.58" cy="560.71" r="10.3" xlink:href="#radial-gradient"/><radialGradient id="radial-gradient-13" cx="260.5" cy="326.26" r="10.3" xlink:href="#radial-gradient"/><radialGradient id="radial-gradient-14" cx="461.45" cy="611.06" r="10.3" xlink:href="#radial-gradient"/><radialGradient id="radial-gradient-15" cx="642.23" cy="78.54" r="19.63" gradientUnits="userSpaceOnUse"><stop offset="0" stop-color="#fff" stop-opacity="0.9"/><stop offset="0.11" stop-color="#fff" stop-opacity="0.88"/><stop offset="0.24" stop-color="#fff" stop-opacity="0.82"/><stop offset="0.38" stop-color="#fff" stop-opacity="0.72"/><stop offset="0.54" stop-color="#fff" stop-opacity="0.59"/><stop offset="0.7" stop-color="#fff" stop-opacity="0.41"/><stop offset="0.86" stop-color="#fff" stop-opacity="0.2"/><stop offset="1" stop-color="#fff" stop-opacity="0"/></radialGradient><radialGradient id="radial-gradient-16" cx="501.51" cy="371.28" r="21.07" xlink:href="#radial-gradient"/><radialGradient id="radial-gradient-17" cx="50.69" cy="360.85" r="17.6" xlink:href="#radial-gradient"/><radialGradient id="radial-gradient-18" cx="-631.18" cy="532.01" r="20.72" gradientTransform="translate(591.52 -320.7) scale(0.68 0.76)" xlink:href="#radial-gradient"/><radialGradient id="radial-gradient-19" cx="86.73" cy="616.39" r="10.3" xlink:href="#radial-gradient"/><radialGradient id="radial-gradient-20" cx="697.73" cy="813.82" r="10.3" xlink:href="#radial-gradient"/><radialGradient id="radial-gradient-21" cx="144.8" cy="776.81" r="10.3" xlink:href="#radial-gradient"/><radialGradient id="radial-gradient-22" cx="1424.31" cy="719.55" r="10.3" xlink:href="#radial-gradient"/><radialGradient id="radial-gradient-23" cx="1243.13" cy="375.57" r="10.3" xlink:href="#radial-gradient"/><radialGradient id="radial-gradient-24" cx="1444.09" cy="660.37" r="10.3" xlink:href="#radial-gradient"/><radialGradient id="radial-gradient-25" cx="1484.15" cy="420.59" r="21.07" xlink:href="#radial-gradient"/></defs><title>background2</title><polygon class="cls-1" points="1138.53 563.64 1137.07 586.63 1139.26 614.15 1141.45 587.29 1138.53 563.64"/><polygon class="cls-1" points="1139.04 584.08 1119.26 585.9 1138.39 587.51 1158.82 585.61 1139.04 584.08"/><polygon class="cls-1" points="1138.97 583.05 1146.63 576.05 1140.36 584.95 1131.67 594.22 1138.97 583.05"/><polygon class="cls-1" points="1138.31 586.27 1147.36 593.42 1140.36 584.95 1132.69 578.46 1138.31 586.27"/><ellipse class="cls-2" cx="1138.74" cy="586.32" rx="10.47" ry="10.12"/><polygon class="cls-1" points="861.43 454.12 859.97 477.11 862.16 504.62 864.35 477.76 861.43 454.12"/><polygon class="cls-1" points="861.95 474.55 842.16 476.38 861.29 477.98 881.72 476.08 861.95 474.55"/><polygon class="cls-1" points="861.87 473.53 869.54 466.52 863.26 475.43 854.57 484.7 861.87 473.53"/><polygon class="cls-1" points="861.22 476.74 870.26 483.89 863.26 475.43 855.6 468.93 861.22 476.74"/><ellipse class="cls-3" cx="861.64" cy="476.8" rx="10.47" ry="10.12"/><polygon class="cls-1" points="957.35 219.66 955.89 242.65 958.08 270.17 960.27 243.31 957.35 219.66"/><polygon class="cls-1" points="957.86 240.1 938.08 241.92 957.21 243.53 977.64 241.63 957.86 240.1"/><polygon class="cls-1" points="957.79 239.08 965.46 232.07 959.18 240.97 950.49 250.24 957.79 239.08"/><polygon class="cls-1" points="957.13 242.29 966.18 249.44 959.18 240.97 951.51 234.48 957.13 242.29"/><ellipse class="cls-4" cx="957.56" cy="242.35" rx="10.47" ry="10.12"/><polygon class="cls-1" points="1158.31 504.46 1156.85 527.46 1159.04 554.97 1161.23 528.11 1158.31 504.46"/><polygon class="cls-1" points="1158.82 524.9 1139.04 526.73 1158.17 528.33 1178.6 526.43 1158.82 524.9"/><polygon class="cls-1" points="1158.75 523.88 1166.41 516.87 1160.14 525.78 1151.45 535.05 1158.75 523.88"/><polygon class="cls-1" points="1158.09 527.09 1167.14 534.24 1160.14 525.78 1152.47 519.28 1158.09 527.09"/><ellipse class="cls-5" cx="1158.52" cy="527.15" rx="10.47" ry="10.12"/><polygon class="cls-1" points="818.21 551.84 817.09 569.47 818.77 590.56 820.45 569.97 818.21 551.84"/><polygon class="cls-1" points="818.6 567.51 803.44 568.91 818.1 570.14 833.76 568.68 818.6 567.51"/><polygon class="cls-1" points="818.54 566.72 824.42 561.35 819.61 568.18 812.95 575.28 818.54 566.72"/><polygon class="cls-1" points="818.04 569.19 824.98 574.67 819.61 568.18 813.73 563.2 818.04 569.19"/><ellipse class="cls-6" cx="818.38" cy="569.41" rx="10.67" ry="10.32"/><polygon class="cls-1" points="1326.42 886.73 1325.55 900.44 1326.86 916.84 1328.16 900.83 1326.42 886.73"/><polygon class="cls-1" points="1326.72 898.91 1314.93 900 1326.33 900.96 1338.52 899.83 1326.72 898.91"/><polygon class="cls-1" points="1326.68 898.31 1331.25 894.13 1327.51 899.44 1322.33 904.96 1326.68 898.31"/><polygon class="cls-1" points="1326.29 900.22 1331.68 904.49 1327.51 899.44 1322.94 895.57 1326.29 900.22"/><ellipse class="cls-7" cx="1326.77" cy="900.5" rx="12.77" ry="12.35"/><polygon class="cls-1" points="1284.8 73.89 1284.07 85.44 1285.17 99.25 1286.27 85.77 1284.8 73.89"/><polygon class="cls-1" points="1285.06 84.15 1275.13 85.07 1284.73 85.88 1294.99 84.92 1285.06 84.15"/><polygon class="cls-1" points="1285.02 83.64 1288.87 80.12 1285.72 84.59 1281.36 89.25 1285.02 83.64"/><polygon class="cls-1" points="1284.69 85.25 1289.23 88.84 1285.72 84.59 1281.87 81.33 1284.69 85.25"/><ellipse class="cls-8" cx="1285.09" cy="85.49" rx="10.76" ry="10.4"/><polygon class="cls-1" points="740.32 274.48 739.59 286.02 740.69 299.83 741.79 286.35 740.32 274.48"/><polygon class="cls-1" points="740.58 284.74 730.65 285.65 740.25 286.46 750.51 285.51 740.58 284.74"/><polygon class="cls-1" points="740.54 284.22 744.39 280.71 741.24 285.18 736.88 289.83 740.54 284.22"/><polygon class="cls-1" points="740.21 285.84 744.76 289.43 741.24 285.18 737.39 281.92 740.21 285.84"/><ellipse class="cls-9" cx="740.62" cy="286.07" rx="10.76" ry="10.4"/><polygon class="cls-1" points="1055.18 446.14 1053.75 468.74 1055.9 495.8 1058.05 469.39 1055.18 446.14"/><polygon class="cls-1" points="1055.69 466.23 1036.24 468.02 1055.04 469.6 1075.13 467.74 1055.69 466.23"/><polygon class="cls-1" points="1055.61 465.23 1063.15 458.34 1056.98 467.09 1048.44 476.2 1055.61 465.23"/><polygon class="cls-1" points="1054.97 468.38 1063.87 475.42 1056.98 467.09 1049.44 460.7 1054.97 468.38"/><ellipse class="cls-10" cx="1056.28" cy="466.98" rx="14.23" ry="15.43"/><polygon class="cls-1" points="220.17 957.44 219.09 974.4 220.71 994.71 222.32 974.89 220.17 957.44"/><polygon class="cls-1" points="220.55 972.52 205.95 973.87 220.06 975.05 235.15 973.65 220.55 972.52"/><polygon class="cls-1" points="220.49 971.76 226.15 966.59 221.52 973.17 215.11 980.01 220.49 971.76"/><polygon class="cls-1" points="220.01 974.13 226.69 979.41 221.52 973.17 215.86 968.37 220.01 974.13"/><ellipse class="cls-11" cx="220.6" cy="974.48" rx="15.81" ry="15.28"/><polygon class="cls-1" points="441.47 647.55 440.01 670.54 442.2 698.06 444.39 671.2 441.47 647.55"/><polygon class="cls-1" points="441.98 667.99 422.2 669.81 441.32 671.42 461.76 669.52 441.98 667.99"/><polygon class="cls-1" points="441.9 666.97 449.57 659.96 443.29 668.87 434.61 678.13 441.9 666.97"/><polygon class="cls-1" points="441.25 670.18 450.3 677.33 443.29 668.87 435.63 662.37 441.25 670.18"/><ellipse class="cls-12" cx="441.67" cy="670.24" rx="10.47" ry="10.12"/><polygon class="cls-1" points="164.37 538.03 162.91 561.02 165.1 588.53 167.29 561.67 164.37 538.03"/><polygon class="cls-1" points="164.88 558.46 145.1 560.29 164.22 561.89 184.66 560 164.88 558.46"/><polygon class="cls-1" points="164.81 557.44 172.47 550.43 166.19 559.34 157.51 568.61 164.81 557.44"/><polygon class="cls-1" points="164.15 560.65 173.2 567.81 166.19 559.34 158.53 552.84 164.15 560.65"/><ellipse class="cls-13" cx="164.58" cy="560.71" rx="10.47" ry="10.12"/><polygon class="cls-1" points="260.29 303.57 258.83 326.56 261.02 354.08 263.21 327.22 260.29 303.57"/><polygon class="cls-1" points="260.8 324.01 241.02 325.83 260.14 327.44 280.58 325.54 260.8 324.01"/><polygon class="cls-1" points="260.73 322.99 268.39 315.98 262.11 324.89 253.43 334.16 260.73 322.99"/><polygon class="cls-1" points="260.07 326.2 269.12 333.35 262.11 324.89 254.45 318.39 260.07 326.2"/><ellipse class="cls-14" cx="260.5" cy="326.26" rx="10.47" ry="10.12"/><polygon class="cls-1" points="461.25 588.38 459.79 611.37 461.98 638.88 464.17 612.02 461.25 588.38"/><polygon class="cls-1" points="461.76 608.81 441.98 610.64 461.1 612.24 481.54 610.35 461.76 608.81"/><polygon class="cls-1" points="461.69 607.79 469.35 600.78 463.07 609.69 454.39 618.96 461.69 607.79"/><polygon class="cls-1" points="461.03 611 470.08 618.16 463.07 609.69 455.41 603.19 461.03 611"/><ellipse class="cls-15" cx="461.45" cy="611.06" rx="10.47" ry="10.12"/><polygon class="cls-1" points="641.68 57.03 640.32 78.45 642.37 104.08 644.4 79.06 641.68 57.03"/><polygon class="cls-1" points="642.16 76.07 623.73 77.77 641.55 79.26 660.59 77.5 642.16 76.07"/><polygon class="cls-1" points="642.09 75.11 649.23 68.59 643.38 76.88 635.29 85.52 642.09 75.11"/><polygon class="cls-1" points="641.48 78.11 649.91 84.77 643.38 76.88 636.24 70.83 641.48 78.11"/><ellipse class="cls-16" cx="642.23" cy="78.54" rx="19.96" ry="19.29"/><polygon class="cls-1" points="500.93 348.18 499.47 371.17 501.66 398.69 503.85 371.83 500.93 348.18"/><polygon class="cls-1" points="501.44 368.62 481.66 370.44 500.78 372.05 521.22 370.15 501.44 368.62"/><polygon class="cls-1" points="501.37 367.59 509.03 360.59 502.75 369.49 494.07 378.76 501.37 367.59"/><polygon class="cls-1" points="500.71 370.81 509.76 377.96 502.75 369.49 495.09 363 500.71 370.81"/><ellipse class="cls-17" cx="501.51" cy="371.28" rx="21.42" ry="20.71"/><polygon class="cls-1" points="50.2 341.57 48.98 360.77 50.81 383.75 52.64 361.32 50.2 341.57"/><polygon class="cls-1" points="50.63 358.63 34.11 360.16 50.08 361.5 67.15 359.91 50.63 358.63"/><polygon class="cls-1" points="50.57 357.78 56.97 351.93 51.73 359.37 44.47 367.11 50.57 357.78"/><polygon class="cls-1" points="50.02 360.46 57.58 366.44 51.73 359.37 45.33 353.94 50.02 360.46"/><ellipse class="cls-18" cx="50.69" cy="360.85" rx="17.89" ry="17.29"/><polygon class="cls-1" points="164.07 61.74 162.64 84.35 164.79 111.4 166.94 84.99 164.07 61.74"/><polygon class="cls-1" points="164.58 81.84 145.13 83.63 163.93 85.21 184.02 83.34 164.58 81.84"/><polygon class="cls-1" points="164.5 80.83 172.04 73.94 165.87 82.7 157.33 91.81 164.5 80.83"/><polygon class="cls-1" points="163.86 83.99 172.76 91.02 165.87 82.7 158.33 76.31 163.86 83.99"/><ellipse class="cls-19" cx="165.17" cy="82.58" rx="14.23" ry="15.43"/><polygon class="cls-1" points="86.52 593.71 85.06 616.7 87.25 644.21 89.44 617.35 86.52 593.71"/><polygon class="cls-1" points="87.03 614.14 67.25 615.97 86.37 617.57 106.81 615.67 87.03 614.14"/><polygon class="cls-1" points="86.96 613.12 94.62 606.11 88.34 615.02 79.66 624.29 86.96 613.12"/><polygon class="cls-1" points="86.3 616.33 95.35 623.48 88.34 615.02 80.68 608.52 86.3 616.33"/><ellipse class="cls-20" cx="86.73" cy="616.39" rx="10.47" ry="10.12"/><polygon class="cls-1" points="697.52 791.14 696.06 814.13 698.25 841.64 700.44 814.78 697.52 791.14"/><polygon class="cls-1" points="698.03 811.57 678.25 813.4 697.37 815 717.81 813.11 698.03 811.57"/><polygon class="cls-1" points="697.96 810.55 705.62 803.54 699.34 812.45 690.66 821.72 697.96 810.55"/><polygon class="cls-1" points="697.3 813.76 706.35 820.91 699.34 812.45 691.68 805.95 697.3 813.76"/><ellipse class="cls-21" cx="697.73" cy="813.82" rx="10.47" ry="10.12"/><polygon class="cls-1" points="144.59 754.13 143.13 777.12 145.32 804.63 147.51 777.77 144.59 754.13"/><polygon class="cls-1" points="145.1 774.56 125.32 776.39 144.44 777.99 164.88 776.1 145.1 774.56"/><polygon class="cls-1" points="145.03 773.54 152.69 766.53 146.41 775.44 137.73 784.71 145.03 773.54"/><polygon class="cls-1" points="144.37 776.75 153.42 783.9 146.41 775.44 138.75 768.94 144.37 776.75"/><ellipse class="cls-22" cx="144.8" cy="776.81" rx="10.47" ry="10.12"/><polygon class="cls-1" points="1424.11 696.87 1422.64 719.86 1424.83 747.37 1427.02 720.51 1424.11 696.87"/><polygon class="cls-1" points="1424.62 717.3 1404.84 719.13 1423.96 720.73 1444.39 718.83 1424.62 717.3"/><polygon class="cls-1" points="1424.54 716.28 1432.21 709.27 1425.93 718.18 1417.24 727.45 1424.54 716.28"/><polygon class="cls-1" points="1423.89 719.49 1432.94 726.64 1425.93 718.18 1418.27 711.68 1423.89 719.49"/><ellipse class="cls-23" cx="1424.31" cy="719.55" rx="10.47" ry="10.12"/><polygon class="cls-1" points="1242.93 352.89 1241.47 375.88 1243.66 403.39 1245.85 376.54 1242.93 352.89"/><polygon class="cls-1" points="1243.44 373.32 1223.66 375.15 1242.78 376.75 1263.22 374.86 1243.44 373.32"/><polygon class="cls-1" points="1243.36 372.3 1251.03 365.29 1244.75 374.2 1236.07 383.47 1243.36 372.3"/><polygon class="cls-1" points="1242.71 375.51 1251.76 382.67 1244.75 374.2 1237.09 367.7 1242.71 375.51"/><ellipse class="cls-24" cx="1243.13" cy="375.57" rx="10.47" ry="10.12"/><polygon class="cls-1" points="1443.88 637.69 1442.42 660.68 1444.61 688.2 1446.8 661.34 1443.88 637.69"/><polygon class="cls-1" points="1444.39 658.13 1424.62 659.95 1443.74 661.56 1464.17 659.66 1444.39 658.13"/><polygon class="cls-1" points="1444.32 657.1 1451.99 650.1 1445.71 659 1437.02 668.27 1444.32 657.1"/><polygon class="cls-1" points="1443.66 660.32 1452.72 667.47 1445.71 659 1438.05 652.51 1443.66 660.32"/><ellipse class="cls-25" cx="1444.09" cy="660.37" rx="10.47" ry="10.12"/><polygon class="cls-1" points="1483.57 397.49 1482.11 420.48 1484.3 448 1486.48 421.14 1483.57 397.49"/><polygon class="cls-1" points="1484.08 417.93 1464.3 419.75 1483.42 421.36 1503.86 419.46 1484.08 417.93"/><polygon class="cls-1" points="1484 416.91 1491.67 409.9 1485.39 418.8 1476.7 428.07 1484 416.91"/><polygon class="cls-1" points="1483.35 420.12 1492.4 427.27 1485.39 418.8 1477.73 412.31 1483.35 420.12"/><ellipse class="cls-26" cx="1484.15" cy="420.59" rx="21.42" ry="20.71"/></svg>