<svg id="Layer_1" data-name="Layer 1" xmlns="http://www.w3.org/2000/svg" xmlns:xlink="http://www.w3.org/1999/xlink" viewBox="0 0 300.08 300.98"><defs><style>.cls-1{stroke:#1300aa;stroke-linejoin:round;stroke-width:8px;fill:url(#linear-gradient);}.cls-1,.cls-16{stroke-linecap:round;}.cls-2{fill:#fefefe;}.cls-3{fill:#000100;}.cls-4{fill:#f1c844;}.cls-5{fill:#e80039;}.cls-6{fill:#f0c844;}.cls-7{fill:#fefdfd;}.cls-8{fill:#eec944;}.cls-9{fill:#efc944;}.cls-10{fill:#f8d448;}.cls-11{fill:#f4ce46;}.cls-12{fill:#f7ce47;}.cls-13{fill:#fefefd;}.cls-14,.cls-17{fill:#fff;}.cls-15{fill:#ff92f7;}.cls-16{fill:none;stroke:#000;stroke-width:6px;}.cls-16,.cls-17{stroke-miterlimit:10;}.cls-17{stroke:#231f20;}</style><linearGradient id="linear-gradient" x1="4.14" y1="154.34" x2="295.9" y2="154.34" gradientUnits="userSpaceOnUse"><stop offset="0.14" stop-color="#f2ff2a"/><stop offset="0.15" stop-color="#f3f928"/><stop offset="0.17" stop-color="#f5e822"/><stop offset="0.19" stop-color="#f8cb17"/><stop offset="0.22" stop-color="#fca409"/><stop offset="0.24" stop-color="#ff8a00"/><stop offset="0.27" stop-color="#fa6a0d"/><stop offset="0.33" stop-color="#f3441d"/><stop offset="0.38" stop-color="#ee2629"/><stop offset="0.43" stop-color="#eb1132"/><stop offset="0.48" stop-color="#e90437"/><stop offset="0.53" stop-color="#e80039"/><stop offset="0.59" stop-color="#e90338"/><stop offset="0.63" stop-color="#ea0d34"/><stop offset="0.67" stop-color="#ed1d2d"/><stop offset="0.71" stop-color="#f13423"/><stop offset="0.75" stop-color="#f65217"/><stop offset="0.78" stop-color="#fc7608"/><stop offset="0.79" stop-color="#ff8a00"/><stop offset="0.82" stop-color="#fab710"/><stop offset="0.85" stop-color="#f6de1e"/><stop offset="0.87" stop-color="#f3f627"/><stop offset="0.89" stop-color="#f2ff2a"/></linearGradient></defs><title>KARAOKE SMACKDOWN3</title><polygon class="cls-1" points="237.42 293.8 148.02 244.95 57.1 290.9 75.94 190.79 4.14 118.52 105.17 105.49 151.72 14.88 195.33 106.94 295.9 123.21 221.81 193.13 237.42 293.8"/><path class="cls-2" d="M18.59,294.87c-1.84,0-2.2-.36-2.2-2.2"/><path class="cls-3" d="M218.85,157.56c0,6.09,0,12.17,0,18.26a3,3,0,0,0,1.81,3.12,36.36,36.36,0,0,1,12.3,10.19,24.8,24.8,0,0,1,5,15c0,5-.18,10,.05,15,.31,6.58-2.48,11.56-7.35,15.62-5.72,4.78-12.41,7.76-19.38,10.15-14.91,5.11-30.35,7.45-46,8.64a11.64,11.64,0,0,0-5.23,1.65c-9.87,5.81-19.85,5.78-29.71-.07a11,11,0,0,0-5-1.57c-17.35-1.37-34.47-3.95-50.79-10.39A50.48,50.48,0,0,1,58.85,234c-4.26-3.85-6.69-8.47-6.42-14.42.2-4.46.19-9,0-13.42-.4-10,4-17.53,11.64-23.53a13.11,13.11,0,0,1,3.07-2.13c3.82-1.5,4.61-4.19,4.52-8.13-.27-11.18-.78-22.43.15-33.54,2.67-31.92,19.57-53.52,49.35-65,2.75-1.07,3.46-2.26,3.3-4.91-.33-5.33.1-10.53,3.07-15.25a20.69,20.69,0,0,1,38.3,10.68c0,2.67-.81,5.93.43,7.84s4.52,2,6.9,3c28,11.63,45.52,38.07,45.67,68.88C218.87,148.61,218.85,153.09,218.85,157.56Z"/><path class="cls-4" d="M80.77,136.38a57.68,57.68,0,0,1,13-32.6C111,82.67,133.35,74.06,159.9,80.33s42.83,23.88,49,50.56a51.68,51.68,0,0,1,1.25,11.44c0,9.84,0,19.68,0,29.52,0,1.63,0,2.43-2.13,1.73-15-5-30.48-6.79-46.14-7.68-5.35-.31-10.71-.42-16.07-.5-2.83-.05-4.57,1.33-4.93,3.56-.51,3,1.44,5.07,4.94,5.1a289.53,289.53,0,0,1,31.57,1.68c12.55,1.46,24.94,3.65,36.4,9.38a31.8,31.8,0,0,1,12,9.66,15.28,15.28,0,0,1,3.17,11c-.23.09-.45.25-.53.19-12.39-8.13-26.4-11.62-40.71-14.24-3.07-.57-6.15-1.07-9.23-1.6-1.23-.88-2.63-.43-4-.49l-.17.09-.15-.13c-1.56-.93-3.29-.27-4.91-.53l0,0c-2.08-1.19-4.35-.21-6.5-.56l.06.05a23.76,23.76,0,0,0-7.43-.44,10.46,10.46,0,0,1-3.9-.14l.06,0a44.55,44.55,0,0,0-12.84,0l0,0c-3.09.62-6.22-.38-9.31.21-.67.13-1.44-.3-2,.36-5.73.65-11.47,1.28-17.2,1.95-7.78.92-15.4,2.73-23,4.38-1.29-1.57-.92-3.47-.68-5.16.59-4.26,2.08-8.12,6.2-10.34,2.33-.56,4.66-1.15,7-1.66,3-.66,4.59-2.56,4.16-5.21s-2.57-3.91-5.72-3.34A99.83,99.83,0,0,0,82,173.48c-1.51.55-1.85.17-1.83-1.32.09-11.26.13-22.53.2-33.79a3.23,3.23,0,0,1,.42-2.06,1.22,1.22,0,0,1,.34,1c0,11.16,0,22.31-.05,33.46,0,.36.54,0,.19,0-.06,0-.1,0-.1-.14.21-12.64-.67-25.3.59-37.66C80.81,133.64,82.81,135.72,80.77,136.38Z"/><path class="cls-4" d="M185.16,200.27c13,1.91,25.55,5.23,36.92,12.1a19.24,19.24,0,0,1,5.41,4.76c2.2,2.88,2.22,5.45,0,8.32-2.59,3.34-6.17,5.41-9.82,7.32-10.6,5.56-34.86,11.48-47.11,11.52.45-4.55,1.17-5.4,5.38-6.15,7.76-1.4,15.43-3.12,22.52-6.75a18.27,18.27,0,0,0,6.39-4.79c2.32-3,2.23-5.91-.27-8.75-3-3.41-7-5.18-11.14-6.73a105.83,105.83,0,0,0-26.13-5.75c-19.85-2.16-39.63-1.7-59.23,2.47a67,67,0,0,0-13.79,4.35,40.61,40.61,0,0,0-5,2.62c-7.28,4.67-7.36,10.35-.1,15s15.46,6.42,23.72,8.07a3.33,3.33,0,0,0,.54.07c4.16-.14,6.08,2.12,6.38,6.17-.1.05-.32.27-.52.24-15.63-1.59-31-4.37-45.4-11a35.64,35.64,0,0,1-9.45-6.07c-4.38-4-4.42-7.81-.13-11.91a35.36,35.36,0,0,1,10.37-6.59,102.83,102.83,0,0,1,27.42-8c18.17-3.2,36.5-4,54.88-3.37a177.39,177.39,0,0,1,24.42,2.46C182.69,200.11,184,199.79,185.16,200.27Z"/><path class="cls-4" d="M126.53,230.4c-.23-1.7.64-2.63,2.13-3.27a40.06,40.06,0,0,1,32.78-.11,4,4,0,0,1,2.57,3.66,18.14,18.14,0,0,1-9.84,17.91c-7.23,3.72-16.11,2.69-21.76-2.59-3.29-3.07-5.66-6.65-5.9-11.33A8.24,8.24,0,0,0,126.53,230.4Z"/><path class="cls-5" d="M135.16,70.42c-1.48.24-2.14,0-2.06-1.66.16-3.19-.28-6.41,1.28-9.44a12.1,12.1,0,0,1,13.42-6.45,11.89,11.89,0,0,1,9.33,11.57c0,2,.84,4.5-.36,5.68s-3.66-.13-5.58-.18"/><path class="cls-6" d="M80,197.27c-6.44,2.34-12.76,4.93-18.68,9.23a15.57,15.57,0,0,1,3.31-12.11,33.77,33.77,0,0,1,15.16-10.6c.8,1,.29,2,.11,3A24.92,24.92,0,0,0,80,197.27Z"/><path class="cls-7" d="M80,197.27c-1.37-.19-1.2-1.29-1.3-2.23a29.72,29.72,0,0,1,1.09-11.25,52.55,52.55,0,0,1,13-4.37c-4.34,4.27-6.48,9.33-5.52,15.5Z"/><path class="cls-8" d="M185.16,200.27c-4.3.34-8.45-.9-12.68-1.27-2.36-.21-4.77-.49-7.12-.71a232.19,232.19,0,0,0-32.3-.53,179.42,179.42,0,0,0-27.7,3,17.17,17.17,0,0,1-3.21,0c7.3-1.87,14.77-2.56,22.23-3.11a252.59,252.59,0,0,1,58.47,2A23.58,23.58,0,0,1,185.16,200.27Z"/><path class="cls-9" d="M127.57,188.59a12,12,0,0,1,6.33-1c1.65.13,3.33.23,5,.39C135.14,188.74,131.35,188.48,127.57,188.59Z"/><path class="cls-9" d="M151.62,188c3.15,0,6.28-.8,9.45-.09.66.15,1.45-.13,1.88.67C159.17,188.47,155.37,188.71,151.62,188Z"/><path class="cls-9" d="M138.84,188.06c3-1.41,6.24-.34,9.36-.58,1.13-.08,2.5-.6,3.48.6Z"/><path class="cls-9" d="M162.89,188.57c2.22-.39,4.48-1.34,6.5.56C167.22,189.05,165,189.23,162.89,188.57Z"/><path class="cls-9" d="M169.35,189.1c1.72-.65,3.4-.86,4.91.53A14,14,0,0,1,169.35,189.1Z"/><path class="cls-9" d="M174.58,189.67c1.45-.81,2.8-.91,4,.49A9.72,9.72,0,0,1,174.58,189.67Z"/><path class="cls-10" d="M126.53,230.4a4.28,4.28,0,0,1,0,4.27A8.94,8.94,0,0,1,126.53,230.4Z"/><path class="cls-2" d="M90.51,151.42a66.83,66.83,0,0,1,4.24-27.88,63.59,63.59,0,0,1,19.75-26.9c2.63-2.1,5.25-2,6.87.08s.95,4.67-1.53,6.73c-13.32,11.09-20.42,25.24-20.77,42.64-.11,5.63,0,11.26,0,16.89,0,3.5-1.48,5.26-4.31,5.25s-4.22-1.76-4.23-5.3C90.5,159.62,90.51,156.31,90.51,151.42Z"/><path class="cls-11" d="M80.77,136.38c1.11-1.77.54-3.95,1.53-5.78-1.94,14-.41,28-1.52,42V136.38Z"/><path class="cls-12" d="M209.21,172.76V141.44h.26v31.42Z"/><path class="cls-13" d="M144.54,246a12.49,12.49,0,0,1-8.09-3.26,4.66,4.66,0,0,1-.72-6.07,4.2,4.2,0,0,1,6-.7c2.12,1.6,3.87,1.68,6,0a4.21,4.21,0,0,1,6,.7,4.53,4.53,0,0,1-.63,6.07A12.79,12.79,0,0,1,144.54,246Z"/><circle cx="97.22" cy="134.59" r="22.67"/><circle class="cls-14" cx="106.01" cy="127.55" r="7.32"/><circle class="cls-14" cx="95.49" cy="138.07" r="3.2"/><ellipse class="cls-15" cx="218.36" cy="164.09" rx="14.16" ry="4.87"/><ellipse class="cls-15" cx="74.26" cy="163.5" rx="13.76" ry="4.87"/><path d="M106,161.42s16.79,28.68,29.42,8.1c4.42-7.2,4.13-19.47,4.13-19.47Z"/><polyline class="cls-16" points="148.08 94.94 135.38 128.9 169.76 119.54"/><ellipse class="cls-14" cx="186.32" cy="125.57" rx="15.25" ry="6.14" transform="translate(49.66 303.92) rotate(-86.52)"/><ellipse class="cls-14" cx="199.21" cy="130.51" rx="12.83" ry="4.6" transform="translate(-23.95 213.69) rotate(-53.67)"/><ellipse class="cls-14" cx="188.98" cy="144.93" rx="10.29" ry="13.07" transform="translate(-5.95 8.1) rotate(-2.42)"/><ellipse class="cls-17" cx="179.14" cy="144.14" rx="4.6" ry="8.89" transform="translate(-0.56 287.59) rotate(-77.42)"/><ellipse class="cls-17" cx="198.33" cy="141.92" rx="5.91" ry="4.6" transform="translate(-40.36 191.92) rotate(-47.42)"/></svg>