<svg id="Layer_1" data-name="Layer 1" xmlns="http://www.w3.org/2000/svg" viewBox="0 0 300.08 300.98"><defs><style>.cls-1{fill:#000100;}.cls-2{fill:#f1c844;}.cls-3{fill:#fefefe;}.cls-4{fill:#f0c844;}.cls-5{fill:#fefdfd;}.cls-6{fill:#eec944;}.cls-7{fill:#efc944;}.cls-8{fill:#f8d448;}.cls-9{fill:#f4ce46;}.cls-10{fill:#f7ce47;}.cls-11{fill:#fefefd;}.cls-12{fill:#fff;}.cls-13{fill:none;stroke:#000;stroke-linecap:round;stroke-miterlimit:10;stroke-width:4px;}.cls-14{fill:#ff92f7;}</style></defs><title>KARAOKE SMACKDOWN3</title><path class="cls-1" d="M218.56,159.9c0,5.65.05,11.31,0,17a2.78,2.78,0,0,0,1.68,2.91,33.69,33.69,0,0,1,11.43,9.46,23.07,23.07,0,0,1,4.61,14c0,4.65-.17,9.32.05,14,.28,6.12-2.31,10.75-6.83,14.52-5.32,4.45-11.53,7.21-18,9.43-13.86,4.75-28.21,6.92-42.75,8a11,11,0,0,0-4.86,1.53c-9.17,5.4-18.45,5.37-27.61-.06a10.24,10.24,0,0,0-4.62-1.46c-16.13-1.27-32-3.67-47.19-9.65a47,47,0,0,1-14.54-8.55c-4-3.58-6.21-7.88-6-13.4.19-4.15.18-8.32,0-12.47-.37-9.29,3.75-16.3,10.82-21.86a12.11,12.11,0,0,1,2.85-2c3.55-1.39,4.28-3.89,4.2-7.55-.25-10.39-.72-20.84.14-31.17,2.48-29.66,18.19-49.73,45.86-60.38,2.56-1,3.21-2.1,3.06-4.57-.3-4.94.1-9.78,2.85-14.16a19.23,19.23,0,0,1,35.59,9.92c0,2.48-.74,5.51.4,7.29s4.21,1.9,6.42,2.82c26,10.81,42.3,35.38,42.44,64C218.58,151.58,218.56,155.74,218.56,159.9Z"/><path class="cls-2" d="M90.26,140.22a53.57,53.57,0,0,1,12.09-30.3c16-19.61,36.77-27.61,61.44-21.79s39.79,22.2,45.56,47a47.51,47.51,0,0,1,1.15,10.64c0,9.14,0,18.28,0,27.43,0,1.51,0,2.25-2,1.6-13.91-4.62-28.33-6.31-42.87-7.13-5-.29-10-.39-14.94-.47-2.63,0-4.24,1.24-4.59,3.31-.46,2.82,1.34,4.71,4.6,4.74a271.05,271.05,0,0,1,29.33,1.56c11.67,1.36,23.18,3.39,33.83,8.72a29.6,29.6,0,0,1,11.15,9A14.14,14.14,0,0,1,228,204.73c-.21.08-.41.23-.49.18C216,197.35,203,194.12,189.69,191.67c-2.85-.52-5.71-1-8.57-1.48-1.15-.82-2.45-.4-3.69-.46l-.16.08-.14-.11c-1.45-.87-3-.25-4.57-.49l.05,0c-1.94-1.1-4-.19-6.05-.51l.06,0a21.9,21.9,0,0,0-6.9-.41,9.65,9.65,0,0,1-3.63-.13l.06,0a41.47,41.47,0,0,0-11.93,0l0,0c-2.87.58-5.77-.35-8.65.2-.62.12-1.33-.28-1.87.33-5.32.61-10.65,1.19-16,1.82-7.23.85-14.31,2.53-21.41,4.06-1.19-1.46-.85-3.22-.63-4.79.55-4,1.94-7.55,5.76-9.61,2.17-.52,4.33-1.07,6.51-1.55,2.82-.61,4.27-2.38,3.88-4.83s-2.39-3.63-5.32-3.11a93.4,93.4,0,0,0-15.16,4c-1.4.51-1.72.16-1.7-1.22.08-10.47.12-20.94.19-31.41a3,3,0,0,1,.39-1.91,1.12,1.12,0,0,1,.31.9c0,10.36,0,20.72,0,31.09,0,.33.51,0,.18,0-.06,0-.09,0-.09-.13.19-11.75-.62-23.52.55-35C90.29,137.67,92.16,139.6,90.26,140.22Z"/><path class="cls-2" d="M187.26,199.58c12.08,1.78,23.74,4.86,34.3,11.25a17.75,17.75,0,0,1,5,4.42c2,2.67,2.06,5.07,0,7.74-2.4,3.1-5.73,5-9.12,6.8-9.85,5.16-32.39,10.66-43.78,10.7.42-4.23,1.09-5,5-5.72,7.21-1.3,14.34-2.9,20.93-6.27a17,17,0,0,0,5.94-4.45c2.15-2.77,2.07-5.5-.25-8.13-2.79-3.17-6.53-4.81-10.36-6.25a98.14,98.14,0,0,0-24.27-5.35c-18.46-2-36.83-1.58-55,2.3a61.59,61.59,0,0,0-12.82,4,36.24,36.24,0,0,0-4.61,2.44c-6.77,4.33-6.85,9.61-.1,14s14.37,6,22,7.5a2.14,2.14,0,0,0,.5.06c3.87-.13,5.65,2,5.94,5.74-.1.05-.3.25-.49.23-14.53-1.49-28.8-4.07-42.19-10.22a33,33,0,0,1-8.78-5.64C71.06,221,71,217.47,75,213.65a33,33,0,0,1,9.63-6.12,96.07,96.07,0,0,1,25.49-7.45,246.71,246.71,0,0,1,51-3.13,164.56,164.56,0,0,1,22.69,2.29C185,199.44,186.15,199.14,187.26,199.58Z"/><path class="cls-2" d="M132.78,227.58c-.21-1.58.6-2.44,2-3a37.22,37.22,0,0,1,30.46-.11,3.7,3.7,0,0,1,2.39,3.4,16.87,16.87,0,0,1-9.15,16.65c-6.71,3.45-15,2.49-20.22-2.41-3.06-2.85-5.26-6.18-5.48-10.53A7.74,7.74,0,0,0,132.78,227.58Z"/><path class="cls-3" d="M153.48,78.34a66.78,66.78,0,0,0-12.68.58c-1.38.23-2,0-1.91-1.54.14-3-.27-6,1.18-8.77a11.23,11.23,0,0,1,12.48-6,11,11,0,0,1,8.66,10.75c0,1.81.79,4.18-.33,5.27s-3.41-.11-5.19-.16C154.78,78.45,153.87,78.37,153.48,78.34Z"/><path class="cls-4" d="M89.55,196.8c-6,2.18-11.85,4.58-17.36,8.58a14.47,14.47,0,0,1,3.08-11.26,31.29,31.29,0,0,1,14.08-9.85c.75.91.28,1.87.1,2.81A23.24,23.24,0,0,0,89.55,196.8Z"/><path class="cls-5" d="M89.55,196.8c-1.27-.18-1.12-1.2-1.21-2.07a27.8,27.8,0,0,1,1-10.46,49.07,49.07,0,0,1,12.13-4.06c-4,4-6,8.67-5.13,14.4Z"/><path class="cls-6" d="M187.26,199.58c-4,.32-7.85-.83-11.79-1.18-2.18-.19-4.43-.45-6.61-.66a216.44,216.44,0,0,0-30-.49,166.65,166.65,0,0,0-25.74,2.8,15.48,15.48,0,0,1-3,0,117.06,117.06,0,0,1,20.65-2.88,235.2,235.2,0,0,1,54.33,1.85C185.84,199.17,186.54,199.4,187.26,199.58Z"/><path class="cls-7" d="M133.74,188.73a11.17,11.17,0,0,1,5.89-.89c1.53.12,3.09.21,4.63.36C140.78,188.87,137.25,188.62,133.74,188.73Z"/><path class="cls-7" d="M156.09,188.22c2.93,0,5.84-.75,8.78-.08.62.14,1.35-.12,1.75.62C163.11,188.62,159.58,188.84,156.09,188.22Z"/><path class="cls-7" d="M144.22,188.24c2.82-1.31,5.8-.32,8.69-.54,1.06-.08,2.33-.55,3.24.56Z"/><path class="cls-7" d="M166.56,188.72c2.07-.37,4.17-1.25,6.05.51A22.8,22.8,0,0,1,166.56,188.72Z"/><path class="cls-7" d="M172.56,189.21c1.61-.6,3.17-.8,4.57.49A13.3,13.3,0,0,1,172.56,189.21Z"/><path class="cls-7" d="M177.43,189.73c1.34-.75,2.6-.84,3.69.46A9.05,9.05,0,0,1,177.43,189.73Z"/><path class="cls-8" d="M132.78,227.58a4,4,0,0,1,0,4A8.46,8.46,0,0,1,132.78,227.58Z"/><path class="cls-3" d="M99.31,154.19a62,62,0,0,1,3.94-25.91,59.15,59.15,0,0,1,18.35-25c2.44-2,4.88-1.88,6.38.08s.89,4.34-1.41,6.25c-12.39,10.31-19,23.46-19.3,39.63-.11,5.23,0,10.46,0,15.69,0,3.25-1.37,4.89-4,4.88s-3.92-1.63-3.93-4.92C99.3,161.81,99.31,158.74,99.31,154.19Z"/><path class="cls-9" d="M90.26,140.22c1-1.65.5-3.67,1.42-5.38-1.8,13-.38,26-1.41,39V140.22Z"/><path class="cls-10" d="M209.6,174v-29.1h.25v29.2Z"/><path class="cls-11" d="M149.52,242a11.57,11.57,0,0,1-7.52-3,4.32,4.32,0,0,1-.67-5.64,3.9,3.9,0,0,1,5.54-.65c2,1.49,3.6,1.56,5.56,0a3.91,3.91,0,0,1,5.54.64,4.22,4.22,0,0,1-.58,5.64A11.87,11.87,0,0,1,149.52,242Z"/><circle cx="104.75" cy="138.55" r="21.06"/><circle cx="195.93" cy="139.23" r="20.74"/><circle class="cls-12" cx="112.92" cy="132.01" r="6.8"/><circle class="cls-12" cx="203.76" cy="133.94" r="7.73"/><circle class="cls-12" cx="103.14" cy="141.78" r="2.97"/><circle class="cls-12" cx="192.03" cy="142.78" r="2.97"/><path class="cls-13" d="M126.27,152.05s6,12.81,16.78,8.47a21.49,21.49,0,0,0,6.85-4s13,14,23.15-3.6"/><ellipse class="cls-14" cx="217.32" cy="165.97" rx="13.16" ry="4.53"/><ellipse class="cls-14" cx="83.42" cy="165.42" rx="12.79" ry="4.53"/></svg>