<svg id="Layer_1" data-name="Layer 1" xmlns="http://www.w3.org/2000/svg" xmlns:xlink="http://www.w3.org/1999/xlink" viewBox="0 0 300.08 300.98"><defs><style>.cls-1,.cls-326,.cls-329,.cls-331,.cls-332{fill:none;}.cls-1,.cls-325,.cls-331,.cls-332{stroke:#000;}.cls-1,.cls-330,.cls-331,.cls-332{stroke-miterlimit:10;}.cls-1{stroke-width:8px;}.cls-2{stroke:#fc13d4;stroke-width:10px;fill:url(#radial-gradient);}.cls-2,.cls-325,.cls-326,.cls-329,.cls-332{stroke-linecap:round;}.cls-2,.cls-325,.cls-326,.cls-329{stroke-linejoin:round;}.cls-3{fill:#fe91f6;}.cls-4{fill:#181818;}.cls-5{fill:#131313;}.cls-6{fill:#3e3e3e;}.cls-7{fill:#cacaca;}.cls-8{fill:#8b8b8b;}.cls-9{fill:#161616;}.cls-10{fill:#8d8e8d;}.cls-11{fill:#202020;}.cls-12{fill:#cbcbcb;}.cls-13{fill:#d7d7d7;}.cls-14{fill:#ededed;}.cls-15{fill:#2c2d2c;}.cls-16{fill:#1e1e1e;}.cls-17{fill:#bababa;}.cls-18{fill:#2f2f2f;}.cls-19{fill:#808180;}.cls-20{fill:#121312;}.cls-21{fill:#e1e1e1;}.cls-22{fill:#373737;}.cls-23{fill:#eaeaea;}.cls-24{fill:#c0bfc0;}.cls-25{fill:#939393;}.cls-26{fill:#929292;}.cls-27{fill:#e3e4e3;}.cls-28{fill:#353635;}.cls-29{fill:#ececec;}.cls-30{fill:#424342;}.cls-31{fill:#cac9ca;}.cls-32{fill:#e6e7e6;}.cls-33{fill:#898989;}.cls-34{fill:#e9e9e9;}.cls-35{fill:#111;}.cls-36{fill:#0d0d0d;}.cls-37{fill:#949594;}.cls-38{fill:#c8c8c8;}.cls-39{fill:#8b8c8b;}.cls-40{fill:#3d3e3d;}.cls-41{fill:#454545;}.cls-42{fill:#535353;}.cls-43{fill:#8f8f8f;}.cls-44{fill:#ddd;}.cls-45{fill:#0f100f;}.cls-46{fill:#e0e1e0;}.cls-47{fill:#9e9e9e;}.cls-48{fill:#525252;}.cls-49{fill:#e5e5e5;}.cls-50{fill:#d0d0d0;}.cls-51{fill:#3c3c3c;}.cls-52{fill:#c9c9c9;}.cls-53{fill:#4c4c4c;}.cls-54{fill:#aeafae;}.cls-55{fill:#e7e7e7;}.cls-56{fill:#303130;}.cls-57{fill:#525352;}.cls-58{fill:#434443;}.cls-59{fill:#cacbca;}.cls-60{fill:#232323;}.cls-61{fill:#b0b0b0;}.cls-62{fill:#d6d7d6;}.cls-63{fill:#1b1b1b;}.cls-64{fill:#979897;}.cls-65{fill:#1a1a1a;}.cls-66{fill:#292a29;}.cls-67{fill:#e8e9e8;}.cls-68{fill:#c8c9c8;}.cls-69{fill:#969696;}.cls-70{fill:#4b4b4b;}.cls-71{fill:#3a3a3a;}.cls-72{fill:#d2d2d2;}.cls-73{fill:#959595;}.cls-74{fill:#b5b5b5;}.cls-75{fill:#c2c3c2;}.cls-76{fill:#282828;}.cls-77{fill:#6c6c6c;}.cls-78{fill:#333;}.cls-79{fill:#9a9a9a;}.cls-80{fill:#cfcfcf;}.cls-81{fill:#9fa09f;}.cls-82{fill:#171717;}.cls-83{fill:#cdcecd;}.cls-84{fill:#b9b9b9;}.cls-85{fill:#e8e8e8;}.cls-86{fill:#414241;}.cls-87{fill:#4b4c4b;}.cls-88{fill:#3c3d3c;}.cls-89{fill:#a4a4a4;}.cls-90{fill:#595959;}.cls-91{fill:#acacac;}.cls-92{fill:#8a8b8a;}.cls-93{fill:#7e7e7e;}.cls-94{fill:#323332;}.cls-95{fill:#3a3b3a;}.cls-96{fill:#abacab;}.cls-97{fill:#5c5c5c;}.cls-98{fill:#bcbdbc;}.cls-99{fill:#7c7c7c;}.cls-100{fill:#bebfbe;}.cls-101{fill:#666;}.cls-102{fill:#c2c2c2;}.cls-103{fill:#3b3c3b;}.cls-104{fill:#a7a8a7;}.cls-105{fill:#555;}.cls-106{fill:#4d4e4d;}.cls-107{fill:#a4a5a4;}.cls-108{fill:#4f4f4f;}.cls-109{fill:#8a8a8a;}.cls-110{fill:#888;}.cls-111{fill:#dedede;}.cls-112{fill:#252525;}.cls-113{fill:#b2b1b2;}.cls-114{fill:#707070;}.cls-115{fill:#232423;}.cls-116{fill:#828382;}.cls-117{fill:#818281;}.cls-118{fill:#dadada;}.cls-119{fill:#515151;}.cls-120{fill:#b6b7b6;}.cls-121{fill:#8c8d8c;}.cls-122{fill:#8c8c8c;}.cls-123{fill:#909090;}.cls-124{fill:#a3a4a3;}.cls-125{fill:#505050;}.cls-126{fill:#909190;}.cls-127{fill:#333433;}.cls-128{fill:#a2a2a2;}.cls-129{fill:#2b2c2b;}.cls-130{fill:#d5d5d5;}.cls-131{fill:#b3b4b3;}.cls-132{fill:#676767;}.cls-133{fill:#868686;}.cls-134{fill:#3f403f;}.cls-135{fill:#a3a3a3;}.cls-136{fill:#c6c6c6;}.cls-137{fill:#939493;}.cls-138{fill:#9c9d9c;}.cls-139{fill:#d6d6d6;}.cls-140{fill:#868786;}.cls-141{fill:#676867;}.cls-142{fill:#df1414;}.cls-143{fill:#6ba946;}.cls-144{fill:#05f;}.cls-145{fill:#fefefe;}.cls-146{fill:#fdfdfd;}.cls-147{fill:#6cac47;}.cls-148{fill:#0f1a0a;}.cls-149{fill:#0f0f0f;}.cls-150{fill:#243a17;}.cls-151{fill:#070c04;}.cls-152{fill:#6dac47;}.cls-153{fill:#1f1f1f;}.cls-154{fill:#585958;}.cls-155{fill:#5e953d;}.cls-156{fill:#3a5d25;}.cls-157{fill:#222;}.cls-158{fill:#47722e;}.cls-159{fill:#e3e3e3;}.cls-160{fill:#0b1206;}.cls-161{fill:#313131;}.cls-162{fill:#48732f;}.cls-163{fill:#0e1608;}.cls-164{fill:#191919;}.cls-165{fill:#253c18;}.cls-166{fill:#686868;}.cls-167{fill:#535453;}.cls-168{fill:#1d2e12;}.cls-169{fill:#5d943c;}.cls-170{fill:#111b0a;}.cls-171{fill:#16230e;}.cls-172{fill:#10190a;}.cls-173{fill:#c7c8c7;}.cls-174{fill:#1e1f1e;}.cls-175{fill:#598d3a;}.cls-176{fill:#558738;}.cls-177{fill:#121e0b;}.cls-178{fill:#101a0a;}.cls-179{fill:#141414;}.cls-180{fill:#262626;}.cls-181{fill:#1c1c1c;}.cls-182{fill:#3c5f27;}.cls-183{fill:#101010;}.cls-184{fill:#464646;}.cls-185{fill:#192810;}.cls-186{fill:#1d1d1d;}.cls-187{fill:#646464;}.cls-188{fill:#4e7d33;}.cls-189{fill:#1c2c12;}.cls-190{fill:#2a441b;}.cls-191{fill:#4c7931;}.cls-192{fill:#325121;}.cls-193{fill:#2c471c;}.cls-194{fill:#1b2c12;}.cls-195{fill:#111211;}.cls-196{fill:#4d7c33;}.cls-197{fill:#5c5d5c;}.cls-198{fill:#3d6127;}.cls-199{fill:#1f3214;}.cls-200{fill:#919191;}.cls-201{fill:#28411a;}.cls-202{fill:#28401a;}.cls-203{fill:#41692a;}.cls-204{fill:#212121;}.cls-205{fill:#345322;}.cls-206{fill:#345422;}.cls-207{fill:#2b451b;}.cls-208{fill:#568939;}.cls-209{fill:#345321;}.cls-210{fill:#4a4a4a;}.cls-211{fill:#17250f;}.cls-212{fill:#578b39;}.cls-213{fill:#565756;}.cls-214{fill:#223816;}.cls-215{fill:#273f19;}.cls-216{fill:#528235;}.cls-217{fill:#1a2910;}.cls-218{fill:#5b903b;}.cls-219{fill:#0d1608;}.cls-220{fill:#14200c;}.cls-221{fill:#c1c2c1;}.cls-222{fill:#2e4a1e;}.cls-223{fill:#e0e0e0;}.cls-224{fill:#46702e;}.cls-225{fill:#182810;}.cls-226{fill:#243b17;}.cls-227{fill:#558637;}.cls-228{fill:#538436;}.cls-229{fill:#959695;}.cls-230{fill:#47712e;}.cls-231{fill:#1d2d13;}.cls-232{fill:#cecece;}.cls-233{fill:#858585;}.cls-234{fill:#518135;}.cls-235{fill:#434343;}.cls-236{fill:#3b3b3b;}.cls-237{fill:#1e3113;}.cls-238{fill:#0e1709;}.cls-239{fill:#203414;}.cls-240{fill:#2b2b2b;}.cls-241{fill:#0c1408;}.cls-242{fill:#304c1e;}.cls-243{fill:#203415;}.cls-244{fill:#253b18;}.cls-245{fill:#223616;}.cls-246{fill:#203315;}.cls-247{fill:#48742f;}.cls-248{fill:#2d491d;}.cls-249{fill:#558838;}.cls-250{fill:#243a18;}.cls-251{fill:#456f2d;}.cls-252{fill:#4a7530;}.cls-253{fill:#4f7f34;}.cls-254{fill:#2e491d;}.cls-255{fill:#3d6128;}.cls-256{fill:#446c2c;}.cls-257{fill:#1a2b11;}.cls-258{fill:#588b39;}.cls-259{fill:#1e3114;}.cls-260{fill:#1b2a11;}.cls-261{fill:#6e6f6e;}.cls-262{fill:#bfbfbf;}.cls-263{fill:#151515;}.cls-264{fill:#528236;}.cls-265{fill:#121412;}.cls-266{fill:#272727;}.cls-267{fill:#5c913b;}.cls-268{fill:#304d1f;}.cls-269{fill:#172710;}.cls-270{fill:#223716;}.cls-271{fill:#0e1609;}.cls-272{fill:#737473;}.cls-273{fill:#2f4b1e;}.cls-274{fill:#3d6327;}.cls-275{fill:#41682a;}.cls-276{fill:#1e3013;}.cls-277{fill:#cccdcc;}.cls-278{fill:#29431b;}.cls-279{fill:#272827;}.cls-280{fill:#1a1b1a;}.cls-281{fill:#2e2e2e;}.cls-282{fill:#363736;}.cls-283{fill:#9d9d9d;}.cls-284{fill:#797979;}.cls-285{fill:#578939;}.cls-286{fill:#15230d;}.cls-287{fill:#4f7e33;}.cls-288{fill:#797879;}.cls-289{fill:#c3c3c3;}.cls-290{fill:#666766;}.cls-291{fill:#e2e2e2;}.cls-292{fill:#babbba;}.cls-293{fill:#41692b;}.cls-294{fill:#598d3b;}.cls-295{fill:#9b9c9b;}.cls-296{fill:#373837;}.cls-297{fill:#16250e;}.cls-298{fill:#395c25;}.cls-299{fill:#598c3a;}.cls-300{fill:#18260f;}.cls-301{fill:#b2b2b2;}.cls-302{fill:#182610;}.cls-303{fill:#335321;}.cls-304{fill:#528136;}.cls-305{fill:#2d481d;}.cls-306{fill:#6e6e6e;}.cls-307{fill:#4d7b32;}.cls-308{fill:#42682a;}.cls-309{fill:#42692a;}.cls-310{fill:#3c6128;}.cls-311{fill:#456d2d;}.cls-312{fill:#639d41;}.cls-313{fill:#5e963d;}.cls-314{fill:#568938;}.cls-315{fill:#548537;}.cls-316{fill:#4e7b32;}.cls-317{fill:#538437;}.cls-318{fill:#5d933d;}.cls-319{fill:#436c2b;}.cls-320{fill:#5b913c;}.cls-321{fill:#979797;}.cls-322{fill:#e4e4e4;}.cls-323{fill:#717171;}.cls-324{fill:#d1d1d1;}.cls-325{fill:#e01414;}.cls-325,.cls-326,.cls-332{stroke-width:7px;}.cls-326{stroke:#fff;}.cls-327,.cls-330{fill:#fff;}.cls-328{fill:#ff92f7;}.cls-329{stroke:#e01414;}.cls-330{stroke:#231f20;}.cls-331{stroke-width:8.3px;}</style><radialGradient id="radial-gradient" cx="150.01" cy="151.18" r="140.94" gradientUnits="userSpaceOnUse"><stop offset="0.24" stop-color="#05f"/><stop offset="0.3" stop-color="#076dd2"/><stop offset="0.37" stop-color="#0e86a1"/><stop offset="0.44" stop-color="#149d76"/><stop offset="0.52" stop-color="#19b051"/><stop offset="0.59" stop-color="#1dc034"/><stop offset="0.68" stop-color="#21cc1d"/><stop offset="0.77" stop-color="#23d40d"/><stop offset="0.87" stop-color="#25d903"/><stop offset="1" stop-color="#25db00"/></radialGradient></defs><title>KARAOKE SMACKDOWN3</title><path class="cls-1" d="M134,154.08c8-29.79-9.89-53.48-9.89-53.48"/><path class="cls-1" d="M170.36,139.86s-23-40.8-68-47.71c-28.68-4.4-48.67,45-48.67,45s60.68,20,73.66-35.11"/><polygon class="cls-2" points="236.33 288.91 148.04 240.67 58.24 286.05 76.84 187.17 5.94 115.8 105.72 102.93 151.69 13.44 194.76 104.37 294.08 120.43 220.91 189.49 236.33 288.91"/><path d="M147.4,106.65c.33.69,1,.87,1.65,1.22.14.17.37.21.53.36l.52.45,2.47,2.06a1.17,1.17,0,0,0,.51.4.73.73,0,0,1,.29.26c0,.31.16.4.43.38a10.58,10.58,0,0,1,.89.74l.56.5a17.06,17.06,0,0,1,2.9,2.86,1,1,0,0,0,.5.42.73.73,0,0,1,.29.26,1.16,1.16,0,0,0,.81.82.69.69,0,0,1,.27.29.92.92,0,0,0,.42.49,5.65,5.65,0,0,1,1.61,1.69,6,6,0,0,0,1.33,1.59.8.8,0,0,1,.3.28,1.17,1.17,0,0,0,.81.82c.29.16.28.55.54.74a2.48,2.48,0,0,1,.17.37.77.77,0,0,0,.41.49,5.35,5.35,0,0,1,1.63,2,6.26,6.26,0,0,0,.45.57c.14.15.17.37.36.48a22.71,22.71,0,0,0,2,2.92.55.55,0,0,1,.22.34c0,.12,0,.25.08.38s.24.31.39.45a5.9,5.9,0,0,0,.43.59c.13.15.17.37.36.48.57,1,1.14,2.09,1.74,3.11.14.23.37.52.72.2a1.49,1.49,0,0,1,.74-.25c.49-.06,1,.13,1.44-.27.25-.11.38-.39.65-.46.52-.08,1,0,1.55-.07a19.92,19.92,0,0,1,2.32,0,2,2,0,0,0,1.15-.27,26.59,26.59,0,0,1,3-.06,2.32,2.32,0,0,0,1.19-.19,29.15,29.15,0,0,1,5.62-2.16A16.92,16.92,0,0,1,212,146.67a6.93,6.93,0,0,0,1.2,3.48,32.81,32.81,0,0,1,4.17,8.3.44.44,0,0,1-.39.41c-1.63.49-3.25,1-4.88,1.53a.78.78,0,0,1-.5,0c-.66-.58-.74-1.45-1.11-2.18-.12-.24-.12-.61-.43-.65s-.4.32-.55.54a16.61,16.61,0,0,1-9.44,6.94,17.3,17.3,0,0,1-22-14.37,13.08,13.08,0,0,1,.17-5.36,18.83,18.83,0,0,1,.82-2.87c.09-.22.3-.46.12-.67s-.52-.08-.77,0a28.3,28.3,0,0,0-12.32,5.94,28.62,28.62,0,0,0-4,40.25,19.32,19.32,0,0,0,2.16,2.36,1.39,1.39,0,0,1,.27,1.93,9.06,9.06,0,0,1-2.89,3.17,1.19,1.19,0,0,1-1.66-.14,33.34,33.34,0,0,1-6.51-8.34,34.62,34.62,0,0,1-4.21-13.06,36.36,36.36,0,0,1,1-13.38c.34-1.29.34-1.29-.93-1.79A29.28,29.28,0,0,0,124.24,160c-.88.47-.88.61,0,1.1a12.44,12.44,0,0,1,2.38,1.61,18.81,18.81,0,0,1,4.08,4.68c3.54,6.78,3.21,13.33-1.43,19.43a16.25,16.25,0,0,1-11.68,6.41,17.91,17.91,0,0,1-7.69-.93,1,1,0,0,0-.87-.1,16.64,16.64,0,0,0,.82,3.23,3.17,3.17,0,0,1,.31,1.6.7.7,0,0,1-.45.39c-1.71.45-3.38,1-5.08,1.5a.48.48,0,0,1-.3-.07,34.61,34.61,0,0,1-2.21-11.25,5,5,0,0,0-.74-2.6,16.92,16.92,0,0,1,12.33-25.72,2.3,2.3,0,0,0,1.25-.63,36.13,36.13,0,0,1,16.76-7.87c.24-.06.38-.27.55-.43.44-.45.1-1.13.46-1.61h0c.48-.69.07-1.48.27-2.2a1.15,1.15,0,0,1,.14-.32,9.43,9.43,0,0,0,.16-2.85c0-2.11.89-4.18.44-6.26-.49-2.25-.24-4.53-.65-6.76a1.38,1.38,0,0,1-.17-.48c-.13-.66.14-1.37-.22-2a1.47,1.47,0,0,1-.14-.28,5.06,5.06,0,0,1-.08-1.23c0-.42.09-.87-.22-1.24a1,1,0,0,1-.11-.28,7.32,7.32,0,0,0-.69-2.68c-.71-.3-.24-1-.49-1.48a6.1,6.1,0,0,1-.74-2.42c-.22-.25-.1-.64-.37-.87l0-.35c-.21-.27-.18-.63-.37-.89a1.41,1.41,0,0,1-.13-.24,1.24,1.24,0,0,1-.09-.38c0-.12,0-.24-.07-.36a.77.77,0,0,0-.37-.44c-.67-.54-.65-1.48-1.2-2.08a.84.84,0,0,1-.22-.36c-.07-.29,0-.68-.54-.54-.41.41-.11,1-.27,1.43s0,.93,0,1.39a3.42,3.42,0,0,0-.46.94c-.13.21-.32.37-.46.57-.36.41-.15.94-.28,1.4,0,.26,0,.54-.26.7a1.61,1.61,0,0,0-.36.87c-.18.13-.22.36-.38.49s-.35.2-.39.43,0,.25,0,.37a2.83,2.83,0,0,1,0,.41.58.58,0,0,1-.23.34l0,0a.83.83,0,0,1-.27.29c-.37.15-.26.59-.5.81a11.71,11.71,0,0,1-2,3.31,1.34,1.34,0,0,0-.11.37c-.17.14-.22.37-.36.53s-.3.34-.44.52a1.38,1.38,0,0,1-.81.83.94.94,0,0,0-.42.5.88.88,0,0,1-.25.29l-2.89,2.89a.81.81,0,0,1-.3.25,1.06,1.06,0,0,0-.49.42c0,.31-.19.38-.44.37-.2.27-.64.16-.77.52a.94.94,0,0,1-.27.29c-1.12.75-2.24,1.49-3.34,2.26a1.15,1.15,0,0,1-.74.26c-.27.23-.7.17-.94.46a5.56,5.56,0,0,0-.54.42,1.12,1.12,0,0,1-.38.15l-.4.08a10.22,10.22,0,0,1-2.09,1.18c-.07.53-.51.31-.81.39a2,2,0,0,1-1,.27,5.85,5.85,0,0,0-2.37.8c-1.68.64-3.44.91-5.14,1.42-.19.16-.46.18-.63.38l-.38,0c-.4.27-1,.1-1.33.52A3.33,3.33,0,0,1,92,142c-.27,0-.55,0-.82,0-.59,0-1.25-.17-1.69.44a1.26,1.26,0,0,1-.46.16c-.83.12-1.7-.17-2.5.22-.31.2-.72.06-1,.32a136.12,136.12,0,0,1-15,.41c-.57-.32-1.18-.12-1.78-.17-.39,0-.81.08-1.16-.2l-.6,0c-.18-.17-.44-.21-.64-.36a10.1,10.1,0,0,0-2.26-.25.79.79,0,0,1-.45-.11c-.51-.65-1.23-.36-1.87-.42H60.9c-.41,0-.81,0-1.22,0a1.55,1.55,0,0,1-1.21-.3l-.35,0c-.47-.33-1-.06-1.54-.26a3.11,3.11,0,0,0-1.67-.32,5.61,5.61,0,0,1-1.16-.07,2.87,2.87,0,0,0-1.79-.35,6.93,6.93,0,0,1-2.18-.14.67.67,0,0,1,0-.88h0c.36-.34,0-.92.41-1.25a2,2,0,0,0,.43-1.22c.29-.3.06-.78.37-1.07-.09-.49.35-.79.43-1.22a1,1,0,0,0,.34-.5,2.56,2.56,0,0,0,0-.39,2,2,0,0,1,0-.41.64.64,0,0,1,.21-.35c.37-.16.38-.5.41-.83.33-.27.09-.76.38-1l1.68-4.11c.18-.14.22-.38.36-.55s.23-.67.44-1c-.13-.49.22-.81.43-1.17.29-.2.14-.62.41-.83h0c.3-.21.15-.62.41-.84h0a.86.86,0,0,0,.35-.5c0-.13,0-.26.07-.39a.65.65,0,0,1,.21-.33l0,0c.15-.2.18-.47.35-.67l0,0c.29-.2.13-.62.42-.82.21-.45.31-1,.77-1.28.37-.15.19-.6.44-.82h0c.33-.17.16-.61.43-.82V117c.17-.14.21-.35.35-.51a3.47,3.47,0,0,0,.44-.57,4.38,4.38,0,0,1,1.25-2,.82.82,0,0,0,.37-.5c0-.13,0-.26.07-.39a.51.51,0,0,1,.23-.32,1.5,1.5,0,0,0,.83-1.2.63.63,0,0,1,.28-.3c.49-.27.63-.8.92-1.22a5.51,5.51,0,0,1,1.62-2.06,11.15,11.15,0,0,1,1.17-1.21l.16-.36a1.64,1.64,0,0,1,.14-.22,2.83,2.83,0,0,0,.39-.52,11.64,11.64,0,0,1,2.31-2.82.64.64,0,0,0,.2-.42,7.56,7.56,0,0,1,1.2-1.33,1.18,1.18,0,0,1,.37-.14.45.45,0,0,0,.47-.46,1.24,1.24,0,0,1,.14-.38,4.63,4.63,0,0,1,.92-.79c1-.76,1.92-1.51,2.86-2.3a.71.71,0,0,1,.43-.18c.18-.26.59-.13.75-.43a3.54,3.54,0,0,1,.16-.34.54.54,0,0,1,.19-.18,1.24,1.24,0,0,1,.38-.09l.37-.08a7.65,7.65,0,0,0,.81-.8A4.82,4.82,0,0,1,82,93.19c.24-.23.69-.11.83-.5a.7.7,0,0,1,.28-.26,36,36,0,0,0,3.27-1.68.7.7,0,0,1,.38-.22,2,2,0,0,1,.43,0h.41a4.52,4.52,0,0,0,.52,0c.25,0,.27-.26.33-.44a.47.47,0,0,1,.23-.3l.76,0c.35-.34.93,0,1.26-.4h0a1.12,1.12,0,0,1,.77-.19,3.57,3.57,0,0,0,1.74-.25c.19-.15.44-.18.61-.36l.4,0c.65-.39,1.51,0,2.12-.56a8,8,0,0,1,1.3-.05h6.77a9.08,9.08,0,0,1,1.28,0,4.85,4.85,0,0,0,2.13.38,1.22,1.22,0,0,1,.5.08c.66.51,1.54.12,2.24.52l.38,0c.35.36.9,0,1.26.38h0c.35.4.83.16,1.25.23a1.54,1.54,0,0,1,.6.09c.29.45.88.2,1.23.53h0c.23.34.59.35,1,.36a.93.93,0,0,1,.68.26c.38.21.72.52,1.2.43.18.14.4.2.58.33.24.29.66.21.92.47,1.35.3,2.43,1.19,3.71,1.65.13.19.37.23.53.36.25.29.67.21.93.46.29.08.75-.18.82.38.37.33.94.35,1.26.77a2.63,2.63,0,0,0,.39.06h.42a2.15,2.15,0,0,1,.43,0,.68.68,0,0,1,.36.22h0a4.65,4.65,0,0,0,.56.34c.25.29.66.22.93.45a20.91,20.91,0,0,1,3.71,1.66c.12.2.36.23.53.37s.66.23,1,.44a5.76,5.76,0,0,1,2.43,1.25.77.77,0,0,0,.5.36l.38.07a.56.56,0,0,1,.33.23h0c.16.14.36.2.52.33a4.28,4.28,0,0,0,.58.45,23,23,0,0,1,3.72,2.25,1.68,1.68,0,0,0,.72.3.55.55,0,0,1,.3.26c.13.37.58.26.77.53.24,0,.44.08.45.38a.92.92,0,0,0,.51.4,2,2,0,0,1,.36.17C146.84,106.39,147.2,106.4,147.4,106.65Z"/><path d="M219.17,167a34.59,34.59,0,0,1-4.74,20.43c-6,9.82-14.66,15.56-26.09,17a33.65,33.65,0,0,1-17-2.2c-.6-.24-.82-.14-1.12.43-5.75,10.7-14.59,17.31-26.59,19.17-11.54,1.8-21.72-1.48-30.33-9.43a31.26,31.26,0,0,1-5.55-6.73.31.31,0,0,1,.12-.15c1.94-.64,3.85-1.35,5.84-1.82.7.31,1,1,1.49,1.53a29.71,29.71,0,0,0,43.45,2.46,28.22,28.22,0,0,0,5.43-7,5.64,5.64,0,0,1,1.49-1.55,13.48,13.48,0,0,0,3.48-3.89.9.9,0,0,1,1.44-.41,28.25,28.25,0,0,0,15.79,3.45,27.86,27.86,0,0,0,13.46-4.5,28.8,28.8,0,0,0,13.18-24,4.14,4.14,0,0,1,.26-2.41c1.66-.57,3.41-.77,5.08-1.28C219.1,165.88,219.1,166.51,219.17,167Z"/><path class="cls-3" d="M219.17,167c-.07-.68-.31-.85-1-.59a29,29,0,0,1-5,1.13.91.91,0,0,1-.62.33,11.84,11.84,0,0,1-6-.54,1.89,1.89,0,0,1-1-2.94,10,10,0,0,1,6.05-4.09l5.77-1.86a41.92,41.92,0,0,1,5.92-.46,8.84,8.84,0,0,1,2.8.57,1.68,1.68,0,0,1,.86,2.79,9.19,9.19,0,0,1-3.63,2.94,22.89,22.89,0,0,1-3.27,1.48A1.12,1.12,0,0,0,219.17,167Z"/><path class="cls-3" d="M113.83,203.84a38.89,38.89,0,0,1-6,1.86c-2.4.4-4.79.89-7.24.39h-.1c-1-.24-2.11-.4-2.5-1.54s.37-1.92,1.09-2.6a16.93,16.93,0,0,1,5.28-3.14,41.62,41.62,0,0,1,5.75-1.8,3.56,3.56,0,0,1,2.25-.59c2-.15,4.06-.39,6,.35,1.65.63,2.19,2,1.2,3.34A9.59,9.59,0,0,1,113.83,203.84Z"/><path class="cls-4" d="M133.17,130.15a.42.42,0,0,1,.38.29,1,1,0,0,1,0,.3c-.25,3,.76,6,.37,8.94a57.48,57.48,0,0,0-.36,6.28.44.44,0,0,1-.41.49,5.74,5.74,0,0,1,0-3.31,35.82,35.82,0,0,0,0-9.48A6.26,6.26,0,0,1,133.17,130.15Z"/><path class="cls-5" d="M95.4,140.86c.07-.11.12-.31.21-.32a26.42,26.42,0,0,0,7.13-2.13c.09,0,.21,0,.31,0a.36.36,0,0,1,.08.38c-.12.22-.37.27-.54.42a24.87,24.87,0,0,0-3.24,1,5.35,5.35,0,0,0-.84.25c-.31.29-.78.09-1.09.35l-.77,0A1,1,0,0,1,95.4,140.86Z"/><path class="cls-6" d="M104.5,88H97.43c-.08-.15-.09-.28.08-.36h6.95C104.61,87.78,104.61,87.9,104.5,88Z"/><path class="cls-7" d="M186,134.09c-.38.49-.92.33-1.41.35l-2.75,0a3.39,3.39,0,0,1-2.2.1.32.32,0,0,1,0-.5C181.74,134.06,183.88,133.94,186,134.09Z"/><path class="cls-8" d="M133.17,130.15c-.08,1.17.17,2.34,0,3.51-.64-.21-.29-.75-.36-1.14a13.13,13.13,0,0,1-.07-1.54,1.4,1.4,0,0,1-.15-1,.54.54,0,0,1,.16-.26c.16-.06.3-.07.4.1Z"/><path class="cls-9" d="M131.47,122.12c.71.47.65,1.29.86,2a2.91,2.91,0,0,1,0,.93.28.28,0,0,1-.39,0C132,124,131.26,123.13,131.47,122.12Z"/><path class="cls-10" d="M133.15,143.14c.19,1.1-.07,2.21,0,3.31h0a.25.25,0,0,1-.38,0c0-.94,0-1.88,0-2.82C132.81,143.39,132.84,143.17,133.15,143.14Z"/><path class="cls-11" d="M104.91,138c0-.23.07-.4.32-.45a5.86,5.86,0,0,0,1.74-1,.44.44,0,0,1,0,.61A2.92,2.92,0,0,1,104.91,138Z"/><path class="cls-12" d="M67.55,143.16c1,.06,2-.29,2.94.37a14.31,14.31,0,0,1-2.45,0C67.77,143.56,67.58,143.46,67.55,143.16Z"/><path class="cls-11" d="M61.77,141.71h1.29c.44,0,.59.2.57.6a1.11,1.11,0,0,1-1.27.05l-.59-.06A.41.41,0,0,1,61.77,141.71Z"/><path class="cls-13" d="M56.62,141.28c.49.17,1.13-.23,1.5.39l-2.15,0c-.29,0-.55,0-.6-.4A1,1,0,0,1,56.62,141.28Z"/><path class="cls-14" d="M71.7,101.08a2.81,2.81,0,0,1-1.26,1.22c-.07-1,.74-1.3,1.25-1.86A.51.51,0,0,1,71.7,101.08Z"/><path class="cls-15" d="M163.29,121.69c-.47-.57-1.31-.89-1.24-1.84.6.21.82.82,1.25,1.22A.45.45,0,0,1,163.29,121.69Z"/><path class="cls-16" d="M89.42,142.31c.21-1.18,1.12-.37,1.67-.59a.42.42,0,0,1,0,.59l-.39.05A1.08,1.08,0,0,1,89.42,142.31Z"/><path class="cls-11" d="M64,142.35l1.83,0c.32,0,.64,0,.67.43a2.66,2.66,0,0,1-2.07,0l-.38,0A.24.24,0,0,1,64,142.35Z"/><path class="cls-17" d="M64.44,142.76h2.07c.2.06.39.13.44.37C66.11,143.07,65.18,143.52,64.44,142.76Z"/><path class="cls-18" d="M110.5,88.87c-.78-.07-1.64.34-2.31-.38a.82.82,0,0,1,1.06,0C109.66,88.6,110.25,88.23,110.5,88.87Z"/><path class="cls-19" d="M49.86,140.43l2.2,0a.24.24,0,0,1,0,.37H49.87C49.65,140.71,49.7,140.57,49.86,140.43Z"/><path class="cls-20" d="M67.54,106.61a3.18,3.18,0,0,1-1.47,1.24c0-.62.44-.91.84-1.24A.48.48,0,0,1,67.54,106.61Z"/><path class="cls-21" d="M176.77,134.92c0,.32-.28.31-.48.37-.42.36-.92.18-1.38.21a.61.61,0,0,1-.48-.2c.44-.83,1.23-.21,1.82-.44A.42.42,0,0,1,176.77,134.92Z"/><path class="cls-22" d="M132.77,146.47l.38,0c0,.57,0,1.14,0,1.72,0,.29,0,.54-.42.55A12,12,0,0,1,132.77,146.47Z"/><path class="cls-23" d="M125.93,115.48c.07-.3-.09-.72.39-.83a.35.35,0,0,1,.43,0c-.51.53-.1,1.42-.75,1.89l-.14-.1A.83.83,0,0,1,125.93,115.48Z"/><path class="cls-24" d="M91.93,141.74l1.41-.08a.52.52,0,0,1,.1.11.43.43,0,0,1-.11.53H91.88A.38.38,0,0,1,91.93,141.74Z"/><path class="cls-25" d="M53.75,140.83l1.2.06a.24.24,0,0,1,0,.37c-.71,0-1.49.32-2.11-.35C53.14,140.61,53.44,140.68,53.75,140.83Z"/><path class="cls-21" d="M97.51,87.67l-.08.36-1.19,0a.59.59,0,0,1-.84,0C96,87.24,96.81,87.76,97.51,87.67Z"/><path class="cls-6" d="M95.4,88l.84,0c-.58.73-1.37.35-2.08.38C94.4,87.83,95,88.23,95.4,88Z"/><path class="cls-26" d="M85.47,143.12c.08-.56.57-.26.85-.4a1.22,1.22,0,0,1,1.21-.06c.14.16.17.31,0,.46Z"/><path class="cls-18" d="M107.8,88.46c-.7-.11-1.5.36-2.09-.36a.52.52,0,0,1,.45-.24c.41,0,.84-.1,1.22.18l.37,0A.22.22,0,0,1,107.8,88.46Z"/><path class="cls-27" d="M176.77,134.92l-.52-.06c.57-.74,1.39-.22,2.06-.42l.11.08c.06.14.06.27-.09.35Z"/><path class="cls-28" d="M64.45,109.91a1.52,1.52,0,0,1-.82,1.47.46.46,0,0,1,0-.63C63.85,110.43,64,110,64.45,109.91Z"/><path class="cls-29" d="M73.54,99.2a1.17,1.17,0,0,1-.8.84.5.5,0,0,1-.64,0A1.36,1.36,0,0,1,73.54,99.2Z"/><path class="cls-30" d="M132.73,148.7c0,.64.42,1.39-.4,1.87a.83.83,0,0,1,0-1C132.5,149.28,132.15,148.76,132.73,148.7Z"/><path class="cls-31" d="M58.47,141.69l1.23,0a.4.4,0,0,1,0,.57C59.25,142.23,58.52,142.69,58.47,141.69Z"/><path class="cls-32" d="M87.52,143.12l.06-.35c.41-.41.92-.18,1.39-.23a.54.54,0,0,1,.46.24C88.9,143.51,88.16,143,87.52,143.12Z"/><path class="cls-33" d="M59.74,142.29l0-.57h1.23a.4.4,0,0,1,0,.58Z"/><path class="cls-34" d="M154.62,112.62a1.32,1.32,0,0,1-.82-.84,1.4,1.4,0,0,1,1.44.84A.46.46,0,0,1,154.62,112.62Z"/><path class="cls-35" d="M126.78,95.89c-.34-.44-1-.45-1.23-1.07.43.08,1-.16,1.23.43A.5.5,0,0,1,126.78,95.89Z"/><path class="cls-36" d="M93.34,88.89c-.47.79-1.24.23-1.85.41a.24.24,0,0,1,0-.39l.77-.06A.86.86,0,0,1,93.34,88.89Z"/><path class="cls-37" d="M131.93,125l.39,0v0c.34.34.19.77.23,1.16a1.15,1.15,0,0,1-.14.68c-.16.12-.31.15-.45,0Z"/><path class="cls-38" d="M126.75,114.65h-.43l.07-1.56c0-.17.16-.19.3-.18a.2.2,0,0,1,.15.19Z"/><path class="cls-39" d="M64,142.35l0,.37c-.58-.06-1.25.3-1.7-.36l1.27-.05Z"/><path class="cls-40" d="M53.75,140.83l-.88.08-.78-.06,0-.37C52.63,140.55,53.3,140.16,53.75,140.83Z"/><path class="cls-41" d="M55,141.26l0-.37c.57.07,1.25-.34,1.67.39l-1.25,0Z"/><path class="cls-42" d="M95.4,140.86l1.25,0c-.44.62-1.08.37-1.66.41C95,141,95.17,140.91,95.4,140.86Z"/><path class="cls-38" d="M127.6,112.19v.42c-.38,0-.46.4-.76.49a.47.47,0,0,0-.1-.1,1.25,1.25,0,0,1-.07-1.16C127.18,111.41,127.33,112,127.6,112.19Z"/><path class="cls-43" d="M89.43,142.78l-.45-.07c-.09-.14-.1-.27.07-.36l.37,0,1.26.05C90.44,143,89.83,142.59,89.43,142.78Z"/><path class="cls-10" d="M106.16,88l-.45.08L104.5,88l0-.36h1.63C106.26,87.75,106.25,87.88,106.16,88Z"/><path class="cls-44" d="M164.93,123.35a.74.74,0,0,1-.44-.81c.45.14.91.27,1.06.81A.46.46,0,0,1,164.93,123.35Z"/><path class="cls-45" d="M79.49,94.8c-.14.47-.27.93-.81,1.09a.5.5,0,0,1,0-.64C78.77,94.77,79.14,94.81,79.49,94.8Z"/><path class="cls-46" d="M147.4,106.65a.77.77,0,0,1-.82-.44.45.45,0,0,1,0-.61C147.11,105.74,147.21,106.22,147.4,106.65Z"/><path class="cls-47" d="M107.8,88.46l0-.37c.53,0,1.13-.3,1.5.35l-1.06,0Z"/><path class="cls-48" d="M93.34,88.89l-1.07,0c.35-.71,1-.3,1.49-.37C93.76,88.76,93.57,88.84,93.34,88.89Z"/><path class="cls-49" d="M49.86,140.43c0,.13,0,.27,0,.41-.65-.38-.67-.68-.06-1.19Z"/><path class="cls-50" d="M50.23,138.41c-.1.43.23,1-.41,1.25C49.87,139.21,49.5,138.63,50.23,138.41Z"/><path class="cls-51" d="M113.35,89.71c-.42-.11-1,.3-1.21-.44l1.19.06C113.48,89.45,113.48,89.57,113.35,89.71Z"/><path class="cls-52" d="M132.32,149.54v1l-.61.17C132.13,150.45,131.62,149.69,132.32,149.54Z"/><path class="cls-21" d="M132,126.81l.34.07c.3.19.23.49.24.77a.53.53,0,0,1-.22.44C131.62,127.83,132,127.25,132,126.81Z"/><path class="cls-53" d="M90.65,89.28c-.24.69-.8.39-1.26.4C89.64,89,90.21,89.34,90.65,89.28Z"/><path class="cls-51" d="M112.14,89.27c-.45,0-1,.31-1.26-.38C111.32,89,111.88,88.62,112.14,89.27Z"/><path class="cls-54" d="M132.36,129.71l0-1.23a.32.32,0,0,1,.46.06,1.27,1.27,0,0,1,0,1.17l-.11,0C132.57,129.85,132.45,129.86,132.36,129.71Z"/><path class="cls-32" d="M132.36,129.71l.33,0,0,1.22C132,130.72,132.45,130.14,132.36,129.71Z"/><path class="cls-55" d="M106.16,88c0-.12,0-.24-.07-.35.44.08,1-.35,1.29.37Z"/><path class="cls-42" d="M93.34,141.66c.28-.65.82-.35,1.27-.34-.06.58-.58.24-.85.42a.39.39,0,0,1-.43,0A.08.08,0,0,1,93.34,141.66Z"/><path class="cls-56" d="M61,142.3l0-.58h.84v.59Z"/><path class="cls-57" d="M91.93,141.74l-.05.57h-.81c0-.2,0-.39,0-.59Z"/><path class="cls-58" d="M115.22,90.12c-.46,0-1,.23-1.27-.37a.3.3,0,0,1,.45-.06C114.71,89.76,115.12,89.64,115.22,90.12Z"/><path class="cls-58" d="M116.07,90.71c-.47.08-.91.09-.85-.59h.8A.4.4,0,0,1,116.07,90.71Z"/><path class="cls-59" d="M116.07,90.71l0-.58c.49-.07.9,0,.84.61Z"/><path class="cls-27" d="M179.61,134.08l0,.38a1,1,0,0,1-1.21,0l-.07-.07C178.6,133.81,179.16,134.15,179.61,134.08Z"/><path class="cls-60" d="M135.08,99.17c-.4,0-.91.28-1.09-.37a.48.48,0,0,1,.65,0C134.87,98.8,135.15,98.8,135.08,99.17Z"/><path class="cls-61" d="M123.67,94.05c-.2-.08-.4-.17-.4-.43.39,0,.88-.23,1,.4A.45.45,0,0,1,123.67,94.05Z"/><path class="cls-62" d="M139.13,101.49c-.23,0-.47-.08-.42-.42.4,0,.9-.26,1.06.39A.49.49,0,0,1,139.13,101.49Z"/><path class="cls-63" d="M83,92.81c-.17.66-.69.35-1.08.38-.06-.35.19-.38.43-.41A.5.5,0,0,1,83,92.81Z"/><path class="cls-64" d="M134.64,98.75l-.65,0c-.22-.08-.4-.17-.39-.44C134,98.39,134.48,98.12,134.64,98.75Z"/><path class="cls-6" d="M103,138.8c0-.13,0-.26,0-.39h1c.06.36-.22.35-.43.42A.47.47,0,0,1,103,138.8Z"/><path class="cls-65" d="M113.36,132.83c.13-.64.64-.36,1-.42,0,.28-.16.39-.39.44A.47.47,0,0,1,113.36,132.83Z"/><path class="cls-66" d="M145.32,105.19c-.38,0-.88.21-1-.41a.45.45,0,0,1,.63,0C145.13,104.84,145.31,104.94,145.32,105.19Z"/><path class="cls-67" d="M60.14,116.54c-.07.22-.16.41-.43.41,0-.38-.24-.89.4-1A.47.47,0,0,1,60.14,116.54Z"/><path class="cls-68" d="M171.56,132.4c-.27,0-.36-.18-.44-.38a.48.48,0,0,1,0-.64C171.76,131.53,171.54,132,171.56,132.4Z"/><path class="cls-69" d="M52.87,131.37c0,.4.18.86-.38,1C52.53,132,52.21,131.53,52.87,131.37Z"/><path class="cls-70" d="M171.14,131.38l0,.64c-.45,0-.38-.34-.45-.6a.42.42,0,0,1,0-.38l.09-.09A.63.63,0,0,1,171.14,131.38Z"/><path class="cls-30" d="M119.56,92c-.39,0-.89.27-1.06-.38a.46.46,0,0,1,.64,0C119.36,91.6,119.6,91.64,119.56,92Z"/><path class="cls-71" d="M129.47,115.9c.66.19.36.69.36,1.1l-.37-.06a.77.77,0,0,1-.22-.44A.65.65,0,0,1,129.47,115.9Z"/><path class="cls-72" d="M119.14,91.54l-.64,0c-.21-.07-.46-.1-.44-.42C118.46,91.18,119,90.91,119.14,91.54Z"/><path class="cls-51" d="M129.89,96.7c-.4,0-.89.27-1.07-.36a.47.47,0,0,1,.65-.06C129.68,96.35,130,96.36,129.89,96.7Z"/><path class="cls-45" d="M122.86,122.13c0-.38-.26-.9.39-1.06a.46.46,0,0,1,0,.63C123.24,121.94,123.16,122.15,122.86,122.13Z"/><path class="cls-73" d="M114.4,89.69l-.45.06-.6,0,0-.38C113.73,89.31,114.18,89.15,114.4,89.69Z"/><path class="cls-74" d="M97.42,140.84c.2-.61.69-.33,1.09-.35C98.32,141.15,97.82,140.84,97.42,140.84Z"/><path class="cls-75" d="M88.63,89.73l0,.36a.42.42,0,0,1-.32.21,1,1,0,0,1-.52,0,.34.34,0,0,1-.18-.19C87.76,89.46,88.24,89.74,88.63,89.73Z"/><path class="cls-76" d="M108.19,136.12c.17-.65.68-.36,1.07-.38.07.35-.18.38-.42.42A.49.49,0,0,1,108.19,136.12Z"/><path class="cls-63" d="M77.86,96.3c-.13.66-.65.37-1,.42,0-.3.13-.41.39-.43A.5.5,0,0,1,77.86,96.3Z"/><path class="cls-17" d="M129.47,96.28l-.65.06c-.22-.07-.47-.1-.42-.43C128.79,95.94,129.29,95.64,129.47,96.28Z"/><path class="cls-77" d="M51,136.12c0,.38.3.9-.37,1.07C50.65,136.79,50.49,136.33,51,136.12Z"/><path class="cls-78" d="M123.67,94.05l.64,0c.21.06.46.1.42.42C124.33,94.44,123.84,94.69,123.67,94.05Z"/><path class="cls-79" d="M108.19,136.12l.65,0c0,.49-.38.34-.61.43a.43.43,0,0,1-.38,0l-.09-.1A.67.67,0,0,1,108.19,136.12Z"/><path class="cls-80" d="M168.05,127.24c-.27,0-.36-.17-.44-.38a.47.47,0,0,1,0-.63C168.26,126.36,168,126.85,168.05,127.24Z"/><path class="cls-81" d="M55,126.85a.64.64,0,0,1-.42.41c0-.38-.27-.89.39-1.05A.45.45,0,0,1,55,126.85Z"/><path class="cls-55" d="M120.36,126.21c0-.25.14-.42.42-.4-.06.38.25.9-.41,1A.47.47,0,0,1,120.36,126.21Z"/><path class="cls-14" d="M149.45,108.29c-.25,0-.43-.13-.4-.42.37.06.9-.25,1,.41A.47.47,0,0,1,149.45,108.29Z"/><path class="cls-82" d="M55,126.85l0-.64c.05-.22,0-.52.41-.46C55.32,126.15,55.63,126.67,55,126.85Z"/><path class="cls-83" d="M103,138.8l.64,0c-.18.63-.68.36-1.08.37C102.59,138.91,102.83,138.87,103,138.8Z"/><path class="cls-54" d="M66.94,106.22c-.07-.47.13-.68.61-.63a.45.45,0,0,1,0,.63h0A.43.43,0,0,1,66.94,106.22Z"/><path class="cls-84" d="M129.47,115.9l0,.64a.39.39,0,0,1-.58,0v-.62a.41.41,0,0,1,.58,0Z"/><path class="cls-85" d="M77.25,95.9c0-.48.17-.68.64-.61a.48.48,0,0,1,0,.62h0A.5.5,0,0,1,77.25,95.9Z"/><path class="cls-86" d="M59.27,118.15c.06.39.13.77-.44.82C58.86,118.64,58.72,118.21,59.27,118.15Z"/><path class="cls-53" d="M91.5,88.91v.39l-.85,0C90.75,88.74,91.16,88.91,91.5,88.91Z"/><path class="cls-87" d="M56.6,122.91c0,.37.11.74-.41.84C56.22,123.42,56,123,56.6,122.91Z"/><path class="cls-87" d="M56.19,123.75c.06.37.12.74-.41.83C55.78,124.23,55.67,123.83,56.19,123.75Z"/><path class="cls-69" d="M174.43,135.3l.45,0a.25.25,0,0,1,0,.37c-.28,0-.55.15-.82,0C174,135.4,174.22,135.36,174.43,135.3Z"/><path class="cls-88" d="M58.06,120.25c0,.37.12.75-.42.82C57.62,120.71,57.59,120.36,58.06,120.25Z"/><path class="cls-50" d="M126,116.54c-.12.29.08.73-.42.83l-.13-.09a.7.7,0,0,1,0-.77.35.35,0,0,1,.44,0Z"/><path class="cls-86" d="M59.7,117.34c0,.38.12.76-.43.82C59.28,117.82,59.15,117.4,59.7,117.34Z"/><path class="cls-89" d="M125.07,118.14l0-.8a.25.25,0,0,1,.35,0,.17.17,0,0,1,.12.05C125.46,117.66,125.65,118.15,125.07,118.14Z"/><path class="cls-90" d="M129.87,117.35c.61.09.38.53.37.87C129.59,118.16,129.91,117.68,129.87,117.35Z"/><path class="cls-91" d="M124.28,119.42c.09-.2.19-.38.43-.41.06.35.14.71-.35.83l-.13-.06A.3.3,0,0,1,124.28,119.42Z"/><path class="cls-92" d="M132.73,128.51l-.35,0-.06-.39.05-.43a.22.22,0,0,1,.36,0l0,0A.59.59,0,0,1,132.73,128.51Z"/><path class="cls-93" d="M57.22,122.09v.41a.41.41,0,0,1-.59,0v-.4A.4.4,0,0,1,57.22,122.09Z"/><path class="cls-94" d="M118.52,128.1c0-.47.34-.42.65-.41l0,.39A.44.44,0,0,1,118.52,128.1Z"/><path class="cls-95" d="M160.44,118.16c-.31,0-.65.08-.65-.4a.43.43,0,0,1,.61,0Z"/><path class="cls-96" d="M118.52,128.1l.61,0c0,.49-.33.41-.63.4Z"/><path class="cls-97" d="M167.63,126.23l0,.63c-.51,0-.4-.36-.37-.67Z"/><path class="cls-98" d="M160.4,117.78l-.61,0,0-.38C160.06,117.36,160.4,117.29,160.4,117.78Z"/><path class="cls-99" d="M120.36,126.21v.63l-.39,0C120,126.57,119.83,126.19,120.36,126.21Z"/><path class="cls-23" d="M128.85,116.51l.58,0,0,.4C129.15,116.94,128.84,117,128.85,116.51Z"/><path class="cls-100" d="M170.11,130.56l0-.4c.3,0,.65-.06.63.42A.43.43,0,0,1,170.11,130.56Z"/><path class="cls-101" d="M170.11,130.56l.6,0,0,.37a.21.21,0,0,1,0,.13.47.47,0,0,1-.57-.12Z"/><path class="cls-102" d="M158.94,116.56l-.39,0a.44.44,0,0,1,0-.61C159,115.92,159,116.26,158.94,116.56Z"/><path class="cls-6" d="M158.54,115.92v.61c-.48,0-.41-.34-.4-.65Z"/><path class="cls-103" d="M114.82,132c0-.31-.08-.65.41-.64a.44.44,0,0,1,0,.6Z"/><path class="cls-104" d="M115.21,132l0-.6.38,0C115.62,131.67,115.7,132,115.21,132Z"/><path class="cls-105" d="M60.14,116.54l0-.63.39,0C60.53,116.17,60.66,116.53,60.14,116.54Z"/><path class="cls-106" d="M123.69,120.26v-.41a.36.36,0,0,1,.56,0h.11l-.08.39A.41.41,0,0,1,123.69,120.26Z"/><path class="cls-107" d="M123.69,120.26l.59,0v.41a.4.4,0,0,1-.59,0Z"/><path class="cls-13" d="M123.68,120.66l.59,0c0,.47-.31.43-.62.41Z"/><path class="cls-99" d="M129.44,115.92l-.58,0v-.4a.4.4,0,0,1,.58,0Z"/><path class="cls-108" d="M129.43,115.51l-.58,0,0-.4a.42.42,0,0,1,.61,0Z"/><path class="cls-109" d="M57.62,121.05c0,.29.2.67-.35.67C57.26,121.43,57.08,121.05,57.62,121.05Z"/><path class="cls-110" d="M113.36,132.83l.63,0c0,.53-.37.37-.65.37Z"/><path class="cls-111" d="M52.08,133.25l0,.4a.41.41,0,0,1-.58,0C51.46,133.22,51.78,133.25,52.08,133.25Z"/><path class="cls-112" d="M129.44,115.1h-.61l0-.4C129.11,114.67,129.44,114.63,129.44,115.1Z"/><path class="cls-113" d="M51.47,133.68l.58,0v.4a.39.39,0,0,1-.57,0Z"/><path class="cls-114" d="M51.48,134.09l.57,0v.41a.38.38,0,0,1-.57,0Z"/><path class="cls-78" d="M62.38,113.42c0,.47-.32.44-.63.42l0-.4A.44.44,0,0,1,62.38,113.42Z"/><path class="cls-115" d="M51.48,134.49l.57,0c0,.44-.28.43-.59.44Z"/><path class="cls-116" d="M62.38,113.42l-.6,0v-.39a.4.4,0,0,1,.6,0Z"/><path class="cls-117" d="M154.62,112.62h.62v.4C155,113,154.59,113.13,154.62,112.62Z"/><path class="cls-118" d="M62.39,113l-.6,0c0-.48.32-.44.63-.42Z"/><path class="cls-52" d="M153.37,111.4l-.38,0a.42.42,0,0,1,0-.6C153.43,110.76,153.38,111.09,153.37,111.4Z"/><path class="cls-119" d="M153,110.76l0,.6c-.49,0-.42-.32-.42-.62Z"/><path class="cls-120" d="M63.62,110.75v.63l-.38.05C63.22,111.12,63.13,110.78,63.62,110.75Z"/><path class="cls-78" d="M165.61,124.14c-.32,0-.65.09-.66-.4a.44.44,0,0,1,.61,0Z"/><path class="cls-53" d="M107,137.17c0-.2,0-.41,0-.61h.41a.41.41,0,0,1,0,.59Z"/><path class="cls-121" d="M107.36,137.15l0-.59.38,0,.1.07a.39.39,0,0,1-.1.54Z"/><path class="cls-72" d="M107.76,137.14c0-.18.07-.36.1-.54h.37C108.19,136.87,108.19,137.19,107.76,137.14Z"/><path class="cls-122" d="M165.56,123.75H165l0-.39h.62C165.56,123.49,165.56,123.62,165.56,123.75Z"/><path class="cls-123" d="M149.45,108.29h.63l0,.4C149.8,108.68,149.43,108.82,149.45,108.29Z"/><path class="cls-124" d="M123.29,121.7l0-.63.38,0C123.65,121.32,123.81,121.69,123.29,121.7Z"/><path class="cls-125" d="M66.94,106.22h.6v.4h-.63Z"/><path class="cls-126" d="M146.56,105.6l0,.61h-.39a.42.42,0,0,1,0-.6Z"/><path class="cls-127" d="M146.16,105.6l0,.6c-.48,0-.44-.32-.42-.63Z"/><path class="cls-95" d="M67.55,106.22v-.63l.38,0C68,105.85,68,106.19,67.55,106.22Z"/><path class="cls-128" d="M163.29,121.69v-.62c.52,0,.38.36.38.65Z"/><path class="cls-129" d="M56.63,122.53l.59,0c0,.45-.3.44-.61.42Z"/><path class="cls-130" d="M93.33,141.76l.43,0c0,.28,0,.6-.43.56Z"/><path class="cls-131" d="M144.94,104.76l-.63,0-.06-.38C144.56,104.37,144.91,104.25,144.94,104.76Z"/><path class="cls-132" d="M139.13,101.49l.64,0,0,.39C139.5,101.87,139.14,102,139.13,101.49Z"/><path class="cls-7" d="M138.72,101.08l-.39,0a.43.43,0,0,1,0-.6C138.79,100.44,138.73,100.77,138.72,101.08Z"/><path class="cls-133" d="M138.31,100.45l0,.6h-.4a.41.41,0,0,1,0-.6Z"/><path class="cls-134" d="M137.91,100.44l0,.6c-.48,0-.44-.3-.42-.62Z"/><path class="cls-107" d="M71.7,101.08c0-.21,0-.42,0-.64l.35,0,.13.09a.46.46,0,0,1-.09.57Z"/><path class="cls-135" d="M72.1,100h.64l0,.39a.42.42,0,0,1-.58,0l-.08-.08Z"/><path class="cls-93" d="M77.25,95.9l.64,0,0,.38h-.64Z"/><path class="cls-136" d="M128.41,95.91l-.4,0a.42.42,0,0,1,0-.59C128.47,95.27,128.41,95.61,128.41,95.91Z"/><path class="cls-137" d="M128,95.3l0,.59h-.41a.41.41,0,0,1,0-.58Z"/><path class="cls-97" d="M127.58,95.3l0,.58h-.4a.41.41,0,0,1,0-.6Z"/><path class="cls-18" d="M127.18,95.28c0,.2,0,.4,0,.6h-.42v-.64Z"/><path class="cls-134" d="M78.68,95.25v.64h-.41a.43.43,0,0,1,0-.6Z"/><path class="cls-138" d="M78.29,95.29l0,.6-.39,0c0-.21,0-.41,0-.62Z"/><path class="cls-139" d="M57.22,122.09l-.59,0c0-.46.3-.44.61-.43Z"/><path class="cls-140" d="M83,92.81l-.65,0c0-.53.38-.37.68-.35Z"/><path class="cls-141" d="M87.55,90.72h-.41a.38.38,0,0,1,0-.57l.39-.08v.1A.35.35,0,0,1,87.55,90.72Z"/><path class="cls-89" d="M87.17,90.15l0,.57h-.4a.4.4,0,0,1,0-.59Z"/><path class="cls-118" d="M86.76,90.14l0,.59-.41,0C86.33,90.45,86.3,90.12,86.76,90.14Z"/><path class="cls-142" d="M113.83,203.84a19.45,19.45,0,0,0,4.45-2.7c.82-.74,1.73-1.52,1.43-2.76s-1.45-1.43-2.5-1.63a18.06,18.06,0,0,0-6.22.15l-.91.11a32.41,32.41,0,0,1-1.49-5.54,19.76,19.76,0,0,0,5.65,1.48,16.88,16.88,0,0,0,17.29-10.55,16.7,16.7,0,0,0-.62-14l-.48-1a5.64,5.64,0,0,1,2.26-1.53A4.37,4.37,0,0,0,134,165a2.78,2.78,0,0,0,.38-3.34,2.71,2.71,0,0,0-3.15-1.13,19.3,19.3,0,0,0-3.86,1.92c-.29.16-.51.47-.9.43a18.35,18.35,0,0,0-3.65-2.29,8.87,8.87,0,0,1,2.32-1.36,29.91,29.91,0,0,1,24.85-.59c.78.32,1,.63.75,1.5q-5.16,20.07,9.37,34.9a1,1,0,0,0,1.48.15,8.67,8.67,0,0,0,2.83-3.21,1,1,0,0,0-.26-1.48A28.6,28.6,0,0,1,157,179.3c-5.82-16.16,4.37-34.32,21.22-37.8a3.11,3.11,0,0,1,1.56-.16,26.65,26.65,0,0,0-1.23,3.83c-4.46.16-7.73,2.77-10.85,5.49a20.61,20.61,0,0,0-7.12,13.77,20.14,20.14,0,0,0,.18,5.85,2.87,2.87,0,0,0,2.83,2.25,2.71,2.71,0,0,0,2.55-2.64,9.89,9.89,0,0,0,0-1.44c-.7-6.75,2.21-11.74,7.56-15.54a24.3,24.3,0,0,1,4.09-2.18.48.48,0,0,1,.57.05,17,17,0,0,0,31,7.14l.75-1.15a20.69,20.69,0,0,1,1.55,3.54,30.86,30.86,0,0,0-3.92,2.22,7.52,7.52,0,0,0-1.76,1.71,1.73,1.73,0,0,0,.83,2.89,11.86,11.86,0,0,0,5.58.49l.81-.07a28.88,28.88,0,0,1-17,28.54,28.25,28.25,0,0,1-25.7-.93c-.67-.35-.88-.25-1.21.36a14.57,14.57,0,0,1-4,4.28,4.11,4.11,0,0,0-1,1.16c-5.64,9.41-13.87,14.74-24.88,15.23C128.78,216.66,120.27,212.3,113.83,203.84Z"/><path class="cls-143" d="M80,123.78l2.43-1.7c.19-.17.48-.18.65-.38v0a1.44,1.44,0,0,1,.32-.23,1.09,1.09,0,0,0,.5-.4,14.89,14.89,0,0,1,3.7-2.48c.19-.17.47-.18.65-.38l2.87-1.68a1.58,1.58,0,0,1,.33-.22,1.27,1.27,0,0,0,.51-.38c.1-.43.48-.38.79-.44s.48-.18.67-.36c1-.38,1.77-1.16,2.86-1.3,1,.1,1.83-.58,2.72-1,.09,0,0-.17,0-.26.52-.71,1.46-.7,2.09-1.23a.69.69,0,0,1,.35-.2l.38-.07a1,1,0,0,0,.51-.34l.81-.44c.28-.3.77,0,1-.4h0c.22-.26.63-.12.84-.4h0c.22-.28.62-.15.86-.39l.37,0c.22-.24.62-.11.84-.38h0a.84.84,0,0,1,.68-.22c.33-.08.72,0,1-.27a2.15,2.15,0,0,1,.41-.32l.37,0c.28-.31.77-.06,1-.4h0c.23-.22.6-.23.79-.51a1,1,0,0,1,.4-.1c.3,0,.63.06.89-.2h0c.4-.42,1,0,1.43-.43h0a1.1,1.1,0,0,1,.69-.25.9.9,0,0,0,.93-.43.79.79,0,0,1,.39-.13,1.71,1.71,0,0,0,.87-.32,1.62,1.62,0,0,0,.86-.42.92.92,0,0,1,.43-.08c.47-.07,1,.16,1.41-.21h0a.31.31,0,0,1,.46,0,5.62,5.62,0,0,1,0,3.2c-.31,1-.23,2.15-.6,3.18a3.63,3.63,0,0,1-.45,1.32c-.38.47-.15,1,.17,1.39l0,.39a1.23,1.23,0,0,0-.4.88,1.09,1.09,0,0,1-.19.37l0,.38c-.33.28-.08.77-.4,1L115.6,121c-.17.19-.18.48-.38.65A3.71,3.71,0,0,1,114,123a.88.88,0,0,0-.42.49,1.23,1.23,0,0,1-.24.31,17,17,0,0,0-2.48,2.47,1.07,1.07,0,0,1-.31.25,1,1,0,0,0-.5.41,1.31,1.31,0,0,1-.87.78c-.18.28-.64.17-.76.53a.65.65,0,0,1-.29.28c-1.56.73-2.9,1.85-4.51,2.49-.37.37-.94.15-1.32.48a2.64,2.64,0,0,1-.38.18,1,1,0,0,0-.54.4.47.47,0,0,1-.43.38.8.8,0,0,1-.7.22,1,1,0,0,0-.91.31,1.08,1.08,0,0,1-.4.11c-.33.07-.69,0-1,.27s-.38.18-.55.32h0c-.31.34-.73.19-1.1.23s-.95-.17-1.34.24h0c-.47.36-1.14.12-1.62.51a1.77,1.77,0,0,1-.61.1c-.43.08-.91,0-1.28.32a1.42,1.42,0,0,1-.45.08c-.54.08-1.13-.18-1.63.21h0c-.48.35-1.05.13-1.57.24a2.42,2.42,0,0,0-1.06.28,1.3,1.3,0,0,1-.51.08,8.1,8.1,0,0,0-2.81.34,25.76,25.76,0,0,0-4.55.5,37.53,37.53,0,0,1-6.62,0,25.72,25.72,0,0,0-3-.46,5.61,5.61,0,0,0-2.36-.38,3,3,0,0,1-.85-.07,2.45,2.45,0,0,0-1.43-.29c-.62-.18-1.32.14-1.91-.26a13.93,13.93,0,0,0-3.08-.42c-.22-.24-.71-.33-.45-.83l0-.37c.13-.17.19-.37.33-.54s.27-.49.27-.78A1,1,0,0,1,60,132a4.88,4.88,0,0,0,.43-.65.9.9,0,0,0,.3-.83.78.78,0,0,1,.1-.39c.28-.2.3-.56.48-.82h0c.31-.19.16-.61.41-.84v0a1.06,1.06,0,0,0,.37-.44c0-.11.08-.22.13-.33a1,1,0,0,1,.14-.2c.27-.2.18-.56.37-.79s.2-.66.42-1h0c.36-.26.25-.66.3-1l.12-.26c.33-.16.16-.59.44-.78.19-.59.91-.9.84-1.62a5.21,5.21,0,0,0,.34-.56c.29-.22.19-.67.49-.88l0,0c.29-.18.11-.64.46-.78l.33-.52c.22-.07.25-.32.42-.44s.35-.21.38-.43,0-.26.07-.38a.58.58,0,0,1,.21-.33c.51-.25.53-.84.84-1.23.17-.18.19-.47.37-.65l2.5-3.69a4.82,4.82,0,0,1,.77-.92.83.83,0,0,0,.46-.61.52.52,0,0,1,.24-.32c1.08-.62,1.57-1.78,2.4-2.63.45-.47,1.06-.81,1.31-1.47a.57.57,0,0,1,.28-.27,1.08,1.08,0,0,0,.5-.42h0a1,1,0,0,0,.41-.5.51.51,0,0,1,.27-.27c1.11-.92,2.2-1.84,3.32-2.75.33-.26.6-.67,1.12-.62a1.76,1.76,0,0,0,.49-.37l.18-.17c.14-.15.27-.31.42-.45,1-.63,2-1.24,2.92-1.88a1.3,1.3,0,0,1,.76-.2c.27-.24.69-.17.93-.46.17-.13.41-.17.54-.36l.85-.39c.29-.38.89-.06,1.16-.51.3-.13.66-.16.89-.44a1.68,1.68,0,0,1,.7-.1c.35-.06.74,0,1-.25a.91.91,0,0,1,.26-.13,3.45,3.45,0,0,1,.72-.08h.7a.86.86,0,0,0,.87-.42c.26-.21.64-.06.88-.32l0,0a1.35,1.35,0,0,1,.92-.2c2,0,4,0,5.93,0,1,.53,2.12.2,3.17.4a.6.6,0,0,1,.29.08,1.22,1.22,0,0,0,1.25.47,3.25,3.25,0,0,1,.88.08,1.59,1.59,0,0,1,.27.12c.38.3.85.17,1.28.26s.76-.09,1.07.22h0c.34.37.92,0,1.24.42h0c.3.3.78.08,1.07.38h0c.31.41.9,0,1.21.44h0c.32.5-.23.57-.4.83h-.38c-.28.23-.69.17-.94.45s-.4.19-.57.34a5.56,5.56,0,0,0-2.46,1.23.61.61,0,0,1-.34.23l-.39.07a.79.79,0,0,0-.49.35h0c-.25.26-.67.18-.91.47-.16.13-.4.17-.53.35L103.68,104c-.19.17-.47.19-.67.35-.66.46-1.52.57-2.05,1.25a.51.51,0,0,1-.33.22,2.7,2.7,0,0,1-.39.08.71.71,0,0,0-.48.38c-.24.53-.83.53-1.23.82-.19.16-.48.17-.65.37l-4.53,2.92c-.18.18-.46.19-.64.38h0a1,1,0,0,1-.31.24,1.15,1.15,0,0,0-.51.39c-1.14.84-2.27,1.69-3.42,2.51a.78.78,0,0,0-.3.37c-.17.21-.46.22-.65.39a7.06,7.06,0,0,0-1.62,1.26,1.23,1.23,0,0,1-.31.24,1,1,0,0,0-.5.4c-.48.9-1.66,1.08-2.08,2-.16.23-.46.23-.64.41-1,.51-1.51,1.52-2.44,2.09-.23.15-.22.45-.42.62a1.45,1.45,0,0,1-.81.82.89.89,0,0,0,0,1.23l0,0A1,1,0,0,0,80,123.78Z"/><path class="cls-144" d="M166.76,139.19c-.49-.09-.71.5-1.16.49-.2.15-.48.17-.67.37a21.78,21.78,0,0,1-2.42,1.69c-.27.11-.25.43-.44.61,0,.27-.19.37-.44.38a5.63,5.63,0,0,0-1.58,1.33,1.7,1.7,0,0,1-.27.33c-1,.62-1.42,1.85-2.44,2.48-.25.17-.26.46-.41.69a11,11,0,0,1-1.67,2.41,2.09,2.09,0,0,0-.64.8,7.73,7.73,0,0,0-.71,1.25c-.19.5-.32,1.23-.73,1.31s-1-.32-1.51-.53a38.55,38.55,0,0,0-11.9-2.64,1.06,1.06,0,0,1-.27-.64c0-.41,0-.81,0-1.22a2,2,0,0,1,.16-.88,11.61,11.61,0,0,0,.33-3.57c0-3.78,0-7.56,0-11.33a20.48,20.48,0,0,1-.08-2.6c0-.61.15-1.24-.25-1.79a2,2,0,0,1-.14-.81c0-.3,0-.6,0-.91a.85.85,0,0,0-.38-.92.84.84,0,0,1-.14-.24c-.26-.53.22-1.26-.44-1.68a.65.65,0,0,1-.34-.31,3.53,3.53,0,0,1-.08-1.12c-.08-.63.21-1.31-.24-1.88a2,2,0,0,1-.4-1.24c-.35-.35,0-.91-.4-1.25,0-.12,0-.25,0-.38-.31-.38-.14-.92-.45-1.31-.14-.19-.17-.42-.34-.6h0c-.39-.31,0-.9-.43-1.21h0c-.26-.23-.14-.62-.38-.86-.42-.3,0-.89-.44-1.21,0-.12,0-.25,0-.38-.22-.25-.19-.62-.38-.88a.76.76,0,0,1-.13-.23,1,1,0,0,1-.09-.37,2.21,2.21,0,0,0-.08-.37.72.72,0,0,0-.38-.44c-.7-.52-.77-1.4-1.18-2.09-.29-.19-.11-.63-.46-.79-.06-.08-.14-.15-.2-.22a.6.6,0,0,1,.57-.41,1.27,1.27,0,0,1,.44,0,1,1,0,0,1,.35.23c.18.15.43.12.61.26s.7.19.92.51l4.13,2.47a.69.69,0,0,1,.27.29c.14.36.6.26.81.51.25,0,.51,0,.42.34a.7.7,0,0,0,.48.42l.39.06a.6.6,0,0,1,.33.23,7.71,7.71,0,0,0,2.44,1.66.57.57,0,0,1,.28.27.89.89,0,0,0,.44.49,11.47,11.47,0,0,1,2.84,2.11,1.35,1.35,0,0,0,.52.39.66.66,0,0,1,.29.26,1.14,1.14,0,0,0,.83.8c.17.2.46.2.63.39a39.53,39.53,0,0,1,3.32,3.28,1,1,0,0,0,.5.42.64.64,0,0,1,.28.26c0,.3.11.43.4.4a.66.66,0,0,1,.27.3,1,1,0,0,0,.41.49,14.08,14.08,0,0,1,2.9,3.26.88.88,0,0,0,.48.45.55.55,0,0,1,.27.27c0,.27.06.47.39.4.32.14.3.56.56.74a4,4,0,0,1,.17.36.81.81,0,0,0,.4.5,5.89,5.89,0,0,1,1.62,2.08c.26.2.13.64.5.76a1.86,1.86,0,0,1,.34.19c.18.15.23.37.37.54a7.16,7.16,0,0,0,1.63,2.45.49.49,0,0,1,.24.35,1.84,1.84,0,0,1,0,.41c0,.13,0,.26,0,.38s.25.31.39.45a4.27,4.27,0,0,0,.45.6,6.34,6.34,0,0,1,.71.91A.84.84,0,0,1,166.76,139.19Z"/><path class="cls-145" d="M178.32,150.78c-5.62,2.32-9.95,5.89-11.61,12a14.41,14.41,0,0,0-.4,5.51c.06.41.09.82.11,1.23a2.93,2.93,0,0,1-2.76,3.22,3,3,0,0,1-3.25-2.75c-1.09-9,2.15-16.11,9.4-21.46a26.5,26.5,0,0,1,6-3.32,3.34,3.34,0,0,1,2.7-.06A19.54,19.54,0,0,0,178.32,150.78Z"/><path class="cls-145" d="M192.39,143.65a6.66,6.66,0,1,1,6.66,6.69A6.63,6.63,0,0,1,192.39,143.65Z"/><path class="cls-145" d="M114.35,170.13a5.87,5.87,0,0,1,5.85-5.83,5.88,5.88,0,1,1,0,11.76A5.82,5.82,0,0,1,114.35,170.13Z"/><path class="cls-145" d="M126.44,162.85a13,13,0,0,1,5.18-2.73,2.87,2.87,0,0,1,3.25,2.06,3,3,0,0,1-1.54,3.64l-2.9,1.52A18.78,18.78,0,0,0,126.44,162.85Z"/><path class="cls-146" d="M194.72,155.32a2.47,2.47,0,0,1-2.57-2.6,2.55,2.55,0,0,1,2.55-2.55,2.64,2.64,0,0,1,2.61,2.63A2.55,2.55,0,0,1,194.72,155.32Z"/><path class="cls-145" d="M114.41,178a2.49,2.49,0,0,1,2.56,2.52,2.54,2.54,0,0,1-2.57,2.64,2.62,2.62,0,0,1-2.58-2.55A2.55,2.55,0,0,1,114.41,178Z"/><path class="cls-147" d="M119.16,113.46c-.59-.22-1-1.07-.54-1.49.82-.82.73-1.92.86-2.86a15.48,15.48,0,0,0,.48-4.7c.26-.32.53-.26.81,0a16.29,16.29,0,0,1-.41,4.72c-.35.38-.07.92-.32,1.33-.4.54-.12,1.25-.47,1.8h0c-.42.33-.07.9-.41,1.26Z"/><path class="cls-148" d="M69.21,136.11c3.28.56,6.59.34,9.88.41a.44.44,0,0,1,0,.64c-1.95,0-3.91,0-5.86,0a3.09,3.09,0,0,1-2.27-.48c-.5-.41-1.59-.08-2.4-.13-.34,0-.8.21-.94-.34A1.37,1.37,0,0,1,69.21,136.11Z"/><path class="cls-149" d="M140.16,132.44c.1,3.84.18,7.68,0,11.53a.25.25,0,0,1-.38,0c0-3.85,0-7.7,0-11.55l.08-.1C140,132.3,140.08,132.3,140.16,132.44Z"/><path class="cls-150" d="M103.66,94.87l-6.19,0a.25.25,0,0,1,0-.38c2.59,0,5.18,0,7.76,0,.34,0,.79-.16.91.4A3.28,3.28,0,0,1,103.66,94.87Z"/><path class="cls-151" d="M79.1,137.16v-.64c.62-.58,1.4-.12,2.1-.31a9.25,9.25,0,0,1,2.24-.08,2.32,2.32,0,0,1,2.07,0c-.08.5-.48.39-.81.39-.68,0-1.37,0-2,0s-1.52-.28-2.15.52C80.3,137.32,79.58,137.15,79.1,137.16Z"/><path class="cls-152" d="M98.89,112.6c.24.07.55-.11.74.22-.85.62-1.92.75-2.76,1.36-.29.21-.6.06-.65-.37.24-.55.86-.49,1.26-.78s.76-.09,1-.4Z"/><path class="cls-153" d="M139.1,128.52c-.17-.06-.34-.15-.34-.34a8.83,8.83,0,0,0-.43-3.19.36.36,0,0,1,.38-.09c.22.11.27.36.42.53h0a1,1,0,0,1,.29.77c0,.33,0,.66,0,1a3.81,3.81,0,0,1-.1,1.12A.45.45,0,0,1,139.1,128.52Z"/><path class="cls-106" d="M178.38,134.51l1.21,0,2.27,0c0,.28-.22.38-.5.38h-3Z"/><path class="cls-154" d="M139.79,144l.38,0c0,1,0,2.08,0,3.12,0,.23-.09.38-.32.43-.34-.28-.31-.67-.32-1.05a1.75,1.75,0,0,1,.27-1.26Z"/><path class="cls-155" d="M103.66,94.87h2.48l.8,0c.15.11.13.24,0,.38h-2.53C104.12,95.27,103.73,95.37,103.66,94.87Z"/><path class="cls-156" d="M85.5,136.15l-2.07,0c.09-.49.48-.39.8-.39.7,0,1.41,0,2.11,0a.24.24,0,0,1,0,.38Z"/><path class="cls-157" d="M139.71,146.44l.09,1.08,0,.79a.42.42,0,0,1-.58,0l0-1.88A.36.36,0,0,1,139.71,146.44Z"/><path class="cls-158" d="M86.73,135.71c.15-.59.64-.37,1-.39.56,0,1.13,0,1.7,0-.23.67-.84.24-1.24.42A1.33,1.33,0,0,1,86.73,135.71Z"/><path class="cls-16" d="M89.05,142.35l-.07.36-1.4.06-1.26-.05c.15-.61.65-.37,1-.39C87.9,142.3,88.47,142.34,89.05,142.35Z"/><path class="cls-159" d="M159.79,144c.56-.51.89-1.34,1.84-1.26-.25.58-.85.8-1.22,1.25A.47.47,0,0,1,159.79,144Z"/><path class="cls-160" d="M66.11,135.7l.79.05a.23.23,0,0,1,0,.37H65.14c-.3,0-.62,0-.7-.38a.54.54,0,0,1,.47-.22C65.31,135.54,65.74,135.43,66.11,135.7Z"/><path class="cls-161" d="M139.17,130.14c0-.54,0-1.08-.07-1.62l.08,0a.49.49,0,0,1,.65,0c.23.38.11.8.14,1.21a.82.82,0,0,1-.15.5A.5.5,0,0,1,139.17,130.14Z"/><path class="cls-162" d="M67,136.12c0-.12,0-.25,0-.37.77.08,1.64-.4,2.31.36l-1.58.09Z"/><path class="cls-163" d="M107,95.26c0-.13,0-.26,0-.38.76.13,1.64-.41,2.3.36a1.34,1.34,0,0,0-.11.14,2.08,2.08,0,0,1-1,.17,1.41,1.41,0,0,1-1.15-.29Z"/><path class="cls-45" d="M139.74,132.45c-1-.16-.42-1-.58-1.48a.5.5,0,0,1,.67,0,1.61,1.61,0,0,1,0,1.42Z"/><path class="cls-164" d="M132.73,128.51l0-.85c.83.58.24,1.41.37,2.12l-.34-.07Z"/><path class="cls-165" d="M64.89,135.7l-.45.05c-.53-.21-1.27.37-1.64-.44l2,0A.23.23,0,0,1,64.89,135.7Z"/><path class="cls-166" d="M166.78,138c-.51,0-.56-.55-.81-.84a.44.44,0,0,1,0-.64A1.52,1.52,0,0,1,166.78,138Z"/><path class="cls-167" d="M139.18,148.34l.58,0,0,1.22a.38.38,0,0,1-.57,0Z"/><path class="cls-168" d="M109.24,95.24c.44.16,1.19-.3,1.26.62l-.12.13a1.13,1.13,0,0,1-1.15-.09l0,0a.38.38,0,0,1,0-.57Z"/><path class="cls-169" d="M119.57,112.22c.12-.63-.38-1.37.35-1.88l.13.1a.87.87,0,0,1-.07.94C119.88,111.68,120.09,112.13,119.57,112.22Z"/><path class="cls-170" d="M86.73,135.71l1.46,0c-.5.77-1.26.24-1.89.38,0-.13,0-.25,0-.38Z"/><path class="cls-171" d="M92.76,134.51l.58,0a1,1,0,0,1,1.24,0c-.45.83-1.24.23-1.83.45l-.1-.09C92.61,134.7,92.61,134.58,92.76,134.51Z"/><path class="cls-149" d="M139.71,146.44l-.55,0c.12-.45-.39-1.21.59-1.25C139.74,145.62,139.72,146,139.71,146.44Z"/><path class="cls-172" d="M72.1,111.38a1.3,1.3,0,0,1-.83.83,1.53,1.53,0,0,1,.79-1.47l.12.1A.45.45,0,0,1,72.1,111.38Z"/><path class="cls-173" d="M137.89,120.25c.85.45.32,1.23.44,1.85-.15.12-.29.13-.39-.06Z"/><path class="cls-108" d="M132.35,105.14c.24.06.42.17.41.45a7.79,7.79,0,0,1-.87.64c-.44,0-.34-.37-.39-.63C131.44,104.81,131.9,105,132.35,105.14Z"/><path class="cls-174" d="M126.8,111.83l-.06,1.17-.35.09c.07-.58-.43-1.3.4-1.7A.36.36,0,0,1,126.8,111.83Z"/><path class="cls-175" d="M94.58,134.48H93.34c.4-.81,1.11-.27,1.67-.39C95,134.37,94.81,134.44,94.58,134.48Z"/><path class="cls-176" d="M89.42,135.31c.39-.82,1.11-.27,1.67-.4.1.14.11.27-.06.37Z"/><path class="cls-177" d="M91,135.28l.06-.37.39,0a1.05,1.05,0,0,1,1.22,0l0,.06C92.31,135.67,91.61,135.19,91,135.28Z"/><path class="cls-178" d="M117.72,104.78c-.11.5-.54.33-.85.41a.6.6,0,0,1-.74.08l-.1-.12c.24-.67.82-.27,1.23-.4A.34.34,0,0,1,117.72,104.78Z"/><path class="cls-179" d="M132.35,105.14c-.33.06-.79-.1-.85.46-.47-.13-.54-.49-.21-.71S132.13,104.54,132.35,105.14Z"/><path class="cls-180" d="M138.74,125h-.41c0-.4,0-.8-.05-1.2a.41.41,0,0,1,.08-.51l.35.07A1.5,1.5,0,0,1,138.74,125Z"/><path class="cls-181" d="M138.36,123.28c0,.17-.05.34-.07.51-.72-.47-.29-1.16-.35-1.75l.39.06Z"/><path class="cls-182" d="M96.66,94.89c-.08.53-.53.33-.84.42a.66.66,0,0,1-.65.11.37.37,0,0,1-.19-.18C95.42,94.56,96.09,95,96.66,94.89Z"/><path class="cls-177" d="M92.29,95.87c0-.81.62-.56,1.06-.58a.43.43,0,0,1,0,.6l0,0a1,1,0,0,1-1,.08Z"/><path class="cls-183" d="M125.46,117.32l-.35,0c.13-.48-.33-1.12.4-1.43a.45.45,0,0,1,0,.63Z"/><path class="cls-184" d="M174.84,135.71l0-.37,1.41-.05C176,136,175.34,135.63,174.84,135.71Z"/><path class="cls-185" d="M97.44,133.63c0-.29.2-.36.44-.4a.87.87,0,0,1,.94-.08,1.47,1.47,0,0,1,.1.13C98.57,134,98,133.56,97.44,133.63Z"/><path class="cls-17" d="M131.89,106.23c0-.66.37-.7.87-.64l0,0a.39.39,0,0,1,0,.6l-.64.2Z"/><path class="cls-105" d="M132.73,127.69l-.36,0-.07-.78.08-.68c.14-.09.26-.1.35.07Z"/><path class="cls-186" d="M159.78,128.09a.69.69,0,0,1-.46-.8c.46.13.92.27,1.08.81A.46.46,0,0,1,159.78,128.09Z"/><path class="cls-187" d="M136.28,115.48c.35-.07.35.22.42.43a.8.8,0,0,1,0,1C136,116.61,136.3,116,136.28,115.48Z"/><path class="cls-188" d="M102.21,131.36c.31-.71.94-.29,1.43-.4,0,.43-.35.36-.6.43a.59.59,0,0,1-.36.18.6.6,0,0,1-.39-.1A.44.44,0,0,1,102.21,131.36Z"/><path class="cls-189" d="M114,106.2c-.31.7-.94.3-1.43.43C112.83,105.88,113.47,106.3,114,106.2Z"/><path class="cls-21" d="M136.68,116.93l0-1c.69.35.33,1,.37,1.49C136.74,117.41,136.73,117.16,136.68,116.93Z"/><path class="cls-190" d="M119.55,104.36c-.32.71-1,.31-1.45.41a.25.25,0,0,1,0-.4Z"/><path class="cls-191" d="M78.7,123.75c-.66-.41-.67-.82,0-1.23Z"/><path class="cls-192" d="M80,123.78c-.43.59-.85.65-1.23,0Z"/><path class="cls-193" d="M93.34,95.89c0-.2,0-.4,0-.6h.83a.41.41,0,0,1,0,.59Z"/><path class="cls-194" d="M109.06,107.89a.47.47,0,0,1-.24.42,1,1,0,0,1-.84.13.57.57,0,0,1-.22-.19C108.05,107.57,108.62,108,109.06,107.89Z"/><path class="cls-195" d="M132.73,126.27l-.35-.07-.06-1.2C133.11,125.21,132.62,125.84,132.73,126.27Z"/><path class="cls-196" d="M94.15,95.88l0-.59.8-.05,0,.09a.38.38,0,0,1,0,.56Z"/><path class="cls-197" d="M166.76,139.19l0-1.18C167.43,138.5,167.42,138.82,166.76,139.19Z"/><path class="cls-198" d="M119.92,110.34c.2-.4-.25-1,.44-1.25v1.24a.23.23,0,0,1-.36,0Z"/><path class="cls-177" d="M92.28,96.29l-.77,0a.34.34,0,0,1-.45,0c.22-.68.82-.28,1.23-.42l0,.06A.23.23,0,0,1,92.28,96.29Z"/><path class="cls-199" d="M111.7,96.32l-1.2,0a.21.21,0,0,1-.06-.35l.06-.08C110.89,96,111.53,95.56,111.7,96.32Z"/><path class="cls-200" d="M137.08,117.77c.72.23.34.82.4,1.25C136.8,118.78,137.12,118.22,137.08,117.77Z"/><path class="cls-201" d="M91.06,96.29l.45,0c-.1.49-.5.36-.82.41a.35.35,0,0,1-.47,0C90.32,96.21,90.74,96.35,91.06,96.29Z"/><path class="cls-202" d="M112.93,96.74c-.43-.1-1,.27-1.24-.42C112.12,96.42,112.73,96,112.93,96.74Z"/><path class="cls-203" d="M115.64,105.61c0,.65-.41.63-.87.56a.42.42,0,0,1,0-.58l.39,0A.35.35,0,0,1,115.64,105.61Z"/><path class="cls-189" d="M114.8,105.59l0,.58-.8,0C113.91,105.55,114.35,105.57,114.8,105.59Z"/><path class="cls-204" d="M139.75,131h-.59c0-.28,0-.55,0-.83l.56,0A.51.51,0,0,1,139.75,131Z"/><path class="cls-205" d="M90.22,96.71l.47,0c-.25.64-.82.33-1.25.41C89.47,96.6,89.91,96.77,90.22,96.71Z"/><path class="cls-206" d="M115.2,97.56c-.41-.12-1,.29-1.21-.44C114.4,97.24,115,96.81,115.2,97.56Z"/><path class="cls-207" d="M114.81,98.38l.4-.83c.39,0,.48.24.38.54S115.1,98.37,114.81,98.38Z"/><path class="cls-208" d="M95,134.1c.19-.8.82-.31,1.24-.43a.25.25,0,0,1,0,.38Z"/><path class="cls-209" d="M120.77,104.37l-.81,0-.4,0C120,103.81,120.37,103.59,120.77,104.37Z"/><path class="cls-108" d="M126.8,111.83c0-.14,0-.29,0-.44.61-.08.93.14.81.8C127.27,112.23,127.16,111.76,126.8,111.83Z"/><path class="cls-210" d="M135.84,114.28c.63.23.36.78.43,1.21C135.51,115.3,135.9,114.71,135.84,114.28Z"/><path class="cls-211" d="M96.21,134.05c0-.12,0-.25,0-.38l1.2,0C97.26,134.43,96.63,133.94,96.21,134.05Z"/><path class="cls-212" d="M118.52,114.68c0-.45,0-.89.61-.83l0,.78A.37.37,0,0,1,118.52,114.68Z"/><path class="cls-169" d="M119.16,113.47c.11-.43-.38-1,.41-1.26C119.46,112.64,119.83,113.22,119.16,113.47Z"/><path class="cls-213" d="M135,112.21c.64.21.38.77.44,1.2C134.74,113.22,135.05,112.65,135,112.21Z"/><path class="cls-214" d="M59.27,134.06c0,.37.45.47.45.83-.29,0-.64.13-.79-.25S58.9,134.1,59.27,134.06Z"/><path class="cls-204" d="M134,106.65c-.19-.09-.48,0-.6-.23a.3.3,0,0,1,.25-.25c.35.12.88-.19,1,.44A.47.47,0,0,1,134,106.65Z"/><path class="cls-176" d="M113.35,98.76c.18-.63.69-.32,1.08-.37,0,.28-.2.37-.44.41A.46.46,0,0,1,113.35,98.76Z"/><path class="cls-215" d="M113.35,98.76l.64,0c-.18.64-.68.33-1.07.38C112.92,98.89,113.11,98.8,113.35,98.76Z"/><path class="cls-162" d="M98.51,112.63c-.15.63-.67.33-1,.4C97.63,112.41,98.12,112.65,98.51,112.63Z"/><path class="cls-216" d="M108.19,101.45c.16-.63.67-.33,1-.39,0,.27-.17.38-.41.42A.44.44,0,0,1,108.19,101.45Z"/><path class="cls-217" d="M108.19,101.45l.63,0c-.15.64-.66.34-1,.4C107.78,101.61,108,101.5,108.19,101.45Z"/><path class="cls-218" d="M88.19,98c-.17.65-.69.33-1.07.39,0-.28.19-.38.43-.42A.47.47,0,0,1,88.19,98Z"/><path class="cls-219" d="M118.11,116.53c0-.39-.19-.87.4-1C118.44,115.86,118.76,116.38,118.11,116.53Z"/><path class="cls-121" d="M125.56,116.54l0-.63c.08-.2.12-.44.42-.43,0,.35,0,.69,0,1Z"/><path class="cls-165" d="M88.19,98l-.64,0c.16-.63.67-.33,1-.4C88.6,97.82,88.43,97.93,88.19,98Z"/><path class="cls-9" d="M163.28,132.46c-.34.06-.41-.15-.43-.42a.51.51,0,0,1,0-.65C163.55,131.54,163.24,132.07,163.28,132.46Z"/><path class="cls-220" d="M60.16,132l-.06.37a.25.25,0,0,1-.38,0c.06-.38-.25-.9.4-1.05A.5.5,0,0,1,60.16,132Z"/><path class="cls-221" d="M134.64,110.74c.64.18.35.68.36,1.08l-.37,0a.7.7,0,0,1-.23-.44A.63.63,0,0,1,134.64,110.74Z"/><path class="cls-222" d="M114,97.12c-.39,0-.89.27-1.06-.38C113.31,96.79,113.82,96.47,114,97.12Z"/><path class="cls-223" d="M162.47,132c-.65-.15-.37-.66-.41-1,.28,0,.39.16.43.4A.5.5,0,0,1,162.47,132Z"/><path class="cls-224" d="M60.16,132l0-.64a.43.43,0,0,1,.4-.43.31.31,0,0,1,0,.44C60.52,131.68,60.56,132,60.16,132Z"/><path class="cls-225" d="M120,110.35l.36,0c-.06.37.25.88-.38,1C120,111,120,110.69,120,110.35Z"/><path class="cls-34" d="M140.2,110.33c-.38,0-.9.26-1-.41a.5.5,0,0,1,.64,0C140,110,140.22,110,140.2,110.33Z"/><path class="cls-226" d="M104.06,109.92c-.15.63-.65.37-1,.4C103.18,109.69,103.69,110,104.06,109.92Z"/><path class="cls-227" d="M108.2,128.08c.12-.63.64-.34,1-.42,0,.26-.15.38-.38.43A.44.44,0,0,1,108.2,128.08Z"/><path class="cls-13" d="M166,136.53l0,.64c-.42,0-.4-.33-.44-.6a.42.42,0,0,1-.09-.32.33.33,0,0,1,.15-.16C165.88,136.1,166,136.3,166,136.53Z"/><path class="cls-165" d="M110.47,107.45c-.16.62-.65.37-1,.4C109.58,107.21,110.09,107.51,110.47,107.45Z"/><path class="cls-228" d="M63.19,125.78c0,.4.24.89-.36,1.09l-.11-.1a.5.5,0,0,1,.05-.56C62.81,126,62.9,125.78,63.19,125.78Z"/><path class="cls-229" d="M134,106.65l.65,0c.19.1.36.21.37.45C134.61,107,134.11,107.29,134,106.65Z"/><path class="cls-230" d="M65.71,120.69c-.07.36.2.86-.4,1a.43.43,0,0,1,0-.64C65.32,120.83,65.44,120.67,65.71,120.69Z"/><path class="cls-231" d="M65.28,121.07l0,.64c0,.24-.15.42-.43.42C64.94,121.75,64.62,121.22,65.28,121.07Z"/><path class="cls-232" d="M154.62,150.77c-.07-.5,0-.87.64-.8C155.31,150.44,154.88,150.54,154.62,150.77Z"/><path class="cls-233" d="M139.17,149.56l.57,0,0,.63h-.62a.5.5,0,0,1,0-.64Z"/><path class="cls-234" d="M63.48,124.79c.2.42.38.83-.3,1A1.25,1.25,0,0,1,63.48,124.79Z"/><path class="cls-235" d="M134.64,110.74l0,.64a.4.4,0,0,1-.59,0v-.61a.42.42,0,0,1,.59,0Z"/><path class="cls-236" d="M72.12,100.47l.58,0c.07.47-.14.68-.62.62Z"/><path class="cls-18" d="M87.55,90.72v-.55l.63,0a.42.42,0,0,1,0,.6Z"/><path class="cls-185" d="M82.4,101.05c0-.47.17-.67.64-.61a.42.42,0,0,1,0,.6l0,0A.46.46,0,0,1,82.4,101.05Z"/><path class="cls-237" d="M97.47,94.47v.38h-.83C96.72,94.31,97.14,94.49,97.47,94.47Z"/><path class="cls-238" d="M118.12,104.37l0,.4h-.38l-.46,0C117.37,104.23,117.78,104.38,118.12,104.37Z"/><path class="cls-239" d="M115.64,105.61l-.45,0c.1-.5.53-.34.84-.41l0,.07a.21.21,0,0,1,0,.35Z"/><path class="cls-240" d="M133.62,106.17l-.25.25-.25-.17a.53.53,0,0,1,0-.61C133.56,105.55,133.57,105.88,133.62,106.17Z"/><path class="cls-241" d="M111.71,107l-.37,0a.36.36,0,0,1-.46,0c.09-.55.51-.37.84-.39A.27.27,0,0,1,111.71,107Z"/><path class="cls-242" d="M111.71,107c0-.14,0-.27,0-.4h.83C112.46,107.19,112,107,111.71,107Z"/><path class="cls-17" d="M132.31,106.65c.65,0,.47.43.45.79C132.28,107.36,132.35,107,132.31,106.65Z"/><path class="cls-165" d="M110.88,107l.46,0c-.13.51-.52.38-.87.38C110.47,107.18,110.62,107.06,110.88,107Z"/><path class="cls-243" d="M107.77,108.68l-.8,0c0-.55.48-.38.79-.45l.06.07A.23.23,0,0,1,107.77,108.68Z"/><path class="cls-243" d="M107,108.7c-.1.52-.5.39-.84.38C106.22,108.54,106.63,108.7,107,108.7Z"/><path class="cls-244" d="M64,123.75c0,.33.14.77-.44.78C63.64,124.21,63.52,123.8,64,123.75Z"/><path class="cls-245" d="M105.76,109.13c-.11.53-.52.37-.86.39C105,109,105.41,109.12,105.76,109.13Z"/><path class="cls-245" d="M104.9,109.52c-.09.52-.49.39-.84.4C104.15,109.38,104.56,109.52,104.9,109.52Z"/><path class="cls-213" d="M135.46,113.41c.57.09.37.52.38.86C135.22,114.2,135.43,113.76,135.46,113.41Z"/><path class="cls-215" d="M98.93,132.85l.38,0a.34.34,0,0,1,.45,0c-.09.52-.52.35-.84.43l0-.08C98.79,133.07,98.79,133,98.93,132.85Z"/><path class="cls-165" d="M59.72,133.26c0,.24-.12.42-.4.43,0-.35-.16-.75.37-.87A.31.31,0,0,1,59.72,133.26Z"/><path class="cls-246" d="M100.17,132.43l.8,0c-.06.58-.49.4-.83.42A.25.25,0,0,1,100.17,132.43Z"/><path class="cls-247" d="M100.17,132.43l0,.39-.38,0-.45,0C99.42,132.29,99.83,132.44,100.17,132.43Z"/><path class="cls-162" d="M59.72,133.26l0-.44,0-.38.38,0C60.1,132.74,60.25,133.15,59.72,133.26Z"/><path class="cls-248" d="M66.15,119.88c-.06.31.07.74-.46.78C65.72,120.32,65.54,119.87,66.15,119.88Z"/><path class="cls-249" d="M60.55,131.4l0-.44,0-.38a.25.25,0,0,1,.38,0C60.92,130.88,61.07,131.29,60.55,131.4Z"/><path class="cls-250" d="M60.93,130.54l-.38,0c0-.35-.13-.75.38-.85a.31.31,0,0,1,0,.44Z"/><path class="cls-251" d="M61,130.17l0-.44c0-.25.12-.43.4-.43C61.35,129.65,61.48,130.05,61,130.17Z"/><path class="cls-252" d="M61.75,128.47c0,.35.18.78-.41.84C61.36,129,61.21,128.56,61.75,128.47Z"/><path class="cls-253" d="M62.83,126.87c-.07.31.09.75-.44.8a.33.33,0,0,1,0-.43l0-.37a.24.24,0,0,1,.37,0Z"/><path class="cls-254" d="M66.94,119c0,.25-.17.41-.46.35,0-.31-.07-.7.41-.78l.11.07A.29.29,0,0,1,66.94,119Z"/><path class="cls-244" d="M62.36,127.24l0,.43h0a.43.43,0,0,1-.6,0C61.76,127.26,62.07,127.26,62.36,127.24Z"/><path class="cls-255" d="M88.19,118.19c0,.46-.35.4-.65.38C87.57,118.12,87.89,118.18,88.19,118.19Z"/><path class="cls-256" d="M61.78,127.68h.6v.41a.43.43,0,0,1-.6,0Z"/><path class="cls-257" d="M82.38,119c0-.46.34-.4.64-.41C83,119,82.69,119,82.38,119Z"/><path class="cls-258" d="M61.78,128.09h.6c0,.44-.32.42-.62.41Z"/><path class="cls-259" d="M108.2,128.08h.62c0,.46-.36.41-.67.38C108.17,128.34,108.18,128.21,108.2,128.08Z"/><path class="cls-260" d="M67.56,117.78l0,.4a.43.43,0,0,1-.6,0C66.94,117.74,67.25,117.76,67.56,117.78Z"/><path class="cls-261" d="M159.78,128.09h.62v.4a.41.41,0,0,1-.6,0Z"/><path class="cls-187" d="M150.09,117.77c-.29,0-.66.11-.63-.4C149.75,117.37,150.11,117.27,150.09,117.77Z"/><path class="cls-7" d="M159.8,128.48l.6,0,0,.39C160.13,128.91,159.79,129,159.8,128.48Z"/><path class="cls-70" d="M158.93,126.9l-.38-.05a.44.44,0,0,1,0-.62C159.06,126.24,159,126.58,158.93,126.9Z"/><path class="cls-262" d="M158.55,126.23v.62c-.49,0-.41-.36-.38-.67Z"/><path class="cls-263" d="M124.25,119.83l-.56,0c0-.43.28-.43.59-.43Z"/><path class="cls-226" d="M110.48,126.24l.4,0c0,.31,0,.62-.42.62A.42.42,0,0,1,110.48,126.24Z"/><path class="cls-264" d="M110.48,126.24l0,.6-.39,0C110.06,126.57,110,126.25,110.48,126.24Z"/><path class="cls-226" d="M62.78,126.83l-.37,0c0-.3-.06-.61.36-.66C62.77,126.42,62.78,126.62,62.78,126.83Z"/><path class="cls-265" d="M148.63,116.57l-.39,0a.43.43,0,0,1,0-.6C148.67,115.93,148.64,116.25,148.63,116.57Z"/><path class="cls-107" d="M148.21,115.92l0,.6c-.49,0-.41-.31-.42-.61Z"/><path class="cls-266" d="M170.11,131l.57.12c0,.11,0,.23,0,.34C170.39,131.39,170.08,131.38,170.11,131Z"/><path class="cls-267" d="M91.9,115.91c0,.31,0,.61-.43.61a.41.41,0,0,1,0-.59Z"/><path class="cls-268" d="M91.5,115.93l0,.59h-.41C91.07,116.21,91.05,115.89,91.5,115.93Z"/><path class="cls-269" d="M85.52,115.92h.39c0,.3,0,.62-.43.61A.43.43,0,0,1,85.52,115.92Z"/><path class="cls-228" d="M101.4,132c0-.31,0-.62.41-.62a.43.43,0,0,1,0,.6Z"/><path class="cls-198" d="M101.8,132c0-.2,0-.4,0-.6l.4,0,0,.07a.39.39,0,0,1,0,.56Z"/><path class="cls-270" d="M102.21,132c0-.18,0-.37,0-.56l.41,0a.41.41,0,0,1,0,.59Z"/><path class="cls-271" d="M102.62,132c0-.2,0-.39,0-.59l.4,0C103,131.69,103.05,132,102.62,132Z"/><path class="cls-272" d="M162.47,132l0-.64.39,0,0,.65Z"/><path class="cls-208" d="M85.52,115.92l0,.6-.38,0C85.09,116.24,85.07,115.92,85.52,115.92Z"/><path class="cls-273" d="M68.77,115.9c0,.3.09.63-.37.65C68.37,116.25,68.31,115.93,68.77,115.9Z"/><path class="cls-274" d="M93.36,115.11c0,.45-.37.39-.67.36C92.74,115,93.06,115.09,93.36,115.11Z"/><path class="cls-275" d="M79.52,121.7c0-.31,0-.63.42-.62C79.94,121.37,80,121.71,79.52,121.7Z"/><path class="cls-243" d="M118.52,114.68l.58-.05c.06.46-.26.46-.56.47Z"/><path class="cls-276" d="M87.53,114.65c0-.46.36-.38.65-.39C88.16,114.71,87.84,114.68,87.53,114.65Z"/><path class="cls-277" d="M145,113.81c-.32,0-.65.1-.68-.38a.46.46,0,0,1,.62,0Z"/><path class="cls-278" d="M83.42,121.68H83c0-.3,0-.61.43-.6A.42.42,0,0,1,83.42,121.68Z"/><path class="cls-279" d="M144.93,113.43h-.62l-.06-.38C144.57,113,144.9,113,144.93,113.43Z"/><path class="cls-280" d="M134,111.35l.59,0,0,.4C134.32,111.78,134,111.81,134,111.35Z"/><path class="cls-281" d="M164.94,135.31l0-.39c.32,0,.65-.08.65.4A.45.45,0,0,1,164.94,135.31Z"/><path class="cls-282" d="M141.83,111.38l-.4,0a.43.43,0,0,1,0-.6C141.87,110.75,141.84,111.07,141.83,111.38Z"/><path class="cls-283" d="M141.41,110.76l0,.6H141a.42.42,0,0,1,0-.61Z"/><path class="cls-14" d="M141,110.75c0,.2,0,.41,0,.61-.48,0-.43-.35-.41-.67Z"/><path class="cls-227" d="M102.22,110.76c0,.3,0,.61-.44.6a.44.44,0,0,1,0-.6Z"/><path class="cls-284" d="M164.94,135.31h.61v.4a.42.42,0,0,1-.6,0Z"/><path class="cls-285" d="M83.42,121.68l0-.6.39,0C83.85,121.36,83.88,121.68,83.42,121.68Z"/><path class="cls-268" d="M101.81,110.76c0,.2,0,.4,0,.6h-.41a.41.41,0,0,1,0-.59Z"/><path class="cls-286" d="M101.4,110.76l0,.59-.4,0C101,111.07,101,110.76,101.4,110.76Z"/><path class="cls-239" d="M92.33,110.76h.39c0,.31,0,.62-.42.61A.42.42,0,0,1,92.33,110.76Z"/><path class="cls-287" d="M92.33,110.76l0,.6-.4,0C91.9,111.07,91.88,110.76,92.33,110.76Z"/><path class="cls-288" d="M134.6,110.76l-.59,0v-.4a.41.41,0,0,1,.59,0Z"/><path class="cls-289" d="M165,135.71h.6l0,.37a.35.35,0,0,1-.06.14.47.47,0,0,1-.58-.11Z"/><path class="cls-205" d="M92.71,110.74c0-.46.34-.4.64-.38C93.33,110.81,93,110.76,92.71,110.74Z"/><path class="cls-211" d="M72.74,110.36l0,.39a.42.42,0,0,1-.59,0l0,0C72.13,110.32,72.43,110.32,72.74,110.36Z"/><path class="cls-61" d="M134.59,110.35H134l0-.41a.42.42,0,0,1,.62,0Z"/><path class="cls-290" d="M139.79,109.91h-.64l0-.38C139.43,109.52,139.79,109.39,139.79,109.91Z"/><path class="cls-291" d="M134.6,110l-.62,0,0-.39C134.26,109.52,134.6,109.47,134.6,110Z"/><path class="cls-150" d="M115.22,121.69c0-.29-.08-.63.38-.65C115.63,121.35,115.67,121.67,115.22,121.69Z"/><path class="cls-292" d="M153.81,121.68c-.48,0-.42-.33-.4-.64l.38,0A.42.42,0,0,1,153.81,121.68Z"/><path class="cls-293" d="M97.88,107.44c0-.46.35-.4.65-.37C98.5,107.52,98.17,107.46,97.88,107.44Z"/><path class="cls-150" d="M113.36,123.75v-.39a.42.42,0,0,1,.6,0C114,123.78,113.66,123.76,113.36,123.75Z"/><path class="cls-294" d="M114,123.33l-.6,0c0-.47.33-.43.65-.41Z"/><path class="cls-295" d="M164.94,140c0-.54.37-.37.66-.37C165.63,140.24,165.23,140,164.94,140Z"/><path class="cls-296" d="M153.81,121.68l0-.6c.48,0,.43.33.4.65Z"/><path class="cls-17" d="M155.27,122.91c-.3,0-.64.08-.64-.4a.44.44,0,0,1,.61,0Z"/><path class="cls-283" d="M133.11,105.64v.61l-.38,0v-.6Z"/><path class="cls-297" d="M100.57,105.6l.39,0c0,.31,0,.63-.41.63A.44.44,0,0,1,100.57,105.6Z"/><path class="cls-298" d="M100.57,105.6c0,.2,0,.4,0,.6h-.4a.43.43,0,0,1,0-.61Z"/><path class="cls-299" d="M100.16,105.6v.61l-.39,0C99.74,105.94,99.7,105.62,100.16,105.6Z"/><path class="cls-230" d="M77.23,105.57c0,.31,0,.63-.4.64a.44.44,0,0,1,0-.61Z"/><path class="cls-300" d="M76.84,105.6v.61l-.38.05C76.42,105.94,76.38,105.62,76.84,105.6Z"/><path class="cls-230" d="M77.86,105.18c0,.45-.33.42-.63.39l0-.38A.42.42,0,0,1,77.86,105.18Z"/><path class="cls-301" d="M162.07,142.35c0-.32-.07-.67.44-.62C162.56,142.08,162.59,142.41,162.07,142.35Z"/><path class="cls-302" d="M77.86,105.18h-.61c0-.47.35-.43.66-.39C77.9,104.92,77.88,105.05,77.86,105.18Z"/><path class="cls-103" d="M155.24,122.52h-.61l0-.39C154.9,122.1,155.24,122,155.24,122.52Z"/><path class="cls-303" d="M103,104.32c0-.45.37-.38.67-.35C103.64,104.43,103.32,104.36,103,104.32Z"/><path class="cls-304" d="M82.4,101.05H83c0,.46-.37.41-.68.37C82.36,101.3,82.38,101.18,82.4,101.05Z"/><path class="cls-171" d="M110.06,100.44l.4,0c0,.31,0,.63-.41.63A.43.43,0,0,1,110.06,100.44Z"/><path class="cls-305" d="M110.06,100.44c0,.2,0,.4,0,.6h-.41a.4.4,0,0,1,0-.59Z"/><path class="cls-306" d="M159.79,144h.62c0,.42-.31.44-.63.41Z"/><path class="cls-307" d="M109.66,100.45l0,.59-.4,0C109.23,100.75,109.21,100.44,109.66,100.45Z"/><path class="cls-308" d="M83,101l0-.6h.4C83.45,100.74,83.46,101.05,83,101Z"/><path class="cls-80" d="M156.94,147.55c0-.32-.11-.67.4-.67C157.34,147.19,157.44,147.54,156.94,147.55Z"/><path class="cls-63" d="M139.13,149.53l0,.64c-.17,0-.34,0-.38-.26S138.92,149.57,139.13,149.53Z"/><path class="cls-4" d="M88.17,90.73l0-.6.39,0C88.6,90.4,88.63,90.72,88.17,90.73Z"/><path class="cls-309" d="M83,121.7c0,.45-.34.4-.65.38C82.4,121.62,82.73,121.69,83,121.7Z"/><path class="cls-310" d="M66.94,118.19h.6v.4a.39.39,0,0,1-.57,0l-.08,0C66.91,118.45,66.92,118.32,66.94,118.19Z"/><path d="M174.93,191.41c-.73-.09-2.1-.2-3.45-.44-.58-.1-.76.06-1,.55a14.62,14.62,0,0,1-3.72,5.75c-5.23,4.68-11.93,5.72-18.23,1.16a18.16,18.16,0,0,1-2.11-1.81,2.16,2.16,0,1,1,3-3c2.19,2.05,4.63,3.58,7.78,3.43a10.17,10.17,0,0,0,7.77-4.45,12.33,12.33,0,0,0,2.39-6.36c.08-.79.42-.84,1.08-.58a19.56,19.56,0,0,0,7.32,1.47c4.6,0,7.24-2.54,7.46-7.13,0-.51,0-1,.06-1.54a2.05,2.05,0,0,1,2.14-1.94,2,2,0,0,1,2.11,1.85c.07,4.28-.83,8.21-4.52,11C181.23,190.67,178.54,191.41,174.93,191.41Z"/><path class="cls-155" d="M107,95.26l1.22,0a.4.4,0,0,1,0,.58C107.76,95.76,107,96.3,107,95.26Z"/><path class="cls-311" d="M108.21,95.88l0-.58h1l0,.57Z"/><path class="cls-312" d="M95,95.89l0-.56.81,0C95.86,96,95.41,95.91,95,95.89Z"/><path class="cls-313" d="M110.44,95.94l.06.35c-.43-.11-1,.35-1.27-.39Z"/><path class="cls-314" d="M92.7,134.87l-1.22,0c.25-.73.84-.3,1.28-.38Z"/><path class="cls-315" d="M64.89,135.7c0-.12,0-.25,0-.37.43.09,1-.34,1.27.37Z"/><path class="cls-316" d="M98.93,132.85l0,.35-1,0C98,132.59,98.55,132.91,98.93,132.85Z"/><path class="cls-317" d="M92.28,96.29l.06-.36h1C93.17,96.55,92.67,96.24,92.28,96.29Z"/><path class="cls-318" d="M107.77,108.68c0-.12,0-.24,0-.36h1C108.65,108.93,108.14,108.61,107.77,108.68Z"/><path class="cls-255" d="M72.11,110.77l.59,0c.07.46-.13.68-.6.63Z"/><path class="cls-319" d="M116,105.57l0-.35.82,0C116.77,105.73,116.36,105.57,116,105.57Z"/><path class="cls-320" d="M67,118.61l.57,0c0,.43-.3.43-.6.43Z"/><path class="cls-321" d="M139.75,131l0-.82.07-.44c.14-.1.26-.11.36.05v2.67l-.35-.06Z"/><path class="cls-322" d="M138.74,125l0-1.64c.92.54.27,1.39.42,2.08C138.85,125.41,138.82,125.18,138.74,125Z"/><path class="cls-323" d="M139.73,128.52l-.55,0c0-.42,0-.83,0-1.24.2-.14.4-.17.56.06l.07.77A.31.31,0,0,1,139.73,128.52Z"/><path class="cls-23" d="M139.73,128.52l.07-.44c.76.43.25,1.13.36,1.69l-.36-.05Z"/><path class="cls-324" d="M139.73,127.31l-.56-.06v-1a.4.4,0,0,1,.59,0Z"/><path class="cls-49" d="M139.76,126.24h-.59l0-.81C139.8,125.33,139.79,125.78,139.76,126.24Z"/><path class="cls-14" d="M165,136.12l.58.11v.34C165.24,136.54,164.94,136.53,165,136.12Z"/><circle class="cls-325" cx="136.33" cy="196.29" r="41.73"/><circle class="cls-325" cx="191.31" cy="174.39" r="40.32"/><path class="cls-326" d="M185.73,147.9s-20.33,6.82-17.49,27.57"/><path class="cls-326" d="M128.56,167.06s-20.37,8.41-20.37,27.78"/><circle cx="108.11" cy="183.42" r="21.39"/><circle class="cls-327" cx="113.68" cy="176.01" r="7.38"/><circle class="cls-327" cx="106.36" cy="189.1" r="3.23"/><ellipse class="cls-328" cx="235.16" cy="166.73" rx="14.28" ry="4.92" transform="translate(-36.43 70.11) rotate(-15.75)"/><path class="cls-329" d="M162.86,209.33s7.15-.91,8.37-10"/><path class="cls-329" d="M166,215.86s8-4.35,9.9-9.55"/><ellipse class="cls-328" cx="99.29" cy="215.43" rx="14.28" ry="4.92" transform="translate(-54.76 35.05) rotate(-15.75)"/><ellipse class="cls-327" cx="222.98" cy="141.23" rx="6.07" ry="15.06" transform="translate(-39.37 112.25) rotate(-26.05)"/><ellipse class="cls-327" cx="236.46" cy="139.2" rx="12.67" ry="4.54" transform="translate(70.25 357.52) rotate(-83.2)"/><ellipse class="cls-327" cx="234.69" cy="156.57" rx="10.16" ry="12.91" transform="translate(-47.3 147.9) rotate(-31.95)"/><ellipse class="cls-330" cx="225.85" cy="160.68" rx="8.78" ry="4.54" transform="translate(-37.03 72.81) rotate(-16.95)"/><ellipse class="cls-330" cx="241.26" cy="149.43" rx="5.84" ry="4.54" transform="translate(41.21 350.7) rotate(-76.95)"/><path class="cls-1" d="M135.31,152.39C141,118.45,124.13,100,124.13,100"/><path class="cls-331" d="M171.06,137.06s-25.53-40.13-66.12-45.38C70.86,87.26,52.3,137.27,52.3,137.27s63.57,22.65,75.23-35.87"/><path d="M149.59,199s21.16,25.47,25.91,3.85c1.41-6.36-.43-15-.43-15Z"/><polyline class="cls-332" points="186.02 128.36 182.09 156.22 205.7 144.64"/></svg>