<svg id="Layer_1" data-name="Layer 1" xmlns="http://www.w3.org/2000/svg" viewBox="0 0 300.08 300.98"><defs><style>.cls-1{fill:#fe91f6;}.cls-2{fill:#181818;}.cls-3{fill:#131313;}.cls-4{fill:#3e3e3e;}.cls-5{fill:#cacaca;}.cls-6{fill:#8b8b8b;}.cls-7{fill:#161616;}.cls-8{fill:#8d8e8d;}.cls-9{fill:#202020;}.cls-10{fill:#cbcbcb;}.cls-11{fill:#d7d7d7;}.cls-12{fill:#ededed;}.cls-13{fill:#2c2d2c;}.cls-14{fill:#1e1e1e;}.cls-15{fill:#bababa;}.cls-16{fill:#2f2f2f;}.cls-17{fill:#808180;}.cls-18{fill:#121312;}.cls-19{fill:#e1e1e1;}.cls-20{fill:#373737;}.cls-21{fill:#eaeaea;}.cls-22{fill:#c0bfc0;}.cls-23{fill:#939393;}.cls-24{fill:#929292;}.cls-25{fill:#e3e4e3;}.cls-26{fill:#353635;}.cls-27{fill:#ececec;}.cls-28{fill:#424342;}.cls-29{fill:#cac9ca;}.cls-30{fill:#e6e7e6;}.cls-31{fill:#898989;}.cls-32{fill:#e9e9e9;}.cls-33{fill:#111;}.cls-34{fill:#0d0d0d;}.cls-35{fill:#949594;}.cls-36{fill:#c8c8c8;}.cls-37{fill:#8b8c8b;}.cls-38{fill:#3d3e3d;}.cls-39{fill:#454545;}.cls-40{fill:#535353;}.cls-41{fill:#8f8f8f;}.cls-42{fill:#ddd;}.cls-43{fill:#0f100f;}.cls-44{fill:#e0e1e0;}.cls-45{fill:#9e9e9e;}.cls-46{fill:#525252;}.cls-47{fill:#e5e5e5;}.cls-48{fill:#d0d0d0;}.cls-49{fill:#3c3c3c;}.cls-50{fill:#c9c9c9;}.cls-51{fill:#4c4c4c;}.cls-52{fill:#aeafae;}.cls-53{fill:#e7e7e7;}.cls-54{fill:#303130;}.cls-55{fill:#525352;}.cls-56{fill:#434443;}.cls-57{fill:#cacbca;}.cls-58{fill:#232323;}.cls-59{fill:#b0b0b0;}.cls-60{fill:#d6d7d6;}.cls-61{fill:#1b1b1b;}.cls-62{fill:#979897;}.cls-63{fill:#1a1a1a;}.cls-64{fill:#292a29;}.cls-65{fill:#e8e9e8;}.cls-66{fill:#c8c9c8;}.cls-67{fill:#969696;}.cls-68{fill:#4b4b4b;}.cls-69{fill:#3a3a3a;}.cls-70{fill:#d2d2d2;}.cls-71{fill:#959595;}.cls-72{fill:#b5b5b5;}.cls-73{fill:#c2c3c2;}.cls-74{fill:#282828;}.cls-75{fill:#6c6c6c;}.cls-76{fill:#333;}.cls-77{fill:#9a9a9a;}.cls-78{fill:#cfcfcf;}.cls-79{fill:#9fa09f;}.cls-80{fill:#171717;}.cls-81{fill:#cdcecd;}.cls-82{fill:#b9b9b9;}.cls-83{fill:#e8e8e8;}.cls-84{fill:#414241;}.cls-85{fill:#4b4c4b;}.cls-86{fill:#3c3d3c;}.cls-87{fill:#a4a4a4;}.cls-88{fill:#595959;}.cls-89{fill:#acacac;}.cls-90{fill:#8a8b8a;}.cls-91{fill:#7e7e7e;}.cls-92{fill:#323332;}.cls-93{fill:#3a3b3a;}.cls-94{fill:#abacab;}.cls-95{fill:#5c5c5c;}.cls-96{fill:#bcbdbc;}.cls-97{fill:#7c7c7c;}.cls-98{fill:#bebfbe;}.cls-99{fill:#666;}.cls-100{fill:#c2c2c2;}.cls-101{fill:#3b3c3b;}.cls-102{fill:#a7a8a7;}.cls-103{fill:#555;}.cls-104{fill:#4d4e4d;}.cls-105{fill:#a4a5a4;}.cls-106{fill:#4f4f4f;}.cls-107{fill:#8a8a8a;}.cls-108{fill:#888;}.cls-109{fill:#dedede;}.cls-110{fill:#252525;}.cls-111{fill:#b2b1b2;}.cls-112{fill:#707070;}.cls-113{fill:#232423;}.cls-114{fill:#828382;}.cls-115{fill:#818281;}.cls-116{fill:#dadada;}.cls-117{fill:#515151;}.cls-118{fill:#b6b7b6;}.cls-119{fill:#8c8d8c;}.cls-120{fill:#8c8c8c;}.cls-121{fill:#909090;}.cls-122{fill:#a3a4a3;}.cls-123{fill:#505050;}.cls-124{fill:#909190;}.cls-125{fill:#333433;}.cls-126{fill:#a2a2a2;}.cls-127{fill:#2b2c2b;}.cls-128{fill:#d5d5d5;}.cls-129{fill:#b3b4b3;}.cls-130{fill:#676767;}.cls-131{fill:#868686;}.cls-132{fill:#3f403f;}.cls-133{fill:#a3a3a3;}.cls-134{fill:#c6c6c6;}.cls-135{fill:#939493;}.cls-136{fill:#9c9d9c;}.cls-137{fill:#d6d6d6;}.cls-138{fill:#868786;}.cls-139{fill:#676867;}.cls-140{fill:#df1414;}.cls-141{fill:#6ba946;}.cls-142{fill:#fefefe;}.cls-143{fill:#fdfdfd;}.cls-144{fill:#6cac47;}.cls-145{fill:#0f1a0a;}.cls-146{fill:#0f0f0f;}.cls-147{fill:#243a17;}.cls-148{fill:#070c04;}.cls-149{fill:#6dac47;}.cls-150{fill:#1f1f1f;}.cls-151{fill:#585958;}.cls-152{fill:#5e953d;}.cls-153{fill:#3a5d25;}.cls-154{fill:#222;}.cls-155{fill:#47722e;}.cls-156{fill:#e3e3e3;}.cls-157{fill:#0b1206;}.cls-158{fill:#313131;}.cls-159{fill:#48732f;}.cls-160{fill:#0e1608;}.cls-161{fill:#191919;}.cls-162{fill:#253c18;}.cls-163{fill:#686868;}.cls-164{fill:#535453;}.cls-165{fill:#1d2e12;}.cls-166{fill:#5d943c;}.cls-167{fill:#111b0a;}.cls-168{fill:#16230e;}.cls-169{fill:#10190a;}.cls-170{fill:#c7c8c7;}.cls-171{fill:#1e1f1e;}.cls-172{fill:#598d3a;}.cls-173{fill:#558738;}.cls-174{fill:#121e0b;}.cls-175{fill:#101a0a;}.cls-176{fill:#141414;}.cls-177{fill:#262626;}.cls-178{fill:#1c1c1c;}.cls-179{fill:#3c5f27;}.cls-180{fill:#101010;}.cls-181{fill:#464646;}.cls-182{fill:#192810;}.cls-183{fill:#1d1d1d;}.cls-184{fill:#646464;}.cls-185{fill:#4e7d33;}.cls-186{fill:#1c2c12;}.cls-187{fill:#2a441b;}.cls-188{fill:#4c7931;}.cls-189{fill:#325121;}.cls-190{fill:#2c471c;}.cls-191{fill:#1b2c12;}.cls-192{fill:#111211;}.cls-193{fill:#4d7c33;}.cls-194{fill:#5c5d5c;}.cls-195{fill:#3d6127;}.cls-196{fill:#1f3214;}.cls-197{fill:#919191;}.cls-198{fill:#28411a;}.cls-199{fill:#28401a;}.cls-200{fill:#41692a;}.cls-201{fill:#212121;}.cls-202{fill:#345322;}.cls-203{fill:#345422;}.cls-204{fill:#2b451b;}.cls-205{fill:#568939;}.cls-206{fill:#345321;}.cls-207{fill:#4a4a4a;}.cls-208{fill:#17250f;}.cls-209{fill:#578b39;}.cls-210{fill:#565756;}.cls-211{fill:#223816;}.cls-212{fill:#273f19;}.cls-213{fill:#528235;}.cls-214{fill:#1a2910;}.cls-215{fill:#5b903b;}.cls-216{fill:#0d1608;}.cls-217{fill:#14200c;}.cls-218{fill:#c1c2c1;}.cls-219{fill:#2e4a1e;}.cls-220{fill:#e0e0e0;}.cls-221{fill:#46702e;}.cls-222{fill:#182810;}.cls-223{fill:#243b17;}.cls-224{fill:#558637;}.cls-225{fill:#538436;}.cls-226{fill:#959695;}.cls-227{fill:#47712e;}.cls-228{fill:#1d2d13;}.cls-229{fill:#cecece;}.cls-230{fill:#858585;}.cls-231{fill:#518135;}.cls-232{fill:#434343;}.cls-233{fill:#3b3b3b;}.cls-234{fill:#1e3113;}.cls-235{fill:#0e1709;}.cls-236{fill:#203414;}.cls-237{fill:#2b2b2b;}.cls-238{fill:#0c1408;}.cls-239{fill:#304c1e;}.cls-240{fill:#203415;}.cls-241{fill:#253b18;}.cls-242{fill:#223616;}.cls-243{fill:#203315;}.cls-244{fill:#48742f;}.cls-245{fill:#2d491d;}.cls-246{fill:#558838;}.cls-247{fill:#243a18;}.cls-248{fill:#456f2d;}.cls-249{fill:#4a7530;}.cls-250{fill:#4f7f34;}.cls-251{fill:#2e491d;}.cls-252{fill:#3d6128;}.cls-253{fill:#446c2c;}.cls-254{fill:#1a2b11;}.cls-255{fill:#588b39;}.cls-256{fill:#1e3114;}.cls-257{fill:#1b2a11;}.cls-258{fill:#6e6f6e;}.cls-259{fill:#bfbfbf;}.cls-260{fill:#151515;}.cls-261{fill:#528236;}.cls-262{fill:#121412;}.cls-263{fill:#272727;}.cls-264{fill:#5c913b;}.cls-265{fill:#304d1f;}.cls-266{fill:#172710;}.cls-267{fill:#223716;}.cls-268{fill:#0e1609;}.cls-269{fill:#737473;}.cls-270{fill:#2f4b1e;}.cls-271{fill:#3d6327;}.cls-272{fill:#41682a;}.cls-273{fill:#1e3013;}.cls-274{fill:#cccdcc;}.cls-275{fill:#29431b;}.cls-276{fill:#272827;}.cls-277{fill:#1a1b1a;}.cls-278{fill:#2e2e2e;}.cls-279{fill:#363736;}.cls-280{fill:#9d9d9d;}.cls-281{fill:#797979;}.cls-282{fill:#578939;}.cls-283{fill:#15230d;}.cls-284{fill:#4f7e33;}.cls-285{fill:#797879;}.cls-286{fill:#c3c3c3;}.cls-287{fill:#666766;}.cls-288{fill:#e2e2e2;}.cls-289{fill:#babbba;}.cls-290{fill:#41692b;}.cls-291{fill:#598d3b;}.cls-292{fill:#9b9c9b;}.cls-293{fill:#373837;}.cls-294{fill:#16250e;}.cls-295{fill:#395c25;}.cls-296{fill:#598c3a;}.cls-297{fill:#18260f;}.cls-298{fill:#b2b2b2;}.cls-299{fill:#182610;}.cls-300{fill:#335321;}.cls-301{fill:#528136;}.cls-302{fill:#2d481d;}.cls-303{fill:#6e6e6e;}.cls-304{fill:#4d7b32;}.cls-305{fill:#42682a;}.cls-306{fill:#42692a;}.cls-307{fill:#3c6128;}.cls-308{fill:#456d2d;}.cls-309{fill:#639d41;}.cls-310{fill:#5e963d;}.cls-311{fill:#568938;}.cls-312{fill:#548537;}.cls-313{fill:#4e7b32;}.cls-314{fill:#538437;}.cls-315{fill:#5d933d;}.cls-316{fill:#436c2b;}.cls-317{fill:#5b913c;}.cls-318{fill:#979797;}.cls-319{fill:#e4e4e4;}.cls-320{fill:#717171;}.cls-321{fill:#d1d1d1;}.cls-322{fill:#e01414;}.cls-322,.cls-327,.cls-328,.cls-329{stroke:#000;}.cls-322,.cls-323,.cls-326,.cls-327{stroke-linecap:round;}.cls-322,.cls-323,.cls-326{stroke-linejoin:round;}.cls-322,.cls-323{stroke-width:7px;}.cls-323,.cls-326,.cls-327,.cls-328,.cls-329{fill:none;}.cls-323{stroke:#fff;}.cls-324{fill:#fff;}.cls-325{fill:#ff92f7;}.cls-326{stroke:#e01414;}.cls-327,.cls-328,.cls-329{stroke-miterlimit:10;}.cls-327{stroke-width:5px;}.cls-328{stroke-width:8px;}.cls-329{stroke-width:8.3px;}</style></defs><title>KARAOKE SMACKDOWN3</title><path d="M156.82,112.68c.3.64,1,.8,1.52,1.12.13.16.34.2.49.34s.31.28.48.41l2.27,1.9a1.13,1.13,0,0,0,.47.37.62.62,0,0,1,.27.24c0,.28.15.36.4.35a10.56,10.56,0,0,1,.82.68l.51.45a16.73,16.73,0,0,1,2.68,2.64,1,1,0,0,0,.45.39.64.64,0,0,1,.27.24,1.05,1.05,0,0,0,.75.75.62.62,0,0,1,.24.27.93.93,0,0,0,.39.46,5,5,0,0,1,1.48,1.55,5.75,5.75,0,0,0,1.23,1.46.7.7,0,0,1,.28.26,1.05,1.05,0,0,0,.74.76c.27.15.26.51.5.68a2.07,2.07,0,0,1,.15.34.77.77,0,0,0,.38.45,5,5,0,0,1,1.51,1.89,3.56,3.56,0,0,0,.41.53c.13.13.16.34.33.44a22.66,22.66,0,0,0,1.87,2.69.51.51,0,0,1,.21.31c0,.12,0,.24.07.35s.22.29.36.41a5.44,5.44,0,0,0,.39.55c.13.14.16.34.33.45.53,1,1.05,1.91,1.61,2.86.13.21.34.48.66.18a1.32,1.32,0,0,1,.69-.23c.44-.05.94.12,1.32-.25.23-.1.35-.36.6-.42.47-.08,1,0,1.42-.07a19.11,19.11,0,0,1,2.14,0,1.9,1.9,0,0,0,1.07-.25c.9-.12,1.81,0,2.72-.06a2.18,2.18,0,0,0,1.1-.17,26.16,26.16,0,0,1,5.18-2,15.59,15.59,0,0,1,18.76,13.58,6.26,6.26,0,0,0,1.11,3.2,30.32,30.32,0,0,1,3.84,7.65.42.42,0,0,1-.36.38c-1.5.45-3,.95-4.5,1.41a.73.73,0,0,1-.46,0c-.61-.53-.68-1.34-1-2-.11-.22-.12-.56-.39-.6s-.38.3-.51.5a15.29,15.29,0,0,1-8.7,6.39,15.94,15.94,0,0,1-20.28-13.23,11.8,11.8,0,0,1,.15-4.95,16.24,16.24,0,0,1,.76-2.64c.08-.2.27-.42.11-.62s-.48-.07-.71,0A26.18,26.18,0,0,0,174,150.47a26.35,26.35,0,0,0-3.64,37.08,19.46,19.46,0,0,0,2,2.17,1.28,1.28,0,0,1,.26,1.78,8.38,8.38,0,0,1-2.66,2.92,1.09,1.09,0,0,1-1.53-.13,30.86,30.86,0,0,1-6-7.68,31.84,31.84,0,0,1-3.88-12,33.47,33.47,0,0,1,.91-12.32c.31-1.18.31-1.18-.86-1.65a27,27,0,0,0-23.13,1.19c-.81.44-.8.56,0,1a10.92,10.92,0,0,1,2.2,1.49,17.22,17.22,0,0,1,3.76,4.31c3.26,6.24,2.95,12.27-1.32,17.9a15,15,0,0,1-10.76,5.9,16.55,16.55,0,0,1-7.09-.85.93.93,0,0,0-.8-.09,16.36,16.36,0,0,0,.75,3,2.9,2.9,0,0,1,.29,1.47.59.59,0,0,1-.41.36c-1.57.42-3.12.93-4.68,1.38a.36.36,0,0,1-.27-.06,31.7,31.7,0,0,1-2-10.36,4.6,4.6,0,0,0-.69-2.4,15.59,15.59,0,0,1,11.36-23.69,2.21,2.21,0,0,0,1.16-.58,33.27,33.27,0,0,1,15.43-7.25c.23-.06.35-.25.51-.39.41-.43.09-1,.43-1.5v0c.44-.64.07-1.37.25-2a1.28,1.28,0,0,1,.13-.29,8.63,8.63,0,0,0,.15-2.63c0-1.94.82-3.85.4-5.77-.44-2.07-.22-4.17-.6-6.22a1.7,1.7,0,0,1-.15-.45c-.12-.61.13-1.26-.21-1.85a1,1,0,0,1-.12-.26,4.74,4.74,0,0,1-.08-1.13c0-.39.09-.8-.2-1.15a.77.77,0,0,1-.1-.25,7,7,0,0,0-.63-2.47c-.66-.27-.23-.91-.46-1.36a5.58,5.58,0,0,1-.68-2.23c-.2-.23-.09-.59-.34-.8l0-.33c-.2-.24-.17-.57-.35-.82a1.13,1.13,0,0,1-.12-.21,1.11,1.11,0,0,1-.08-.35c0-.11,0-.23-.06-.34a.69.69,0,0,0-.35-.4c-.61-.5-.59-1.36-1.1-1.92a.63.63,0,0,1-.2-.33c-.07-.27,0-.62-.5-.5-.38.38-.1.89-.25,1.32s0,.86,0,1.28a3.33,3.33,0,0,0-.42.87c-.12.19-.29.34-.42.52-.34.38-.14.87-.26,1.29,0,.24,0,.49-.24.65a1.56,1.56,0,0,0-.34.79c-.15.12-.19.34-.35.46s-.32.18-.35.39,0,.23,0,.35a2.31,2.31,0,0,1,0,.37.54.54,0,0,1-.21.32l0,0a.62.62,0,0,1-.25.26c-.34.14-.23.55-.46.75A10.7,10.7,0,0,1,132.4,130a1,1,0,0,0-.1.34c-.16.13-.2.34-.34.49s-.28.31-.4.48a1.23,1.23,0,0,1-.75.76.86.86,0,0,0-.38.46.78.78,0,0,1-.24.27l-2.65,2.66a.92.92,0,0,1-.28.24.88.88,0,0,0-.45.38c0,.28-.17.35-.41.35-.18.24-.59.14-.71.47a.81.81,0,0,1-.25.27c-1,.69-2.06,1.37-3.08,2.08a1.06,1.06,0,0,1-.67.24c-.26.21-.65.16-.87.43a4.4,4.4,0,0,0-.5.38,1.17,1.17,0,0,1-.35.14l-.37.07a9.32,9.32,0,0,1-1.92,1.09c-.07.49-.48.28-.75.36a1.86,1.86,0,0,1-.9.24,5.45,5.45,0,0,0-2.18.75c-1.54.58-3.16.84-4.73,1.3-.18.15-.43.17-.58.35l-.35,0c-.37.25-.91.09-1.23.48a3.15,3.15,0,0,1-1.22.14H105c-.55,0-1.16-.16-1.57.4a1.06,1.06,0,0,1-.42.15c-.76.11-1.56-.15-2.31.2-.28.19-.66.06-.92.3a127.05,127.05,0,0,1-13.8.37,3.79,3.79,0,0,0-1.64-.15c-.36,0-.75.07-1.07-.19l-.55,0a4.91,4.91,0,0,0-.59-.33,8.62,8.62,0,0,0-2.08-.23,1,1,0,0,1-.42-.1c-.47-.6-1.13-.34-1.72-.4-.25,0-.51,0-.76,0H76A1.42,1.42,0,0,1,74.9,145h-.33c-.43-.31-1-.06-1.41-.25a3.08,3.08,0,0,0-1.55-.3,4.25,4.25,0,0,1-1.07-.06A2.61,2.61,0,0,0,68.9,144a6.45,6.45,0,0,1-2-.13.61.61,0,0,1,0-.81h0c.33-.32,0-.85.37-1.15a1.85,1.85,0,0,0,.4-1.13c.27-.27.06-.71.34-1-.09-.45.33-.73.4-1.13a.83.83,0,0,0,.31-.46,2.07,2.07,0,0,0,0-.35,2.43,2.43,0,0,1,0-.38.63.63,0,0,1,.2-.33c.34-.14.34-.46.37-.76.31-.25.09-.7.35-1l1.55-3.78c.17-.13.21-.35.34-.51s.21-.61.4-.88c-.12-.46.2-.75.4-1.09.27-.18.13-.57.38-.76h0c.27-.19.14-.57.37-.77h0a.86.86,0,0,0,.33-.46,2.25,2.25,0,0,1,.06-.36.63.63,0,0,1,.19-.31l0,0c.14-.18.17-.43.32-.61l0,0c.27-.19.12-.58.39-.76.19-.42.28-.9.71-1.18s.17-.55.4-.75h0c.3-.16.15-.56.4-.75v-.36c.15-.13.19-.33.32-.47a3.51,3.51,0,0,0,.4-.53,4.11,4.11,0,0,1,1.16-1.87.71.71,0,0,0,.33-.46c0-.12,0-.24.07-.36a.46.46,0,0,1,.22-.29,1.4,1.4,0,0,0,.76-1.11.59.59,0,0,1,.26-.28c.45-.24.58-.73.84-1.11a5.16,5.16,0,0,1,1.49-1.91,11.32,11.32,0,0,1,1.09-1.1,3.45,3.45,0,0,1,.14-.34,2.39,2.39,0,0,1,.13-.21,2.35,2.35,0,0,0,.36-.47,10.46,10.46,0,0,1,2.13-2.6.64.64,0,0,0,.18-.39,7.49,7.49,0,0,1,1.1-1.22,1.14,1.14,0,0,1,.35-.13.42.42,0,0,0,.43-.43,1.4,1.4,0,0,1,.13-.34,3.7,3.7,0,0,1,.85-.73c.88-.7,1.77-1.39,2.63-2.12a.67.67,0,0,1,.4-.17c.17-.24.54-.11.69-.39a1.87,1.87,0,0,1,.15-.32.55.55,0,0,1,.18-.16,1.31,1.31,0,0,1,.34-.09l.34-.07a7.4,7.4,0,0,0,.75-.73,4.29,4.29,0,0,1,2.27-1.48c.21-.22.63-.11.76-.47a.75.75,0,0,1,.26-.24,32.77,32.77,0,0,0,3-1.54.61.61,0,0,1,.35-.21,1.75,1.75,0,0,1,.4,0h.38a2.47,2.47,0,0,0,.47,0c.23,0,.25-.23.3-.4a.48.48,0,0,1,.22-.28l.7,0c.33-.31.85,0,1.16-.37h0a1,1,0,0,1,.7-.18,3.19,3.19,0,0,0,1.61-.23c.17-.13.4-.16.56-.33l.36,0c.61-.35,1.39,0,2-.51a6.77,6.77,0,0,1,1.19,0h6.24a7.72,7.72,0,0,1,1.18,0,4.7,4.7,0,0,0,2,.35,1.2,1.2,0,0,1,.46.07c.61.48,1.42.11,2.06.48l.35,0c.33.33.84,0,1.17.35h0c.33.37.77.15,1.16.21A1.28,1.28,0,0,1,126,97c.27.41.82.17,1.13.48h0a1,1,0,0,0,.89.33.87.87,0,0,1,.63.25c.35.19.66.48,1.11.39.15.13.36.19.52.31s.62.19.85.42c1.25.28,2.24,1.11,3.42,1.53.12.17.34.21.49.33s.61.19.85.42c.27.08.69-.16.76.36.34.3.86.32,1.16.7a2.2,2.2,0,0,0,.37.05h.38a2.56,2.56,0,0,1,.39,0,.53.53,0,0,1,.33.21h0a5.33,5.33,0,0,0,.51.31c.23.26.61.2.86.42a19.7,19.7,0,0,1,3.42,1.52c.11.19.33.22.48.35s.62.2.88.4a5.44,5.44,0,0,1,2.24,1.15.79.79,0,0,0,.46.34l.35.06a.47.47,0,0,1,.3.21h0c.14.13.33.19.48.31a3.28,3.28,0,0,0,.52.4,20.76,20.76,0,0,1,3.44,2.09,1.46,1.46,0,0,0,.66.26.57.57,0,0,1,.28.25c.11.34.53.24.7.49.22,0,.41.07.42.34a.81.81,0,0,0,.47.38,1.24,1.24,0,0,1,.33.15C156.3,112.44,156.64,112.45,156.82,112.68Z"/><path d="M222.93,168.29a32.26,32.26,0,0,1-28.39,34.49,31.12,31.12,0,0,1-15.62-2c-.55-.22-.76-.13-1,.4-5.29,9.85-13.43,15.94-24.49,17.66-10.63,1.65-20-1.37-27.94-8.69a29,29,0,0,1-5.11-6.2c0-.05.06-.13.11-.14,1.79-.59,3.55-1.25,5.38-1.68.65.29,1,.91,1.37,1.41a27.37,27.37,0,0,0,40,2.27,25.9,25.9,0,0,0,5-6.41A5.18,5.18,0,0,1,173.6,198a12.24,12.24,0,0,0,3.21-3.59.84.84,0,0,1,1.32-.38,26,26,0,0,0,14.56,3.19A25.66,25.66,0,0,0,205.08,193a26.53,26.53,0,0,0,12.14-22.15,3.77,3.77,0,0,1,.25-2.22c1.52-.52,3.13-.71,4.67-1.18C222.88,167.25,222.87,167.82,222.93,168.29Z"/><path class="cls-1" d="M222.93,168.29c-.06-.63-.28-.79-1-.55a26.54,26.54,0,0,1-4.59,1,.84.84,0,0,1-.57.31,11,11,0,0,1-5.49-.5,1.74,1.74,0,0,1-.93-2.71,9.23,9.23,0,0,1,5.57-3.77l5.32-1.71a38.24,38.24,0,0,1,5.45-.42,8.06,8.06,0,0,1,2.58.52,1.54,1.54,0,0,1,.79,2.57,8.4,8.4,0,0,1-3.34,2.71,20.91,20.91,0,0,1-3,1.37A1,1,0,0,0,222.93,168.29Z"/><path class="cls-1" d="M125.89,202.22a37.08,37.08,0,0,1-5.55,1.71,18.26,18.26,0,0,1-6.67.36h-.09c-.93-.21-2-.36-2.3-1.41s.33-1.77,1-2.39a15.44,15.44,0,0,1,4.87-2.9,39.09,39.09,0,0,1,5.29-1.66,3.34,3.34,0,0,1,2.08-.54,12.51,12.51,0,0,1,5.54.33c1.52.57,2,1.85,1.1,3.07A8.85,8.85,0,0,1,125.89,202.22Z"/><path class="cls-2" d="M143.71,134.33c.16,0,.31.09.35.26a.93.93,0,0,1,0,.29c-.23,2.76.7,5.49.34,8.23a53.33,53.33,0,0,0-.33,5.78.41.41,0,0,1-.38.46,5.28,5.28,0,0,1,0-3,33.14,33.14,0,0,0,0-8.73A5.85,5.85,0,0,1,143.71,134.33Z"/><path class="cls-3" d="M108.92,144.2c.06-.1.11-.29.19-.3a24.39,24.39,0,0,0,6.57-2c.08,0,.19,0,.28,0a.31.31,0,0,1,.07.35c-.1.2-.33.25-.49.39a24.1,24.1,0,0,0-3,.94c-.24.07-.52.13-.77.23-.28.27-.71.08-1,.33l-.7,0A1,1,0,0,1,108.92,144.2Z"/><path class="cls-4" d="M117.3,95.53h-6.51c-.08-.14-.08-.26.07-.34h6.41A.2.2,0,0,1,117.3,95.53Z"/><path class="cls-5" d="M192.4,138c-.35.45-.85.31-1.3.32l-2.53,0a3.17,3.17,0,0,1-2,.09.3.3,0,0,1,0-.46C188.46,137.93,190.43,137.82,192.4,138Z"/><path class="cls-6" d="M143.71,134.33c-.08,1.08.15,2.16,0,3.24-.58-.2-.27-.7-.33-1.06a13.18,13.18,0,0,1-.07-1.41,1.29,1.29,0,0,1-.13-1,.43.43,0,0,1,.15-.24.27.27,0,0,1,.37.09Z"/><path class="cls-7" d="M142.15,126.93c.65.44.59,1.19.79,1.82a3,3,0,0,1,0,.85.25.25,0,0,1-.36,0C142.61,128.66,142,127.87,142.15,126.93Z"/><path class="cls-8" d="M143.7,146.3c.17,1-.07,2,0,3l0,0a.21.21,0,0,1-.34,0l0-2.6C143.38,146.53,143.41,146.33,143.7,146.3Z"/><path class="cls-9" d="M117.68,141.59c0-.21.06-.37.29-.41.65-.13,1.07-.64,1.61-1a.43.43,0,0,1,0,.57A2.68,2.68,0,0,1,117.68,141.59Z"/><path class="cls-10" d="M83.26,146.31c.91.06,1.87-.26,2.71.34a12.18,12.18,0,0,1-2.26,0C83.46,146.68,83.29,146.59,83.26,146.31Z"/><path class="cls-9" d="M77.93,145c.4,0,.8,0,1.19,0s.55.18.53.55a1,1,0,0,1-1.17.05l-.54-.05A.38.38,0,0,1,77.93,145Z"/><path class="cls-11" d="M73.19,144.58c.45.16,1-.21,1.38.37l-2,0c-.26,0-.5,0-.55-.37A1,1,0,0,1,73.19,144.58Z"/><path class="cls-12" d="M87.08,107.55a2.52,2.52,0,0,1-1.16,1.12c-.06-.87.68-1.2,1.15-1.71A.47.47,0,0,1,87.08,107.55Z"/><path class="cls-13" d="M171.46,126.53c-.44-.52-1.21-.82-1.15-1.69.56.2.76.76,1.16,1.12A.42.42,0,0,1,171.46,126.53Z"/><path class="cls-14" d="M103.4,145.53c.2-1.08,1-.34,1.55-.54a.39.39,0,0,1,0,.54l-.35.05A1,1,0,0,1,103.4,145.53Z"/><path class="cls-9" d="M80,145.57l1.69,0c.29,0,.58,0,.61.4a2.46,2.46,0,0,1-1.9,0l-.36,0A.22.22,0,0,1,80,145.57Z"/><path class="cls-15" d="M80.4,146h1.9c.19.05.37.12.41.34C81.93,146.23,81.08,146.65,80.4,146Z"/><path class="cls-16" d="M122.82,96.3c-.72-.06-1.5.32-2.12-.35a.73.73,0,0,1,1,0C122.05,96.05,122.59,95.72,122.82,96.3Z"/><path class="cls-17" d="M67,143.8l2,0a.21.21,0,0,1,0,.33H67C66.77,144.06,66.82,143.93,67,143.8Z"/><path class="cls-18" d="M83.25,112.65a2.85,2.85,0,0,1-1.36,1.13c0-.56.41-.83.78-1.13A.44.44,0,0,1,83.25,112.65Z"/><path class="cls-19" d="M183.87,138.73c0,.28-.25.28-.44.34-.38.33-.84.16-1.27.19a.53.53,0,0,1-.44-.19c.41-.76,1.14-.19,1.68-.4A.35.35,0,0,1,183.87,138.73Z"/><path class="cls-20" d="M143.35,149.36l.34,0c0,.53,0,1.06,0,1.59,0,.27,0,.5-.39.51A10.22,10.22,0,0,1,143.35,149.36Z"/><path class="cls-21" d="M137,120.81c.07-.27-.08-.65.36-.76a.3.3,0,0,1,.39,0c-.46.49-.09,1.31-.69,1.74l-.13-.09A.8.8,0,0,1,137,120.81Z"/><path class="cls-22" d="M105.72,145l1.3-.08.09.1a.4.4,0,0,1-.1.5h-1.34C105.55,145.34,105.52,145.17,105.72,145Z"/><path class="cls-23" d="M70.55,144.17l1.1.06a.21.21,0,0,1,0,.33c-.65,0-1.38.3-1.94-.32C70,144,70.26,144,70.55,144.17Z"/><path class="cls-19" d="M110.86,95.19l-.07.34-1.1,0a.54.54,0,0,1-.77,0C109.46,94.8,110.21,95.28,110.86,95.19Z"/><path class="cls-4" d="M108.92,95.53l.77,0c-.54.68-1.26.33-1.92.35C108,95.34,108.55,95.71,108.92,95.53Z"/><path class="cls-24" d="M99.77,146.28c.07-.51.53-.24.78-.37a1.12,1.12,0,0,1,1.12-.06c.12.15.16.29,0,.43Z"/><path class="cls-16" d="M120.34,95.92c-.65-.1-1.38.33-1.93-.33a.47.47,0,0,1,.42-.22,1.81,1.81,0,0,1,1.12.16l.35.06A.2.2,0,0,1,120.34,95.92Z"/><path class="cls-25" d="M183.87,138.73l-.47-.06c.52-.69,1.27-.21,1.9-.39l.1.08a.23.23,0,0,1-.09.32Z"/><path class="cls-26" d="M80.4,115.69a1.36,1.36,0,0,1-.75,1.34.41.41,0,0,1,0-.57C79.85,116.16,80,115.77,80.4,115.69Z"/><path class="cls-27" d="M88.78,105.82a1.07,1.07,0,0,1-.74.77.45.45,0,0,1-.59,0A1.25,1.25,0,0,1,88.78,105.82Z"/><path class="cls-28" d="M143.31,151.41c0,.6.38,1.29-.37,1.73a.77.77,0,0,1,0-.95C143.09,152,142.77,151.47,143.31,151.41Z"/><path class="cls-29" d="M74.9,145,76,145a.37.37,0,0,1,0,.52C75.61,145.46,74.94,145.88,74.9,145Z"/><path class="cls-30" d="M101.65,146.28l.06-.33c.38-.37.85-.16,1.28-.2a.48.48,0,0,1,.43.22C102.93,146.63,102.24,146.19,101.65,146.28Z"/><path class="cls-31" d="M76.06,145.51l0-.52h1.13a.36.36,0,0,1,0,.53Z"/><path class="cls-32" d="M163.47,118.18a1.18,1.18,0,0,1-.75-.77,1.28,1.28,0,0,1,1.32.77A.43.43,0,0,1,163.47,118.18Z"/><path class="cls-33" d="M137.82,102.77c-.31-.4-1-.41-1.13-1,.4.07.9-.15,1.14.38A.47.47,0,0,1,137.82,102.77Z"/><path class="cls-34" d="M107,96.32c-.43.73-1.14.21-1.7.37a.22.22,0,0,1,0-.35l.71-.06A.8.8,0,0,1,107,96.32Z"/><path class="cls-35" d="M142.57,129.57l.36,0h0c.31.31.17.7.2,1.07a1,1,0,0,1-.12.62c-.15.11-.29.14-.42,0Z"/><path class="cls-36" d="M137.79,120.05h-.39l.07-1.43c0-.16.14-.18.27-.17a.18.18,0,0,1,.14.17Z"/><path class="cls-37" d="M80,145.57l0,.34c-.53,0-1.15.27-1.56-.33l1.17-.05Z"/><path class="cls-38" d="M70.55,144.17l-.81.07-.72-.06,0-.33C69.52,143.91,70.13,143.55,70.55,144.17Z"/><path class="cls-39" d="M71.68,144.56l0-.33c.53.06,1.15-.32,1.54.35l-1.15,0Z"/><path class="cls-40" d="M108.92,144.2l1.15,0c-.4.57-1,.33-1.53.37C108.52,144.32,108.7,144.24,108.92,144.2Z"/><path class="cls-36" d="M138.58,117.78v.39c-.35,0-.43.37-.7.45l-.09-.09a1.16,1.16,0,0,1-.07-1.07C138.19,117.07,138.33,117.57,138.58,117.78Z"/><path class="cls-41" d="M103.42,146l-.41-.07c-.09-.13-.1-.25,0-.33l.34,0,1.17.05C104.34,146.16,103.79,145.79,103.42,146Z"/><path class="cls-8" d="M118.83,95.52l-.42.07-1.11-.06,0-.33h1.49C118.92,95.27,118.91,95.39,118.83,95.52Z"/><path class="cls-42" d="M173,128.06a.67.67,0,0,1-.41-.74c.42.13.84.25,1,.75A.43.43,0,0,1,173,128.06Z"/><path class="cls-43" d="M94.26,101.77c-.13.42-.25.85-.75,1a.45.45,0,0,1,0-.59C93.59,101.74,93.94,101.77,94.26,101.77Z"/><path class="cls-44" d="M156.82,112.68a.71.71,0,0,1-.76-.4.41.41,0,0,1,0-.56C156.55,111.84,156.65,112.29,156.82,112.68Z"/><path class="cls-45" d="M120.34,95.92l0-.33c.48,0,1-.29,1.37.32l-1,0Z"/><path class="cls-46" d="M107,96.32l-1,0c.32-.66.91-.27,1.38-.34C107.4,96.2,107.23,96.27,107,96.32Z"/><path class="cls-47" d="M67,143.8c0,.12,0,.25,0,.38-.61-.35-.62-.63-.06-1.1Z"/><path class="cls-48" d="M67.3,141.94c-.09.39.21.92-.37,1.15C67,142.68,66.63,142.14,67.3,141.94Z"/><path class="cls-49" d="M125.46,97.07c-.39-.1-.95.28-1.13-.4l1.1.06A.2.2,0,0,1,125.46,97.07Z"/><path class="cls-50" d="M142.93,152.19v.95l-.57.16C142.75,153,142.28,152.33,142.93,152.19Z"/><path class="cls-19" d="M142.59,131.25l.32.07c.27.17.21.45.22.71a.51.51,0,0,1-.21.41C142.28,132.19,142.66,131.66,142.59,131.25Z"/><path class="cls-51" d="M104.54,96.68c-.22.64-.74.36-1.16.37C103.61,96.45,104.13,96.74,104.54,96.68Z"/><path class="cls-49" d="M124.34,96.67c-.42,0-.93.29-1.17-.35C123.58,96.37,124.1,96.07,124.34,96.67Z"/><path class="cls-52" d="M143,133.92v-1.13a.31.31,0,0,1,.43.06,1.18,1.18,0,0,1,0,1.08l-.1,0C143.15,134.05,143.05,134.06,143,133.92Z"/><path class="cls-30" d="M143,133.92l.3.05,0,1.13C142.66,134.85,143.05,134.32,143,133.92Z"/><path class="cls-53" d="M118.83,95.52c0-.11,0-.22-.07-.33.41.08.95-.32,1.19.34Z"/><path class="cls-40" d="M107,144.93c.26-.59.75-.32,1.17-.31-.06.53-.54.22-.78.38a.35.35,0,0,1-.4,0A.06.06,0,0,1,107,144.93Z"/><path class="cls-54" d="M77.19,145.52l0-.53h.77v.55Z"/><path class="cls-55" d="M105.72,145l0,.52h-.75l0-.54Z"/><path class="cls-56" d="M127.17,97.45c-.42,0-.9.21-1.16-.34a.27.27,0,0,1,.41,0C126.71,97.12,127.08,97,127.17,97.45Z"/><path class="cls-56" d="M128,98c-.44.07-.84.08-.79-.55h.75A.38.38,0,0,1,128,98Z"/><path class="cls-57" d="M128,98l0-.54c.44-.07.82,0,.77.57Z"/><path class="cls-25" d="M186.49,138l0,.35a.9.9,0,0,1-1.11,0l-.06-.07C185.57,137.71,186.08,138,186.49,138Z"/><path class="cls-58" d="M145.47,105.79c-.37,0-.84.26-1-.34a.46.46,0,0,1,.6,0C145.28,105.45,145.53,105.45,145.47,105.79Z"/><path class="cls-59" d="M135,101.08c-.19-.08-.37-.16-.37-.4.36,0,.81-.22.95.36A.4.4,0,0,1,135,101.08Z"/><path class="cls-60" d="M149.2,107.93c-.21-.05-.43-.08-.38-.39.36,0,.83-.24,1,.36A.44.44,0,0,1,149.2,107.93Z"/><path class="cls-61" d="M97.52,99.93c-.16.6-.63.32-1,.36-.06-.33.17-.36.4-.39A.44.44,0,0,1,97.52,99.93Z"/><path class="cls-62" d="M145.06,105.4l-.6,0c-.19-.07-.37-.16-.35-.41C144.46,105.07,144.92,104.82,145.06,105.4Z"/><path class="cls-4" d="M116,142.29v-.35h1c.06.33-.2.32-.4.38A.41.41,0,0,1,116,142.29Z"/><path class="cls-63" d="M125.46,136.8c.12-.59.59-.34.94-.38,0,.25-.14.35-.36.39A.43.43,0,0,1,125.46,136.8Z"/><path class="cls-64" d="M154.9,111.34c-.35,0-.81.19-.93-.39a.43.43,0,0,1,.58,0C154.73,111,154.89,111.11,154.9,111.34Z"/><path class="cls-65" d="M76.43,121.79c-.06.2-.14.38-.39.38,0-.35-.22-.82.37-1A.43.43,0,0,1,76.43,121.79Z"/><path class="cls-66" d="M179.07,136.41c-.24,0-.33-.17-.4-.36a.42.42,0,0,1,0-.58C179.26,135.6,179.05,136.05,179.07,136.41Z"/><path class="cls-67" d="M69.73,135.45c0,.37.18.8-.35,1C69.42,136.07,69.13,135.6,69.73,135.45Z"/><path class="cls-68" d="M178.69,135.47l0,.58c-.42,0-.35-.31-.41-.55a.39.39,0,0,1,0-.35l.09-.08A.55.55,0,0,1,178.69,135.47Z"/><path class="cls-28" d="M131.17,99.15c-.36,0-.82.25-1-.34a.41.41,0,0,1,.59,0C131,98.82,131.21,98.86,131.17,99.15Z"/><path class="cls-69" d="M140.31,121.2c.6.18.32.64.33,1l-.35,0a.79.79,0,0,1-.2-.41A.59.59,0,0,1,140.31,121.2Z"/><path class="cls-70" d="M130.79,98.76l-.59,0c-.2-.07-.43-.09-.4-.39C130.16,98.43,130.62,98.18,130.79,98.76Z"/><path class="cls-49" d="M140.69,103.52c-.37,0-.82.24-1-.34a.44.44,0,0,1,.6-.05C140.49,103.19,140.75,103.2,140.69,103.52Z"/><path class="cls-43" d="M134.21,126.94c0-.35-.23-.83.37-1a.46.46,0,0,1,0,.59C134.56,126.76,134.49,127,134.21,126.94Z"/><path class="cls-71" d="M126.42,97.06l-.41,0-.55,0,0-.34C125.8,96.71,126.22,96.56,126.42,97.06Z"/><path class="cls-72" d="M110.77,144.18c.19-.57.65-.31,1-.33C111.61,144.46,111.15,144.18,110.77,144.18Z"/><path class="cls-73" d="M102.68,97.09l0,.34a.41.41,0,0,1-.3.19.87.87,0,0,1-.48,0,.27.27,0,0,1-.16-.17C101.87,96.84,102.32,97.1,102.68,97.09Z"/><path class="cls-74" d="M120.7,139.83c.16-.6.62-.33,1-.35.06.32-.17.35-.39.39A.45.45,0,0,1,120.7,139.83Z"/><path class="cls-61" d="M92.76,103.15c-.12.61-.6.34-1,.38,0-.27.12-.37.36-.4A.45.45,0,0,1,92.76,103.15Z"/><path class="cls-15" d="M140.3,103.13l-.6.05c-.2-.06-.43-.09-.38-.39C139.68,102.81,140.14,102.53,140.3,103.13Z"/><path class="cls-75" d="M68,139.83c0,.35.28.83-.34,1C67.69,140.44,67.54,140,68,139.83Z"/><path class="cls-76" d="M135,101.08l.58,0c.2.06.43.1.39.39C135.56,101.43,135.11,101.66,135,101.08Z"/><path class="cls-77" d="M120.7,139.83l.6,0c0,.44-.35.31-.57.39a.36.36,0,0,1-.35,0l-.08-.1A.67.67,0,0,1,120.7,139.83Z"/><path class="cls-78" d="M175.84,131.65c-.24,0-.33-.16-.4-.35a.44.44,0,0,1,0-.58C176,130.84,175.81,131.29,175.84,131.65Z"/><path class="cls-79" d="M71.67,131.29a.59.59,0,0,1-.39.38c0-.35-.24-.82.36-1A.41.41,0,0,1,71.67,131.29Z"/><path class="cls-53" d="M131.91,130.7c0-.23.13-.38.39-.37-.05.35.23.83-.38.95A.43.43,0,0,1,131.91,130.7Z"/><path class="cls-12" d="M158.71,114.19c-.24,0-.4-.12-.37-.39.34.06.83-.23.95.39A.44.44,0,0,1,158.71,114.19Z"/><path class="cls-80" d="M71.67,131.29l0-.59c0-.2,0-.48.38-.42C72,130.64,72.28,131.12,71.67,131.29Z"/><path class="cls-81" d="M116,142.29l.58,0c-.16.58-.62.34-1,.35C115.54,142.4,115.76,142.36,116,142.29Z"/><path class="cls-52" d="M82.7,112.29c-.07-.44.12-.63.56-.58a.42.42,0,0,1,0,.57h0A.39.39,0,0,1,82.7,112.29Z"/><path class="cls-82" d="M140.31,121.2l0,.59a.36.36,0,0,1-.54,0v-.57a.39.39,0,0,1,.54,0Z"/><path class="cls-83" d="M92.19,102.78c0-.44.16-.62.59-.56a.41.41,0,0,1,0,.56h0A.45.45,0,0,1,92.19,102.78Z"/><path class="cls-84" d="M75.63,123.28c.06.35.12.71-.4.75C75.26,123.73,75.13,123.33,75.63,123.28Z"/><path class="cls-51" d="M105.32,96.34v.35h-.78C104.63,96.18,105,96.34,105.32,96.34Z"/><path class="cls-85" d="M73.17,127.66c0,.34.11.69-.37.77C72.82,128.13,72.64,127.72,73.17,127.66Z"/><path class="cls-85" d="M72.8,128.43c0,.34.1.69-.38.76C72.42,128.88,72.32,128.51,72.8,128.43Z"/><path class="cls-67" d="M181.72,139.07l.41,0a.22.22,0,0,1,0,.34c-.25,0-.5.14-.75,0C181.31,139.17,181.52,139.13,181.72,139.07Z"/><path class="cls-86" d="M74.52,125.21c0,.34.1.69-.39.76C74.11,125.64,74.08,125.31,74.52,125.21Z"/><path class="cls-48" d="M137.1,121.79c-.1.27.08.68-.38.76l-.12-.08a.64.64,0,0,1,0-.7.33.33,0,0,1,.41,0Z"/><path class="cls-84" d="M76,122.53c0,.34.11.7-.4.75C75.64,123,75.52,122.58,76,122.53Z"/><path class="cls-87" d="M136.25,123.27l0-.74a.23.23,0,0,1,.32,0,.21.21,0,0,1,.11,0C136.61,122.82,136.78,123.28,136.25,123.27Z"/><path class="cls-88" d="M140.67,122.54c.56.08.35.48.34.8C140.41,123.28,140.71,122.84,140.67,122.54Z"/><path class="cls-89" d="M135.52,124.44c.08-.18.17-.34.39-.38.06.33.14.66-.32.77l-.11,0A.27.27,0,0,1,135.52,124.44Z"/><path class="cls-90" d="M143.31,132.82l-.33,0-.06-.35L143,132a.21.21,0,0,1,.33,0l0,0A.55.55,0,0,1,143.31,132.82Z"/><path class="cls-91" d="M73.74,126.91v.37a.37.37,0,0,1-.54,0v-.37A.36.36,0,0,1,73.74,126.91Z"/><path class="cls-92" d="M130.22,132.44c0-.44.31-.39.59-.38l0,.36A.38.38,0,0,1,130.22,132.44Z"/><path class="cls-93" d="M168.83,123.29c-.29,0-.59.07-.6-.37a.41.41,0,0,1,.57,0Z"/><path class="cls-94" d="M130.22,132.44l.55,0c0,.45-.3.38-.58.37Z"/><path class="cls-95" d="M175.45,130.72v.58c-.47,0-.37-.33-.34-.62Z"/><path class="cls-96" d="M168.8,122.93h-.57l0-.36C168.48,122.55,168.79,122.49,168.8,122.93Z"/><path class="cls-97" d="M131.91,130.7v.58l-.36,0C131.55,131,131.42,130.69,131.91,130.7Z"/><path class="cls-21" d="M139.73,121.76l.54,0,0,.37C140,122.16,139.72,122.17,139.73,121.76Z"/><path class="cls-98" d="M177.74,134.71l0-.37c.28,0,.6-.06.58.38A.4.4,0,0,1,177.74,134.71Z"/><path class="cls-99" d="M177.74,134.71h.55l0,.35a.22.22,0,0,1,0,.11.41.41,0,0,1-.52-.1Z"/><path class="cls-100" d="M167.45,121.81l-.35,0a.4.4,0,0,1,0-.56C167.52,121.22,167.46,121.53,167.45,121.81Z"/><path class="cls-4" d="M167.08,121.22l0,.56c-.45,0-.39-.31-.37-.6Z"/><path class="cls-101" d="M126.81,136.07c0-.29-.07-.6.37-.59a.38.38,0,0,1,0,.55Z"/><path class="cls-102" d="M127.16,136l0-.55.36,0C127.54,135.73,127.62,136.05,127.16,136Z"/><path class="cls-103" d="M76.43,121.79l0-.58.35,0C76.79,121.45,76.91,121.78,76.43,121.79Z"/><path class="cls-104" d="M135,125.22v-.38a.32.32,0,0,1,.51,0h.1l-.07.36A.38.38,0,0,1,135,125.22Z"/><path class="cls-105" d="M135,125.22l.54,0v.37a.36.36,0,0,1-.54,0Z"/><path class="cls-11" d="M135,125.59l.54,0c0,.45-.29.4-.57.39Z"/><path class="cls-97" d="M140.28,121.22l-.54,0v-.36a.36.36,0,0,1,.53,0Z"/><path class="cls-106" d="M140.27,120.84h-.53l0-.38a.38.38,0,0,1,.56,0Z"/><path class="cls-107" d="M74.11,126c0,.27.18.61-.32.61C73.78,126.3,73.61,126,74.11,126Z"/><path class="cls-108" d="M125.46,136.8H126c0,.5-.34.35-.6.35Z"/><path class="cls-109" d="M69,137.18l0,.38a.38.38,0,0,1-.53,0C68.43,137.16,68.73,137.18,69,137.18Z"/><path class="cls-110" d="M140.27,120.47l-.56,0,0-.36C140,120.07,140.28,120,140.27,120.47Z"/><path class="cls-111" d="M68.45,137.58l.53,0v.37a.36.36,0,0,1-.52,0Z"/><path class="cls-112" d="M68.46,138l.52,0v.37a.36.36,0,0,1-.54,0Z"/><path class="cls-76" d="M78.5,118.92c0,.43-.3.4-.58.38l0-.36A.38.38,0,0,1,78.5,118.92Z"/><path class="cls-113" d="M68.45,138.33l.54,0c0,.41-.27.4-.55.4Z"/><path class="cls-114" d="M78.5,118.92l-.55,0v-.36a.36.36,0,0,1,.55,0Z"/><path class="cls-115" d="M163.47,118.18H164v.36C163.78,118.55,163.44,118.65,163.47,118.18Z"/><path class="cls-116" d="M78.5,118.55l-.55,0c0-.44.3-.41.59-.39Z"/><path class="cls-50" d="M162.32,117.06l-.35,0a.38.38,0,0,1,0-.55C162.38,116.47,162.33,116.77,162.32,117.06Z"/><path class="cls-117" d="M161.94,116.47l0,.55c-.45,0-.39-.29-.39-.57Z"/><path class="cls-118" d="M79.64,116.46V117l-.35,0C79.27,116.79,79.19,116.48,79.64,116.46Z"/><path class="cls-76" d="M173.59,128.79c-.29,0-.6.08-.6-.36a.4.4,0,0,1,.56,0Z"/><path class="cls-51" d="M119.57,140.8c0-.19,0-.38,0-.57H120a.39.39,0,0,1,0,.55Z"/><path class="cls-119" d="M119.94,140.78l0-.55.34,0a.22.22,0,0,1,.09.07.36.36,0,0,1-.09.5Z"/><path class="cls-70" d="M120.3,140.77l.09-.5h.34C120.7,140.52,120.7,140.81,120.3,140.77Z"/><path class="cls-120" d="M173.55,128.44H173l0-.37h.57Z"/><path class="cls-121" d="M158.71,114.19h.58l0,.36C159,114.55,158.69,114.68,158.71,114.19Z"/><path class="cls-122" d="M134.61,126.55l0-.59.34,0C134.94,126.2,135.09,126.53,134.61,126.55Z"/><path class="cls-123" d="M82.7,112.29l.55,0v.38h-.58Z"/><path class="cls-124" d="M156.05,111.72v.56l-.36,0a.38.38,0,0,1,0-.55Z"/><path class="cls-125" d="M155.68,111.71l0,.55c-.44,0-.4-.29-.38-.58Z"/><path class="cls-93" d="M83.26,112.28v-.57l.35,0C83.63,111.94,83.71,112.26,83.26,112.28Z"/><path class="cls-126" d="M171.46,126.53V126c.47,0,.35.33.35.6Z"/><path class="cls-127" d="M73.2,127.31l.54,0c0,.42-.27.41-.56.39Z"/><path class="cls-128" d="M107,145l.4,0c0,.27,0,.56-.4.53Z"/><path class="cls-129" d="M154.55,110.94H154l-.05-.35C154.2,110.58,154.53,110.47,154.55,110.94Z"/><path class="cls-130" d="M149.2,107.93l.59,0,0,.35C149.55,108.28,149.21,108.41,149.2,107.93Z"/><path class="cls-5" d="M148.82,107.55l-.36,0a.4.4,0,0,1,0-.55C148.89,107,148.84,107.27,148.82,107.55Z"/><path class="cls-131" d="M148.45,107v.55h-.37a.38.38,0,0,1,0-.55Z"/><path class="cls-132" d="M148.08,107v.55c-.44,0-.4-.28-.38-.57Z"/><path class="cls-105" d="M87.08,107.55V107l.33,0,.11.08a.41.41,0,0,1-.07.52Z"/><path class="cls-133" d="M87.45,106.59H88l0,.36a.38.38,0,0,1-.54,0l-.07-.06Z"/><path class="cls-91" d="M92.19,102.78h.59l0,.36-.59,0Z"/><path class="cls-134" d="M139.32,102.79l-.36,0a.38.38,0,0,1,0-.54C139.38,102.2,139.33,102.51,139.32,102.79Z"/><path class="cls-135" d="M138.94,102.23l0,.54h-.38a.37.37,0,0,1,0-.54Z"/><path class="cls-95" d="M138.57,102.22v.54h-.37a.4.4,0,0,1,0-.56Z"/><path class="cls-16" d="M138.19,102.2c0,.19,0,.37,0,.56h-.39c0-.2,0-.4,0-.6Z"/><path class="cls-132" d="M93.51,102.18v.59h-.38a.4.4,0,0,1,0-.56Z"/><path class="cls-136" d="M93.15,102.21l0,.56h-.36c0-.19,0-.38,0-.56Z"/><path class="cls-137" d="M73.74,126.91l-.54,0c0-.43.28-.4.56-.4Z"/><path class="cls-138" d="M97.52,99.93l-.59,0c0-.49.35-.34.62-.32Z"/><path class="cls-139" d="M101.68,98h-.37a.36.36,0,0,1,0-.53l.37-.07v.09A.33.33,0,0,1,101.68,98Z"/><path class="cls-87" d="M101.33,97.48l0,.53h-.38a.36.36,0,0,1,0-.54Z"/><path class="cls-116" d="M101,97.47l0,.54-.37,0C100.56,97.75,100.53,97.45,101,97.47Z"/><path class="cls-140" d="M125.89,202.22a18,18,0,0,0,4.1-2.49c.76-.68,1.6-1.41,1.32-2.54s-1.33-1.32-2.3-1.51a17,17,0,0,0-5.73.14l-.84.1a29.37,29.37,0,0,1-1.37-5.1,18.35,18.35,0,0,0,5.2,1.36,15.62,15.62,0,0,0,15.36-22.65l-.45-.94a5.21,5.21,0,0,1,2.09-1.41,4,4,0,0,0,1.18-.77,2.57,2.57,0,0,0,.34-3.08,2.49,2.49,0,0,0-2.89-1,18.14,18.14,0,0,0-3.56,1.76c-.27.16-.47.44-.83.4a17.19,17.19,0,0,0-3.36-2.1,8,8,0,0,1,2.14-1.26,27.55,27.55,0,0,1,22.89-.54c.72.29.89.58.69,1.38q-4.76,18.49,8.63,32.15a.9.9,0,0,0,1.37.14,8,8,0,0,0,2.6-2.95,1,1,0,0,0-.24-1.37,26.58,26.58,0,0,1,13-45.11,2.78,2.78,0,0,1,1.44-.15,23.74,23.74,0,0,0-1.13,3.53c-4.11.14-7.12,2.55-10,5.06a19,19,0,0,0-6.56,12.68,18.74,18.74,0,0,0,.17,5.39,2.64,2.64,0,0,0,2.61,2.07,2.5,2.5,0,0,0,2.35-2.43,8.44,8.44,0,0,0,0-1.33c-.65-6.21,2-10.81,7-14.32a22.29,22.29,0,0,1,3.77-2,.44.44,0,0,1,.53.05,15.67,15.67,0,0,0,28.54,6.58l.7-1.07a19.29,19.29,0,0,1,1.42,3.26,27.29,27.29,0,0,0-3.61,2,6.75,6.75,0,0,0-1.62,1.58,1.59,1.59,0,0,0,.77,2.66,11,11,0,0,0,5.13.45l.75-.07a26.58,26.58,0,0,1-15.62,26.29,26,26,0,0,1-23.67-.85c-.62-.32-.81-.23-1.11.33a13.36,13.36,0,0,1-3.66,3.94,3.79,3.79,0,0,0-.92,1.07c-5.19,8.67-12.77,13.58-22.92,14C139.66,214,131.83,210,125.89,202.22Z"/><path class="cls-141" d="M94.69,128.46l2.23-1.56c.18-.17.44-.17.6-.35v0a1.08,1.08,0,0,1,.3-.21,1,1,0,0,0,.45-.38,14.42,14.42,0,0,1,3.41-2.28c.18-.15.44-.17.61-.35l2.63-1.55a1.23,1.23,0,0,1,.31-.19,1.26,1.26,0,0,0,.47-.36c.1-.39.44-.35.73-.41s.44-.16.62-.32c.9-.35,1.62-1.08,2.63-1.2,1,.09,1.69-.54,2.51-.88.08,0,0-.16-.05-.24.48-.65,1.35-.64,1.92-1.13a.69.69,0,0,1,.33-.19l.35-.06a.8.8,0,0,0,.46-.32l.75-.4c.26-.28.72,0,1-.37h0c.2-.24.58-.11.77-.37h0c.2-.25.57-.14.79-.36l.34,0c.21-.23.57-.1.77-.36h0a.74.74,0,0,1,.63-.2c.31-.07.66,0,.92-.25a2.63,2.63,0,0,1,.38-.3l.34,0c.25-.29.71-.06,1-.37h0c.21-.21.55-.21.73-.47a.77.77,0,0,1,.36-.09c.29,0,.59,0,.82-.18v0c.36-.39,1,0,1.32-.39h0a1,1,0,0,1,.64-.23.84.84,0,0,0,.86-.4.73.73,0,0,1,.35-.12,7.59,7.59,0,0,0,1.6-.68,1,1,0,0,1,.39-.08c.44-.06.91.15,1.3-.19h0a.28.28,0,0,1,.42,0,5.11,5.11,0,0,1,0,3c-.28,1-.21,2-.54,2.93a3.43,3.43,0,0,1-.42,1.21c-.35.44-.14.88.15,1.28l0,.36a1.13,1.13,0,0,0-.36.81.86.86,0,0,1-.18.34l0,.36c-.29.25-.07.71-.36,1l-2.31,4.16c-.16.17-.17.44-.36.6a3.3,3.3,0,0,1-1.11,1.15.86.86,0,0,0-.38.46,1,1,0,0,1-.22.28,15.92,15.92,0,0,0-2.29,2.28,1,1,0,0,1-.28.23.89.89,0,0,0-.46.37,1.16,1.16,0,0,1-.8.72c-.17.26-.59.16-.7.5a.65.65,0,0,1-.27.25c-1.43.67-2.67,1.71-4.16,2.3-.33.33-.86.13-1.21.44l-.35.16a1,1,0,0,0-.5.37.42.42,0,0,1-.4.35c-.16.21-.4.2-.64.21a.89.89,0,0,0-.84.28.88.88,0,0,1-.36.1c-.3.06-.64,0-.9.25s-.35.17-.5.3h0c-.28.32-.67.18-1,.22s-.88-.16-1.23.21h0c-.44.34-1.06.11-1.49.47a1.84,1.84,0,0,1-.57.09c-.4.07-.83,0-1.18.29a1.15,1.15,0,0,1-.41.08c-.5.07-1-.17-1.5.19h0c-.44.32-1,.12-1.45.23a2.23,2.23,0,0,0-1,.25,1.26,1.26,0,0,1-.47.08,7.34,7.34,0,0,0-2.59.31,22.77,22.77,0,0,0-4.19.46,35.51,35.51,0,0,1-6.1,0,21.73,21.73,0,0,0-2.72-.43,5.43,5.43,0,0,0-2.18-.35,2.94,2.94,0,0,1-.78-.06,2.29,2.29,0,0,0-1.31-.27c-.58-.17-1.22.13-1.77-.24a12.87,12.87,0,0,0-2.84-.39c-.2-.22-.65-.3-.41-.76l.05-.34c.12-.15.18-.34.3-.49s.25-.46.25-.73a.82.82,0,0,1,.09-.34,4.93,4.93,0,0,0,.4-.61.77.77,0,0,0,.27-.75.79.79,0,0,1,.1-.37c.25-.19.27-.52.44-.75h0c.29-.17.15-.56.37-.76h0a1,1,0,0,0,.35-.4,2.85,2.85,0,0,1,.12-.31.8.8,0,0,1,.13-.19c.25-.17.17-.51.34-.72s.18-.61.38-.87h0c.33-.24.23-.6.28-.92l.11-.24c.31-.14.15-.54.41-.71.17-.55.83-.84.77-1.5a5.33,5.33,0,0,0,.31-.51c.27-.21.18-.62.46-.82l0,0c.26-.17.1-.59.42-.72l.3-.48c.21-.06.23-.29.39-.41s.32-.18.35-.4l.06-.34a.54.54,0,0,1,.2-.31c.47-.23.48-.77.77-1.13.16-.17.17-.43.34-.6l2.31-3.4a4.34,4.34,0,0,1,.7-.84.76.76,0,0,0,.43-.57.48.48,0,0,1,.23-.29c1-.57,1.44-1.64,2.2-2.43.42-.42,1-.75,1.21-1.35a.53.53,0,0,1,.26-.25,1,1,0,0,0,.45-.38h0a.9.9,0,0,0,.38-.46.59.59,0,0,1,.26-.26c1-.84,2-1.69,3-2.52.3-.25.56-.62,1-.58a1.53,1.53,0,0,0,.46-.34l.16-.16c.13-.13.25-.28.39-.41.89-.58,1.8-1.14,2.68-1.73a1.23,1.23,0,0,1,.71-.19c.25-.22.63-.16.86-.42s.37-.16.49-.33l.78-.36c.27-.35.83-.06,1.07-.47.28-.12.61-.15.82-.41A1.8,1.8,0,0,1,106,103c.32-.06.68,0,1-.23a.9.9,0,0,1,.24-.12,2.43,2.43,0,0,1,.66-.07h.64a.81.81,0,0,0,.81-.39c.23-.19.59-.06.81-.3l0,0a1.25,1.25,0,0,1,.84-.19c1.83,0,3.65,0,5.47,0,.93.49,1.95.19,2.92.37a.53.53,0,0,1,.27.08,1.13,1.13,0,0,0,1.15.43,3.17,3.17,0,0,1,.81.07,1.12,1.12,0,0,1,.25.11c.35.28.78.16,1.18.24s.7-.08,1,.2h0c.31.33.85,0,1.14.38h0c.27.27.71.06,1,.34h0c.28.38.83,0,1.12.41h0c.3.46-.21.52-.36.76l-.36,0c-.25.2-.63.15-.86.41a4.46,4.46,0,0,0-.52.31,5.07,5.07,0,0,0-2.27,1.13.54.54,0,0,1-.31.21l-.36.07a.8.8,0,0,0-.46.32h0c-.23.24-.62.17-.84.43s-.37.16-.49.33l-3.79,1.92c-.18.16-.43.18-.61.33-.61.41-1.41.52-1.89,1.15a.47.47,0,0,1-.31.2l-.35.07a.69.69,0,0,0-.45.35c-.22.49-.76.49-1.13.76-.18.15-.44.16-.6.34L107,116.09c-.16.18-.43.18-.59.36h0a1.23,1.23,0,0,1-.29.22,1,1,0,0,0-.47.36c-1,.77-2.09,1.55-3.15,2.31a.68.68,0,0,0-.27.34c-.16.19-.43.2-.6.36a6.77,6.77,0,0,0-1.5,1.16.85.85,0,0,1-.28.22,1.07,1.07,0,0,0-.47.37c-.43.83-1.52,1-1.91,1.87-.15.21-.42.21-.59.38-.89.47-1.39,1.4-2.25,1.92-.2.14-.2.42-.38.57a1.37,1.37,0,0,1-.75.76.82.82,0,0,0,0,1.13l0,0A.88.88,0,0,0,94.69,128.46Z"/><path class="cls-142" d="M174.65,142.66c-.45-.08-.65.46-1.07.45-.18.14-.44.16-.61.34a21.7,21.7,0,0,1-2.23,1.56c-.25.1-.23.4-.41.56,0,.25-.17.34-.4.35a5.09,5.09,0,0,0-1.46,1.23,1.42,1.42,0,0,1-.25.3c-.94.57-1.31,1.71-2.25,2.29-.23.15-.24.42-.37.63a10.25,10.25,0,0,1-1.54,2.22,1.85,1.85,0,0,0-.59.74,7.76,7.76,0,0,0-.66,1.15c-.17.46-.29,1.13-.67,1.21s-.92-.3-1.39-.49a35.27,35.27,0,0,0-11-2.43,1,1,0,0,1-.25-.59,10.65,10.65,0,0,1,0-1.13,1.86,1.86,0,0,1,.15-.81A10.72,10.72,0,0,0,150,147c0-3.48,0-7,0-10.43a19.24,19.24,0,0,1-.07-2.4c0-.56.14-1.14-.23-1.65a1.9,1.9,0,0,1-.13-.74c0-.28,0-.56,0-.84a.78.78,0,0,0-.35-.85.71.71,0,0,1-.13-.22c-.24-.49.2-1.16-.41-1.55a.65.65,0,0,1-.31-.28,3.32,3.32,0,0,1-.07-1c-.08-.58.19-1.2-.22-1.73a1.85,1.85,0,0,1-.37-1.14c-.32-.32,0-.84-.37-1.15,0-.11,0-.23,0-.35-.29-.35-.13-.85-.41-1.21-.13-.17-.16-.39-.32-.55h0c-.36-.29,0-.83-.39-1.12h0c-.24-.21-.13-.57-.35-.79-.39-.27,0-.82-.41-1.11,0-.11,0-.23,0-.35-.2-.23-.17-.57-.35-.81a.94.94,0,0,1-.12-.22,1.05,1.05,0,0,1-.08-.34,3.4,3.4,0,0,0-.07-.34.69.69,0,0,0-.35-.4c-.65-.48-.71-1.29-1.09-1.93-.27-.17-.1-.58-.42-.73l-.19-.2a.57.57,0,0,1,.53-.38,1.07,1.07,0,0,1,.4.05,1,1,0,0,1,.32.21c.17.14.4.11.57.24s.64.18.84.47l3.81,2.28a.63.63,0,0,1,.25.26c.13.34.55.24.74.47.23,0,.47,0,.39.32a.62.62,0,0,0,.44.38l.36.06a.62.62,0,0,1,.31.21,7,7,0,0,0,2.24,1.53.53.53,0,0,1,.26.25.79.79,0,0,0,.41.45,10.55,10.55,0,0,1,2.61,1.94,1.22,1.22,0,0,0,.48.36.62.62,0,0,1,.27.24,1.05,1.05,0,0,0,.76.74c.16.18.43.18.58.36a34.9,34.9,0,0,1,3.06,3,.93.93,0,0,0,.46.39.55.55,0,0,1,.26.24c0,.27.1.39.37.37a.6.6,0,0,1,.25.27.88.88,0,0,0,.38.45,13,13,0,0,1,2.67,3,.8.8,0,0,0,.44.41.55.55,0,0,1,.25.25c0,.25,0,.43.36.37.29.13.27.51.51.68a2,2,0,0,1,.16.33.75.75,0,0,0,.37.46,5.39,5.39,0,0,1,1.49,1.92c.24.18.12.59.46.7a2,2,0,0,1,.32.17c.16.14.21.34.34.5a6.53,6.53,0,0,0,1.5,2.26.43.43,0,0,1,.22.32,1.58,1.58,0,0,1,0,.38,2,2,0,0,0,0,.35c0,.21.23.28.36.41a3.72,3.72,0,0,0,.42.56,6,6,0,0,1,.65.83A.77.77,0,0,1,174.65,142.66Z"/><path class="cls-142" d="M185.31,153.34c-5.18,2.13-9.17,5.42-10.7,11.07a13.18,13.18,0,0,0-.37,5.08,10.54,10.54,0,0,1,.1,1.13,2.71,2.71,0,0,1-2.54,3,2.76,2.76,0,0,1-3-2.54c-1-8.29,2-14.85,8.66-19.77a25,25,0,0,1,5.54-3.06,3.08,3.08,0,0,1,2.49-.05A17.56,17.56,0,0,0,185.31,153.34Z"/><path class="cls-142" d="M198.26,146.77a6.14,6.14,0,1,1,6.14,6.16A6.12,6.12,0,0,1,198.26,146.77Z"/><path class="cls-142" d="M126.38,171.16a5.4,5.4,0,0,1,5.38-5.37,5.42,5.42,0,1,1,0,10.84A5.37,5.37,0,0,1,126.38,171.16Z"/><path class="cls-142" d="M137.51,164.45a11.86,11.86,0,0,1,4.77-2.51,2.63,2.63,0,0,1,3,1.9,2.77,2.77,0,0,1-1.41,3.35l-2.68,1.4A17.46,17.46,0,0,0,137.51,164.45Z"/><path class="cls-143" d="M200.41,157.52a2.29,2.29,0,0,1-2.37-2.4,2.37,2.37,0,0,1,2.35-2.35,2.42,2.42,0,0,1,2.4,2.43A2.35,2.35,0,0,1,200.41,157.52Z"/><path class="cls-142" d="M126.43,178.4a2.3,2.3,0,0,1,2.36,2.32,2.34,2.34,0,0,1-2.37,2.43,2.4,2.4,0,0,1-2.38-2.34A2.35,2.35,0,0,1,126.43,178.4Z"/><path class="cls-144" d="M130.8,119c-.53-.2-.88-1-.49-1.37a4.08,4.08,0,0,0,.79-2.63,14.34,14.34,0,0,0,.44-4.33c.24-.3.49-.24.75,0a15.54,15.54,0,0,1-.38,4.35c-.32.35-.07.84-.29,1.22-.37.5-.12,1.16-.44,1.66h0c-.38.31-.06.83-.37,1.16Z"/><path class="cls-145" d="M84.79,139.82a61.53,61.53,0,0,0,9.1.38.41.41,0,0,1,0,.59c-1.8,0-3.6,0-5.4,0a2.84,2.84,0,0,1-2.09-.44c-.46-.38-1.46-.08-2.22-.13-.3,0-.72.2-.86-.31A1.28,1.28,0,0,1,84.79,139.82Z"/><path class="cls-146" d="M150.15,136.44c.09,3.54.16,7.08,0,10.62a.24.24,0,0,1-.35,0c0-3.54,0-7.09-.05-10.64l.08-.1A.23.23,0,0,1,150.15,136.44Z"/><path class="cls-147" d="M116.52,101.83l-5.7,0a.22.22,0,0,1,0-.35H118c.32,0,.73-.15.84.37A3.07,3.07,0,0,1,116.52,101.83Z"/><path class="cls-148" d="M93.9,140.79v-.59c.57-.54,1.29-.12,1.93-.29a8.38,8.38,0,0,1,2.07-.07,2.21,2.21,0,0,1,1.91,0c-.08.47-.45.36-.75.37-.63,0-1.26,0-1.89,0s-1.4-.26-2,.48C95,140.94,94.34,140.77,93.9,140.79Z"/><path class="cls-149" d="M112.13,118.16c.22.06.51-.1.68.21-.78.57-1.76.69-2.54,1.25-.26.19-.55,0-.6-.34.22-.51.79-.45,1.16-.72s.7-.08,1-.37Z"/><path class="cls-150" d="M149.17,132.82c-.15,0-.31-.13-.31-.31a8.63,8.63,0,0,0-.39-2.94.3.3,0,0,1,.34-.07c.21.1.25.33.39.48h0a.93.93,0,0,1,.27.71c0,.3,0,.6,0,.91a3.28,3.28,0,0,1-.1,1A.36.36,0,0,1,149.17,132.82Z"/><path class="cls-104" d="M185.36,138.35l1.11,0,2.1,0c0,.26-.21.35-.46.35h-2.8Z"/><path class="cls-151" d="M149.81,147.09l.35,0c0,1,0,1.91,0,2.87a.35.35,0,0,1-.29.4c-.32-.26-.29-.62-.3-1a1.7,1.7,0,0,1,.25-1.16Z"/><path class="cls-152" d="M116.52,101.83h3a.23.23,0,0,1,0,.36h-2.33C117,102.2,116.59,102.29,116.52,101.83Z"/><path class="cls-153" d="M99.8,139.85H97.89c.08-.45.44-.36.74-.36h1.94a.22.22,0,0,1,0,.35Z"/><path class="cls-154" d="M149.74,149.33l.08,1,0,.72a.37.37,0,0,1-.53,0l0-1.73A.36.36,0,0,1,149.74,149.33Z"/><path class="cls-155" d="M100.93,139.45c.13-.54.59-.34.92-.36.52,0,1.05,0,1.57,0-.22.62-.78.22-1.15.39A1.23,1.23,0,0,1,100.93,139.45Z"/><path class="cls-14" d="M103.06,145.57l0,.33-1.3,0-1.16,0c.14-.56.6-.34.93-.36C102,145.53,102.54,145.56,103.06,145.57Z"/><path class="cls-156" d="M168.24,147.08c.51-.47.81-1.23,1.69-1.16-.23.53-.78.73-1.12,1.15A.43.43,0,0,1,168.24,147.08Z"/><path class="cls-157" d="M81.93,139.45l.73,0c.14.09.14.21,0,.34H81c-.28,0-.57,0-.64-.35a.5.5,0,0,1,.42-.21C81.2,139.29,81.59,139.19,81.93,139.45Z"/><path class="cls-158" d="M149.23,134.32c0-.5,0-1,0-1.5l.07,0a.46.46,0,0,1,.6,0,2.24,2.24,0,0,1,.12,1.12.62.62,0,0,1-.14.45A.45.45,0,0,1,149.23,134.32Z"/><path class="cls-159" d="M82.71,139.83c0-.11,0-.23,0-.34.71.08,1.51-.37,2.13.33l-1.46.08Z"/><path class="cls-160" d="M119.58,102.19c0-.12,0-.24,0-.36.71.13,1.51-.37,2.12.34l-.1.13a1.85,1.85,0,0,1-.93.16,1.29,1.29,0,0,1-1-.28Z"/><path class="cls-43" d="M149.76,136.45c-.95-.15-.38-.9-.54-1.36a.47.47,0,0,1,.63,0,1.52,1.52,0,0,1,0,1.3Z"/><path class="cls-161" d="M143.31,132.82l0-.78c.76.53.22,1.3.35,2l-.32-.06Z"/><path class="cls-162" d="M80.81,139.44l-.41.05c-.49-.2-1.17.34-1.52-.41l1.88,0A.21.21,0,0,1,80.81,139.44Z"/><path class="cls-163" d="M174.67,141.57c-.47,0-.51-.5-.74-.78a.39.39,0,0,1,0-.58A1.37,1.37,0,0,1,174.67,141.57Z"/><path class="cls-164" d="M149.25,151.08l.53,0,0,1.14a.37.37,0,0,1-.53,0Z"/><path class="cls-165" d="M121.66,102.17c.41.15,1.1-.27,1.16.57l-.1.12a1.06,1.06,0,0,1-1.06-.08v0a.35.35,0,0,1,0-.52Z"/><path class="cls-166" d="M131.18,117.81c.11-.58-.35-1.26.33-1.73l.12.09a.83.83,0,0,1-.07.87C131.47,117.31,131.66,117.73,131.18,117.81Z"/><path class="cls-167" d="M100.93,139.45l1.34,0c-.46.71-1.16.22-1.73.35l0-.35Z"/><path class="cls-168" d="M106.48,138.34l.54,0a1,1,0,0,1,1.14,0c-.41.77-1.14.22-1.69.42l-.09-.08C106.34,138.52,106.34,138.41,106.48,138.34Z"/><path class="cls-146" d="M149.74,149.33l-.52,0c.12-.41-.35-1.11.55-1.15Z"/><path class="cls-169" d="M87.45,117a1.16,1.16,0,0,1-.76.76,1.37,1.37,0,0,1,.73-1.35l.1.09A.42.42,0,0,1,87.45,117Z"/><path class="cls-170" d="M148.06,125.21c.78.42.29,1.13.4,1.7-.14.11-.26.13-.35,0Z"/><path class="cls-106" d="M143,111.29c.22,0,.38.16.37.41a6.68,6.68,0,0,1-.8.6c-.4,0-.31-.35-.36-.59C142.12,111,142.54,111.15,143,111.29Z"/><path class="cls-171" d="M137.85,117.45l-.06,1.08-.32.09c.06-.54-.4-1.2.37-1.57A.35.35,0,0,1,137.85,117.45Z"/><path class="cls-172" d="M108.16,138.31H107c.37-.75,1-.25,1.54-.36C108.55,138.22,108.37,138.28,108.16,138.31Z"/><path class="cls-173" d="M103.41,139.08c.36-.75,1-.25,1.54-.37.09.14.09.25-.06.35Z"/><path class="cls-174" d="M104.89,139.06l.06-.35h.36a1,1,0,0,1,1.12,0l0,.06C106.06,139.41,105.42,139,104.89,139.06Z"/><path class="cls-175" d="M129.48,111c-.1.46-.5.3-.78.38a.57.57,0,0,1-.68.07l-.1-.11c.22-.62.75-.25,1.13-.37A.32.32,0,0,1,129.48,111Z"/><path class="cls-176" d="M143,111.29c-.31.06-.73-.09-.79.42-.43-.11-.5-.45-.19-.65S142.75,110.73,143,111.29Z"/><path class="cls-177" d="M148.84,129.58h-.37c0-.36,0-.73-.05-1.1a.37.37,0,0,1,.07-.47l.33.07A1.38,1.38,0,0,1,148.84,129.58Z"/><path class="cls-178" d="M148.49,128c0,.16,0,.31-.07.47-.65-.43-.26-1.06-.31-1.61l.35,0Z"/><path class="cls-179" d="M110.08,101.84c-.08.49-.49.31-.77.39a.62.62,0,0,1-.6.11.37.37,0,0,1-.18-.17C108.94,101.54,109.55,101.9,110.08,101.84Z"/><path class="cls-174" d="M106.05,102.75c0-.74.57-.51,1-.54a.4.4,0,0,1,0,.56l0,0a.87.87,0,0,1-.88.07Z"/><path class="cls-180" d="M136.61,122.51l-.32,0c.11-.44-.3-1,.37-1.32a.43.43,0,0,1,0,.59Z"/><path class="cls-181" d="M182.09,139.45l0-.34,1.3,0C183.14,139.75,182.56,139.38,182.09,139.45Z"/><path class="cls-182" d="M110.8,137.54c0-.27.18-.34.4-.37a.77.77,0,0,1,.86-.08l.1.12C111.83,137.85,111.26,137.47,110.8,137.54Z"/><path class="cls-15" d="M142.53,112.3c0-.62.34-.65.8-.6l0,0a.37.37,0,0,1,0,.56l-.6.18Z"/><path class="cls-103" d="M143.31,132.06l-.33,0-.07-.71.07-.63c.13-.08.24-.09.33.06Z"/><path class="cls-183" d="M168.22,132.43a.64.64,0,0,1-.42-.74c.42.13.85.25,1,.75A.43.43,0,0,1,168.22,132.43Z"/><path class="cls-184" d="M146.57,120.82c.33-.07.32.2.39.39a.77.77,0,0,1,0,1C146.3,121.86,146.59,121.29,146.57,120.82Z"/><path class="cls-185" d="M115.19,135.45c.29-.66.87-.27,1.31-.37,0,.39-.31.33-.55.39a.51.51,0,0,1-.32.17.68.68,0,0,1-.37-.09A.86.86,0,0,0,115.19,135.45Z"/><path class="cls-186" d="M126,112.27c-.29.64-.88.28-1.32.39C125,112,125.57,112.36,126,112.27Z"/><path class="cls-19" d="M147,122.16v-1c.64.32.31.89.34,1.37C147,122.6,147,122.36,147,122.16Z"/><path class="cls-187" d="M131.16,110.57c-.29.65-.88.28-1.33.38a.24.24,0,0,1,0-.37Z"/><path class="cls-188" d="M93.53,128.43c-.61-.38-.61-.75,0-1.13Z"/><path class="cls-189" d="M94.69,128.46c-.41.55-.79.6-1.14-.05Z"/><path class="cls-190" d="M107,102.77c0-.19,0-.37,0-.56h.76a.37.37,0,0,1,0,.54Z"/><path class="cls-191" d="M121.5,113.82a.44.44,0,0,1-.22.39.91.91,0,0,1-.77.12.39.39,0,0,1-.2-.18C120.57,113.53,121.09,113.89,121.5,113.82Z"/><path class="cls-192" d="M143.31,130.75l-.33-.06c0-.37,0-.73,0-1.1C143.66,129.78,143.21,130.36,143.31,130.75Z"/><path class="cls-193" d="M107.77,102.76l0-.54.74,0,0,.08a.34.34,0,0,1,0,.51Z"/><path class="cls-194" d="M174.65,142.66l0-1.09C175.27,142,175.27,142.32,174.65,142.66Z"/><path class="cls-195" d="M131.51,116.08c.17-.37-.23-.94.4-1.15v1.14a.21.21,0,0,1-.33,0Z"/><path class="cls-174" d="M106.05,103.14l-.71,0a.31.31,0,0,1-.42,0c.2-.63.75-.26,1.13-.39l0,0A.22.22,0,0,1,106.05,103.14Z"/><path class="cls-196" d="M123.93,103.16l-1.11,0a.21.21,0,0,1,0-.33l0-.07C123.18,102.91,123.77,102.47,123.93,103.16Z"/><path class="cls-197" d="M147.31,122.93c.67.21.31.75.38,1.15C147.05,123.86,147.35,123.34,147.31,122.93Z"/><path class="cls-198" d="M104.92,103.14l.42,0c-.1.46-.47.34-.77.38a.31.31,0,0,1-.42,0C104.24,103.06,104.62,103.19,104.92,103.14Z"/><path class="cls-199" d="M125.06,103.55c-.39-.09-.93.25-1.13-.38C124.32,103.26,124.88,102.85,125.06,103.55Z"/><path class="cls-200" d="M127.56,111.72c0,.6-.38.58-.8.52a.4.4,0,0,1,0-.54l.37,0A.32.32,0,0,1,127.56,111.72Z"/><path class="cls-186" d="M126.78,111.7c0,.18,0,.36,0,.54l-.74,0C126,111.66,126.38,111.68,126.78,111.7Z"/><path class="cls-201" d="M149.77,135.09h-.55c0-.26,0-.51,0-.77h.52A.47.47,0,0,1,149.77,135.09Z"/><path class="cls-202" d="M104.15,103.52l.42,0c-.23.59-.75.31-1.15.38C103.46,103.42,103.86,103.58,104.15,103.52Z"/><path class="cls-203" d="M127.16,104.31c-.39-.11-.94.27-1.12-.41C126.42,104,127,103.62,127.16,104.31Z"/><path class="cls-204" d="M126.8,105.06l.36-.76c.36,0,.44.22.36.5S127.07,105.05,126.8,105.06Z"/><path class="cls-205" d="M108.56,138c.17-.73.75-.28,1.14-.39a.24.24,0,0,1,0,.36Z"/><path class="cls-206" d="M132.29,110.58l-.75,0-.37,0C131.54,110.06,131.92,109.86,132.29,110.58Z"/><path class="cls-106" d="M137.85,117.45c0-.13,0-.27,0-.4.55-.07.85.13.74.73C138.27,117.82,138.17,117.39,137.85,117.45Z"/><path class="cls-207" d="M146.17,119.71c.58.21.34.72.39,1.12C145.87,120.65,146.22,120.11,146.17,119.71Z"/><path class="cls-208" d="M109.66,137.93c0-.12,0-.24,0-.36l1.1,0C110.63,138.27,110.05,137.82,109.66,137.93Z"/><path class="cls-209" d="M130.21,120.07c0-.4,0-.81.56-.76l0,.73A.34.34,0,0,1,130.21,120.07Z"/><path class="cls-166" d="M130.81,119c.09-.39-.36-1,.37-1.16C131.08,118.2,131.43,118.74,130.81,119Z"/><path class="cls-210" d="M145.41,117.8c.6.2.36.71.41,1.11C145.16,118.74,145.45,118.21,145.41,117.8Z"/><path class="cls-211" d="M75.63,137.93c0,.35.42.43.41.76-.26,0-.59.13-.72-.22S75.29,138,75.63,137.93Z"/><path class="cls-201" d="M144.45,112.68c-.18-.08-.44,0-.56-.21a.27.27,0,0,1,.24-.23c.32.11.8-.17.91.41A.43.43,0,0,1,144.45,112.68Z"/><path class="cls-173" d="M125.45,105.41c.17-.58.64-.3,1-.33,0,.25-.18.34-.4.37A.41.41,0,0,1,125.45,105.41Z"/><path class="cls-212" d="M125.45,105.41l.59,0c-.16.59-.63.31-1,.35C125.06,105.53,125.23,105.45,125.45,105.41Z"/><path class="cls-159" d="M111.78,118.19c-.14.58-.61.3-1,.37C111,118,111.42,118.21,111.78,118.19Z"/><path class="cls-213" d="M120.7,107.89c.14-.58.62-.3,1-.36,0,.25-.16.35-.38.39A.41.41,0,0,1,120.7,107.89Z"/><path class="cls-214" d="M120.7,107.89l.58,0c-.14.58-.61.31-1,.37C120.32,108,120.48,107.94,120.7,107.89Z"/><path class="cls-215" d="M102.27,104.69c-.15.59-.63.3-1,.35,0-.26.18-.35.39-.39A.43.43,0,0,1,102.27,104.69Z"/><path class="cls-216" d="M129.84,121.78c0-.35-.18-.8.36-1C130.15,121.16,130.44,121.64,129.84,121.78Z"/><path class="cls-119" d="M136.7,121.8l0-.59c.07-.19.11-.4.38-.4,0,.32,0,.64,0,1Z"/><path class="cls-162" d="M102.27,104.69l-.59,0c.15-.58.62-.3,1-.36C102.65,104.55,102.49,104.65,102.27,104.69Z"/><path class="cls-7" d="M171.45,136.45c-.31.06-.38-.13-.4-.38a.48.48,0,0,1,0-.6C171.69,135.61,171.41,136.09,171.45,136.45Z"/><path class="cls-217" d="M76.45,136.06l0,.34a.23.23,0,0,1-.35,0c0-.35-.24-.83.36-1A.45.45,0,0,1,76.45,136.06Z"/><path class="cls-218" d="M145.06,116.45c.59.17.33.63.34,1l-.34,0a.69.69,0,0,1-.22-.4A.57.57,0,0,1,145.06,116.45Z"/><path class="cls-219" d="M126,103.9c-.35,0-.82.25-1-.34C125.41,103.59,125.88,103.3,126,103.9Z"/><path class="cls-220" d="M170.7,136c-.6-.13-.33-.6-.38-1,.27,0,.36.15.4.37A.45.45,0,0,1,170.7,136Z"/><path class="cls-221" d="M76.45,136.06l0-.59a.4.4,0,0,1,.38-.4.31.31,0,0,1,0,.41C76.79,135.74,76.82,136,76.45,136.06Z"/><path class="cls-222" d="M131.58,116.09l.33,0c-.06.34.23.81-.35,1C131.57,116.72,131.58,116.4,131.58,116.09Z"/><path class="cls-32" d="M150.19,116.07c-.36,0-.84.24-1-.37a.44.44,0,0,1,.58,0C150,115.72,150.2,115.8,150.19,116.07Z"/><path class="cls-223" d="M116.9,115.69c-.15.58-.6.34-1,.37C116.09,115.48,116.56,115.75,116.9,115.69Z"/><path class="cls-224" d="M120.71,132.43c.11-.59.59-.32.92-.4,0,.25-.14.35-.35.41A.43.43,0,0,1,120.71,132.43Z"/><path class="cls-11" d="M174,140.21l0,.58c-.39,0-.37-.3-.41-.55a.34.34,0,0,1-.08-.29.26.26,0,0,1,.14-.15C173.84,139.81,173.91,140,174,140.21Z"/><path class="cls-162" d="M122.8,113.42c-.15.57-.6.34-1,.37C122,113.19,122.45,113.47,122.8,113.42Z"/><path class="cls-225" d="M79.24,130.31c0,.36.23.81-.33,1l-.1-.09a.45.45,0,0,1,0-.52C78.89,130.48,79,130.3,79.24,130.31Z"/><path class="cls-226" d="M144.45,112.68l.59,0c.18.08.34.18.35.41C145,113,144.58,113.27,144.45,112.68Z"/><path class="cls-227" d="M81.57,125.61c-.07.34.18.8-.38.94a.39.39,0,0,1,0-.58C81.21,125.74,81.32,125.6,81.57,125.61Z"/><path class="cls-228" d="M81.17,126c0,.19,0,.39,0,.58s-.13.39-.39.39C80.86,126.59,80.56,126.11,81.17,126Z"/><path class="cls-229" d="M163.47,153.33c-.07-.46,0-.8.59-.75C164.1,153,163.71,153.11,163.47,153.33Z"/><path class="cls-230" d="M149.23,152.21l.53,0,0,.57h-.57a.44.44,0,0,1,0-.58Z"/><path class="cls-231" d="M79.51,129.39c.18.39.35.77-.28.92A1.18,1.18,0,0,1,79.51,129.39Z"/><path class="cls-232" d="M145.06,116.45l0,.59a.36.36,0,0,1-.54,0v-.56a.38.38,0,0,1,.54,0Z"/><path class="cls-233" d="M87.47,107l.54,0c0,.44-.13.63-.57.57Z"/><path class="cls-16" d="M101.68,98l0-.51.57,0a.37.37,0,0,1,0,.54Z"/><path class="cls-182" d="M96.94,107.52c0-.43.16-.61.59-.56a.4.4,0,0,1,0,.56h0A.42.42,0,0,1,96.94,107.52Z"/><path class="cls-234" d="M110.83,101.46v.35h-.76C110.13,101.31,110.52,101.48,110.83,101.46Z"/><path class="cls-235" d="M129.84,110.58V111h-.35l-.43,0C129.16,110.45,129.53,110.59,129.84,110.58Z"/><path class="cls-236" d="M127.56,111.72l-.41,0c.09-.46.49-.3.77-.37l0,.06a.2.2,0,0,1,0,.33Z"/><path class="cls-237" d="M144.13,112.24l-.24.23-.23-.16a.5.5,0,0,1,0-.56C144.07,111.66,144.08,112,144.13,112.24Z"/><path class="cls-238" d="M123.94,113l-.34,0a.35.35,0,0,1-.43,0c.09-.5.48-.34.78-.36A.26.26,0,0,1,123.94,113Z"/><path class="cls-239" d="M123.94,113c0-.13,0-.25,0-.37h.76C124.63,113.17,124.24,113,123.94,113Z"/><path class="cls-15" d="M142.92,112.68c.59,0,.43.4.42.73C142.9,113.34,143,113,142.92,112.68Z"/><path class="cls-162" d="M123.17,113l.43,0c-.12.47-.48.35-.8.35A.36.36,0,0,1,123.17,113Z"/><path class="cls-240" d="M120.31,114.55l-.74,0c0-.51.45-.35.74-.42l0,.07C120.44,114.35,120.44,114.46,120.31,114.55Z"/><path class="cls-240" d="M119.57,114.56c-.09.49-.46.37-.77.36C118.88,114.43,119.26,114.57,119.57,114.56Z"/><path class="cls-241" d="M80,128.44c0,.3.13.7-.41.71C79.66,128.86,79.54,128.48,80,128.44Z"/><path class="cls-242" d="M118.46,115c-.1.49-.48.35-.79.36C117.75,114.8,118.13,115,118.46,115Z"/><path class="cls-242" d="M117.67,115.32c-.09.48-.46.37-.77.37C117,115.2,117.35,115.32,117.67,115.32Z"/><path class="cls-210" d="M145.82,118.91c.53.08.34.48.35.79C145.6,119.64,145.8,119.23,145.82,118.91Z"/><path class="cls-212" d="M112.17,136.81l.35,0a.31.31,0,0,1,.41,0c-.08.47-.48.32-.77.39l0-.07A.2.2,0,0,1,112.17,136.81Z"/><path class="cls-162" d="M76.05,137.19c0,.23-.11.39-.37.4,0-.32-.15-.69.34-.8A.28.28,0,0,1,76.05,137.19Z"/><path class="cls-243" d="M113.31,136.43l.73,0c0,.53-.45.37-.76.39A.23.23,0,0,1,113.31,136.43Z"/><path class="cls-244" d="M113.31,136.43l0,.36-.35,0-.41,0C112.62,136.3,113,136.44,113.31,136.43Z"/><path class="cls-159" d="M76.05,137.19l0-.4,0-.35.35,0C76.4,136.72,76.53,137.09,76.05,137.19Z"/><path class="cls-245" d="M82,124.87c-.06.29.06.68-.42.72C81.57,125.28,81.41,124.86,82,124.87Z"/><path class="cls-246" d="M76.81,135.48l0-.41,0-.35a.23.23,0,0,1,.35,0C77.16,135,77.29,135.38,76.81,135.48Z"/><path class="cls-247" d="M77.16,134.69l-.35,0c0-.31-.12-.68.35-.78a.28.28,0,0,1,0,.4Z"/><path class="cls-248" d="M77.19,134.34l0-.4c0-.23.11-.4.37-.39C77.55,133.87,77.67,134.24,77.19,134.34Z"/><path class="cls-249" d="M77.91,132.79c0,.31.17.71-.37.76C77.56,133.25,77.42,132.86,77.91,132.79Z"/><path class="cls-250" d="M78.91,131.31c-.06.28.09.69-.4.74a.31.31,0,0,1,0-.4l0-.34a.22.22,0,0,1,.34,0Z"/><path class="cls-251" d="M82.7,124.07c0,.23-.16.37-.43.32,0-.29-.06-.64.38-.72l.1.07A.27.27,0,0,1,82.7,124.07Z"/><path class="cls-241" d="M78.48,131.65l0,.4h0a.39.39,0,0,1-.55,0C77.92,131.66,78.21,131.66,78.48,131.65Z"/><path class="cls-252" d="M102.28,123.31c0,.42-.33.37-.61.35C101.71,123.25,102,123.3,102.28,123.31Z"/><path class="cls-253" d="M78,132.06l.55,0v.38a.4.4,0,0,1-.56,0Z"/><path class="cls-254" d="M96.92,124.05c0-.43.32-.37.59-.38C97.5,124.09,97.21,124.07,96.92,124.05Z"/><path class="cls-255" d="M77.94,132.43h.56c0,.41-.29.39-.58.38Z"/><path class="cls-256" d="M120.71,132.43h.57c0,.42-.33.37-.62.34C120.68,132.66,120.69,132.54,120.71,132.43Z"/><path class="cls-257" d="M83.27,122.93l0,.37a.38.38,0,0,1-.55,0C82.7,122.9,83,122.92,83.27,122.93Z"/><path class="cls-258" d="M168.22,132.43h.57v.37a.4.4,0,0,1-.56,0Z"/><path class="cls-184" d="M159.3,122.92c-.27,0-.61.11-.59-.37C159,122.55,159.32,122.46,159.3,122.92Z"/><path class="cls-5" d="M168.24,132.8h.56l0,.36C168.55,133.18,168.24,133.24,168.24,132.8Z"/><path class="cls-68" d="M167.44,131.33l-.35,0a.41.41,0,0,1,0-.58C167.56,130.72,167.47,131,167.44,131.33Z"/><path class="cls-259" d="M167.09,130.71v.58c-.45,0-.38-.33-.35-.62Z"/><path class="cls-260" d="M135.49,124.83H135c0-.39.26-.4.54-.4Z"/><path class="cls-223" d="M122.81,130.73l.36,0c0,.28,0,.57-.38.57A.38.38,0,0,1,122.81,130.73Z"/><path class="cls-261" d="M122.81,130.73l0,.55-.36,0C122.42,131,122.39,130.73,122.81,130.73Z"/><path class="cls-223" d="M78.87,131.27l-.34,0c0-.28-.06-.56.33-.61C78.86,130.89,78.86,131.08,78.87,131.27Z"/><path class="cls-262" d="M158,121.82l-.35,0a.39.39,0,0,1,0-.55C158,121.23,158,121.52,158,121.82Z"/><path class="cls-105" d="M157.56,121.22l0,.55c-.45,0-.39-.29-.4-.56Z"/><path class="cls-263" d="M177.75,135.08l.52.1c0,.11,0,.22,0,.32C178,135.47,177.72,135.46,177.75,135.08Z"/><path class="cls-264" d="M105.69,121.21c0,.28,0,.57-.4.56a.38.38,0,0,1,0-.54Z"/><path class="cls-265" d="M105.32,121.23l0,.54h-.38C104.93,121.49,104.91,121.19,105.32,121.23Z"/><path class="cls-266" d="M99.82,121.22h.35c0,.28,0,.57-.39.56A.39.39,0,0,1,99.82,121.22Z"/><path class="cls-225" d="M114.44,136.05c0-.28,0-.57.38-.57a.4.4,0,0,1,0,.56Z"/><path class="cls-195" d="M114.81,136c0-.19,0-.37,0-.56l.37,0v.06a.36.36,0,0,1,0,.52Z"/><path class="cls-267" d="M115.19,136c0-.18,0-.35,0-.52l.38,0a.37.37,0,0,1,0,.54Z"/><path class="cls-268" d="M115.57,136v-.54l.37,0C116,135.75,116,136,115.57,136Z"/><path class="cls-269" d="M170.7,136l0-.59.36,0,0,.6Z"/><path class="cls-205" d="M99.82,121.22l0,.55-.36,0C99.42,121.51,99.4,121.22,99.82,121.22Z"/><path class="cls-270" d="M84.38,121.2c0,.28.08.58-.34.6C84,121.52,84,121.23,84.38,121.2Z"/><path class="cls-271" d="M107,120.48c-.05.41-.34.35-.62.32C106.46,120.39,106.76,120.45,107,120.48Z"/><path class="cls-272" d="M94.29,126.54c0-.28,0-.57.38-.57C94.67,126.25,94.71,126.55,94.29,126.54Z"/><path class="cls-240" d="M130.21,120.07l.54,0c.06.42-.24.41-.52.42Z"/><path class="cls-273" d="M101.67,120.05c0-.42.33-.35.6-.36C102.25,120.11,102,120.07,101.67,120.05Z"/><path class="cls-274" d="M154.59,119.28c-.29,0-.59.09-.62-.35a.42.42,0,0,1,.57,0Z"/><path class="cls-275" d="M97.88,126.53h-.37c0-.28,0-.57.39-.56A.39.39,0,0,1,97.88,126.53Z"/><path class="cls-276" d="M154.54,118.93H154l-.05-.35C154.21,118.55,154.51,118.5,154.54,118.93Z"/><path class="cls-277" d="M144.48,117l.54,0,0,.36C144.77,117.41,144.48,117.44,144.48,117Z"/><path class="cls-278" d="M173,139.08l0-.36c.29,0,.59-.07.59.38A.42.42,0,0,1,173,139.08Z"/><path class="cls-279" d="M151.69,117l-.37,0a.38.38,0,0,1,0-.55C151.73,116.46,151.7,116.76,151.69,117Z"/><path class="cls-280" d="M151.3,116.47l0,.55H151a.38.38,0,0,1,0-.56Z"/><path class="cls-12" d="M150.93,116.46l0,.56c-.44,0-.4-.32-.37-.62Z"/><path class="cls-224" d="M115.19,116.46c0,.28,0,.57-.39.56a.39.39,0,0,1,0-.55Z"/><path class="cls-281" d="M173,139.08l.56,0v.36a.39.39,0,0,1-.56,0Z"/><path class="cls-282" d="M97.88,126.53l0-.56.36,0C98.28,126.23,98.3,126.52,97.88,126.53Z"/><path class="cls-265" d="M114.82,116.47c0,.18,0,.36,0,.55h-.38a.38.38,0,0,1,0-.54Z"/><path class="cls-283" d="M114.44,116.47l0,.54-.37,0C114.05,116.75,114,116.47,114.44,116.47Z"/><path class="cls-236" d="M106.08,116.47h.37c0,.28,0,.57-.39.56A.38.38,0,0,1,106.08,116.47Z"/><path class="cls-284" d="M106.08,116.47l0,.55-.37,0C105.69,116.76,105.67,116.46,106.08,116.47Z"/><path class="cls-285" d="M145,116.47l-.54,0v-.37a.36.36,0,0,1,.54,0Z"/><path class="cls-286" d="M173,139.45h.56l0,.34a.31.31,0,0,1-.06.13.43.43,0,0,1-.53-.1Z"/><path class="cls-202" d="M106.44,116.45c0-.42.31-.37.59-.36C107,116.51,106.72,116.46,106.44,116.45Z"/><path class="cls-208" d="M88.05,116.1l0,.36a.39.39,0,0,1-.55,0l0,0C87.48,116.06,87.75,116.07,88.05,116.1Z"/><path class="cls-59" d="M145,116.09h-.54l0-.38a.38.38,0,0,1,.56,0Z"/><path class="cls-287" d="M149.8,115.68l-.58,0,0-.36C149.47,115.32,149.8,115.2,149.8,115.68Z"/><path class="cls-288" d="M145,115.72l-.56,0,0-.36C144.71,115.32,145,115.28,145,115.72Z"/><path class="cls-147" d="M127.17,126.54c0-.27-.07-.58.36-.6C127.55,126.22,127.59,126.51,127.17,126.54Z"/><path class="cls-289" d="M162.72,126.53c-.44,0-.38-.31-.37-.59l.36,0A.4.4,0,0,1,162.72,126.53Z"/><path class="cls-290" d="M111.2,113.41c0-.42.32-.37.6-.34C111.77,113.48,111.47,113.42,111.2,113.41Z"/><path class="cls-147" d="M125.46,128.43v-.36a.39.39,0,0,1,.56,0C126,128.46,125.74,128.44,125.46,128.43Z"/><path class="cls-291" d="M126,128.05l-.56,0c0-.42.31-.39.59-.38Z"/><path class="cls-292" d="M173,143.44c0-.5.34-.34.6-.34C173.61,143.63,173.24,143.44,173,143.44Z"/><path class="cls-293" d="M162.72,126.53V126c.44,0,.39.31.37.6Z"/><path class="cls-15" d="M164.07,127.66c-.28,0-.59.07-.59-.37a.4.4,0,0,1,.56,0Z"/><path class="cls-280" d="M143.65,111.75v.56h-.34v-.56Z"/><path class="cls-294" d="M113.68,111.71l.36,0c0,.28,0,.57-.38.58A.4.4,0,0,1,113.68,111.71Z"/><path class="cls-295" d="M113.68,111.71c0,.19,0,.37,0,.56h-.37a.4.4,0,0,1,0-.56Z"/><path class="cls-296" d="M113.3,111.72v.56l-.36,0C112.91,112,112.88,111.73,113.3,111.72Z"/><path class="cls-227" d="M92.17,111.69c0,.28,0,.57-.36.58a.4.4,0,0,1,0-.56Z"/><path class="cls-297" d="M91.82,111.71v.56l-.35,0C91.43,112,91.39,111.73,91.82,111.71Z"/><path class="cls-227" d="M92.76,111.33c0,.41-.3.38-.59.36l0-.36A.39.39,0,0,1,92.76,111.33Z"/><path class="cls-298" d="M170.34,145.57c0-.29-.07-.62.4-.57C170.78,145.32,170.82,145.63,170.34,145.57Z"/><path class="cls-299" d="M92.76,111.33H92.2c0-.42.31-.39.6-.36C92.79,111.09,92.78,111.21,92.76,111.33Z"/><path class="cls-101" d="M164,127.3h-.56l0-.35C163.73,126.91,164,126.85,164,127.3Z"/><path class="cls-300" d="M115.93,110.54c0-.42.33-.36.61-.33C116.51,110.63,116.21,110.57,115.93,110.54Z"/><path class="cls-301" d="M96.94,107.52h.58c0,.42-.34.37-.63.34C96.91,107.75,96.92,107.64,96.94,107.52Z"/><path class="cls-168" d="M122.42,107l.37,0c0,.29,0,.58-.38.59A.4.4,0,0,1,122.42,107Z"/><path class="cls-302" d="M122.42,107c0,.19,0,.37,0,.56H122a.38.38,0,0,1,0-.55Z"/><path class="cls-303" d="M168.24,147.08h.57c0,.39-.29.41-.58.37Z"/><path class="cls-304" d="M122.05,107l0,.55h-.37C121.65,107.25,121.64,107,122.05,107Z"/><path class="cls-305" d="M97.51,107.52l0-.56h.37C97.9,107.24,97.92,107.53,97.51,107.52Z"/><path class="cls-78" d="M165.61,150.36c0-.3-.1-.61.36-.62C166,150,166.06,150.35,165.61,150.36Z"/><path class="cls-61" d="M149.2,152.19l0,.58c-.16,0-.32,0-.35-.24S149,152.22,149.2,152.19Z"/><path class="cls-2" d="M102.26,98v-.54l.37,0C102.65,97.71,102.68,98,102.26,98Z"/><path class="cls-306" d="M97.52,126.55c0,.41-.32.37-.6.35C96.94,126.48,97.25,126.53,97.52,126.55Z"/><path class="cls-307" d="M82.7,123.31h.55v.37a.35.35,0,0,1-.52,0l-.08,0C82.67,123.55,82.68,123.43,82.7,123.31Z"/><path d="M182.18,190.76c-.67-.08-1.93-.18-3.18-.4-.53-.1-.7.06-.88.51a13.57,13.57,0,0,1-3.43,5.29c-4.81,4.31-11,5.27-16.79,1.07a17.15,17.15,0,0,1-1.94-1.66,2,2,0,1,1,2.79-2.79c2,1.89,4.27,3.3,7.17,3.16a9.38,9.38,0,0,0,7.16-4.1,11.31,11.31,0,0,0,2.2-5.85c.07-.73.38-.78,1-.54A17.89,17.89,0,0,0,183,186.8c4.24,0,6.67-2.33,6.88-6.56,0-.48,0-1,0-1.43a1.9,1.9,0,0,1,2-1.78,1.81,1.81,0,0,1,1.94,1.7c.07,4-.76,7.57-4.17,10.09C188,190.09,185.51,190.76,182.18,190.76Z"/><path class="cls-152" d="M119.58,102.18l1.12,0a.38.38,0,0,1,0,.54C120.3,102.65,119.57,103.15,119.58,102.18Z"/><path class="cls-308" d="M120.72,102.76l0-.54h1c0,.17,0,.35,0,.53Z"/><path class="cls-309" d="M108.53,102.76c0-.17,0-.34,0-.51l.76,0C109.34,102.84,108.92,102.78,108.53,102.76Z"/><path class="cls-310" d="M122.77,102.81c0,.11,0,.22,0,.33-.39-.1-.95.32-1.16-.36Z"/><path class="cls-311" d="M106.43,138.67l-1.12,0c.22-.68.77-.28,1.17-.36C106.46,138.45,106.45,138.56,106.43,138.67Z"/><path class="cls-312" d="M80.81,139.44c0-.11,0-.22,0-.34.4.09.94-.31,1.17.35Z"/><path class="cls-313" d="M112.17,136.81l0,.33-.94,0C111.34,136.58,111.82,136.87,112.17,136.81Z"/><path class="cls-314" d="M106.05,103.14c0-.11,0-.23,0-.34H107C106.86,103.37,106.4,103.09,106.05,103.14Z"/><path class="cls-315" d="M120.31,114.55c0-.11,0-.22,0-.33h.92C121.12,114.78,120.65,114.49,120.31,114.55Z"/><path class="cls-252" d="M87.46,116.47H88c0,.42-.13.62-.56.58Z"/><path class="cls-316" d="M127.91,111.69l0-.33.76,0C128.61,111.84,128.23,111.68,127.91,111.69Z"/><path class="cls-317" d="M82.73,123.7l.52,0c0,.4-.28.39-.55.4Z"/><path class="cls-318" d="M149.77,135.09l0-.76.07-.4c.13-.09.24-.1.33,0v2.46l-.32-.06Z"/><path class="cls-319" d="M148.84,129.58l0-1.51c.84.49.25,1.27.38,1.91C149,130,148.91,129.76,148.84,129.58Z"/><path class="cls-320" d="M149.75,132.82l-.5,0c0-.38,0-.77,0-1.15.19-.12.36-.15.52.06l.06.71A.28.28,0,0,1,149.75,132.82Z"/><path class="cls-21" d="M149.75,132.82l.07-.4c.7.4.23,1,.33,1.56l-.33,0Z"/><path class="cls-321" d="M149.76,131.71l-.52-.06v-.94a.37.37,0,0,1,.54,0Z"/><path class="cls-47" d="M149.78,130.72h-.54l0-.74C149.82,129.89,149.81,130.3,149.78,130.72Z"/><path class="cls-12" d="M173,139.83l.53.1v.31C173.25,140.22,173,140.21,173,139.83Z"/><circle class="cls-322" cx="146.62" cy="195.26" r="38.44"/><circle class="cls-322" cx="197.27" cy="175.08" r="37.14"/><path class="cls-323" d="M192.13,150.68S173.4,157,176,176.08"/><path class="cls-323" d="M139.46,168.33s-18.76,7.75-18.76,25.59"/><circle cx="120.62" cy="183.41" r="19.7"/><circle cx="212.95" cy="151.38" r="19.7"/><circle class="cls-324" cx="125.76" cy="176.58" r="6.8"/><circle class="cls-324" cx="217.44" cy="145.7" r="7.73"/><circle class="cls-324" cx="119.01" cy="188.64" r="2.97"/><circle class="cls-324" cx="212.4" cy="156.31" r="2.97"/><ellipse class="cls-325" cx="237.67" cy="168.03" rx="13.16" ry="4.53" transform="translate(-36.69 70.83) rotate(-15.75)"/><path class="cls-326" d="M171.06,207.28s6.59-.84,7.71-9.21"/><path class="cls-326" d="M173.91,213.29s7.34-4,9.13-8.8"/><ellipse class="cls-325" cx="112.5" cy="212.89" rx="13.16" ry="4.53" transform="translate(-53.57 38.54) rotate(-15.75)"/><path class="cls-327" d="M157.85,205.35s9.45,10.67,20.31.81a16.82,16.82,0,0,0,4.69-8.63s18.84,6.65,18.84-11.16"/><path class="cls-328" d="M145.69,154.82c5.24-31.27-10.3-48.32-10.3-48.32"/><path class="cls-329" d="M178.61,140.7s-23.52-37-60.91-41.81c-31.39-4.07-48.49,42-48.49,42s58.56,20.87,69.3-33"/></svg>