<?xml version="1.0" encoding="utf-8"?>
<!-- Generator: Adobe Illustrator 23.1.1, SVG Export Plug-In . SVG Version: 6.00 Build 0)  -->
<svg version="1.1" id="Layer_1" xmlns="http://www.w3.org/2000/svg" xmlns:xlink="http://www.w3.org/1999/xlink" x="0px" y="0px"
	 viewBox="0 0 1045 512.31" style="enable-background:new 0 0 1045 512.31;" xml:space="preserve">
<style type="text/css">
	.st0{fill:#FF8FF4;}
	.st1{fill:#31ECFF;}
	.st2{fill:#D83A94;}
	.st3{fill:#F6E1ED;}
	.st4{fill:#FFFFFF;}
</style>
<g>
	<path class="st0" d="M444.4,19.14c-0.73,2.37-2.4,2.84-4.63,2.41c-1.29-0.25-2.64-0.46-3.93-0.36c-1.79,0.15-2.62,1.68-3.34,3.07
		c-0.5,0.97,0.51,1.47,1.2,1.67c3.92,1.11,4.06,3.58,2.46,6.66c-1.26,2.42-0.64,3.98,1.97,4.78c2.73,0.84,2.98,2.55,2.29,5.16
		c-1.61,6.02-1.47,6.05,4.57,7.37c0.21,0.05,0.37,0.28,0.6,0.46c-1.43,0.61-3.6,0.89-3.89,1.78c-0.76,2.35-1.46,1.15-2.51,0.47
		c-6.68-4.37-14-7.42-21.62-9.61c-4.77-1.37-9.63-3.06-15.09-2.23c1.58,1.9,3.88,2.48,4.63,4.6c-3.53,2.56-7.22,2.39-11.21,1.45
		c-5.25-1.24-10.6-2.09-15.93-2.96c-0.98-0.16-2.44-0.86-3.09,0.67c-1.05,2.48,2.05,8.2,4.69,9.01c0.64,0.2,2.38,0.54,1.69,1.06
		c-2.17,1.65-0.12,1.49,0.56,1.53c2.77,0.16,5.54,0.16,8.32,0.24c0.34,0.01,0.83-0.06,0.8,0.64c-0.82,0.46-1.67,0.95-3.36,1.91
		c2.65,0,4.38,0,6.33,0c-1.19,2.25-3.75,2.5-4.82,4.76c1.84,0.62,3.61,1.22,5.52,1.86c-0.86,1.66-3.09,1.06-3.96,3.1
		c6.48-1.27,12.73,1.14,19.15-1.04c-0.16,0.98-0.24,1.49-0.33,1.99c-0.92,4.94-0.99,5.15-5.87,3.6
		c-21.66-6.87-43.09-6.44-64.43,1.43c-4,1.48-7.09,3.47-8.1,7.6c0.46,1.83,2.71-2.25,2.55,1.08c-0.22,0.31-0.44,0.62-0.65,0.93
		c-0.16,0.12-0.77,0.03-0.23,0.48c0.05-0.19,0.11-0.37,0.16-0.56c0.41-0.11,0.81-0.22,1.22-0.33c1.02-0.61,2.04-1.22,3.06-1.82
		c0.23,0.26,0.47,0.51,0.7,0.77c0.13,0.42-0.37,1.72,0.74,0.86c1.64-1.26,3.02-2.86,4.51-4.32c0.13,0.14,0.27,0.27,0.41,0.41
		c-0.44,2.7-1.86,5-3.27,7.65c3.24-0.35,4.16-3.42,6.47-4.5c0.23,0.24,0.46,0.47,0.68,0.71c-0.17,0.67-0.61,1.86-0.47,1.93
		c1.26,0.65,1.97-0.81,3.07-0.97c0.18,0.2,0.37,0.41,0.55,0.61c0.13,1.05-0.7,2.18,0.29,3.33c1.7-1.57,2.54-3.91,4.67-5.03
		c0.79,1.05,0.05,1.93,0.14,2.8c-0.35,0.23-0.5,0.49-0.14,0.84c0.15-0.16,0.3-0.32,0.45-0.48c1.72-0.72,3.44-1.44,5.15-2.16
		c0.21,0.27,0.42,0.53,0.63,0.8c-0.51,0.9-1.01,1.8-1.64,2.91c2.92-0.06,4.07-2.45,6.14-3.15l-0.05-0.07
		c0.82,1.09-1.4,1.91-0.29,3.07c1.69-1.06,3.33-2.1,4.98-3.13c0.16,0.17,0.33,0.34,0.52,0.49c-0.25,1.43-1.73,2.63-0.99,4.38
		c3.22-0.98,5.98-2.92,9.58-2.87c-0.62,2.42-1.16,4.52-1.85,7.22c3.76-2.53,6.99-4.66,11.03-4.93c-0.05,1.75-2,2.73-1.16,4.66
		c2.77-1.55,5.01-3.72,8-4.56c0.21,0.24,0.42,0.48,0.63,0.73c-0.87,1.77-1.74,3.55-2.6,5.32c-0.13,0.14-0.75,0.16-0.12,0.49
		c0.01-0.18,0.02-0.37,0.04-0.55c2.38,0.39,3.38-2.21,5.44-2.51c0.15,0.16,0.31,0.31,0.46,0.47c-0.33,1.57,0.59,1.45,1.52,1.03
		c1.5-0.68,2.95-1.48,4.43-2.23c0.13,0.14,0.26,0.27,0.4,0.41c-0.28,2.64-2.36,4.85-1.83,7.68c-0.15,0.08-0.29,0.15-0.44,0.23
		c0.07,0,0.16,0.02,0.2-0.01c0.08-0.08,0.13-0.19,0.19-0.28c2.96-1.75,5.2-4.61,8.62-5.65c0.17,0.18,0.35,0.35,0.54,0.5
		c-0.13,0.67-0.27,1.35-0.4,2.02c-0.22,0.09-0.81-0.02-0.26,0.48c0.06-0.18,0.13-0.36,0.19-0.55c2.77,0.12,4.91-2.41,7.41-2.1
		c1.18,1.49-1.21,1.95-0.48,2.97c2.08,2.88-0.53,3.57-2.07,4.77c-1.28,0.99-2.76,1.42-4.35,1.74c-15.83,3.22-31.11,8.08-45.85,14.76
		c-13.35,6.05-24.92,14.29-34.37,25.5c-3.39,4.02-3.64,5.61-1.16,8.52c0.26,0.31-0.11,1.04,0.88,1.15c1.86-3.04,3.77-6.15,6.07-9.88
		c0.15,1.85,0.25,2.95,0.34,4.06c2.1-0.11,2.58-2.37,4.4-2.84c0.42,1.66,0.83,3.27,1.3,5.12c1.68-2.2,1.91-5.09,4.28-6.84
		c0.49,1.69,0.91,3.17,1.5,5.23c0.64-2.19,1.1-3.74,1.55-5.29c1.51,0.57,0.62,2.04,1.51,2.65c1.43-0.52,0.83-2.85,2.83-3
		c0.11,1.91,0.21,3.75,0.34,5.97c2.36-3.42,4.59-6.33,5.34-10.49c1.12,2.21,0.89,4.36,2.4,5.6c1.09-1.2-0.26-3.07,1.73-3.96
		c0.22,1.09,0.41,2.04,0.66,3.26c2.47-1.54,2.68-4.66,5.11-6.09c0.21,1.64,0.38,2.98,0.55,4.32c1.57-0.34,0.78-2.06,1.96-2.48
		c1.07,2.61,0.04,4.18-2.28,5.4c-2.94,1.54-5.52,3.62-7.8,6.04c-0.61,0.65-1.87,1.32-1.46,2.17c1.82,3.7-1.24,5.57-2.78,7.98
		c-1.84,2.87-4.55,5.17-5.67,8.52c-0.34,0.25-0.66,0.53-0.13,0.88c0.04,0.03,0.34-0.31,0.51-0.48c1.7-0.71,2.72-0.65,2.15,1.67
		c-0.52,2.16-1.66,4.25-1.3,6.93c1.64-0.96,2.8-2.05,4.19-2.14c1.03,1.37-0.63,2.63,0.23,3.73c2.06-0.05,2.23-2.45,4.01-2.62
		c0.56,2.32-0.26,4.43-0.98,6.51c-0.53,1.54-0.72,2.8,0.83,3.79c1.55,0.99,2.4,0.05,3.24-1.09c0.3-0.4,1.09-0.99,1.1-0.98
		c2.84,3.08,4.76-0.91,7.02-0.85c3.69,0.1,4.03-2.11,4.41-4.88c0.14,3.82,5.89,4.83,4.25,9.34c-0.19,0.52,0.26,1.05,0.9,0.62
		c2.37-1.6,1.6,0.55,1.55,1.39c-0.16,2.78-0.48,5.55-0.76,8.49c2.1-0.43,2.75-2.34,4.89-2.51c0,2.56,0,5.05,0,8.43
		c2.41-3.05,3.18-6.14,5.83-8.07c0.69,2.12-0.37,4.21,1.37,6.39c1.12-3.9,2.11-7.34,3.27-11.37c1.75,3.68,2.48,7.05,5.25,9.84
		c1.1-3.87,1.12-7.6,2.68-11.2c2.44,2.35,4.11,5.12,6.72,6.93c0.11,0.12,0.22,0.23,0.34,0.34c-0.28,1.12-0.92,2.31,0.58,3.1
		c3.02,1.59,2.2,2.63-0.3,4c-1.94,1.06-5.15,2.51-0.63,4.74c1.07,0.52,0.79,1.5,0.34,2.41c-0.92,1.89-1.76,3.83-2.72,5.7
		c-0.49,0.96-1.34,2.12-0.46,2.9c3.02,2.64,1.7,5.77,1.31,8.82c-0.13,1.03-0.61,2.45,0.82,2.61c3.08,0.34,2.48,2.47,2.41,4.35
		c-0.05,1.43,0.25,3.41,1.82,2.07c3.77-3.21,12.5,0.48,12-8.56c-0.01-0.27,0.52-0.84,0.73-0.81c3.81,0.52,5.02-3.53,7.79-4.45
		c3.34-1.11,4.76-3.4,5.9-6.3c2.32-5.94,4.71-11.85,7.08-17.78c1.25,0.51,1.04,1.42,1.16,2.15c1.44,9.15,3.82,18.07,6.85,26.8
		c13.95,40.26,26.99,80.8,38.08,121.94c8.12,30.1,14.31,60.43,8.69,91.84c-0.21,1.17-0.13,2.01,0.88,2.75
		c5.72,4.22,11.61,8.14,18.17,10.93c0.78-1.23,0.41-2.31,0.22-3.29c-2.87-14.67-3.73-29.59-5.3-44.41
		c-3.23-30.57-10.08-60.3-19.58-89.47c-8.7-26.7-18.69-52.96-28.03-79.44c0.19-0.45,0.39-0.89,0.58-1.34
		c3.92-3.23,6.88-7.3,9.25-11.69c1.98-3.67,6.22-5.5,7.21-10.01c0.79-3.58,2.51-6.95,4.18-11.39c1.87,4.21,3.84,3.95,5.96,1.58
		c0.17,0.15,0.35,0.29,0.52,0.43c-0.65,2.17-2.76,4.34,0.88,6.18c2.26,1.14,3.31-0.17,5.57-2.36c-2.29,5.31,2.1,4.4,3.41,6.16
		c1.46,1.96,3.68,1.34,5.44,0.84c2.1-0.59,0.55-2.42,0.64-3.7c0.06-0.83-0.56-1.78,0.52-2.57c2.25,0.77,4.25,1.73,5.47,4.08
		c1.07,2.06,2.39,2.01,4.38,0.48c2.77-2.14,3.99-4.9,4.32-8c2.17,0.2,2.12,2.32,3.71,2.92c2.19-3.8,4.49-8.17,4.75-11.88
		c0.79-11.37-1.35-22.63-5.8-33.24c-1.42-3.39-0.71-4.89,2.86-5.34c0.82,2.59-0.69,5.54,1.4,8.18c6.2-15.49,3.68-30.05-4.48-45.14
		c3.65,1.61,6.23,3.83,8.33,3.45c5.28-0.96,8.24,0.82,9.99,5.54c0.04,0.12,0.4,0.12,0.6,0.17c1.05-1.72,0.69-4.04,2.46-5.7
		c2.43,4.79,4.55,9.53,7.83,14.2c0.54-3.55,0.97-6.42,1.54-10.17c2.36,4.87,3.74,9.15,6.38,12.89c0.97-1.33-0.43-2.43,0.49-4.1
		c2.56,5.44,4.6,10.69,7.4,15.5c3.09,5.3,9.21,5.63,14.64,8.2c-0.22-1.25-0.27-1.76-0.4-2.24c-4.28-15.59-13.91-27.66-25.29-38.61
		c-5.59-5.38-11.88-9.57-19.06-12.56c-13.7-5.71-27.78-9.98-42.49-12.23c-2.49-0.38-5.28,0.22-8.18-1.78
		c5.02-0.15,2.55-3.92,3.64-5.85c5.26-0.07,11.08,4.41,15.44-2.14c0.2-0.3,1.01-0.36,1.5-0.3c4.72,0.58,5.62-1.97,4.94-5.9
		c-0.08-0.48,0.1-1.01,0.16-1.5c2.12-0.33,3.22,1.82,5.62,1.86c-1.42-5.33-4.56-9.03-9.07-11.5c-2.15-1.17-1.94-2.05-0.55-3.5
		c0.64-0.67,1.97-0.87,1.33-2.43c-1.19-2.88-9.52-7.31-12.52-6.34c-3.38,1.1-6.87,2.08-9.96,3.76c-2.73,1.49-4.52,1.3-6.97-0.58
		c-3.33-2.54-4.58-1.88-6.32,1.9c-0.99,2.15-2.26,4.18-3.4,6.26c-0.48,0.87-1.06,1.66-2.15,0.95c-4.31-2.8-5.77-0.17-6.78,3.46
		c-0.23,0.81-0.28,1.84-1.5,2.08c-2.39-6.33-3.34-13.03-5.03-19.53c-0.63-2.42-1.66-4.74-2.22-7.17c-0.3-1.29-2.15,0.01-2-1.56
		c0.42-4.3-1.67-7.09-5.99-7.57c2.97-2.59,1.71-4.97,0-7.41c-4.11-5.89-9.71-10.43-14.32-15.86 M630.85,145.31
		c-0.26,0.11-0.53,0.22-0.79,0.33c0.09,0.03,0.23,0.12,0.27,0.09c0.17-0.14,0.31-0.32,0.46-0.48c0.38-0.15,0.76-0.31,1.14-0.46
		c0.98-0.36,1.94-0.79,2.94-1.08c0.87-0.25,2.49-1.36,2.51-0.34c0.04,1.68,3.18,2.23,1.33,4.24c-0.35,0.12-0.79,0.2-0.24,0.64
		c0.01,0.01,0.27-0.31,0.42-0.47c1.67,0.37,4.02-2.59,4.18-1.06c0.32,3.08,1.72,1.33,2.7,1.24c1.16-0.1,2.29-0.48,3.47-0.07
		c-0.35,1.34-2.47,1.08-2.42,3.12c3.13-1.89,5.98,1.72,9.22-0.33c-0.49,1.83-2.46,2.16-2.45,3.99c2.7,0.18,5.41-0.81,8.41,0.27
		c-1.17,1.64-2.12,2.98-3.26,4.57c3.49,0.06,6.63-1.49,9.94-0.42c-0.81,1.01-1.52,1.89-2.23,2.77c-0.15,0.2-0.3,0.39-0.45,0.59
		c0.26-0.09,0.52-0.18,0.78-0.27c2.49-0.06,4.81-1.77,7.49-0.86c-0.28,1.27-1.39,1.59-2.09,2.29c-0.64,0.64-1.79,0.86-1.85,2.1
		c1.75,0.07,3.25-1.31,4.98-0.56l-0.07-0.07c1.14,2.98,3.89-0.59,5.45,1.51c-1.15,1.46-2.36,3-4.09,5.21
		c2.92-0.83,4.91-1.46,6.94-1.94c0.63-0.15,2.23-0.32,1.83,0.42c-1.52,2.86,0.63,1.39,1.44,1.38c1.56-0.02,3.12-0.12,4.83-0.2
		c-2.84,5.7-4.28,6.8-8.9,6.2c-12.5-1.61-25-1.69-37.55-0.65c-14.41,1.19-28.04,4.76-40.64,11.99c-2.32,1.33-4.47,2.79-5.48,5.43
		c-0.16,0.17-0.49,0.45-0.46,0.49c0.31,0.47,0.6,0.2,0.88-0.08c1.33,0.74,2.52,1.54,4.01-0.02c1.15-1.2,2.72-2,4.1-2.98
		c0.21,0.2,0.41,0.4,0.62,0.6c1.06,3.44,3.01-1.19,3.85-0.08c0.94,1.77-0.87,2.87,0.19,4.2c1.73-1.01,2.7-3,4.72-3.47
		c0.96,0.72-0.28,2.04,1.15,2.95c1.21-5.11,3.07-0.29,4.76-0.44c-0.57,4.03,1.85,1.37,2.58,0.94c1.32-0.78,2.35-2.05,3.51-3.12
		c0.16,0.14,0.32,0.27,0.48,0.42c0,1.06,0,2.12,0,3.6c1.06-1.36,1.8-2.32,2.55-3.27c1.06,1.17-0.81,2.04,0.11,3.16
		c1.63-1.02,3.26-2.04,4.88-3.05c0.16,0.16,0.32,0.33,0.49,0.49c-0.07,0.52-0.39,1.35-0.18,1.52c3.03,2.47,0.6,2.73-1.26,3.23
		c-1.27,0.34-2.58,0.58-3.82,1.01c-2.34,0.83-5.98,1.09-6.51,3.17c-1,3.96-4.25,4.74-6.74,6.63c-1.89,1.44-3.96,2.63-5.87,4.04
		c-0.88,0.65-0.86,1.17-0.4,1.25c2.92,0.47,0.83,1.68,0.42,2.56c-0.64,1.39-2.33,2.23-2.11,4.07c-0.44-0.06-0.69,0.01-0.34,0.49
		c0.11-0.17,0.21-0.34,0.32-0.51c1.02,0.51,3.32-1.12,3.06,0.7c-0.46,3.18,1.4,1.26,2.29,1.47c0.24,0.2,0.47,0.41,0.71,0.61
		c-0.6,1.8-1.95,3.09-3.11,4.51c-0.78,0.95-0.78,1.9-0.07,2.87c0.76,1.04,1.55,0.61,2.37,0.07c0.76-0.5,1.31-0.9,2.4-0.17
		c2.53,1.7,8.24,0.67,10.66-2.12c-0.65,3.42,2.8,6.27-0.51,8.93c0.71,1.18,1.77-0.82,2.28,0.59c-1.38,2.54-2.73,5.03-4.07,7.51
		c1.47,0.98,2.64-1.1,3.89,0.09c-0.23,2.05-2.06,3.71-1.52,5.96l-0.2,0.04l0.16-0.08c2.03-1.21,3.44-3.45,6.18-3.88
		c-0.03,1.73-1.3,3.11-0.59,4.7c-0.08,0.04-0.16,0.09-0.24,0.13c0.06-0.06,0.13-0.12,0.19-0.18c1.98-2.35,3.96-4.7,6.24-7.41
		c0.58,3.06-0.5,5.76,1.29,8.34c1.95-2.79,3.71-5.31,5.47-7.83c0.31,0.05,0.63,0.09,0.94,0.14c-0.52,3.26,1.17,6.14,1.96,8.96
		c1.32,4.77-1.53,3.83-3.51,4.72c-0.67,0.3-2.15,0.57-1.7,1.2c3.48,4.82-1.72,5.63-3.61,7.78c-1.09,1.24-1.81,2.17-1.11,3.76
		c0.33,0.75,0.37,1.48-0.01,2.28c-1.18,2.46-4.76,4.57-1.26,7.81c0.09,0.09-0.05,0.53-0.18,0.74c-3.14,5.09,0.71,3.64,3.24,3.51
		c0.92-0.05,1.99-0.21,2.73,0.18c2.91,1.52,4.41-0.1,5.62-2.34c0.7-1.29,1.6-1.49,3.06-1.76c4.42-0.83,9.1-0.96,12.74-4.44
		c4.47-4.27,9.24-8.22,12.92-11.47c-0.47,2.05-1.39,5.61-2.08,9.22c-2.81,14.69-3.07,29.67-4.94,44.46
		c-3.42,27.09-6.17,54.28-10.9,81.2c-4.52,25.74-10.5,50.95-25.19,73.17c-0.56,0.85-1.39,1.64-0.63,2.85
		c3.12,4.98,6.35,9.85,11.23,14.15c2.89-12.36,6.93-23.78,10.7-35.29c2.17-6.64,4.29-13.31,6.23-20.02
		c10.28-35.61,13.26-72.29,15.97-109.02c0.61-8.28,1.42-16.55,2.13-24.83c0.49-0.28,0.99-0.57,1.48-0.85
		c9.45-5.91,19.48-11.05,26.53-20.13c0.1-0.13,0.44-0.06,0.71-0.09c0.98,0.88,0.58,3.48,3.06,2.6c0.19,0.21,0.38,0.41,0.57,0.62
		c-0.76,0.99-1.69,1.78-0.93,3.35c1.03,2.14,2.86,1.6,4.52,1.78l-0.07-0.05c-0.78,3.21,1.7,4.74,3.64,6.2
		c1.58,1.19,3.46,1.07,4.03-1.63c0.18-0.86,0.13-2.58,1.54-2.22c0.96,0.25,2.25,1.54,2.32,2.46c0.49,5.9,3.64,3.25,6.44,2.24
		c1.71-0.62,2.07-2.28,3.12-3.4c0.22-0.23,0.62-0.29,0.8-0.37c1.31,0.59,0.7,2.2,1.8,3.14c3.48-4.75,8.51-7.78,10.26-13.49
		c2.39-7.81,4.85-15.6,4.89-23.87c0.01-3.03,1.42-3.52,3.98-2.91c-0.17,2.24-2.19,3.85-1.52,6.13c-0.13,0.12-0.26,0.25-0.39,0.37
		c0.09-0.02,0.23-0.02,0.26-0.07c0.06-0.1,0.05-0.24,0.07-0.36c6.79-5.83,10.21-13.45,11.89-22.06c0.9-4.61,0.83-9.29,0.88-15.22
		c2.74,4.16,5.75,6.01,9.43,6.83c1.2,0.27,1.63,1.15,1.42,2.41c-0.2,1.24-0.21,2.5,0.72,3.69c1.24-1.39,2.07-3.09,4.08-4.05
		c0.47,4.5-0.32,8.74,1.13,12.99c1.92-1.8,2.24-4.6,4.72-6.13c0.34,3.92-0.57,7.48,0.59,10.91c1.23-0.43,0.34-1.95,1.78-2.23
		c0.03,8.88-2.09,18.67,9.2,23.01c1.18-6.73,1.68-13.47,0.08-20.1c-2.76-11.46-6.03-22.79-14.51-31.61
		c-5.04-5.24-10.69-9.82-16.62-14.06c-6.52-4.66-13.54-8.46-21.59-12.55c4.35,0.45,4.58-2.37,5.86-4.89
		c4.67,7.24,11.69,2.78,17.6,3.99c1.07,0.22,1.27-1.1,1.71-1.89c0.62-1.1,0.52-2.62,2.35-3.59c0.37,0.54,0.79,1.22,1.29,1.82
		c0.45,0.55,0.6,1.56,1.69,1.3c0.43-4.45,0.12-7.06-1.85-9.87c-1.57-2.24-3.21-4.13,0.95-5.16c0.64-0.16,0.6-0.64,0.59-1.22
		c-0.04-2.71-4.94-8.24-7.66-8.27c-3.29-0.03-6.63-0.02-9.87,0.48c-2.18,0.34-3.31-0.05-4.45-1.99c-1.64-2.8-3.77-3.47-6.15-0.44
		c-0.96,1.22-2.42,2.04-3.56,3.13c-1.53,1.46-2.87,2.06-4.55,0.09c-1.13-1.32-2.42-1.16-3.66,0.27c-0.89,1.03-1.57,2.46-3.23,2.69
		c0.01-0.08,3.58-25.65,3.58-25.65c-0.39-2.39,0.6-5.41-2.88-6.41l0.07,0.06c2.62-2.3,2.85-5.12,1.73-8.2
		c-1.58-4.34-3.17-8.67-4.76-13c-0.21-0.58-0.45-1.73-1.06-1.35c-2.88,1.79-4.97-0.46-7.37-1.17c-1.6-0.48-2.91,0.45-3.91,1.43
		c-1.21,1.17,0.33,1.85,0.96,2.47c1.96,1.93,0.5,3.16-0.6,4.72c-0.79,1.13-3.44,2.31-1.76,3.71c3.91,3.27,1.56,5.64-0.52,8.19
		c-1.44,1.76-1.29,3.03,0.81,4.01c0.8,0.37,1.59,0.78,2.67,1.32c-6.03,0.57-5.96,0.5-9.47-3.43c-5.05-5.67-10.92-10.35-17.61-13.96
		c-1.21-0.65-2.44-1.57-4.06-1.24c0.09,1.88,2.21,3.03,1.61,5.29c-9.49,0.66-15.1-8.1-23.76-9.7c-0.34,1.41-0.76,2.91-1.05,4.44
		c-0.32,1.67-0.87,3.63,1.39,4.34c1.82,0.57,0.65,2.36,0.93,2.53c1.44,0.87,3.14,1.32,4.74,1.92c0.25,0.09,0.48,0.21,0.73,0.32
		c0.74,0.32,2.26,0.39,0.4,1.47c-0.87,0.5-0.73,0.93,0.26,1.12c1.02,0.2,2.11,0.28,2.79,1.26c-1.73,1-4.04,0.64-5.51,2.18
		c0.87,1.59,3.03,1.58,3.26,3.37c-1.11,0.74-2.52-0.19-3.81,1.06c5.32,0.91,9.7,4.02,14.95,4.31c-2.34,5.57-2.48,5.75-7.17,2.31
		c-14.83-10.89-31.41-15.72-49.75-15.32c-4.76,0.1-8.41,1.49-11.31,5c2.07,2.54,4.57-0.12,6.8,0.62c0,0-0.03-0.02-0.03-0.02
		c0.01,0.27,0.02,0.55,0.03,0.82c-0.42,0.14-0.85,0.27-1.27,0.41c0.1,0.08,0.2,0.21,0.3,0.22c0.48,0.03,1.02,0.09,0.9-0.69
		c1.52,0.65,2.49-0.92,3.84-0.93c0.2,0.21,0.4,0.43,0.6,0.64c-1.24,1.4-2.48,2.8-3.72,4.19
		C631.04,144.51,630.69,144.73,630.85,145.31z M645.57,151.38l0.15-0.21l-0.28-0.02L645.57,151.38z"/>
	<path class="st0" d="M503.49,208.41c-2.12,2.38-4.09,2.63-5.96-1.58c-1.67,4.43-3.4,7.81-4.18,11.39
		c-0.99,4.51-5.23,6.34-7.21,10.01c-2.38,4.39-5.33,8.45-9.25,11.69c-0.14-1.87,0.36-3.59,1.1-5.28c0.32-0.73,1.17-1.86-0.43-2.03
		c-1.25-0.14-2.77-0.16-3.76,0.45c-0.97,0.59,0.01,1.88,0.33,2.8c0.65,1.83,1.43,3.61,2.16,5.41c9.34,26.48,19.33,52.73,28.03,79.44
		c9.5,29.16,16.35,58.9,19.58,89.47c1.57,14.82,2.43,29.74,5.3,44.41c0.19,0.98,0.56,2.06-0.22,3.29
		c-6.56-2.79-12.44-6.71-18.17-10.93c-1.01-0.75-1.09-1.58-0.88-2.75c5.62-31.41-0.57-61.74-8.69-91.84
		c-11.1-41.14-24.13-81.69-38.08-121.94c-3.03-8.73-5.41-17.65-6.85-26.8c-0.12-0.73,0.09-1.64-1.16-2.15
		c-2.37,5.93-4.76,11.84-7.08,17.78c-1.14,2.91-2.56,5.19-5.9,6.3c-2.78,0.92-3.98,4.97-7.79,4.45c-0.21-0.03-0.75,0.54-0.73,0.81
		c0.5,9.04-8.24,5.35-12,8.56c-1.57,1.34-1.87-0.64-1.82-2.07c0.07-1.88,0.66-4.01-2.41-4.35c-1.43-0.16-0.95-1.58-0.82-2.61
		c0.39-3.05,1.71-6.18-1.31-8.82c-0.88-0.77-0.03-1.94,0.46-2.9c0.96-1.87,1.79-3.81,2.72-5.7c0.44-0.91,0.72-1.88-0.34-2.41
		c-4.52-2.23-1.32-3.68,0.63-4.74c2.51-1.37,3.33-2.42,0.3-4c-1.5-0.79-0.86-1.98-0.58-3.1c0.1-0.3,0.21-0.6,0.31-0.9
		c-0.53-0.18-0.53,0.26-0.65,0.56c-2.61-1.81-4.28-4.58-6.72-6.93c-1.56,3.6-1.57,7.33-2.68,11.2c-2.77-2.78-3.51-6.16-5.25-9.84
		c-1.16,4.03-2.15,7.47-3.27,11.37c-1.73-2.18-0.68-4.27-1.37-6.39c-2.65,1.92-3.42,5.01-5.83,8.07c0-3.38,0-5.88,0-8.43
		c-2.14,0.18-2.79,2.08-4.89,2.51c0.27-2.94,0.59-5.71,0.76-8.49c0.05-0.84,0.82-2.99-1.55-1.39c-0.64,0.43-1.09-0.1-0.9-0.62
		c1.64-4.51-4.11-5.52-4.25-9.34c-0.38,2.77-0.73,4.98-4.41,4.88c-2.25-0.06-4.17,3.94-7.02,0.85c-0.01-0.01-0.8,0.57-1.1,0.98
		c-0.84,1.14-1.69,2.08-3.24,1.09c-1.55-1-1.37-2.26-0.83-3.79c0.72-2.07,1.55-4.19,0.98-6.51c-1.78,0.17-1.95,2.57-4.01,2.62
		c-0.86-1.1,0.8-2.36-0.23-3.73c-1.39,0.09-2.55,1.18-4.19,2.14c-0.36-2.68,0.77-4.77,1.3-6.93c0.56-2.32-0.46-2.38-2.15-1.67
		c-0.13-0.13-0.26-0.27-0.38-0.4c1.13-3.35,3.83-5.65,5.68-8.52c1.55-2.41,4.6-4.28,2.78-7.98c-0.42-0.85,0.84-1.52,1.46-2.17
		c2.28-2.42,4.86-4.5,7.8-6.04c2.32-1.21,3.35-2.79,2.28-5.4c-1.18,0.42-0.39,2.14-1.96,2.48c-0.17-1.34-0.34-2.68-0.55-4.32
		c-2.43,1.43-2.64,4.55-5.11,6.09c-0.25-1.22-0.44-2.17-0.66-3.26c-1.99,0.89-0.64,2.76-1.73,3.96c-1.51-1.25-1.27-3.39-2.4-5.6
		c-0.75,4.16-2.98,7.06-5.34,10.49c-0.13-2.22-0.23-4.07-0.34-5.97c-2,0.15-1.4,2.48-2.83,3c-0.89-0.61,0-2.08-1.51-2.65
		c-0.45,1.55-0.91,3.1-1.55,5.29c-0.59-2.06-1.01-3.54-1.5-5.23c-2.36,1.75-2.59,4.64-4.28,6.84c-0.47-1.85-0.88-3.47-1.3-5.12
		c-1.82,0.47-2.3,2.73-4.4,2.84c-0.09-1.11-0.18-2.21-0.34-4.06c-2.29,3.74-4.2,6.85-6.07,9.88c-1-0.11-0.62-0.84-0.88-1.15
		c-2.48-2.91-2.24-4.49,1.16-8.52c9.46-11.2,21.03-19.44,34.37-25.5c14.75-6.69,30.02-11.54,45.85-14.76
		c1.59-0.32,3.07-0.75,4.35-1.74c1.54-1.2,4.15-1.89,2.07-4.77c-0.73-1.02,1.65-1.48,0.48-2.97c-2.5-0.31-4.63,2.23-7.41,2.1
		l0.07,0.06c0.13-0.67,0.27-1.35,0.4-2.03c0.24-0.32,0.55-0.65,0.01-0.94c-0.08-0.04-0.36,0.29-0.55,0.44
		c-3.42,1.05-5.66,3.9-8.62,5.65l0.05,0.06c-0.53-2.83,1.55-5.04,1.83-7.68c0.09-0.27,0.18-0.54,0.28-0.81
		c-0.22,0.13-0.45,0.27-0.67,0.4c-1.47,0.75-2.92,1.55-4.43,2.23c-0.92,0.42-1.85,0.54-1.52-1.03c0.08-0.28,0.16-0.56,0.24-0.83
		c-0.23,0.12-0.47,0.24-0.7,0.36c-2.06,0.29-3.06,2.9-5.44,2.51l0.08,0.06c0.87-1.77,1.74-3.55,2.6-5.32c0.1-0.29,0.2-0.58,0.3-0.87
		c-0.31,0.05-0.62,0.09-0.94,0.14c-2.98,0.83-5.22,3.01-8,4.56c-0.83-1.92,1.11-2.91,1.16-4.66c-4.03,0.27-7.27,2.4-11.03,4.93
		c0.69-2.7,1.23-4.8,1.85-7.22c-3.6-0.05-6.36,1.89-9.58,2.87c-0.74-1.75,0.74-2.95,0.99-4.38c0.27-0.33,0.41-0.68-0.02-0.98
		c-0.04-0.02-0.33,0.32-0.5,0.49c-1.65,1.04-3.29,2.07-4.98,3.13c-1.11-1.16,1.11-1.98,0.29-3.07c0.38,0.18,0.63,0.19,0.5-0.35
		c-0.15,0.14-0.3,0.28-0.45,0.42c-2.07,0.7-3.23,3.09-6.14,3.15c0.63-1.12,1.13-2.02,1.64-2.91c0.12-0.29,0.24-0.58,0.36-0.87
		c-0.33,0.02-0.66,0.05-0.98,0.07c-1.72,0.72-3.44,1.44-5.15,2.16c-0.11-0.12-0.21-0.24-0.31-0.36c-0.09-0.86,0.65-1.74-0.14-2.79
		c-2.14,1.11-2.97,3.45-4.67,5.03c-0.99-1.15-0.16-2.28-0.29-3.34c0.13-0.21,0.41-0.48,0.36-0.61c-0.25-0.57-0.6-0.22-0.91,0
		c-1.1,0.17-1.81,1.63-3.07,0.97c-0.14-0.07,0.3-1.26,0.47-1.93c0.51-0.31,0.77-0.88,0.39-1.25c-0.55-0.52-0.74,0.28-1.07,0.55
		c-2.3,1.08-3.23,4.15-6.47,4.5c1.41-2.65,2.84-4.95,3.27-7.65c0.07-0.29,0.15-0.58,0.22-0.88c-0.21,0.16-0.42,0.31-0.63,0.47
		c-1.49,1.46-2.87,3.05-4.51,4.32c-1.11,0.85-0.61-0.44-0.74-0.86c0.45-0.44,0.97-0.89,0.36-1.52c-0.04-0.04-0.69,0.49-1.06,0.76
		c-1.02,0.61-2.04,1.22-3.06,1.82c-0.15-0.19-0.32-0.36-0.5-0.53c0.17-3.33-2.09,0.76-2.55-1.08c1.01-4.13,4.1-6.12,8.1-7.6
		c21.34-7.87,42.77-8.3,64.43-1.43c4.88,1.55,4.95,1.33,5.87-3.6c0.09-0.5,0.17-1.01,0.33-1.99c-6.42,2.18-12.67-0.24-19.15,1.04
		c0.87-2.04,3.1-1.44,3.96-3.1c-1.9-0.64-3.68-1.24-5.52-1.86c1.07-2.26,3.63-2.51,4.82-4.76c-1.95,0-3.68,0-6.33,0
		c1.69-0.96,2.55-1.45,3.36-1.91c0.03-0.69-0.46-0.63-0.8-0.64c-2.77-0.08-5.55-0.08-8.32-0.24c-0.68-0.04-2.73,0.12-0.56-1.53
		c0.69-0.52-1.05-0.86-1.69-1.06c-2.64-0.81-5.74-6.53-4.69-9.01c0.65-1.54,2.11-0.84,3.09-0.67c5.33,0.87,10.68,1.73,15.93,2.96
		c3.99,0.94,7.68,1.11,11.21-1.45c-0.75-2.11-3.05-2.7-4.63-4.6c5.47-0.83,10.32,0.86,15.09,2.23c7.62,2.19,14.94,5.24,21.62,9.61
		c1.05,0.69,1.75,1.89,2.51-0.47c0.29-0.89,2.46-1.17,3.89-1.78c-0.22-0.18-0.39-0.42-0.6-0.46c-6.04-1.32-6.18-1.35-4.57-7.37
		c0.7-2.6,0.44-4.32-2.29-5.16c-2.61-0.8-3.23-2.35-1.97-4.78c1.6-3.08,1.46-5.55-2.46-6.66c-0.69-0.2-1.7-0.69-1.2-1.67
		c0.71-1.39,1.55-2.92,3.34-3.07c1.29-0.11,2.64,0.11,3.93,0.36c2.23,0.43,3.9-0.04,4.63-2.41c0.26,0,0.53,0,0.79,0
		c4.61,5.43,10.21,9.97,14.32,15.86c1.71,2.45,2.97,4.82,0,7.41c4.32,0.47,6.41,3.27,5.99,7.57c-0.15,1.57,1.7,0.27,2,1.56
		c0.56,2.43,1.59,4.75,2.22,7.17c1.69,6.5,2.64,13.19,5.03,19.53c1.22-0.24,1.27-1.27,1.5-2.08c1.01-3.64,2.47-6.27,6.78-3.46
		c1.09,0.71,1.68-0.07,2.15-0.95c1.14-2.08,2.41-4.11,3.4-6.26c1.74-3.78,2.99-4.44,6.32-1.9c2.46,1.87,4.24,2.07,6.97,0.58
		c3.09-1.68,6.58-2.66,9.96-3.76c3-0.98,11.32,3.45,12.52,6.34c0.65,1.56-0.68,1.76-1.33,2.43c-1.39,1.45-1.6,2.32,0.55,3.5
		c4.51,2.46,7.65,6.17,9.07,11.5c-2.4-0.05-3.5-2.19-5.62-1.86c-0.06,0.5-0.24,1.02-0.16,1.5c0.68,3.93-0.22,6.48-4.94,5.9
		c-0.5-0.06-1.3-0.01-1.5,0.3c-4.36,6.54-10.18,2.06-15.44,2.14c-1.09,1.94,1.38,5.7-3.64,5.85c2.9,2,5.68,1.4,8.18,1.78
		c14.7,2.25,28.78,6.52,42.49,12.23c7.18,2.99,13.47,7.19,19.06,12.56c11.37,10.95,21.01,23.02,25.29,38.61
		c0.13,0.48,0.18,0.99,0.4,2.24c-5.43-2.57-11.56-2.9-14.64-8.2c-2.8-4.81-4.85-10.06-7.4-15.5c-0.92,1.67,0.48,2.77-0.49,4.1
		c-2.64-3.74-4.02-8.02-6.38-12.89c-0.57,3.75-1,6.62-1.54,10.17c-3.28-4.67-5.4-9.41-7.83-14.2c-1.76,1.65-1.41,3.97-2.46,5.7
		c-0.2-0.05-0.56-0.06-0.6-0.17c-1.75-4.72-4.71-6.5-9.99-5.54c-2.1,0.38-4.68-1.84-8.33-3.45c8.16,15.1,10.68,29.65,4.48,45.14
		c-2.1-2.64-0.58-5.59-1.4-8.18c-3.57,0.44-4.28,1.95-2.86,5.34c4.45,10.61,6.59,21.88,5.8,33.24c-0.26,3.71-2.56,8.07-4.75,11.88
		c-1.59-0.6-1.54-2.72-3.71-2.92c-0.33,3.11-1.54,5.87-4.32,8c-1.99,1.54-3.31,1.58-4.38-0.48c-1.22-2.35-3.23-3.31-5.47-4.08
		c-1.09,0.79-0.47,1.74-0.52,2.57c-0.09,1.28,1.45,3.11-0.64,3.7c-1.77,0.5-3.98,1.12-5.44-0.84c-1.31-1.75-5.7-0.85-3.41-6.16
		c-2.26,2.19-3.31,3.5-5.57,2.36c-3.64-1.84-1.53-4-0.88-6.18c0.55-0.27,0.8-0.9,0.38-1.19
		C503.84,207.28,503.79,208.12,503.49,208.41z M473.76,155.6c1.52-1.39,2.7-2.99,3-5.09c0.01-0.04-0.78-0.39-1-0.26
		c-2.11,1.2-2.14,3.24-2.03,5.32c-0.52-0.02-0.67,0.32-0.64,0.74c0.01,0.14,0.25,0.26,0.39,0.39
		C473.57,156.33,473.67,155.97,473.76,155.6z M420.32,195.79c1.6-2.14,4.44-4.02,1.33-7.44c-0.77,2.42-1.45,4.54-2.13,6.66
		c-0.41,0.48-0.84,1.2-0.34,1.59C419.93,197.18,419.98,196.14,420.32,195.79z M499.93,152.42c0.11,0.42,0.23,0.84,0.34,1.26
		c0.1-0.07,0.26-0.12,0.28-0.21C500.66,152.94,500.46,152.58,499.93,152.42c-0.25-0.87-0.39-1.79-0.77-2.59
		c-4.37-9.14-9.5-17.87-14.86-26.45c-0.73-1.17-1.21-2.77-3.39-3.5c3.36,6.32,6.19,12.22,9.56,17.79
		C493.47,142.66,495.78,148.14,499.93,152.42z M480.9,157.99c-7.17,0.7-11.64,4.45-13.21,11.58c-0.18,0.81-0.28,1.91-1.48,2.12
		c-1.29-2.77-0.58-5.79-0.89-8.87c-4.23,3.35-0.91,46.5,4.24,58.18c0.61-1.3,1.02-2.57,1.73-3.64c2.14-3.22,2.47-6-1.49-8.07
		c-0.92-0.48-1.26-1.33-0.9-2.36c3.11-8.91,2.92-18.72,8.23-27.11c2.91-4.6,5.86-9.69,4.8-15.83c-1.85,0.15-2.38,2.23-4.12,2.24
		c-0.28-3.32,2.89-5.27,3.04-8.32c0.17-0.01,0.34-0.03,0.51-0.04c-0.02-0.1-0.04-0.21-0.05-0.31
		C481.17,157.71,481.04,157.85,480.9,157.99z M523.95,198.73c-1.54-0.8-4.54-0.51-4.16-1.74c1.37-4.41-0.53-7.22-3.32-10.04
		c-0.39-0.39-0.08-1.52-0.02-2.29c0.15-1.89-0.47-3.64-0.95-5.41c-0.26-0.97-0.92-1.72-2.02-1.32c-1.21,0.44-0.34,1.33-0.19,1.97
		c0.94,4.09,2.05,8.15,2.92,12.25c1.05,4.98,1.92,10,3.09,16.11C520.45,204.04,522.22,201.45,523.95,198.73z M384.6,130.34
		c-1.55,1.49-1.12,3.81-3.14,5.33c0-1.68,0-2.97,0-4.27c-0.18-0.02-0.36-0.04-0.55-0.06c-0.7,2.86-1.39,5.73-2.08,8.56
		C384.9,139.1,384.26,134.49,384.6,130.34z M476.21,228.15c-0.45-1.66-2.22-1.27-3.38-1.75c-0.73-0.3-1.82-0.22-1.54,0.95
		c0.38,1.57,0.2,3.91,2.15,4.21C475.04,231.8,475.28,229.63,476.21,228.15z M424.9,177.32c-0.63,2.38-1.25,4.76-1.96,7.47
		C426.49,182.35,426.5,182.31,424.9,177.32z M494.5,115.5c0.98,0.88,2.04,2.34,3.15,1.85c1.27-0.56,0.81-2.3,0.93-3.79
		C496.92,114.09,495.57,114.45,494.5,115.5z"/>
	<path class="st0" d="M675.29,165.15c-1.73-0.75-3.23,0.63-4.98,0.56c0.07-1.24,1.22-1.46,1.85-2.1c0.7-0.71,1.81-1.02,2.09-2.29
		c-2.67-0.91-5,0.79-7.49,0.86c-0.11-0.11-0.22-0.22-0.33-0.32c0.71-0.88,1.42-1.76,2.23-2.77c-3.31-1.06-6.45,0.48-9.94,0.42
		c1.14-1.59,2.09-2.93,3.26-4.57c-2.99-1.08-5.71-0.08-8.41-0.27c-0.01-1.83,1.96-2.16,2.45-3.99c-3.24,2.06-6.09-1.56-9.22,0.33
		c-0.05-2.04,2.07-1.78,2.42-3.12c-1.17-0.41-2.31-0.03-3.47,0.07c-0.98,0.09-2.38,1.85-2.7-1.24c-0.16-1.52-2.5,1.43-4.18,1.06
		l-0.18-0.17c1.85-2.02-1.3-2.56-1.33-4.24c-0.02-1.02-1.64,0.09-2.51,0.34c-1,0.28-1.96,0.71-2.94,1.08
		c-0.14-0.14-0.28-0.27-0.43-0.41c1.24-1.4,2.48-2.8,3.72-4.2c0.28-0.32,1.03-0.55,0.59-1.05c-0.35-0.4-0.9-0.06-1.19,0.41
		c-1.35,0.01-2.33,1.59-3.84,0.93l0.06,0.07c-0.01-0.27-0.02-0.55-0.03-0.82c0.18-0.11,0.36-0.23,0.54-0.34
		c-0.15-0.06-0.31-0.12-0.46-0.18c-0.02,0.18-0.03,0.37-0.05,0.55c-2.23-0.74-4.73,1.92-6.8-0.62c2.9-3.51,6.55-4.89,11.31-5
		c18.34-0.4,34.92,4.43,49.75,15.32c4.69,3.44,4.83,3.25,7.17-2.32c-5.25-0.28-9.63-3.39-14.95-4.3c1.29-1.25,2.7-0.32,3.81-1.06
		c-0.22-1.79-2.39-1.78-3.26-3.37c1.46-1.54,3.78-1.18,5.51-2.18c-0.68-0.98-1.77-1.06-2.79-1.26c-0.98-0.19-1.12-0.62-0.26-1.12
		c1.86-1.07,0.34-1.15-0.4-1.47c-0.24-0.11-0.48-0.23-0.73-0.32c-1.61-0.6-3.3-1.05-4.74-1.92c-0.27-0.16,0.9-1.95-0.93-2.53
		c-2.26-0.71-1.71-2.66-1.39-4.34c0.29-1.53,0.71-3.03,1.05-4.44c8.66,1.6,14.27,10.36,23.76,9.7c0.6-2.26-1.52-3.41-1.61-5.29
		c1.62-0.33,2.85,0.59,4.06,1.24c6.69,3.6,12.56,8.29,17.61,13.96c3.51,3.94,3.44,4,9.47,3.43c-1.08-0.54-1.87-0.94-2.67-1.32
		c-2.1-0.97-2.25-2.24-0.81-4.01c2.08-2.54,4.43-4.91,0.52-8.19c-1.68-1.4,0.97-2.58,1.76-3.71c1.09-1.56,2.56-2.79,0.6-4.72
		c-0.63-0.62-2.17-1.3-0.96-2.47c1-0.98,2.31-1.91,3.91-1.43c2.4,0.72,4.48,2.96,7.37,1.17c0.61-0.38,0.85,0.77,1.06,1.35
		c1.59,4.33,3.19,8.66,4.76,13c1.12,3.08,0.89,5.9-1.73,8.2c-0.18,0.11-0.35,0.21-0.53,0.32c0.14,0.05,0.29,0.11,0.43,0.16
		c0.01-0.18,0.02-0.36,0.02-0.54c3.48,1,2.49,4.02,2.88,6.41c0,0-3.57,25.57-3.58,25.65c1.65-0.24,2.33-1.66,3.23-2.69
		c1.24-1.43,2.53-1.59,3.66-0.27c1.68,1.97,3.02,1.37,4.55-0.09c1.14-1.09,2.6-1.91,3.56-3.13c2.37-3.03,4.5-2.36,6.15,0.44
		c1.14,1.94,2.26,2.33,4.45,1.99c3.24-0.5,6.58-0.51,9.87-0.48c2.72,0.03,7.62,5.56,7.66,8.27c0.01,0.58,0.06,1.06-0.59,1.22
		c-4.16,1.03-2.52,2.92-0.95,5.16c1.97,2.81,2.29,5.42,1.85,9.87c-1.09,0.26-1.23-0.75-1.69-1.3c-0.5-0.61-0.91-1.29-1.29-1.82
		c-1.83,0.97-1.73,2.49-2.35,3.59c-0.44,0.79-0.63,2.11-1.71,1.89c-5.92-1.21-12.94,3.25-17.6-3.99c-1.28,2.53-1.51,5.34-5.86,4.89
		c8.06,4.09,15.08,7.89,21.59,12.55c5.93,4.24,11.57,8.81,16.62,14.06c8.48,8.82,11.75,20.15,14.51,31.61
		c1.59,6.63,1.1,13.37-0.08,20.1c-11.29-4.34-9.17-14.13-9.2-23.01c-1.44,0.29-0.55,1.81-1.78,2.23c-1.16-3.43-0.25-6.99-0.59-10.91
		c-2.48,1.53-2.8,4.33-4.72,6.13c-1.45-4.25-0.66-8.5-1.13-12.99c-2,0.96-2.83,2.65-4.08,4.05c-0.93-1.18-0.92-2.45-0.72-3.69
		c0.21-1.26-0.22-2.15-1.42-2.41c-3.67-0.82-6.69-2.67-9.43-6.83c-0.05,5.92,0.02,10.6-0.88,15.22c-1.67,8.6-5.1,16.23-11.89,22.06
		l0.07,0.07c-0.67-2.27,1.36-3.89,1.52-6.13c-2.56-0.61-3.97-0.11-3.98,2.91c-0.03,8.27-2.5,16.06-4.89,23.87
		c-1.75,5.71-6.78,8.74-10.26,13.49c-1.1-0.94-0.49-2.54-1.8-3.14c-0.19,0.08-0.59,0.14-0.8,0.37c-1.05,1.12-1.4,2.78-3.12,3.4
		c-2.81,1.01-5.95,3.66-6.44-2.24c-0.08-0.92-1.37-2.21-2.32-2.46c-1.41-0.37-1.36,1.36-1.54,2.22c-0.57,2.7-2.46,2.81-4.03,1.63
		c-1.93-1.46-4.41-2.99-3.64-6.2c0.14-0.14,0.28-0.29,0.42-0.43c-0.11-0.02-0.21-0.04-0.32-0.06c-0.01,0.18-0.02,0.36-0.03,0.54
		c-1.66-0.18-3.49,0.36-4.52-1.78c-0.76-1.58,0.17-2.37,0.93-3.35c0.26-0.32,1.11-0.43,0.68-0.98c-0.31-0.4-0.93-0.16-1.24,0.36
		c-2.49,0.88-2.09-1.71-3.06-2.6c-0.28,0.03-0.62-0.03-0.71,0.09c-7.05,9.08-17.08,14.22-26.53,20.13
		c-0.33-2.53,2.18-3.39,3.06-5.18c-0.67-1.37-2.4-0.67-3.27-1.67c4.26-3.63,4.26-3.63-1.27-5.88c0,4.8,0,9.2,0,13.59
		c-0.72,8.28-1.52,16.55-2.13,24.83c-2.71,36.73-5.69,73.41-15.97,109.02c-1.94,6.71-4.06,13.38-6.23,20.02
		c-3.77,11.51-7.81,22.92-10.7,35.29c-4.88-4.3-8.12-9.17-11.23-14.15c-0.75-1.2,0.07-2,0.63-2.85
		c14.69-22.23,20.66-47.44,25.19-73.17c4.73-26.92,7.48-54.11,10.9-81.2c1.87-14.79,2.13-29.77,4.94-44.46
		c0.69-3.61,1.61-7.17,2.08-9.22c-3.69,3.25-8.46,7.2-12.92,11.47c-3.64,3.48-8.32,3.61-12.74,4.44c-1.46,0.27-2.36,0.48-3.06,1.76
		c-1.22,2.24-2.71,3.86-5.62,2.34c-0.74-0.39-1.82-0.23-2.73-0.18c-2.53,0.13-6.38,1.58-3.24-3.51c0.13-0.21,0.27-0.65,0.18-0.74
		c-3.5-3.24,0.08-5.34,1.26-7.81c0.38-0.8,0.34-1.53,0.01-2.28c-0.69-1.59,0.02-2.52,1.11-3.76c1.89-2.15,7.09-2.96,3.61-7.78
		c-0.45-0.62,1.03-0.89,1.7-1.2c1.98-0.89,4.83,0.05,3.51-4.72c-0.78-2.83-2.47-5.7-1.96-8.96c-0.31-0.05-0.63-0.09-0.94-0.14
		c-1.76,2.52-3.52,5.04-5.47,7.83c-1.78-2.57-0.71-5.27-1.29-8.34c-2.29,2.71-4.26,5.06-6.24,7.41l0.05,0.05
		c-0.71-1.59,0.56-2.97,0.59-4.7c-2.74,0.43-4.15,2.66-6.18,3.88l0.05,0.03c-0.54-2.25,1.29-3.9,1.52-5.96
		c-1.25-1.19-2.42,0.9-3.89-0.09c1.34-2.48,2.7-4.97,4.07-7.51c-0.5-1.41-1.56,0.58-2.28-0.59c3.31-2.65-0.14-5.5,0.51-8.93
		c-2.42,2.78-8.13,3.82-10.66,2.12c-1.08-0.73-1.64-0.33-2.4,0.17c-0.81,0.54-1.61,0.97-2.37-0.07c-0.71-0.97-0.71-1.92,0.07-2.87
		c1.16-1.42,2.51-2.71,3.11-4.51c0.05-0.3,0.11-0.6,0.17-0.91c-0.29,0.1-0.58,0.2-0.87,0.3c-0.89-0.21-2.74,1.71-2.29-1.47
		c0.26-1.82-2.04-0.19-3.06-0.7l0.02,0.02c-0.23-1.84,1.47-2.68,2.11-4.07c0.4-0.88,2.5-2.1-0.42-2.56c-0.46-0.07-0.47-0.6,0.4-1.25
		c1.91-1.41,3.98-2.6,5.87-4.04c2.49-1.9,5.73-2.67,6.74-6.63c0.53-2.09,4.17-2.35,6.51-3.17c1.24-0.44,2.55-0.67,3.82-1.01
		c1.86-0.5,4.29-0.77,1.26-3.23c-0.21-0.17,0.11-1,0.18-1.52c0.07-0.28,0.15-0.56,0.22-0.84c-0.24,0.12-0.47,0.24-0.71,0.36
		c-1.63,1.02-3.26,2.04-4.88,3.05c-0.93-1.12,0.94-1.98-0.11-3.16c-0.75,0.96-1.49,1.91-2.55,3.27c0-1.48,0-2.54,0-3.6
		c0.44-0.33,0.67-0.97,0.28-1.19c-0.54-0.31-0.53,0.48-0.76,0.78c-1.15,1.07-2.18,2.34-3.51,3.12c-0.73,0.43-3.14,3.09-2.58-0.94
		c-1.69,0.16-3.55-4.67-4.76,0.44c-1.43-0.91-0.19-2.24-1.15-2.95c-2.02,0.47-2.99,2.46-4.72,3.47c-1.05-1.32,0.75-2.43-0.19-4.2
		c-0.85-1.11-2.79,3.51-3.86,0.07c0.07-0.31,0.14-0.63,0.22-0.94c-0.28,0.11-0.56,0.23-0.84,0.34c-1.38,0.98-2.95,1.78-4.1,2.98
		c-1.49,1.56-2.68,0.75-4.01,0.02c-0.13-0.14-0.27-0.28-0.42-0.41c1.01-2.63,3.16-4.1,5.48-5.43c12.6-7.23,26.23-10.79,40.64-11.99
		c12.56-1.04,25.05-0.96,37.55,0.65c4.62,0.6,6.06-0.49,8.9-6.2c-1.71,0.08-3.27,0.18-4.83,0.2c-0.82,0.01-2.97,1.48-1.44-1.38
		c0.4-0.74-1.2-0.57-1.83-0.42c-2.02,0.48-4.01,1.11-6.94,1.94c1.74-2.21,2.94-3.74,4.09-5.21c-1.57-2.1-4.31,1.47-5.45-1.51
		c0.41-0.15,0.82-0.29,1.23-0.44c-0.1-0.07-0.2-0.2-0.3-0.2C675.67,164.43,675.15,164.4,675.29,165.15z M644.34,192.9
		c-1.73,0.63-2.37,2.16-3.18,3.66c4.05,1.05,3.2-1.63,3.13-3.7c0.21-0.25,0.42-0.51,0.63-0.76c-0.14-0.08-0.29-0.16-0.43-0.24
		C644.44,192.21,644.39,192.56,644.34,192.9z M653.08,253.23c2-1.37,5.21-1.77,4.63-6.07c-2.23,1.96-3.79,3.62-5,5.61
		c-0.44,0.46-1.54,0.49-1,1.58C652.16,253.97,652.62,253.6,653.08,253.23z M684.2,285.62c0.72-0.66,1.28-1.17,1.84-1.67
		c2.36-2.07,5.47-3.87,2.06-7.59c-0.72-0.79,0.17-1.66,0.76-2.4c1.31-1.64,2.58-3.32,3.79-5.05c3.55-5.07,7.02-10.11,11.96-14.1
		c3.79-3.06,8.04-6.08,9.35-11.38c-1.2-0.7-2.3,0.94-3.42-0.03c0.9-2.33,3.56-3.09,5.57-5.67c-3.87,1.03-7.28-1.11-9.9,1.11
		c-2.32,1.97-4.01,4.68-5.98,7.07c-1.52-3.5,0.49-5.32,0.82-7.68C696.71,239.91,683.81,276.14,684.2,285.62z M728.26,287.79
		c2.9-2.2,4.79-4.44,8.15-5.75c-3.95-0.77-5.2-2.15-2.45-4.98c0.83-0.85,1.47-1.89,0.44-3.14c-1.58-1.91-1.22-3.79-0.05-5.82
		c0.63-1.1,0.81-2.48,1.08-3.77c0.14-0.67-0.09-1.37-0.9-1.49c-0.87-0.13-1.1,0.58-1.19,1.23
		C732.35,271.86,730.27,279.44,728.26,287.79z M730.09,212.09c-0.21,11.01,1.4,21.87,2.78,32.58
		C733.52,233.8,732.17,222.92,730.09,212.09z M659.71,244.64c3.9-0.78,4.35-3.01,4.28-5.63
		C662.76,240.63,661.52,242.26,659.71,244.64z M623.26,194.38l0.14-0.29l-0.24-0.02L623.26,194.38z"/>
	<path class="st0" d="M682.19,304.02c0-4.39,0-8.78,0-13.59c5.53,2.26,5.53,2.26,1.27,5.88c0.87,1,2.6,0.3,3.27,1.67
		c-0.87,1.78-3.39,2.65-3.06,5.18C683.18,303.45,682.69,303.73,682.19,304.02z"/>
	<path class="st0" d="M476.3,241.26c-0.73-1.8-1.51-3.58-2.16-5.41c-0.33-0.91-1.3-2.2-0.33-2.8c0.99-0.6,2.51-0.59,3.76-0.45
		c1.6,0.18,0.75,1.31,0.43,2.03c-0.74,1.69-1.25,3.41-1.1,5.28C476.69,240.37,476.5,240.81,476.3,241.26z"/>
	<path class="st0" d="M630.78,140.48c0.12,0.78-0.42,0.72-0.9,0.69c-0.1-0.01-0.2-0.14-0.3-0.22c0.42-0.14,0.85-0.27,1.27-0.41
		C630.85,140.54,630.78,140.48,630.78,140.48z"/>
	<path class="st0" d="M630.79,145.25c-0.15,0.16-0.29,0.34-0.46,0.48c-0.04,0.03-0.18-0.06-0.27-0.09c0.26-0.11,0.53-0.22,0.79-0.33
		C630.85,145.31,630.79,145.25,630.79,145.25z"/>
	<path class="st0" d="M666.76,162.17c-0.26,0.09-0.52,0.18-0.78,0.27c0.15-0.2,0.3-0.39,0.45-0.59
		C666.54,161.96,666.65,162.06,666.76,162.17z"/>
	<polygon class="st0" points="645.57,151.38 645.45,151.16 645.72,151.17 	"/>
	<path class="st0" d="M357.26,170c-0.18,0.17-0.47,0.51-0.51,0.48c-0.53-0.35-0.21-0.62,0.13-0.88
		C357,169.73,357.13,169.86,357.26,170z"/>
	<path class="st0" d="M638.89,147.78c-0.14,0.16-0.41,0.48-0.42,0.47c-0.55-0.44-0.11-0.52,0.24-0.64
		C638.71,147.62,638.89,147.78,638.89,147.78z"/>
	<path class="st0" d="M631.93,144.79c-0.38,0.15-0.76,0.31-1.14,0.46c0,0,0.06,0.06,0.06,0.06c-0.16-0.57,0.18-0.79,0.65-0.93
		C631.65,144.51,631.79,144.65,631.93,144.79z"/>
	<path class="st0" d="M406.32,100.04c-0.06,0.1-0.11,0.2-0.19,0.28c-0.04,0.04-0.13,0.01-0.2,0.01c0.15-0.08,0.29-0.15,0.44-0.23
		C406.36,100.1,406.32,100.04,406.32,100.04z"/>
	<path class="st0" d="M415.01,96.84c-0.06,0.18-0.13,0.36-0.19,0.55c-0.55-0.51,0.04-0.39,0.26-0.48
		C415.08,96.91,415.01,96.84,415.01,96.84z"/>
	<path class="st0" d="M599.46,194.83c-0.27,0.28-0.57,0.55-0.88,0.08c-0.03-0.04,0.3-0.32,0.46-0.49
		C599.19,194.55,599.33,194.69,599.46,194.83z"/>
	<path class="st0" d="M395.95,95.25c-0.01,0.18-0.02,0.37-0.04,0.55c-0.64-0.32-0.02-0.35,0.12-0.49
		C396.03,95.31,395.95,95.25,395.95,95.25z"/>
	<path class="st0" d="M610.98,222.22c-0.11,0.17-0.21,0.34-0.32,0.51c-0.35-0.49-0.1-0.56,0.34-0.49
		C611,222.24,610.98,222.22,610.98,222.22z"/>
	<path class="st0" d="M357.96,86.61c-0.15,0.16-0.3,0.32-0.45,0.48c-0.35-0.35-0.21-0.61,0.14-0.84
		C357.75,86.37,357.86,86.49,357.96,86.61z"/>
	<polygon class="st0" points="629.28,253.2 629.12,253.28 629.33,253.23 	"/>
	<path class="st0" d="M634.82,253.97c-0.06,0.06-0.13,0.12-0.19,0.18c0.08-0.04,0.16-0.09,0.24-0.13
		C634.87,254.02,634.82,253.97,634.82,253.97z"/>
	<path class="st0" d="M759.3,263.45c-0.02,0.12-0.01,0.26-0.07,0.36c-0.03,0.05-0.17,0.05-0.26,0.07c0.13-0.12,0.26-0.25,0.39-0.37
		C759.37,263.51,759.3,263.45,759.3,263.45z"/>
	<path class="st0" d="M334.88,84.14c-0.05,0.19-0.11,0.37-0.16,0.56c-0.54-0.45,0.06-0.36,0.23-0.48
		C334.95,84.22,334.88,84.14,334.88,84.14z"/>
	<path class="st0" d="M336.1,83.82c-0.41,0.11-0.81,0.22-1.22,0.33c0,0,0.06,0.08,0.06,0.08c0.22-0.31,0.44-0.62,0.65-0.93
		C335.78,83.45,335.95,83.63,336.1,83.82z"/>
	<path class="st0" d="M480.85,157.91c-0.15,3.05-3.32,5-3.04,8.33c1.75-0.01,2.28-2.09,4.12-2.24c1.06,6.13-1.89,11.23-4.8,15.83
		c-5.31,8.39-5.12,18.2-8.23,27.11c-0.36,1.03-0.02,1.87,0.9,2.36c3.96,2.07,3.63,4.85,1.49,8.07c-0.71,1.07-1.12,2.34-1.73,3.64
		c-5.15-11.68-8.47-54.83-4.24-58.18c0.31,3.08-0.41,6.1,0.89,8.87c1.19-0.21,1.3-1.31,1.48-2.12c1.56-7.13,6.04-10.88,13.21-11.58
		L480.85,157.91z"/>
	<path class="st0" d="M523.95,198.73c-1.74,2.71-3.51,5.3-4.66,9.52c-1.16-6.11-2.03-11.13-3.09-16.11
		c-0.87-4.11-1.97-8.16-2.92-12.25c-0.15-0.64-1.02-1.53,0.19-1.97c1.11-0.4,1.76,0.35,2.02,1.32c0.47,1.77,1.1,3.52,0.95,5.41
		c-0.06,0.78-0.37,1.9,0.02,2.29c2.8,2.82,4.69,5.64,3.32,10.04C519.41,198.22,522.42,197.93,523.95,198.73z"/>
	<path class="st0" d="M499.93,152.42c-4.15-4.28-6.45-9.76-9.47-14.75c-3.37-5.58-6.2-11.47-9.56-17.79
		c2.19,0.73,2.66,2.33,3.39,3.5c5.36,8.58,10.49,17.31,14.86,26.45C499.54,150.63,499.68,151.55,499.93,152.42L499.93,152.42z"/>
	<path class="st0" d="M384.6,130.34c-0.34,4.14,0.31,8.76-5.76,9.56c0.69-2.83,1.38-5.69,2.08-8.56c0.18,0.02,0.36,0.04,0.55,0.06
		c0,1.29,0,2.58,0,4.27C383.47,134.16,383.05,131.83,384.6,130.34z"/>
	<path class="st0" d="M476.21,228.15c-0.92,1.48-1.17,3.65-2.77,3.41c-1.95-0.3-1.77-2.64-2.15-4.21c-0.28-1.17,0.81-1.25,1.54-0.95
		C473.98,226.87,475.76,226.49,476.21,228.15z"/>
	<path class="st0" d="M424.9,177.32c1.6,4.99,1.59,5.03-1.96,7.47C423.65,182.07,424.28,179.7,424.9,177.32z"/>
	<path class="st0" d="M494.5,115.5c1.08-1.06,2.43-1.41,4.08-1.94c-0.12,1.49,0.34,3.23-0.93,3.79
		C496.53,117.85,495.47,116.38,494.5,115.5z"/>
	<path class="st0" d="M419.53,195.01c0.68-2.12,1.36-4.24,2.13-6.66c3.1,3.42,0.26,5.3-1.33,7.44
		C420.06,195.53,419.79,195.27,419.53,195.01z"/>
	<path class="st0" d="M473.73,155.57c-0.11-2.08-0.08-4.12,2.03-5.32c0.23-0.13,1.01,0.21,1,0.26c-0.31,2.1-1.49,3.7-3,5.09
		L473.73,155.57z"/>
	<path class="st0" d="M503.49,208.41c0.29-0.29,0.35-1.14,0.9-0.75c0.41,0.28,0.17,0.91-0.38,1.19
		C503.84,208.7,503.67,208.56,503.49,208.41z"/>
	<path class="st0" d="M420.32,195.79c-0.34,0.35-0.39,1.39-1.13,0.81c-0.5-0.39-0.07-1.11,0.34-1.59
		C419.79,195.27,420.06,195.53,420.32,195.79z"/>
	<path class="st0" d="M339.16,81.99c0.37-0.27,1.02-0.8,1.06-0.76c0.61,0.64,0.09,1.08-0.36,1.52
		C339.63,82.5,339.4,82.25,339.16,81.99z"/>
	<path class="st0" d="M499.93,152.42c0.54,0.16,0.73,0.53,0.62,1.06c-0.02,0.09-0.18,0.14-0.28,0.21
		C500.15,153.26,500.04,152.84,499.93,152.42C499.93,152.42,499.93,152.42,499.93,152.42z"/>
	<path class="st0" d="M473.76,155.6c-0.09,0.37-0.19,0.73-0.28,1.1c-0.14-0.13-0.38-0.25-0.39-0.39c-0.03-0.42,0.12-0.75,0.64-0.74
		C473.73,155.57,473.76,155.6,473.76,155.6z"/>
	<path class="st0" d="M348.72,82.87c0.33-0.27,0.52-1.07,1.07-0.55c0.39,0.37,0.12,0.94-0.39,1.25
		C349.17,83.34,348.95,83.1,348.72,82.87z"/>
	<path class="st0" d="M480.9,157.99c0.13-0.14,0.27-0.29,0.4-0.43c0.02,0.1,0.04,0.21,0.05,0.31c-0.17,0.01-0.34,0.03-0.51,0.04
		C480.85,157.91,480.9,157.99,480.9,157.99z"/>
	<path class="st0" d="M418.13,198.34c0.12-0.3,0.11-0.74,0.65-0.56c-0.1,0.3-0.21,0.6-0.31,0.9
		C418.35,198.57,418.24,198.45,418.13,198.34z"/>
	<path class="st0" d="M414.94,94.39c0.19-0.16,0.47-0.49,0.55-0.44c0.53,0.29,0.23,0.62-0.01,0.94
		C415.28,94.73,415.1,94.57,414.94,94.39z"/>
	<path class="st0" d="M401.39,92.75c0.23-0.12,0.47-0.24,0.7-0.36c-0.08,0.28-0.16,0.55-0.24,0.83
		C401.7,93.06,401.55,92.9,401.39,92.75z"/>
	<path class="st0" d="M407.8,92.01c0.22-0.13,0.45-0.27,0.67-0.4c-0.09,0.27-0.19,0.54-0.28,0.81
		C408.06,92.28,407.93,92.15,407.8,92.01z"/>
	<path class="st0" d="M398,89.26c0.31-0.05,0.62-0.09,0.94-0.14c-0.1,0.29-0.2,0.58-0.3,0.87C398.43,89.74,398.21,89.5,398,89.26z"
		/>
	<path class="st0" d="M372.89,84.86c0.17-0.17,0.46-0.52,0.5-0.49c0.43,0.3,0.29,0.64,0.02,0.98
		C373.22,85.2,373.05,85.04,372.89,84.86z"/>
	<path class="st0" d="M368.25,85c0.15-0.14,0.3-0.28,0.45-0.42c0.13,0.54-0.12,0.53-0.5,0.35C368.2,84.93,368.25,85,368.25,85z"/>
	<path class="st0" d="M363.12,84.44c0.33-0.02,0.66-0.05,0.98-0.07c-0.12,0.29-0.24,0.58-0.36,0.87
		C363.53,84.97,363.32,84.71,363.12,84.44z"/>
	<path class="st0" d="M352,84.53c0.31-0.21,0.65-0.56,0.91,0c0.06,0.12-0.23,0.4-0.36,0.61C352.37,84.94,352.18,84.74,352,84.53z"/>
	<path class="st0" d="M345.12,79.3c0.21-0.16,0.42-0.31,0.63-0.47c-0.08,0.29-0.15,0.58-0.22,0.88
		C345.39,79.58,345.25,79.44,345.12,79.3z"/>
	<path class="st0" d="M684.2,285.62c-0.4-9.48,12.51-45.72,16.85-47.39c-0.32,2.35-2.34,4.18-0.82,7.68
		c1.97-2.38,3.66-5.1,5.98-7.07c2.62-2.22,6.03-0.08,9.9-1.11c-2.01,2.59-4.67,3.34-5.57,5.67c1.12,0.97,2.22-0.67,3.42,0.03
		c-1.31,5.3-5.56,8.32-9.35,11.38c-4.94,3.99-8.41,9.03-11.96,14.1c-1.21,1.72-2.48,3.4-3.79,5.05c-0.59,0.74-1.48,1.61-0.76,2.4
		c3.4,3.72,0.29,5.52-2.06,7.59C685.48,284.45,684.93,284.97,684.2,285.62z"/>
	<path class="st0" d="M728.26,287.79c2.01-8.35,4.09-15.93,5.08-23.72c0.08-0.66,0.31-1.36,1.19-1.23c0.82,0.12,1.04,0.83,0.9,1.49
		c-0.27,1.28-0.45,2.66-1.08,3.77c-1.17,2.03-1.53,3.92,0.05,5.82c1.03,1.25,0.39,2.3-0.44,3.14c-2.75,2.83-1.5,4.2,2.45,4.98
		C733.05,283.35,731.16,285.59,728.26,287.79z"/>
	<path class="st0" d="M730.09,212.09c2.08,10.83,3.43,21.71,2.78,32.58C731.49,233.96,729.88,223.1,730.09,212.09z"/>
	<path class="st0" d="M652.7,252.76c1.23-1.98,2.78-3.65,5.01-5.6c0.58,4.3-2.63,4.7-4.63,6.07
		C652.95,253.07,652.83,252.91,652.7,252.76z"/>
	<path class="st0" d="M659.71,244.64c1.81-2.38,3.04-4.01,4.28-5.63C664.06,241.63,663.61,243.86,659.71,244.64z"/>
	<path class="st0" d="M644.29,192.86c0.07,2.07,0.92,4.75-3.13,3.7c0.81-1.51,1.44-3.03,3.18-3.66L644.29,192.86z"/>
	<path class="st0" d="M653.08,253.23c-0.46,0.37-0.92,0.74-1.38,1.12c-0.54-1.08,0.56-1.12,1-1.58
		C652.83,252.91,652.95,253.07,653.08,253.23z"/>
	<path class="st0" d="M713.98,285.54c0.31-0.52,0.93-0.76,1.24-0.36c0.43,0.55-0.41,0.66-0.68,0.98
		C714.36,285.96,714.17,285.75,713.98,285.54z"/>
	<path class="st0" d="M628.95,193.43c0.24-0.3,0.22-1.09,0.76-0.78c0.38,0.22,0.16,0.86-0.28,1.19
		C629.27,193.7,629.11,193.56,628.95,193.43z"/>
	<path class="st0" d="M644.34,192.9c0.05-0.35,0.1-0.7,0.15-1.05c0.14,0.08,0.29,0.16,0.43,0.24c-0.21,0.25-0.42,0.51-0.63,0.76
		C644.29,192.86,644.34,192.9,644.34,192.9z"/>
	<path class="st0" d="M634.62,139.54c0.3-0.47,0.84-0.81,1.19-0.41c0.44,0.5-0.31,0.73-0.59,1.05
		C635.02,139.97,634.82,139.75,634.62,139.54z"/>
	<path class="st0" d="M675.29,165.15c-0.14-0.75,0.38-0.72,0.86-0.71c0.1,0,0.2,0.13,0.3,0.2c-0.41,0.15-0.82,0.29-1.23,0.44
		C675.22,165.08,675.29,165.15,675.29,165.15z"/>
	<path class="st0" d="M740.24,139.68c-0.01,0.18-0.02,0.36-0.02,0.54c-0.14-0.05-0.29-0.11-0.43-0.16c0.18-0.11,0.35-0.21,0.53-0.32
		C740.32,139.74,740.24,139.68,740.24,139.68z"/>
	<path class="st0" d="M607.57,191.84c0.28-0.11,0.56-0.23,0.84-0.34c-0.07,0.31-0.15,0.63-0.22,0.94
		C607.99,192.24,607.78,192.04,607.57,191.84z"/>
	<path class="st0" d="M630.84,139.74c0.02-0.18,0.03-0.37,0.05-0.55c0.15,0.06,0.31,0.12,0.46,0.18c-0.18,0.11-0.36,0.23-0.54,0.34
		C630.82,139.72,630.84,139.74,630.84,139.74z"/>
	<polygon class="st0" points="623.26,194.38 623.15,194.07 623.4,194.09 	"/>
	<path class="st0" d="M636.98,194.27c0.24-0.12,0.47-0.24,0.71-0.36c-0.07,0.28-0.15,0.56-0.22,0.84
		C637.3,194.6,637.14,194.43,636.98,194.27z"/>
	<path class="st0" d="M616.33,224.39c0.29-0.1,0.58-0.2,0.87-0.3c-0.06,0.3-0.11,0.6-0.17,0.91
		C616.8,224.79,616.56,224.59,616.33,224.39z"/>
	<path class="st0" d="M718.14,291.29c0.01-0.18,0.02-0.36,0.03-0.54c0.11,0.02,0.21,0.04,0.32,0.06c-0.14,0.14-0.28,0.29-0.42,0.43
		C718.07,291.24,718.14,291.29,718.14,291.29z"/>
</g>
<g>
	<path class="st1" d="M183.2,228.55c-0.41,0.28-0.17,0.91,0.38,1.19c0.65,2.18,2.76,4.34-0.88,6.18c-2.26,1.14-3.31-0.17-5.57-2.36
		c2.29,5.31-2.1,4.4-3.41,6.16c-1.46,1.96-3.68,1.34-5.44,0.84c-2.1-0.59-0.55-2.42-0.64-3.7c-0.06-0.83,0.56-1.78-0.52-2.57
		c-2.25,0.77-4.25,1.73-5.47,4.08c-1.07,2.06-2.39,2.01-4.38,0.48c-2.77-2.14-3.99-4.9-4.32-8c-2.17,0.2-2.12,2.32-3.71,2.92
		c-2.19-3.8-4.49-8.17-4.75-11.88c-0.79-11.37,1.35-22.63,5.8-33.24c1.42-3.39,0.71-4.89-2.86-5.34c-0.82,2.59,0.69,5.54-1.4,8.18
		c-6.2-15.49-3.68-30.05,4.48-45.14c-3.65,1.61-6.23,3.83-8.33,3.45c-5.28-0.96-8.24,0.82-9.99,5.54c-0.04,0.12-0.4,0.12-0.6,0.17
		c-1.05-1.72-0.69-4.04-2.46-5.7c-2.43,4.79-4.55,9.53-7.83,14.2c-0.54-3.55-0.97-6.42-1.54-10.17c-2.36,4.87-3.74,9.15-6.38,12.89
		c-0.97-1.33,0.43-2.43-0.49-4.1c-2.56,5.44-4.6,10.69-7.4,15.5c-3.09,5.3-9.21,5.63-14.64,8.2c0.22-1.25,0.27-1.76,0.4-2.24
		c4.28-15.59,13.91-27.66,25.29-38.61c5.59-5.38,11.88-9.57,19.06-12.56c13.7-5.71,27.78-9.98,42.49-12.23
		c2.49-0.38,5.28,0.22,8.18-1.78c-5.02-0.15-2.55-3.92-3.64-5.85c-5.26-0.07-11.08,4.41-15.44-2.14c-0.2-0.3-1.01-0.36-1.5-0.3
		c-4.72,0.58-5.62-1.97-4.94-5.9c0.08-0.48-0.1-1.01-0.16-1.5c-2.12-0.33-3.22,1.82-5.62,1.86c1.42-5.33,4.56-9.03,9.07-11.5
		c2.15-1.17,1.94-2.05,0.55-3.5c-0.64-0.67-1.97-0.87-1.33-2.43c1.19-2.88,9.52-7.31,12.52-6.34c3.38,1.1,6.87,2.08,9.96,3.76
		c2.73,1.49,4.52,1.3,6.97-0.58c3.33-2.54,4.58-1.88,6.32,1.9c0.99,2.15,2.26,4.18,3.4,6.26c0.48,0.87,1.06,1.66,2.15,0.95
		c4.31-2.8,5.77-0.17,6.78,3.46c0.23,0.81,0.28,1.84,1.5,2.08c2.39-6.33,3.34-13.03,5.03-19.53c0.63-2.42,1.66-4.74,2.22-7.17
		c0.3-1.29,2.15,0.01,2-1.56c-0.42-4.3,1.67-7.09,5.99-7.57c-2.97-2.59-1.71-4.97,0-7.41c4.11-5.89,9.71-10.43,14.32-15.86
		c0.26,0,0.53,0,0.79,0c0.73,2.37,2.4,2.84,4.63,2.41c1.29-0.25,2.64-0.46,3.93-0.36c1.79,0.15,2.62,1.68,3.34,3.07
		c0.5,0.97-0.51,1.47-1.2,1.67c-3.92,1.11-4.06,3.58-2.46,6.66c1.26,2.42,0.64,3.98-1.97,4.78c-2.73,0.84-2.98,2.55-2.29,5.16
		c1.61,6.02,1.47,6.05-4.57,7.37c-0.21,0.05-0.37,0.28-0.6,0.46c1.43,0.61,3.6,0.89,3.89,1.78c0.76,2.35,1.46,1.15,2.51,0.47
		c6.68-4.37,14-7.42,21.62-9.61c4.77-1.37,9.63-3.06,15.09-2.23c-1.58,1.9-3.88,2.48-4.63,4.6c3.53,2.56,7.22,2.39,11.21,1.45
		c5.25-1.24,10.6-2.09,15.93-2.96c0.98-0.16,2.44-0.86,3.09,0.67c1.05,2.48-2.05,8.2-4.69,9.01c-0.64,0.2-2.38,0.54-1.69,1.06
		c2.17,1.65,0.12,1.49-0.56,1.53c-2.77,0.16-5.54,0.16-8.32,0.24c-0.34,0.01-0.83-0.06-0.8,0.64c0.82,0.46,1.67,0.95,3.36,1.91
		c-2.65,0-4.38,0-6.33,0c1.19,2.25,3.75,2.5,4.82,4.76c-1.84,0.62-3.61,1.22-5.52,1.86c0.86,1.66,3.09,1.06,3.96,3.1
		c-6.48-1.27-12.73,1.14-19.15-1.04c0.16,0.98,0.24,1.49,0.33,1.99c0.92,4.94,0.99,5.15,5.87,3.6c21.66-6.87,43.09-6.44,64.43,1.43
		c4,1.48,7.09,3.47,8.1,7.6c-0.46,1.83-2.71-2.25-2.55,1.08c-0.18,0.16-0.35,0.34-0.5,0.53c-1.02-0.61-2.04-1.22-3.06-1.82
		c-0.37-0.27-1.02-0.8-1.06-0.76c-0.61,0.64-0.09,1.08,0.36,1.52c-0.13,0.42,0.37,1.72-0.74,0.86c-1.64-1.26-3.02-2.86-4.51-4.32
		c-0.21-0.16-0.42-0.31-0.63-0.47c0.08,0.29,0.15,0.58,0.22,0.88c0.44,2.7,1.86,5,3.27,7.65c-3.24-0.35-4.17-3.42-6.47-4.5
		c-0.33-0.27-0.52-1.07-1.07-0.55c-0.39,0.37-0.12,0.94,0.39,1.25c0.17,0.67,0.61,1.86,0.47,1.93c-1.26,0.65-1.97-0.81-3.07-0.97
		c-0.31-0.21-0.65-0.56-0.91,0c-0.06,0.12,0.23,0.4,0.36,0.61c-0.13,1.06,0.7,2.18-0.29,3.34c-1.7-1.57-2.54-3.91-4.67-5.03
		c-0.79,1.05-0.05,1.93-0.14,2.79c-0.1,0.12-0.21,0.24-0.31,0.36c-1.72-0.72-3.44-1.44-5.15-2.16c-0.33-0.02-0.66-0.05-0.98-0.07
		c0.12,0.29,0.24,0.58,0.36,0.87c0.51,0.9,1.01,1.8,1.64,2.91c-2.92-0.06-4.07-2.45-6.14-3.15c-0.15-0.14-0.3-0.28-0.45-0.42
		c-0.13,0.54,0.12,0.53,0.5,0.35c-0.82,1.09,1.4,1.91,0.29,3.07c-1.69-1.06-3.33-2.1-4.98-3.13c-0.17-0.17-0.46-0.52-0.5-0.49
		c-0.43,0.3-0.29,0.64-0.02,0.98c0.24,1.43,1.73,2.63,0.99,4.38c-3.22-0.98-5.98-2.92-9.58-2.87c0.62,2.42,1.16,4.52,1.85,7.22
		c-3.76-2.53-6.99-4.66-11.03-4.93c0.05,1.75,2,2.73,1.16,4.66c-2.77-1.55-5.01-3.72-8-4.56c-0.31-0.05-0.62-0.09-0.94-0.14
		c0.1,0.29,0.2,0.58,0.3,0.87c0.87,1.78,1.74,3.55,2.6,5.32l0.08-0.06c-2.38,0.39-3.38-2.21-5.44-2.51
		c-0.23-0.12-0.47-0.24-0.7-0.36c0.08,0.28,0.16,0.55,0.24,0.83c0.33,1.57-0.6,1.45-1.52,1.03c-1.5-0.68-2.95-1.48-4.43-2.23
		c-0.22-0.13-0.45-0.27-0.67-0.4c0.09,0.27,0.19,0.54,0.28,0.81c0.28,2.64,2.36,4.85,1.83,7.68l0.05-0.06
		c-2.96-1.75-5.2-4.61-8.62-5.65c-0.19-0.16-0.47-0.49-0.55-0.44c-0.53,0.29-0.23,0.62,0.01,0.94c0.13,0.68,0.26,1.35,0.4,2.03
		l0.07-0.06c-2.77,0.12-4.91-2.41-7.41-2.1c-1.18,1.49,1.21,1.95,0.48,2.97c-2.08,2.88,0.53,3.57,2.07,4.77
		c1.28,0.99,2.76,1.42,4.35,1.74c15.83,3.22,31.11,8.08,45.85,14.76c13.35,6.05,24.92,14.29,34.37,25.5
		c3.39,4.02,3.64,5.61,1.16,8.52c-0.26,0.31,0.11,1.04-0.88,1.15c-1.86-3.04-3.77-6.15-6.07-9.88c-0.15,1.85-0.25,2.95-0.34,4.06
		c-2.1-0.11-2.58-2.37-4.4-2.84c-0.42,1.66-0.83,3.27-1.3,5.12c-1.68-2.2-1.91-5.09-4.28-6.84c-0.49,1.69-0.91,3.17-1.5,5.23
		c-0.64-2.19-1.1-3.74-1.55-5.29c-1.51,0.57-0.62,2.04-1.51,2.65c-1.43-0.52-0.83-2.85-2.83-3c-0.11,1.91-0.21,3.75-0.34,5.97
		c-2.36-3.42-4.59-6.33-5.34-10.49c-1.12,2.21-0.89,4.36-2.4,5.6c-1.09-1.2,0.26-3.07-1.73-3.96c-0.22,1.09-0.41,2.04-0.66,3.26
		c-2.47-1.54-2.68-4.66-5.11-6.09c-0.21,1.64-0.38,2.98-0.55,4.32c-1.57-0.34-0.78-2.06-1.96-2.48c-1.07,2.61-0.04,4.18,2.28,5.4
		c2.94,1.54,5.52,3.62,7.8,6.04c0.61,0.65,1.87,1.32,1.46,2.17c-1.82,3.7,1.24,5.57,2.78,7.98c1.84,2.87,4.55,5.17,5.68,8.52
		c-0.13,0.13-0.26,0.26-0.38,0.4c-1.7-0.71-2.72-0.65-2.15,1.67c0.52,2.16,1.66,4.25,1.3,6.93c-1.64-0.96-2.8-2.05-4.19-2.14
		c-1.03,1.37,0.63,2.63-0.23,3.73c-2.06-0.05-2.23-2.45-4.01-2.62c-0.56,2.32,0.26,4.43,0.98,6.51c0.53,1.54,0.72,2.8-0.83,3.79
		c-1.55,0.99-2.4,0.05-3.24-1.09c-0.3-0.4-1.09-0.99-1.1-0.98c-2.84,3.08-4.76-0.91-7.02-0.85c-3.69,0.1-4.03-2.11-4.41-4.88
		c-0.14,3.82-5.89,4.83-4.25,9.34c0.19,0.52-0.26,1.05-0.9,0.62c-2.37-1.6-1.6,0.55-1.55,1.39c0.16,2.78,0.48,5.55,0.75,8.49
		c-2.1-0.43-2.75-2.34-4.89-2.51c0,2.56,0,5.05,0,8.43c-2.41-3.05-3.18-6.14-5.83-8.07c-0.69,2.12,0.37,4.21-1.37,6.39
		c-1.12-3.9-2.11-7.34-3.27-11.37c-1.75,3.68-2.48,7.05-5.25,9.84c-1.1-3.87-1.12-7.6-2.68-11.2c-2.44,2.35-4.11,5.12-6.72,6.93
		c-0.12-0.3-0.11-0.74-0.65-0.56c0.1,0.3,0.21,0.6,0.31,0.9c0.28,1.12,0.91,2.31-0.58,3.1c-3.02,1.59-2.2,2.63,0.3,4
		c1.94,1.06,5.15,2.51,0.63,4.74c-1.07,0.52-0.79,1.5-0.34,2.41c0.92,1.89,1.76,3.83,2.72,5.7c0.49,0.96,1.34,2.12,0.46,2.9
		c-3.02,2.64-1.7,5.77-1.31,8.82c0.13,1.03,0.61,2.45-0.82,2.61c-3.08,0.34-2.48,2.47-2.41,4.35c0.05,1.43-0.25,3.41-1.82,2.07
		c-3.77-3.21-12.5,0.48-12-8.56c0.01-0.27-0.52-0.84-0.73-0.81c-3.81,0.52-5.02-3.53-7.79-4.45c-3.34-1.11-4.76-3.4-5.9-6.3
		c-2.32-5.94-4.71-11.85-7.08-17.78c-1.25,0.51-1.04,1.42-1.16,2.15c-1.44,9.15-3.82,18.07-6.85,26.8
		c-13.95,40.26-26.99,80.8-38.08,121.94c-8.12,30.1-14.31,60.43-8.69,91.84c0.21,1.17,0.13,2.01-0.88,2.75
		c-5.72,4.22-11.61,8.14-18.17,10.93c-0.78-1.23-0.41-2.31-0.22-3.29c2.87-14.67,3.73-29.59,5.3-44.41
		c3.23-30.57,10.08-60.3,19.58-89.47c8.7-26.7,18.69-52.96,28.03-79.44c0.73-1.8,1.51-3.58,2.16-5.41c0.33-0.91,1.3-2.2,0.33-2.8
		c-0.99-0.6-2.51-0.59-3.76-0.45c-1.6,0.18-0.75,1.31-0.43,2.03c0.74,1.69,1.25,3.41,1.1,5.28c-3.92-3.23-6.88-7.3-9.25-11.69
		c-1.98-3.67-6.22-5.5-7.21-10.01c-0.79-3.58-2.51-6.95-4.18-11.39c-1.87,4.21-3.84,3.95-5.96,1.58
		C183.81,229.01,183.76,228.17,183.2,228.55z M214.12,177.59c0.14-0.13,0.38-0.25,0.39-0.39c0.03-0.42-0.12-0.75-0.64-0.74
		c0.11-2.08,0.08-4.12-2.03-5.32c-0.23-0.13-1.01,0.21-1,0.26c0.31,2.1,1.49,3.7,3,5.09C213.94,176.86,214.03,177.23,214.12,177.59z
		 M268.41,217.49c0.5-0.39,0.07-1.11-0.34-1.59c-0.68-2.12-1.36-4.24-2.13-6.66c-3.1,3.42-0.26,5.3,1.33,7.44
		C267.62,217.03,267.67,218.07,268.41,217.49z M197.14,158.56c3.37-5.58,6.2-11.47,9.56-17.79c-2.19,0.73-2.66,2.33-3.39,3.5
		c-5.36,8.58-10.49,17.31-14.86,26.45c-0.38,0.8-0.52,1.73-0.78,2.59c-0.54,0.16-0.73,0.53-0.62,1.06c0.02,0.09,0.18,0.14,0.28,0.21
		c0.11-0.42,0.23-0.84,0.34-1.26C191.82,169.04,194.13,163.55,197.14,158.56z M206.3,178.45c-0.02,0.1-0.04,0.21-0.05,0.31
		c0.17,0.01,0.34,0.03,0.51,0.04c0.15,3.05,3.32,5,3.04,8.32c-1.75-0.01-2.28-2.09-4.12-2.24c-1.06,6.13,1.89,11.23,4.8,15.83
		c5.31,8.39,5.12,18.2,8.23,27.11c0.36,1.03,0.02,1.87-0.9,2.36c-3.96,2.07-3.63,4.85-1.49,8.07c0.71,1.07,1.12,2.34,1.73,3.64
		c5.15-11.68,8.47-54.83,4.24-58.18c-0.31,3.08,0.41,6.1-0.89,8.87c-1.19-0.21-1.3-1.31-1.48-2.12
		c-1.56-7.13-6.04-10.88-13.21-11.58C206.56,178.74,206.43,178.6,206.3,178.45z M168.3,229.15c1.16-6.11,2.03-11.13,3.09-16.11
		c0.87-4.11,1.97-8.16,2.92-12.25c0.15-0.64,1.02-1.53-0.19-1.97c-1.11-0.4-1.76,0.35-2.02,1.32c-0.47,1.77-1.1,3.52-0.95,5.41
		c0.06,0.78,0.37,1.9-0.02,2.29c-2.8,2.82-4.69,5.64-3.32,10.04c0.38,1.24-2.62,0.94-4.16,1.74
		C165.38,222.34,167.16,224.93,168.3,229.15z M308.76,160.79c-0.69-2.83-1.38-5.69-2.08-8.56c-0.18,0.02-0.36,0.04-0.55,0.06
		c0,1.29,0,2.58,0,4.27c-2.01-1.51-1.58-3.84-3.14-5.33C303.34,155.38,302.7,159.99,308.76,160.79z M214.16,252.45
		c1.95-0.3,1.77-2.64,2.15-4.21c0.28-1.17-0.81-1.25-1.54-0.95c-1.16,0.48-2.94,0.09-3.38,1.75
		C212.32,250.52,212.56,252.69,214.16,252.45z M264.66,205.68c-0.71-2.71-1.34-5.09-1.96-7.47
		C261.1,203.2,261.11,203.24,264.66,205.68z M189.02,134.45c0.12,1.49-0.34,3.23,0.93,3.79c1.11,0.49,2.18-0.97,3.15-1.85
		C192.03,135.34,190.68,134.99,189.02,134.45z"/>
	<path class="st1" d="M881.8,148.53c-0.1,0-0.2,0.13-0.3,0.2c0.41,0.15,0.82,0.29,1.23,0.44c-1.14,2.98-3.89-0.59-5.45,1.51
		c1.15,1.46,2.36,3,4.09,5.21c-2.92-0.83-4.91-1.46-6.94-1.94c-0.63-0.15-2.23-0.32-1.83,0.42c1.52,2.86-0.63,1.39-1.44,1.38
		c-1.56-0.02-3.12-0.12-4.83-0.2c2.84,5.7,4.28,6.8,8.9,6.2c12.5-1.61,25-1.69,37.55-0.65c14.41,1.19,28.04,4.76,40.64,11.99
		c2.32,1.33,4.47,2.79,5.48,5.43c-0.15,0.13-0.29,0.26-0.42,0.41c-1.33,0.74-2.52,1.54-4.01-0.02c-1.15-1.2-2.72-2-4.1-2.98
		c-0.28-0.11-0.56-0.23-0.84-0.34c0.07,0.31,0.15,0.63,0.22,0.94c-1.07,3.44-3.01-1.19-3.86-0.07c-0.94,1.77,0.87,2.87-0.19,4.2
		c-1.73-1.01-2.7-3-4.72-3.47c-0.96,0.72,0.28,2.04-1.15,2.95c-1.21-5.11-3.07-0.29-4.76-0.44c0.57,4.03-1.85,1.37-2.58,0.94
		c-1.32-0.78-2.35-2.05-3.51-3.12c-0.24-0.3-0.22-1.09-0.76-0.78c-0.38,0.22-0.16,0.86,0.28,1.19c0,1.06,0,2.12,0,3.6
		c-1.06-1.36-1.8-2.32-2.55-3.27c-1.06,1.17,0.81,2.04-0.11,3.16c-1.63-1.02-3.26-2.04-4.88-3.05c-0.24-0.12-0.47-0.24-0.71-0.36
		c0.07,0.28,0.15,0.56,0.22,0.84c0.07,0.52,0.39,1.35,0.18,1.52c-3.03,2.47-0.6,2.73,1.26,3.23c1.27,0.34,2.58,0.58,3.82,1.01
		c2.34,0.83,5.98,1.09,6.51,3.17c1,3.96,4.25,4.74,6.74,6.63c1.89,1.44,3.96,2.63,5.87,4.04c0.88,0.65,0.86,1.17,0.4,1.25
		c-2.92,0.47-0.83,1.68-0.42,2.56c0.64,1.39,2.33,2.23,2.11,4.07l0.02-0.02c-1.02,0.51-3.32-1.12-3.06,0.7
		c0.46,3.18-1.4,1.26-2.29,1.47c-0.29-0.1-0.58-0.2-0.87-0.3c0.06,0.3,0.11,0.6,0.17,0.91c0.6,1.8,1.95,3.09,3.11,4.51
		c0.78,0.95,0.78,1.9,0.07,2.87c-0.76,1.04-1.55,0.61-2.37,0.07c-0.76-0.5-1.31-0.9-2.4-0.17c-2.53,1.7-8.24,0.67-10.66-2.12
		c0.65,3.42-2.8,6.27,0.51,8.93c-0.71,1.18-1.77-0.82-2.28,0.59c1.38,2.54,2.73,5.03,4.07,7.51c-1.47,0.98-2.64-1.1-3.89,0.09
		c0.23,2.05,2.06,3.71,1.52,5.96l0.05-0.03c-2.03-1.21-3.44-3.45-6.18-3.88c0.03,1.73,1.3,3.11,0.59,4.7l0.05-0.05
		c-1.98-2.35-3.96-4.7-6.24-7.41c-0.58,3.06,0.5,5.76-1.29,8.34c-1.95-2.79-3.71-5.31-5.47-7.83c-0.31,0.05-0.63,0.09-0.94,0.14
		c0.52,3.26-1.17,6.14-1.96,8.96c-1.32,4.77,1.53,3.83,3.51,4.72c0.67,0.3,2.15,0.57,1.7,1.2c-3.48,4.82,1.72,5.63,3.61,7.78
		c1.09,1.24,1.81,2.17,1.11,3.76c-0.33,0.75-0.37,1.48,0.01,2.28c1.18,2.46,4.76,4.57,1.26,7.81c-0.09,0.09,0.05,0.53,0.18,0.74
		c3.14,5.09-0.71,3.64-3.24,3.51c-0.92-0.05-1.99-0.21-2.73,0.18c-2.91,1.52-4.41-0.1-5.62-2.34c-0.7-1.29-1.6-1.49-3.06-1.76
		c-4.42-0.83-9.1-0.96-12.74-4.44c-4.47-4.27-9.24-8.22-12.92-11.47c0.47,2.05,1.39,5.61,2.08,9.22
		c2.81,14.69,3.07,29.67,4.94,44.46c3.42,27.09,6.17,54.28,10.9,81.2c4.52,25.74,10.5,50.95,25.19,73.17
		c0.56,0.85,1.39,1.64,0.63,2.85c-3.12,4.98-6.35,9.85-11.23,14.15c-2.89-12.36-6.93-23.78-10.7-35.29
		c-2.17-6.64-4.29-13.31-6.23-20.02c-10.28-35.61-13.26-72.29-15.97-109.02c-0.61-8.28-1.42-16.55-2.13-24.83c0-4.39,0-8.78,0-13.59
		c-5.53,2.26-5.53,2.26-1.27,5.88c-0.87,1-2.6,0.3-3.27,1.67c0.87,1.78,3.39,2.65,3.06,5.18c-9.45-5.91-19.48-11.05-26.53-20.13
		c-0.1-0.13-0.44-0.06-0.71-0.09c-0.98,0.88-0.58,3.48-3.06,2.6c-0.31-0.52-0.93-0.76-1.24-0.36c-0.43,0.55,0.41,0.66,0.68,0.98
		c0.76,0.99,1.69,1.78,0.93,3.35c-1.03,2.14-2.86,1.6-4.52,1.78c-0.01-0.18-0.02-0.36-0.03-0.54c-0.11,0.02-0.21,0.04-0.32,0.06
		c0.14,0.14,0.28,0.29,0.42,0.43c0.78,3.21-1.7,4.74-3.64,6.2c-1.58,1.19-3.46,1.07-4.03-1.63c-0.18-0.86-0.13-2.58-1.54-2.22
		c-0.96,0.25-2.25,1.54-2.32,2.46c-0.49,5.9-3.64,3.25-6.44,2.24c-1.71-0.62-2.07-2.28-3.12-3.4c-0.22-0.23-0.62-0.29-0.8-0.37
		c-1.31,0.59-0.7,2.2-1.8,3.14c-3.48-4.75-8.51-7.78-10.26-13.49c-2.39-7.81-4.85-15.6-4.89-23.87c-0.01-3.03-1.42-3.52-3.98-2.91
		c0.17,2.24,2.19,3.85,1.52,6.13l0.07-0.07c-6.79-5.83-10.21-13.46-11.89-22.06c-0.9-4.61-0.83-9.29-0.88-15.22
		c-2.74,4.16-5.75,6.01-9.43,6.83c-1.2,0.27-1.63,1.15-1.42,2.41c0.2,1.24,0.21,2.5-0.72,3.69c-1.24-1.39-2.07-3.09-4.08-4.05
		c-0.47,4.5,0.32,8.74-1.13,12.99c-1.92-1.8-2.24-4.6-4.72-6.13c-0.34,3.92,0.57,7.48-0.59,10.91c-1.23-0.43-0.34-1.95-1.78-2.23
		c-0.03,8.88,2.09,18.67-9.2,23.01c-1.18-6.73-1.68-13.47-0.08-20.1c2.76-11.46,6.03-22.79,14.51-31.61
		c5.04-5.24,10.69-9.82,16.62-14.06c6.52-4.66,13.54-8.46,21.59-12.55c-4.35,0.45-4.58-2.37-5.86-4.89
		c-4.67,7.24-11.69,2.78-17.6,3.99c-1.07,0.22-1.27-1.1-1.71-1.89c-0.62-1.1-0.52-2.62-2.35-3.59c-0.37,0.54-0.79,1.22-1.29,1.82
		c-0.45,0.55-0.6,1.56-1.69,1.3c-0.43-4.45-0.12-7.06,1.85-9.87c1.57-2.24,3.21-4.13-0.95-5.16c-0.64-0.16-0.6-0.64-0.59-1.22
		c0.04-2.71,4.94-8.24,7.66-8.27c3.29-0.03,6.63-0.02,9.87,0.48c2.18,0.34,3.31-0.05,4.45-1.99c1.64-2.8,3.77-3.47,6.15-0.44
		c0.96,1.22,2.42,2.04,3.56,3.13c1.53,1.46,2.87,2.06,4.55,0.09c1.13-1.32,2.42-1.16,3.66,0.27c0.89,1.03,1.57,2.46,3.23,2.69
		c-0.01-0.08-3.58-25.65-3.58-25.65c0.39-2.39-0.6-5.41,2.88-6.41c0.01,0.18,0.02,0.36,0.02,0.54c0.14-0.05,0.29-0.11,0.43-0.16
		c-0.18-0.11-0.35-0.21-0.53-0.32c-2.62-2.3-2.85-5.12-1.73-8.2c1.58-4.34,3.17-8.67,4.76-13c0.21-0.58,0.45-1.73,1.06-1.35
		c2.88,1.79,4.97-0.46,7.37-1.17c1.6-0.48,2.91,0.45,3.91,1.43c1.21,1.17-0.33,1.85-0.96,2.47c-1.96,1.93-0.5,3.16,0.6,4.72
		c0.79,1.13,3.44,2.31,1.76,3.71c-3.91,3.27-1.56,5.64,0.52,8.19c1.44,1.76,1.29,3.03-0.81,4.01c-0.8,0.37-1.59,0.78-2.67,1.32
		c6.03,0.57,5.96,0.5,9.47-3.43c5.05-5.67,10.92-10.35,17.61-13.96c1.21-0.65,2.44-1.57,4.06-1.24c-0.09,1.88-2.21,3.03-1.61,5.29
		c9.49,0.66,15.1-8.1,23.76-9.7c0.34,1.41,0.76,2.91,1.05,4.44c0.32,1.67,0.87,3.63-1.39,4.34c-1.82,0.57-0.65,2.36-0.93,2.53
		c-1.44,0.87-3.14,1.32-4.74,1.92c-0.25,0.09-0.48,0.21-0.73,0.32c-0.74,0.32-2.26,0.39-0.4,1.47c0.87,0.5,0.73,0.93-0.26,1.12
		c-1.02,0.2-2.11,0.28-2.79,1.26c1.73,1,4.04,0.64,5.51,2.18c-0.87,1.59-3.03,1.58-3.26,3.37c1.11,0.74,2.52-0.19,3.81,1.06
		c-5.32,0.91-9.7,4.02-14.95,4.3c2.34,5.57,2.48,5.76,7.17,2.32c14.83-10.89,31.41-15.72,49.75-15.32c4.76,0.1,8.41,1.49,11.31,5
		c-2.07,2.54-4.57-0.12-6.8,0.62c-0.02-0.18-0.03-0.37-0.05-0.55c-0.15,0.06-0.31,0.12-0.46,0.18c0.18,0.11,0.36,0.23,0.54,0.34
		c-0.01,0.27-0.02,0.55-0.03,0.82l0.06-0.07c-1.52,0.65-2.49-0.92-3.84-0.93c-0.3-0.47-0.84-0.81-1.19-0.41
		c-0.44,0.5,0.31,0.73,0.59,1.05c1.24,1.4,2.48,2.8,3.72,4.2c-0.14,0.14-0.28,0.27-0.43,0.41c-0.98-0.36-1.94-0.79-2.94-1.08
		c-0.87-0.25-2.49-1.36-2.51-0.34c-0.04,1.68-3.18,2.23-1.33,4.24l-0.18,0.17c-1.67,0.37-4.02-2.59-4.18-1.06
		c-0.32,3.08-1.72,1.33-2.7,1.24c-1.16-0.1-2.29-0.48-3.47-0.07c0.35,1.34,2.47,1.08,2.42,3.12c-3.13-1.89-5.98,1.72-9.22-0.33
		c0.49,1.83,2.46,2.16,2.45,3.99c-2.7,0.18-5.41-0.81-8.41,0.27c1.17,1.64,2.12,2.98,3.26,4.57c-3.49,0.06-6.63-1.49-9.94-0.42
		c0.81,1.01,1.52,1.89,2.23,2.77c-0.11,0.11-0.22,0.22-0.33,0.32c-2.49-0.06-4.81-1.77-7.49-0.86c0.28,1.27,1.39,1.59,2.09,2.29
		c0.64,0.64,1.79,0.86,1.85,2.1c-1.75,0.07-3.25-1.31-4.98-0.56C882.81,148.49,882.28,148.52,881.8,148.53z M913.46,175.95
		c-0.14,0.08-0.29,0.16-0.43,0.24c0.21,0.25,0.42,0.51,0.63,0.76c-0.07,2.07-0.92,4.75,3.13,3.7c-0.81-1.51-1.44-3.03-3.18-3.66
		C913.56,176.65,913.51,176.3,913.46,175.95z M906.25,238.43c0.54-1.08-0.56-1.12-1-1.58c-1.22-1.99-2.78-3.65-5-5.61
		c-0.58,4.3,2.63,4.7,4.63,6.07C905.33,237.69,905.79,238.06,906.25,238.43z M856.9,222.33c0.32,2.35,2.34,4.18,0.82,7.68
		c-1.97-2.38-3.66-5.1-5.98-7.07c-2.62-2.22-6.03-0.08-9.9-1.11c2.01,2.59,4.67,3.34,5.57,5.67c-1.12,0.97-2.22-0.67-3.42,0.03
		c1.31,5.3,5.56,8.32,9.35,11.38c4.94,3.99,8.41,9.03,11.96,14.1c1.21,1.72,2.48,3.4,3.79,5.05c0.59,0.74,1.48,1.61,0.76,2.4
		c-3.4,3.72-0.29,5.52,2.06,7.59c0.57,0.5,1.12,1.01,1.84,1.67C874.14,260.24,861.24,224,856.9,222.33z M824.62,248.16
		c-0.08-0.66-0.31-1.36-1.19-1.23c-0.82,0.12-1.04,0.83-0.9,1.49c0.27,1.28,0.45,2.66,1.08,3.77c1.17,2.03,1.53,3.92-0.05,5.82
		c-1.03,1.25-0.39,2.3,0.44,3.14c2.75,2.83,1.5,4.2-2.45,4.98c3.36,1.31,5.25,3.55,8.15,5.75
		C827.69,263.53,825.6,255.95,824.62,248.16z M825.08,228.76c1.39-10.71,3-21.57,2.78-32.58
		C825.78,207.01,824.43,217.89,825.08,228.76z M893.96,223.1c-0.07,2.62,0.38,4.85,4.28,5.63
		C896.43,226.35,895.19,224.73,893.96,223.1z M934.8,178.16l-0.24,0.02l0.14,0.29L934.8,178.16z"/>
	<path class="st2" d="M922.39-628.29c0.06,0.1,0.11,0.2,0.19,0.28c0.04,0.04,0.13,0.01,0.2,0.01c-0.15-0.08-0.29-0.15-0.44-0.23
		C922.35-628.23,922.39-628.29,922.39-628.29z"/>
	<path class="st2" d="M913.7-631.49c0.06,0.18,0.13,0.36,0.19,0.55c0.55-0.51-0.04-0.39-0.26-0.48
		C913.63-631.42,913.7-631.49,913.7-631.49z"/>
	<path class="st2" d="M932.76-633.08c0.01,0.18,0.02,0.37,0.04,0.55c0.64-0.32,0.02-0.35-0.12-0.49
		C932.68-633.02,932.76-633.08,932.76-633.08z"/>
	<path class="st2" d="M970.75-641.73c0.15,0.16,0.3,0.32,0.45,0.48c0.35-0.35,0.21-0.61-0.14-0.84
		C970.96-641.97,970.86-641.84,970.75-641.73z"/>
	<path class="st2" d="M993.83-644.19c0.05,0.19,0.11,0.37,0.16,0.56c0.54-0.45-0.06-0.36-0.23-0.48
		C993.76-644.11,993.83-644.19,993.83-644.19z"/>
	<path class="st2" d="M992.61-644.52c0.41,0.11,0.81,0.22,1.22,0.33c0,0-0.06,0.08-0.06,0.08c-0.22-0.31-0.44-0.62-0.65-0.93
		C992.93-644.88,992.76-644.7,992.61-644.52z"/>
	<path class="st3" d="M834.22-612.83c-1.08-1.06-2.43-1.41-4.08-1.94c0.12,1.49-0.34,3.23,0.93,3.79
		C832.18-610.49,833.24-611.95,834.22-612.83z"/>
	<path class="st4" d="M989.55-646.34c-0.37-0.27-1.02-0.8-1.06-0.76c-0.61,0.64-0.09,1.08,0.36,1.52
		C989.08-645.83,989.31-646.08,989.55-646.34z"/>
	<path class="st4" d="M979.99-645.46c-0.33-0.27-0.52-1.07-1.07-0.55c-0.39,0.37-0.12,0.94,0.39,1.25
		C979.54-644.99,979.77-645.23,979.99-645.46z"/>
	<path class="st4" d="M913.77-633.95c-0.19-0.16-0.47-0.49-0.55-0.44c-0.53,0.29-0.23,0.62,0.01,0.94
		C913.43-633.6,913.61-633.76,913.77-633.95z"/>
	<path class="st4" d="M927.32-635.59c-0.23-0.12-0.47-0.24-0.7-0.36c0.08,0.28,0.16,0.55,0.24,0.83
		C927.01-635.27,927.16-635.43,927.32-635.59z"/>
	<path class="st4" d="M920.91-636.32c-0.22-0.13-0.45-0.27-0.67-0.4c0.09,0.27,0.19,0.54,0.28,0.81
		C920.65-636.05,920.78-636.18,920.91-636.32z"/>
	<path class="st4" d="M930.71-639.07c-0.31-0.05-0.62-0.09-0.94-0.14c0.1,0.29,0.2,0.58,0.3,0.87
		C930.29-638.59,930.5-638.83,930.71-639.07z"/>
	<path class="st4" d="M955.82-643.47c-0.17-0.17-0.46-0.52-0.5-0.49c-0.43,0.3-0.29,0.64-0.02,0.98
		C955.49-643.13,955.66-643.29,955.82-643.47z"/>
	<path class="st4" d="M960.47-643.33c-0.15-0.14-0.3-0.28-0.45-0.42c-0.13,0.54,0.12,0.53,0.5,0.35
		C960.51-643.4,960.47-643.33,960.47-643.33z"/>
	<path class="st4" d="M965.6-643.89c-0.33-0.02-0.66-0.05-0.98-0.07c0.12,0.29,0.24,0.58,0.36,0.87
		C965.18-643.36,965.39-643.62,965.6-643.89z"/>
	<path class="st4" d="M976.71-643.8c-0.31-0.21-0.65-0.56-0.91,0c-0.06,0.12,0.23,0.4,0.36,0.61
		C976.35-643.39,976.53-643.6,976.71-643.8z"/>
	<path class="st4" d="M983.59-649.03c-0.21-0.16-0.42-0.31-0.63-0.47c0.08,0.29,0.15,0.58,0.22,0.88
		C983.32-648.75,983.46-648.89,983.59-649.03z"/>
	<path class="st4" d="M697.87-588.59c-0.02-0.18-0.03-0.37-0.05-0.55c-0.15,0.06-0.31,0.12-0.46,0.18c0.18,0.11,0.36,0.23,0.54,0.34
		C697.9-588.61,697.87-588.59,697.87-588.59z"/>
</g>
</svg>
