<svg id="Layer_1" data-name="Layer 1" xmlns="http://www.w3.org/2000/svg" xmlns:xlink="http://www.w3.org/1999/xlink" viewBox="0 0 300.08 300.98"><defs><style>.cls-1,.cls-2,.cls-6{stroke:#000;}.cls-1,.cls-2,.cls-3,.cls-6{stroke-linecap:round;}.cls-1,.cls-2,.cls-3{stroke-linejoin:round;}.cls-1{stroke-width:8px;fill:url(#linear-gradient);}.cls-2{fill:#e01414;stroke-width:7px;}.cls-3,.cls-6{fill:none;}.cls-3{stroke:#fff;stroke-width:5px;}.cls-4,.cls-7{fill:#fff;}.cls-5{fill:#ff92f7;}.cls-6,.cls-7{stroke-miterlimit:10;}.cls-6{stroke-width:6px;}.cls-7{stroke:#231f20;}</style><linearGradient id="linear-gradient" x1="5.69" y1="152.25" x2="295.35" y2="152.25" gradientUnits="userSpaceOnUse"><stop offset="0" stop-color="#ffff07"/><stop offset="0.12" stop-color="#fffc07"/><stop offset="0.21" stop-color="#fff206"/><stop offset="0.29" stop-color="#ffe205"/><stop offset="0.36" stop-color="#ffcb04"/><stop offset="0.43" stop-color="#ffae03"/><stop offset="0.5" stop-color="#ff8a01"/><stop offset="0.51" stop-color="#ff7f00"/><stop offset="0.55" stop-color="#ff741b"/><stop offset="0.64" stop-color="#ff5f4f"/><stop offset="0.72" stop-color="#ff4e7b"/><stop offset="0.8" stop-color="#ff419d"/><stop offset="0.87" stop-color="#ff37b5"/><stop offset="0.94" stop-color="#ff31c4"/><stop offset="1" stop-color="#ff2fc9"/></linearGradient></defs><title>KARAOKE SMACKDOWN3</title><polygon class="cls-1" points="237.29 294.29 148.54 244.54 58.27 291.33 76.97 189.37 5.69 115.77 106 102.5 152.21 10.22 195.51 103.98 295.35 120.55 221.8 191.76 237.29 294.29"/><path class="cls-2" d="M68.76,97.22H97.53v20.83s19.68-28.14,51.12-23.79c30.06,4.17,40,22.73,44.78,23.79l4.51-21.94h30.6s-.13,30.05-11.42,57.82-20.3,20.84-30.46,49.77-4.51,52.08-4.51,52.08H113.32s-8.43-31.59,19.18-56.71c22.16-20.16,54.16-49.77,54.16-49.77s-17.4,3.48-34.09-2.31-27.92-13.51-38.12-10.42c-17.44,5.29-13.54,24.31-13.54,24.31L68.76,162Z"/><path class="cls-3" d="M139.91,105.51s22.46-3.33,44.92,21.1"/><path class="cls-3" d="M163.62,188.81s-41.73,27.29-37.8,54.58"/><ellipse cx="89.74" cy="99.19" rx="26.29" ry="26.97"/><ellipse class="cls-4" cx="99.93" cy="90.81" rx="8.49" ry="8.71"/><ellipse class="cls-4" cx="87.73" cy="103.33" rx="3.71" ry="3.81"/><ellipse class="cls-5" cx="225.26" cy="125.33" rx="16.43" ry="5.8"/><ellipse class="cls-5" cx="69.35" cy="124.63" rx="15.96" ry="5.8"/><g id="_seven_" data-name="&lt;seven&gt;"><path d="M122.55,115.07s9.47,24.88,20.94,10c4-5.19,5.07-15,5.07-15Z"/><polyline class="cls-6" points="159.05 72.42 151.81 96.23 177.6 86.85"/></g><g id="_hands_" data-name="&lt;hands&gt;"><ellipse class="cls-4" cx="195.62" cy="115.07" rx="15.31" ry="6.18" transform="translate(-26.41 162.09) rotate(-42.42)"/><ellipse class="cls-4" cx="201.18" cy="127.92" rx="12.74" ry="4.68" transform="translate(-17.3 32.5) rotate(-8.86)"/><ellipse class="cls-4" cx="183.87" cy="130.9" rx="13.17" ry="10.33" transform="translate(-34.22 189.04) rotate(-50.38)"/><ellipse class="cls-7" cx="177.53" cy="123.24" rx="4.6" ry="8.99" transform="translate(-38.16 109.77) rotate(-31.19)"/><ellipse class="cls-7" cx="192.54" cy="135.48" rx="5.87" ry="4.68" transform="translate(-5.91 8.82) rotate(-2.58)"/></g></svg>