<svg id="Layer_1" data-name="Layer 1" xmlns="http://www.w3.org/2000/svg" viewBox="0 0 300.08 300.98"><defs><style>.cls-1{fill:#e01414;stroke-width:7px;}.cls-1,.cls-4{stroke:#000;}.cls-1,.cls-2,.cls-4{stroke-linecap:round;}.cls-1,.cls-2{stroke-linejoin:round;}.cls-2,.cls-4{fill:none;}.cls-2{stroke:#fff;stroke-width:5px;}.cls-3{fill:#fff;}.cls-4{stroke-miterlimit:10;stroke-width:4px;}.cls-5{fill:#ff92f7;}</style></defs><title>KARAOKE SMACKDOWN3</title><path class="cls-1" d="M50.07,94.87H81.53v22.21s21.53-30,55.91-25.36c32.86,4.44,43.79,24.23,49,25.36l4.93-23.39H224.8s-.15,32-12.48,61.64-22.21,22.21-33.32,53-4.93,55.53-4.93,55.53H98.81s-9.23-33.68,21-60.46C144,182,179,150.4,179,150.4s-19,3.7-37.27-2.47-30.54-14.4-41.69-11.11C81,142.47,85.23,162.73,85.23,162.73L50.07,164Z"/><path class="cls-2" d="M127.88,103.72s24.56-3.56,49.12,22.48"/><path class="cls-2" d="M153.81,192.51s-45.64,29.09-41.34,58.19"/><circle cx="73.02" cy="96.97" r="28.75"/><circle cx="201.57" cy="97.9" r="28.31"/><circle class="cls-3" cx="84.16" cy="88.04" r="9.28"/><circle class="cls-3" cx="212.26" cy="90.68" r="10.56"/><circle class="cls-3" cx="70.82" cy="101.38" r="4.06"/><circle class="cls-3" cx="196.24" cy="102.75" r="4.06"/><path class="cls-4" d="M102.38,115.39s8.23,17.49,22.91,11.57c6.5-2.63,9.36-5.51,9.36-5.51s17.79,19.12,31.59-4.92"/><ellipse class="cls-5" cx="221.21" cy="124.84" rx="17.96" ry="6.18"/><ellipse class="cls-5" cx="50.72" cy="124.09" rx="17.45" ry="6.18"/></svg>