<svg id="Layer_1" data-name="Layer 1" xmlns="http://www.w3.org/2000/svg" xmlns:xlink="http://www.w3.org/1999/xlink" viewBox="0 0 300.08 300.98"><defs><style>.cls-1{stroke:#58ff00;fill:url(#linear-gradient);}.cls-1,.cls-21,.cls-25{stroke-linecap:round;}.cls-1,.cls-21{stroke-linejoin:round;}.cls-1,.cls-25{stroke-width:6px;}.cls-2{fill:#000100;}.cls-3{fill:#5b913c;}.cls-4{fill:#fefefe;}.cls-5{fill:#6ba946;}.cls-6{fill:#72b54b;}.cls-7{fill:#568938;}.cls-8{fill:#639e41;}.cls-9{fill:#6baa46;}.cls-10{fill:#66a243;}.cls-11{fill:#d23a42;}.cls-12{fill:#679c48;}.cls-13{fill:#070302;}.cls-14{fill:#050202;}.cls-15{fill:#060202;}.cls-16{fill:#080303;}.cls-17{fill:#090303;}.cls-18{fill:#e53f48;}.cls-19{fill:#dc3c45;}.cls-20{fill:#e23e47;}.cls-21,.cls-25{fill:none;stroke:#000;}.cls-21{stroke-width:7px;}.cls-22{fill:#e01414;}.cls-23,.cls-26{fill:#fff;}.cls-24{fill:#ff92f7;}.cls-25,.cls-26{stroke-miterlimit:10;}.cls-26{stroke:#231f20;}</style><linearGradient id="linear-gradient" x1="3.83" y1="145.5" x2="295.74" y2="145.5" gradientUnits="userSpaceOnUse"><stop offset="0" stop-color="red"/><stop offset="0.49" stop-color="#ff8100"/><stop offset="1" stop-color="red"/></linearGradient></defs><title>KARAOKE SMACKDOWN3</title><g id="_star_" data-name="&lt;star&gt;"><polygon class="cls-1" points="237.23 285.04 147.79 236.16 56.82 282.14 75.66 181.97 3.83 109.66 104.92 96.63 151.49 5.97 195.12 98.08 295.74 114.36 221.62 184.32 237.23 285.04"/></g><g id="_melon_" data-name="&lt;melon&gt;"><path class="cls-2" d="M158.67,256.87c-7.08-.15-15.68.34-24.25-.27A93.25,93.25,0,0,1,47.7,162.15C48.26,115.55,84.11,76,130.31,71c6.62-.72,13.23-.5,19.84-.53,11.18,0,22.37.23,33.55-.09,10.67-.3,19.06,4.08,26.09,11.57,9.47,10.1,15.06,22.38,18.61,35.54,9.31,34.52,8.78,68.81-3.48,102.6-3.63,10-8.87,19.14-16.58,26.67-6.82,6.67-14.79,10.44-24.55,10.2C175.92,256.71,168.05,256.87,158.67,256.87Z"/><path class="cls-3" d="M70.86,210.65a77.52,77.52,0,0,1-13.47-35.33c-.64-1.41.23-3-.52-4.39-1.06-6.88-.47-13.73.58-20.53A82,82,0,0,1,70.3,117.2a1.59,1.59,0,0,0,1.16-.59c6.09-6.33,13.51-10.8,21.05-15.11.69-.4,1.44-1,2.24-.49s.31,1.1.09,1.68c-1.19,1.72-2.94,2.87-4.46,4.22C75.2,120.43,67.2,137.49,65.16,157.53a40.93,40.93,0,0,0,0,4.29c0,4.29.87,5.14,5.22,5.17,1.65,0,2.18-1.13,2.55-2.45q.14-.58.3-1.14a44.87,44.87,0,0,0,.15-6c0-2.46-.16-5,1.43-7.11.93-.55,2.1-.41,3-1.1,7.39-1.87,15-2.6,22.48-3.67,11.15-1.59,22.37-2.62,33.58-3.63,2.26-.2,3.21-1.7,4.75-2.63l-1.62,19.92c-1.17-1.38-.86-3.06-.83-4.63,0-2-.79-2.61-2.79-2.41-15.93,1.58-31.82,3.46-47.63,5.93-2,.32-4.07.52-6.12.64,2.38-.1,4.74-.41,7.13-.41,15.3,0,30.59,0,45.88,0,1.5,0,3.08-.27,4.37.84v9.08c-1,.93-2.31.84-3.56.84-16.28,0-32.56.05-48.85,0-1.74,0-3.46-.37-4.39-.34,10.13,1,20.93,3.14,31.86,4.31,7.11.77,14.22,1.58,21.33,2.31,2,.2,2.8-.5,2.77-2.5,0-1.57-.34-3.25.83-4.63,1,4,.25,8.16.94,12.21.41,2.36.44,4.78.64,7.18-2.19-2.44-5.25-2.14-8-2.37-16.67-1.33-33.21-3.61-49.73-6.14-1.9-.29-3.74-.87-4.91-1.15.81-.06,2.21.62,3.58,1.13,17.66,6.61,35.91,10.89,54.48,14,2,.34,4.13.92,5.17-1.7l2.15,11.3c-.65,1.32-1.86,1.28-3,1.11-21-3-41.73-7.23-61.65-14.81a11.77,11.77,0,0,1-2.27-1.07c18.63,12.33,39.17,19.69,61.09,23.44,2.88.5,5.91.14,8.64,1.51l3.13,8.62c-2.37,1.19-4.9.84-7.35.57-19.37-2.15-37.63-8.08-55.11-16.53A90.73,90.73,0,0,1,73.29,199c-.57-.38-1-.92-1.61-1.27.51.35.92.82,1.41,1.2a105.68,105.68,0,0,0,29.09,20.73c14.38,6.88,29.4,11,45.52,10.23,1.08-.05,2.12-.26,3.18-.41l5.85,9.71a2.73,2.73,0,0,1-2.23.69c-10.53.06-21.06.41-31.46-2.1A119.53,119.53,0,0,1,74.2,213.66C73,212.7,72.35,211.24,70.86,210.65Z"/><path class="cls-4" d="M226,163.6c-.21,20.86-3.26,41.15-12.28,60.22a57,57,0,0,1-11.7,16.9c-10.24,9.89-22.15,9.86-32.3-.14C161,232,156.21,221.29,152.58,210a148.08,148.08,0,0,1-6.74-43.6c-.27-20.62,2.54-40.67,10.73-59.75,3.49-8.12,7.94-15.66,14.74-21.53C180.66,77,191,77,200.4,85a39.48,39.48,0,0,1,5.89,6.23c8.43,11.06,12.86,23.85,15.91,37.2A155.43,155.43,0,0,1,226,163.6Z"/><path class="cls-5" d="M94.55,102.33c.26-1,.07-1.36-1-.77A141.21,141.21,0,0,0,77,112.37a56.46,56.46,0,0,0-5.56,5c-.44.44-1,1.08-1.16-.2,14.29-21,34-33.64,59.11-37.39,11.43-1.7,23-.54,35.09-.86l-7.56,8.79C155.8,89,154.3,89,152.77,89c-6.47.16-13-.43-19.41.5-1.68.24-3.34.5-5,.88-10-1.69-17.94,3.73-26.22,7.87-1.74.88-3.28,2.17-4.94,3.23C96.42,102,95.66,102.8,94.55,102.33Z"/><path class="cls-5" d="M70.86,210.65c.24-1.41.81-.46,1.16-.11,7.1,7.06,15.5,12.34,24.32,16.8a115.69,115.69,0,0,0,32.88,10.82c9.17,1.56,18.35.66,27.51,1q3.51,4,7,8.05c-.92.81-2,.53-3.08.51-8.12-.11-16.26.33-24.38-.25a1.36,1.36,0,0,0-1,.3,31.83,31.83,0,0,1-9.11-1.07c-.83-.71-1.94,0-2.8-.52a66.88,66.88,0,0,1-17.48-5.68A84.43,84.43,0,0,1,71.5,211.83,11.24,11.24,0,0,1,70.86,210.65Z"/><path class="cls-5" d="M73,198.32l5.83,3.2A172.83,172.83,0,0,0,125.52,219a87.35,87.35,0,0,0,21.61,2.46l3.75,8c-.19,1.3-1.2,1.07-2.06,1.11-18.9.91-36.24-4.2-52.61-13.34A100.37,100.37,0,0,1,74,200.68c-.56-.56-1-1.21-1.56-1.81C72.32,198.36,72.5,198.18,73,198.32Z"/><path class="cls-3" d="M141.18,124.73l-2.07,10.86c-.73-1.8-.73-1.79-3-1.44A289,289,0,0,0,77.84,149c-.88.33-1.83,1.15-2.73.34s-.24-1.85-.1-2.78a13,13,0,0,0,.47-2.9,7.7,7.7,0,0,1,5.77-6.94,300.52,300.52,0,0,1,56.64-12.94C139.12,123.56,140.43,123.27,141.18,124.73Z"/><path class="cls-3" d="M147.08,105.94q-1.56,4.31-3.14,8.61c-1.29,1-2.86,1-4.34,1.14-20,2.27-38.68,8.75-56.33,18.35-1.11.61-2.41,2.37-3.75.17a4.59,4.59,0,0,1,1-3.23c2.11-3.34,3.75-7,6.85-9.66a18.48,18.48,0,0,1,4.56-2.77A176.1,176.1,0,0,1,134.68,106a48.71,48.71,0,0,1,8.78-.82A6.6,6.6,0,0,1,147.08,105.94Z"/><path class="cls-5" d="M147.08,105.94c-14.19-.12-27.66,3.63-41,7.93-4.73,1.52-9.32,3.47-13.92,5.37A44.57,44.57,0,0,0,87.34,122c-.42-.92.19-1.52.69-2.15,5.84-7.46,13.36-12.84,21.59-17.33a4.51,4.51,0,0,1,2.55-.73c2,.27,3.61-.77,5.34-1.42a82.54,82.54,0,0,1,30.26-4.3c1.17,0,2.77-.49,3.19,1.42Z"/><path class="cls-5" d="M144,212.8a112.08,112.08,0,0,1-25.9-4.54,167,167,0,0,1-34.21-13.64,64.32,64.32,0,0,1-11.58-7.82c5.23,1.81,10.39,3.67,15.63,5.31a280.37,280.37,0,0,0,41.25,9.46c2.89.44,5.77,1,8.65,1.47a4.8,4.8,0,0,0,3.37-.42Z"/><path class="cls-5" d="M80,133.86c.16,1.09.61,1,1.44.5,11.68-7.05,24.35-11.8,37.42-15.45,6.65-1.85,13.39-3.51,20.36-3.87,1.58-.08,3.12-.72,4.75-.49l-2.76,10.18c-1.73-1.23-3.49-.16-5.17.07a301.67,301.67,0,0,0-55.62,12.88c-1.5.51-2.2,1.62-3.15,2.61A6.69,6.69,0,0,1,80,133.86Z"/><path class="cls-5" d="M76.18,143.47c.27,1.9-.88,3.59-.91,5.76,6.26-2.46,12.42-4.66,18.71-6.51a279.57,279.57,0,0,1,36.37-8.33c2.11-.33,4.23-.6,6.3-1.08s2.71.35,2.46,2.28a10.1,10.1,0,0,1-.56,3.65c-.61,5-4.91,3.32-7.53,3.62-12.26,1.38-24.55,2.41-36.74,4.36-5.17.83-10.36,1.51-15.54,2.28a2.86,2.86,0,0,0-.91.48c-.8.64-1.89-.12-2.68.54-1.12,2.21-1.09,4.6-1.08,7-.75,2.1.17,4.33-.5,6.43l0,1.1a.58.58,0,0,1-.82-.21c-1-3.25-.47-6.5,0-9.76a79.14,79.14,0,0,1,1.72-8.91C74.66,145.09,74.73,143.8,76.18,143.47Z"/><path class="cls-5" d="M139.06,191.32c.27,2.22-.13,3.21-2.91,2.8-6.94-1-13.81-2.39-20.66-3.84a254.94,254.94,0,0,1-41.11-12.36,1.61,1.61,0,0,1-.94-.9c5.54.91,11.07,1.91,16.63,2.71,6.4.92,12.83,1.68,19.25,2.48,5.62.71,11.25,1.42,16.89,2a58.28,58.28,0,0,0,8.23.57c2.24-.07,3.73.32,4.07,2.76A9.43,9.43,0,0,1,139.06,191.32Z"/><path class="cls-3" d="M151,97.47c-.72-1-1.78-.61-2.72-.65a91.25,91.25,0,0,0-31.21,4.3c-.6.16-.67-.19-.63-.65,1.44-1.57,3.45-2,5.34-2.68,1.17-.41,2.38-.68,3.52-1.16,2.46-1,3-2.1,2.52-4.74-.1-.52-.33-1,0-1.54.13-1.15,1-.93,1.8-1.08,7.58-1.56,15.25-.94,22.89-1a11.36,11.36,0,0,0,4.48-.48Z"/><path class="cls-6" d="M135.28,247.77c.77-.91,1.82-.55,2.76-.55q12.84,0,25.69,0c.76,1-.07.95-.65.94C153.81,248,144.53,248.62,135.28,247.77Z"/><path class="cls-7" d="M56.87,170.93c1.09,1.35.36,2.93.52,4.39C56.61,173.93,56.93,172.41,56.87,170.93Z"/><path class="cls-8" d="M123.37,246.18c1,0,2-.42,2.8.52A4.69,4.69,0,0,1,123.37,246.18Z"/><path class="cls-4" d="M127.77,90.35c1.86,4,.87,6.26-3.38,7.34a50.37,50.37,0,0,0-7.92,2.81,7.3,7.3,0,0,1-4.29,1.66A61.84,61.84,0,0,0,87.34,122,44.49,44.49,0,0,0,80,133.86a20.42,20.42,0,0,0-2.73,6.43,6.58,6.58,0,0,0-1.06,3.18C74,149,73.35,154.84,73,160.72c-.08,1.42-.07,2.85-.1,4.27a3.25,3.25,0,0,1-2.28,2.65c-4.72.53-6.38-.82-6.25-5.48.64-23.69,10.18-43.08,28.35-58.25.61-.51,1.2-1,1.8-1.58,7.15-4.85,14.57-9.2,22.92-11.68,1.54-.46,3.1-.82,4.61-1.34A5.36,5.36,0,0,1,127.77,90.35Z"/><path class="cls-9" d="M136.93,168.2c0,2-.13,3.94,0,5.9s-.69,2.38-2.36,2.21c-4.07-.41-8.15-.73-12.2-1.19q-8.07-.93-16.11-2.05C98.18,172,90.11,170.75,82,169.54a14.68,14.68,0,0,1-5.32-1.32h60.23Z"/><path class="cls-5" d="M136.94,159.14H77.4a109.11,109.11,0,0,1,16.74-3.2q14.63-2.06,29.3-3.73c3.7-.42,7.43-.58,11.13-1.14,1.67-.25,2.48.34,2.36,2.19s0,3.93,0,5.9Z"/><path class="cls-3" d="M73.57,163.93c.21-2.14-.55-4.35.5-6.43C73.82,159.64,74.61,161.86,73.57,163.93Z"/><path class="cls-10" d="M73,198.32l-.54.55a7.73,7.73,0,0,1-2.75-3C71.23,196.91,72.38,197.21,73,198.32Z"/><path class="cls-3" d="M70.65,167.64,72.93,165l.6,0C72.87,166.23,72.49,167.74,70.65,167.64Z"/><path class="cls-3" d="M75.15,150.52c.75-.89,1.78-.41,2.68-.54C77.08,150.89,76.05,150.39,75.15,150.52Z"/><path class="cls-11" d="M214.85,163.77c-.1,17.65-2.09,35-8.7,51.54-2.37,5.93-5.35,11.53-10.06,16-6.42,6.11-13.83,6.22-20.28.12-6.24-5.9-9.56-13.54-12.16-21.5-6.71-20.5-7.84-41.57-6-62.88,1.26-14.34,4.14-28.31,10.77-41.28A38.39,38.39,0,0,1,174.51,97c7.29-7.81,16.16-7.62,23.16.46,5.94,6.86,9.2,15.07,11.68,23.63C213.39,135,214.88,149.29,214.85,163.77Z"/><path class="cls-12" d="M112.18,102.16a9,9,0,0,1,4.29-1.66c.19.2.37.41.56.62C115.48,101.78,114.07,103.08,112.18,102.16Z"/><path class="cls-13" d="M173.38,145.26a3.5,3.5,0,1,1-7,.07,3.17,3.17,0,0,1,3.31-3.4A3.34,3.34,0,0,1,173.38,145.26Z"/><path class="cls-14" d="M183.63,108.2a3.35,3.35,0,0,1,3.62-3.4,3.1,3.1,0,0,1,3.32,3.36,3.31,3.31,0,0,1-3.12,3.57A3.49,3.49,0,0,1,183.63,108.2Z"/><path class="cls-15" d="M190.61,223.79a3.51,3.51,0,0,1-3.58,3.5,3.47,3.47,0,0,1-3.39-3.67,3.31,3.31,0,0,1,3.44-3.33A3.4,3.4,0,0,1,190.61,223.79Z"/><path class="cls-13" d="M206.72,186.91a3.33,3.33,0,0,1-3.55,3.45,3.25,3.25,0,0,1-3.45-3.29,3.55,3.55,0,0,1,3.42-3.66A3.5,3.5,0,0,1,206.72,186.91Z"/><path class="cls-16" d="M198.78,210a3.45,3.45,0,0,1-3.38-3.68,3.34,3.34,0,0,1,3.72-3.27c2.15.14,3.15,1.49,3.27,3.48A3.54,3.54,0,0,1,198.78,210Z"/><path class="cls-13" d="M171.82,165.8a3.41,3.41,0,0,1-3.61,3.43,3.37,3.37,0,0,1-3.39-3.42,3.5,3.5,0,1,1,7,0Z"/><path class="cls-13" d="M199.72,145a3.41,3.41,0,0,1,3.94-3.05,3.25,3.25,0,0,1,3,3.69,3.47,3.47,0,0,1-3.79,3.25A3.58,3.58,0,0,1,199.72,145Z"/><path class="cls-17" d="M208.28,165.87a3.61,3.61,0,0,1-3.71,3.38,3.45,3.45,0,0,1-3.24-3.79,3.19,3.19,0,0,1,3.51-3.19A3.4,3.4,0,0,1,208.28,165.87Z"/><path class="cls-13" d="M169.77,183.41a3.58,3.58,0,0,1,3.61,3.47,3.33,3.33,0,0,1-3.52,3.48,3.24,3.24,0,0,1-3.46-3.26A3.46,3.46,0,0,1,169.77,183.41Z"/><path class="cls-16" d="M177.72,206.79a3.48,3.48,0,0,1-6.95-.23c.07-2.07,1.09-3.36,3.27-3.47A3.46,3.46,0,0,1,177.72,206.79Z"/><path class="cls-14" d="M174.93,120.51a5.82,5.82,0,0,0,.66.44,3.37,3.37,0,0,1,2,4.16,3.25,3.25,0,0,1-3.36,2.49,3.17,3.17,0,0,1-3.34-2.5,3.36,3.36,0,0,1,2-4.17,6.77,6.77,0,0,0,.66-.43A.91.91,0,0,1,174.93,120.51Z"/><path class="cls-15" d="M199.63,120.51c1.3.79,2.66,1.56,2.75,3.31A3.5,3.5,0,0,1,196,126a3.19,3.19,0,0,1,.5-4.34,11.86,11.86,0,0,1,1.74-1.19A.9.9,0,0,1,199.63,120.51Z"/><path class="cls-18" d="M170.82,191.09a1.8,1.8,0,0,1-1.84,0A1.61,1.61,0,0,1,170.82,191.09Z"/><path class="cls-18" d="M204.15,191.08c-.59.39-1.48.39-1.55.13-.19-.7.52-.27.82-.35S203.85,191,204.15,191.08Z"/><path class="cls-18" d="M175.15,202.34c-.59.4-1.48.39-1.55.13-.19-.7.52-.27.82-.35S174.86,202.24,175.15,202.34Z"/><path class="cls-18" d="M198.11,202.2h1.78C199.27,202.8,198.73,202.6,198.11,202.2Z"/><path class="cls-19" d="M178.16,205.15a2.83,2.83,0,0,1,.48,2.48C178,207,178.37,206.43,178.16,205.15Z"/><path class="cls-18" d="M199.63,120.51h-1.42c-.33-1.08.55-.51.86-.57S200.14,119.65,199.63,120.51Z"/><path class="cls-18" d="M174.93,120.51H173.5c-.32-1.07.56-.5.87-.56S175.45,119.65,174.93,120.51Z"/><path class="cls-20" d="M205.76,161.52c-.59.4-1.48.38-1.55.13-.19-.7.52-.28.82-.35S205.46,161.42,205.76,161.52Z"/><ellipse class="cls-21" cx="185.87" cy="162.99" rx="45.65" ry="90.55"/><path class="cls-21" d="M183,72.58h-46.9S50.71,75.72,49.27,160.8s81.82,92.74,81.82,92.74h52.63"/><ellipse class="cls-22" cx="185.62" cy="162.89" rx="29.47" ry="72.55"/><circle cx="221.38" cy="146.17" r="21.21"/><circle class="cls-23" cx="227.69" cy="141.6" r="8.33"/><circle class="cls-23" cx="219.37" cy="151.12" r="3.2"/><path d="M174,193.71s4.92,32.75,20.18,16.71c4.49-4.72,7.38-13,7.38-13Z"/><ellipse class="cls-24" cx="236.74" cy="173.57" rx="14.17" ry="4.88"/><circle cx="177.15" cy="176.99" r="3.14"/><circle cx="207.2" cy="183.07" r="3.14"/><circle cx="208.33" cy="170.62" r="3.14"/><circle cx="165.63" cy="171.69" r="3.14"/><circle cx="196.82" cy="176.38" r="3.14"/><circle cx="166.71" cy="184.15" r="3.14"/><circle cx="195.74" cy="112.73" r="3.14"/><circle cx="201.58" cy="124.23" r="3.14"/><circle cx="185.93" cy="102.98" r="3.14"/><circle cx="185.93" cy="226.46" r="3.14"/><polyline class="cls-25" points="151.13 146.52 182.79 147.92 156.14 118.26"/><ellipse class="cls-24" cx="149.8" cy="157.8" rx="4.88" ry="13.77" transform="translate(-33.26 275.39) rotate(-79.21)"/></g><g id="_hand_" data-name="&lt;hand&gt;"><ellipse class="cls-23" cx="113.28" cy="154.26" rx="6.14" ry="15.26" transform="translate(-70.25 99.98) rotate(-37.23)"/><ellipse class="cls-23" cx="105.3" cy="165.53" rx="4.6" ry="12.84" transform="translate(-86.21 208.11) rotate(-70.08)"/><ellipse class="cls-23" cx="121.83" cy="171.84" rx="10.29" ry="13.08" transform="translate(-71.58 88.4) rotate(-31.33)"/><ellipse class="cls-26" cx="129.57" cy="165.71" rx="8.9" ry="4.6" transform="translate(-79.77 145.01) rotate(-46.33)"/><ellipse class="cls-26" cx="112.37" cy="174.53" rx="4.6" ry="5.91" transform="translate(-83.77 242.47) rotate(-76.33)"/></g></svg>