<svg id="Layer_1" data-name="Layer 1" xmlns="http://www.w3.org/2000/svg" viewBox="0 0 300.08 300.98"><defs><style>.cls-1{fill:#000100;}.cls-2{fill:#5b913c;}.cls-3{fill:#fefefe;}.cls-4{fill:#6ba946;}.cls-5{fill:#72b54b;}.cls-6{fill:#568938;}.cls-7{fill:#639e41;}.cls-8{fill:#6baa46;}.cls-9{fill:#66a243;}.cls-10{fill:#d23a42;}.cls-11{fill:#679c48;}.cls-12{fill:#070302;}.cls-13{fill:#050202;}.cls-14{fill:#060202;}.cls-15{fill:#080303;}.cls-16{fill:#090303;}.cls-17{fill:#e53f48;}.cls-18{fill:#dc3c45;}.cls-19{fill:#e23e47;}.cls-20,.cls-23{fill:none;stroke:#000;stroke-linecap:round;}.cls-20{stroke-linejoin:round;stroke-width:7px;}.cls-21{fill:#e01414;}.cls-22{fill:#fff;}.cls-23{stroke-miterlimit:10;stroke-width:4px;}.cls-24{fill:#ff92f7;}</style></defs><title>KARAOKE SMACKDOWN3</title><path class="cls-1" d="M166.14,244.52c-6.58-.14-14.56.32-22.52-.25a86.61,86.61,0,0,1-80.55-87.72c.53-43.28,33.82-80,76.73-84.7,6.14-.68,12.28-.47,18.42-.5,10.39,0,20.79.22,31.16-.08C199.3,71,207.09,75.06,213.61,82c8.8,9.38,14,20.78,17.29,33,8.64,32.05,8.16,63.9-3.23,95.29-3.37,9.28-8.24,17.77-15.4,24.76-6.34,6.2-13.74,9.69-22.8,9.47C182.16,244.37,174.85,244.52,166.14,244.52Z"/><path class="cls-2" d="M84.59,201.59a72.1,72.1,0,0,1-12.52-32.81c-.59-1.31.22-2.78-.48-4.08-1-6.39-.43-12.75.54-19.07A76.14,76.14,0,0,1,84.07,114.8a1.45,1.45,0,0,0,1.07-.55c5.66-5.87,12.55-10,19.55-14,.64-.37,1.34-.88,2.08-.45s.29,1,.09,1.55a23.76,23.76,0,0,1-4.15,3.93c-14.1,12.55-21.52,28.39-23.42,47a37.75,37.75,0,0,0-.05,4c0,4,.82,4.77,4.85,4.8,1.54,0,2-1,2.37-2.28.08-.35.17-.71.28-1.06a41.67,41.67,0,0,0,.14-5.59c.05-2.28-.15-4.61,1.33-6.6.86-.51,2-.38,2.77-1,6.85-1.75,13.89-2.42,20.87-3.42,10.36-1.47,20.78-2.43,31.19-3.36,2.1-.19,3-1.59,4.42-2.45q-.77,9.25-1.51,18.5c-1.09-1.28-.8-2.84-.78-4.3,0-1.89-.73-2.43-2.58-2.24-14.8,1.47-29.55,3.21-44.25,5.5a41.57,41.57,0,0,1-5.68.58c2.21-.07,4.41-.36,6.63-.36q21.3,0,42.61,0c1.39,0,2.85-.25,4,.79q0,4.2,0,8.42c-1,.87-2.15.79-3.31.79-15.12,0-30.24,0-45.37,0-1.62,0-3.21-.41-4.1-.33,9.43,1,19.46,2.93,29.61,4,6.61.7,13.21,1.46,19.82,2.13,1.86.19,2.59-.46,2.56-2.31,0-1.46-.31-3,.78-4.3.92,3.72.23,7.57.87,11.33.38,2.2.41,4.45.6,6.67-2-2.26-4.88-2-7.47-2.19-15.48-1.24-30.85-3.36-46.19-5.7C92,172,90.3,171.35,89,171.22a10.32,10.32,0,0,1,3.54,1c16.4,6.14,33.35,10.12,50.59,13,1.87.31,3.84.85,4.81-1.59l2,10.5c-.61,1.23-1.74,1.19-2.81,1-19.51-2.81-38.76-6.72-57.26-13.76a10.16,10.16,0,0,1-2.11-1c17.3,11.44,36.38,18.28,56.74,21.77,2.67.46,5.49.13,8,1.4l2.91,8c-2.2,1.11-4.55.78-6.82.53-18-2-34.95-7.5-51.19-15.35a83.72,83.72,0,0,1-10.57-6c-.53-.35-.94-.85-1.5-1.18.48.33.86.76,1.31,1.12a98.23,98.23,0,0,0,27,19.25C127,216.32,141,220.17,156,219.43c1-.05,2-.24,3-.38l5.44,9a2.55,2.55,0,0,1-2.07.64c-9.79,0-19.57.38-29.22-2a111,111,0,0,1-45.37-22.37C86.61,203.5,86,202.14,84.59,201.59Z"/><path class="cls-3" d="M228.64,157.89c-.19,19.38-3,38.23-11.4,55.93a52.92,52.92,0,0,1-10.87,15.7c-9.51,9.19-20.57,9.15-30-.13-8.06-7.93-12.52-17.92-15.89-28.44a137.51,137.51,0,0,1-6.26-40.49c-.25-19.15,2.36-37.78,10-55.49,3.24-7.55,7.38-14.55,13.68-20,8.69-7.51,18.31-7.5,27-.06a38,38,0,0,1,5.47,5.79c7.82,10.27,11.94,22.15,14.77,34.54A143.85,143.85,0,0,1,228.64,157.89Z"/><path class="cls-4" d="M106.59,101c.24-.93.06-1.27-.91-.71a129.68,129.68,0,0,0-15.38,10A51.8,51.8,0,0,0,85.14,115c-.41.41-.91,1-1.07-.18C97.34,95.28,115.61,83.56,139,80.08c10.62-1.58,21.36-.5,32.6-.8l-7,8.16c-1.05,1.17-2.45,1.17-3.87,1.21-6,.15-12-.4-18,.46-1.56.22-3.1.47-4.62.82-9.32-1.57-16.67,3.46-24.35,7.31a52.25,52.25,0,0,0-4.59,3C108.33,100.71,107.62,101.42,106.59,101Z"/><path class="cls-4" d="M84.59,201.59c.22-1.31.75-.43,1.07-.1,6.59,6.56,14.39,11.46,22.59,15.6a107.37,107.37,0,0,0,30.53,10c8.52,1.45,17,.62,25.56.93l6.5,7.48c-.85.75-1.9.49-2.86.47-7.55-.1-15.1.31-22.64-.23a1.25,1.25,0,0,0-.93.28,30.19,30.19,0,0,1-8.46-1c-.77-.66-1.8,0-2.6-.49a61.71,61.71,0,0,1-16.23-5.28,78.27,78.27,0,0,1-31.94-26.63A8.14,8.14,0,0,1,84.59,201.59Z"/><path class="cls-4" d="M86.58,190.14l5.41,3a160.45,160.45,0,0,0,43.36,16.2,80.76,80.76,0,0,0,20.07,2.28l3.48,7.46c-.17,1.21-1.11,1-1.91,1-17.55.85-33.66-3.9-48.86-12.38a93.73,93.73,0,0,1-20.61-15.37c-.52-.52-1-1.12-1.45-1.68C85.94,190.18,86.1,190,86.58,190.14Z"/><path class="cls-2" d="M149.89,121.8,148,131.88c-.68-1.67-.68-1.66-2.78-1.34a268.32,268.32,0,0,0-54.13,13.75c-.81.31-1.7,1.07-2.53.32s-.22-1.72-.09-2.59a12.28,12.28,0,0,0,.44-2.69,7.17,7.17,0,0,1,5.35-6.45,279.9,279.9,0,0,1,52.61-12C148,120.71,149.2,120.43,149.89,121.8Z"/><path class="cls-2" d="M155.38,104.34l-2.92,8c-1.2.9-2.66.9-4,1.06-18.61,2.11-35.93,8.12-52.32,17-1,.56-2.24,2.2-3.48.16a4.22,4.22,0,0,1,.88-3c2-3.11,3.48-6.52,6.36-9a17.07,17.07,0,0,1,4.24-2.58,163.55,163.55,0,0,1,39.75-11.62,46.28,46.28,0,0,1,8.15-.76A6.35,6.35,0,0,1,155.38,104.34Z"/><path class="cls-4" d="M155.38,104.34c-13.19-.11-25.69,3.38-38.08,7.37-4.39,1.41-8.65,3.22-12.92,5a39.19,39.19,0,0,0-4.49,2.55c-.39-.85.18-1.41.64-2,5.43-6.93,12.41-11.93,20-16.11a4.22,4.22,0,0,1,2.37-.67c1.84.25,3.35-.72,5-1.32a76.67,76.67,0,0,1,28.1-4c1.09,0,2.58-.46,3,1.31Z"/><path class="cls-4" d="M152.51,203.59a104,104,0,0,1-24.06-4.22,155.3,155.3,0,0,1-31.77-12.66,60.61,60.61,0,0,1-10.75-7.27c4.86,1.68,9.65,3.41,14.52,4.93a260.23,260.23,0,0,0,38.31,8.79c2.69.41,5.36.9,8,1.36a4.44,4.44,0,0,0,3.14-.39Z"/><path class="cls-4" d="M93,130.27c.15,1,.57.93,1.34.47,10.85-6.55,22.61-11,34.76-14.35A87,87,0,0,1,148,112.8c1.48-.08,2.91-.67,4.42-.46q-1.29,4.72-2.57,9.46c-1.6-1.15-3.24-.16-4.8.06a279.09,279.09,0,0,0-51.65,12c-1.4.47-2,1.51-2.93,2.43A6.23,6.23,0,0,1,93,130.27Z"/><path class="cls-4" d="M89.52,139.2a5.71,5.71,0,0,1-.39,2.68c-.21.78-.33,1.58-.56,2.71,5.92-2.33,11.65-4.37,17.48-6.09a260.72,260.72,0,0,1,33.79-7.74c1.95-.3,3.92-.55,5.84-1s2.53.33,2.29,2.11a9.33,9.33,0,0,1-.51,3.4c-.57,4.69-4.57,3.09-7,3.36-11.38,1.28-22.79,2.24-34.12,4.05-4.8.77-9.62,1.4-14.43,2.11a2.9,2.9,0,0,0-.84.46c-.75.59-1.75-.12-2.49.5-1,2.05-1,4.27-1,6.48-.7,2,.15,4-.47,6l0,1a.54.54,0,0,1-.76-.19c-.9-3-.44-6,0-9.07a72.67,72.67,0,0,1,1.59-8.27C88.11,140.7,88.18,139.5,89.52,139.2Z"/><path class="cls-4" d="M147.93,183.63c.25,2.07-.13,3-2.71,2.61-6.44-1-12.82-2.22-19.19-3.57A237.9,237.9,0,0,1,87.85,171.2c-.38-.15-.81-.19-.92-.85,5.2.85,10.33,1.78,15.5,2.52,5.94.86,11.91,1.56,17.87,2.31,5.23.66,10.45,1.31,15.69,1.9a54.5,54.5,0,0,0,7.64.53c2.08-.07,3.47.3,3.79,2.56A8.85,8.85,0,0,1,147.93,183.63Z"/><path class="cls-2" d="M159,96.47c-.67-.89-1.65-.56-2.53-.6a84.84,84.84,0,0,0-29,4c-.55.15-.61-.17-.58-.6,1.34-1.45,3.2-1.88,5-2.49,1.08-.37,2.21-.63,3.27-1.07,2.28-1,2.8-2,2.34-4.41-.09-.48-.3-1,0-1.42.12-1.07,1-.87,1.67-1,7-1.45,14.16-.87,21.26-1a10.46,10.46,0,0,0,4.16-.44Z"/><path class="cls-5" d="M144.41,236.07c.72-.85,1.7-.51,2.57-.51,8,0,15.91,0,23.86,0,.7.92-.07.88-.61.87C161.63,236.23,153,236.85,144.41,236.07Z"/><path class="cls-6" d="M71.59,164.7c1,1.26.33,2.72.48,4.08C71.35,167.49,71.65,166.07,71.59,164.7Z"/><path class="cls-7" d="M133.35,234.59c.89,0,1.87-.39,2.6.49A4.35,4.35,0,0,1,133.35,234.59Z"/><path class="cls-3" d="M137.44,89.87c1.73,3.69.8,5.8-3.14,6.81A46.18,46.18,0,0,0,127,99.29a6.79,6.79,0,0,1-4,1.54,57.48,57.48,0,0,0-23.07,18.41,41.42,41.42,0,0,0-6.85,11,19.15,19.15,0,0,0-2.53,6,6.1,6.1,0,0,0-1,2.95c-2,5.15-2.62,10.56-2.92,16-.08,1.32-.07,2.64-.09,4a3.05,3.05,0,0,1-2.12,2.46c-4.38.49-5.92-.77-5.81-5.1.6-22,9.46-40,26.33-54.09.57-.48,1.12-1,1.68-1.47,6.64-4.5,13.52-8.54,21.29-10.85,1.42-.42,2.87-.76,4.27-1.24A5,5,0,0,1,137.44,89.87Z"/><path class="cls-8" d="M146,162.17c0,1.82-.12,3.66,0,5.48s-.64,2.21-2.2,2c-3.77-.39-7.56-.68-11.33-1.11-5-.58-10-1.2-14.95-1.9-7.51-1.05-15-2.16-22.51-3.28A13.69,13.69,0,0,1,90,162.18H146Z"/><path class="cls-4" d="M146,153.76H90.66a99.78,99.78,0,0,1,15.54-3q13.59-1.91,27.22-3.47c3.44-.38,6.9-.54,10.33-1.05,1.56-.23,2.31.31,2.2,2s0,3.65,0,5.48Z"/><path class="cls-2" d="M87.1,158.2c.19-2-.51-4,.47-6C87.33,154.21,88.07,156.27,87.1,158.2Z"/><path class="cls-9" d="M86.58,190.14l-.51.51-2.3-2.05A3.69,3.69,0,0,1,86.58,190.14Z"/><path class="cls-2" d="M84.39,161.65l2.12-2.46.56,0C86.45,160.34,86.1,161.74,84.39,161.65Z"/><path class="cls-2" d="M88.57,145.75c.69-.83,1.65-.38,2.49-.5C90.36,146.08,89.41,145.63,88.57,145.75Z"/><path class="cls-10" d="M218.28,165a119.47,119.47,0,0,1-8,41c-2.2,5.51-5,10.71-9.34,14.88-6,5.68-12.85,5.77-18.84.11-5.8-5.48-8.88-12.58-11.3-20-6.23-19-7.27-38.61-5.55-58.39,1.17-13.32,3.84-26.3,10-38.35A35.69,35.69,0,0,1,180.85,96c6.77-7.25,15-7.08,21.51.43,5.52,6.37,8.55,14,10.84,21.94C216.76,130.77,218.28,143,218.28,165Z"/><path class="cls-11" d="M123,100.83a8.31,8.31,0,0,1,4-1.54l.51.57C126,100.48,124.72,101.69,123,100.83Z"/><path class="cls-12" d="M179.8,140.86a3.25,3.25,0,1,1-6.5.07,3,3,0,0,1,3.08-3.17A3.11,3.11,0,0,1,179.8,140.86Z"/><path class="cls-13" d="M189.32,106.44a3.1,3.1,0,0,1,3.36-3.16,2.89,2.89,0,0,1,3.09,3.13,3.07,3.07,0,0,1-2.9,3.31A3.24,3.24,0,0,1,189.32,106.44Z"/><path class="cls-14" d="M195.81,213.8a3.27,3.27,0,0,1-3.33,3.25,3.23,3.23,0,0,1-3.15-3.41,3.07,3.07,0,0,1,3.2-3.09A3.16,3.16,0,0,1,195.81,213.8Z"/><path class="cls-12" d="M210.76,179.54a3.07,3.07,0,0,1-3.29,3.2,3,3,0,0,1-3.21-3.05,3.3,3.3,0,0,1,3.18-3.4A3.25,3.25,0,0,1,210.76,179.54Z"/><path class="cls-15" d="M203.39,201a3.2,3.2,0,0,1-3.14-3.41,3.1,3.1,0,0,1,3.45-3,3,3,0,0,1,3,3.23A3.27,3.27,0,0,1,203.39,201Z"/><path class="cls-12" d="M178.35,159.94a3.18,3.18,0,0,1-3.35,3.19,3.14,3.14,0,0,1-3.15-3.18,3.25,3.25,0,1,1,6.5,0Z"/><path class="cls-12" d="M204.26,140.61a3.17,3.17,0,0,1,3.67-2.83,3,3,0,0,1,2.81,3.42,3.22,3.22,0,0,1-3.52,3A3.32,3.32,0,0,1,204.26,140.61Z"/><path class="cls-16" d="M212.21,160a3.34,3.34,0,0,1-3.44,3.14,3.22,3.22,0,0,1-3-3.52,3,3,0,0,1,3.27-3A3.14,3.14,0,0,1,212.21,160Z"/><path class="cls-12" d="M176.44,176.3a3.31,3.31,0,0,1,3.36,3.22,3.1,3.1,0,0,1-3.27,3.23,3,3,0,0,1-3.22-3A3.21,3.21,0,0,1,176.44,176.3Z"/><path class="cls-15" d="M183.83,198a3.23,3.23,0,0,1-6.46-.21c.07-1.92,1-3.12,3-3.22A3.2,3.2,0,0,1,183.83,198Z"/><path class="cls-13" d="M181.24,117.88a6.41,6.41,0,0,0,.61.4,3.13,3.13,0,0,1,1.84,3.87,3,3,0,0,1-3.12,2.3,2.93,2.93,0,0,1-3.1-2.31,3.14,3.14,0,0,1,1.83-3.88,5.7,5.7,0,0,0,.61-.39A.84.84,0,0,1,181.24,117.88Z"/><path class="cls-14" d="M204.18,117.88c1.21.72,2.47,1.44,2.55,3.06a3.25,3.25,0,0,1-5.95,2.07,3,3,0,0,1,.47-4,11.48,11.48,0,0,1,1.61-1.11A.84.84,0,0,1,204.18,117.88Z"/><path class="cls-17" d="M177.42,183.43a1.66,1.66,0,0,1-1.71,0A1.5,1.5,0,0,1,177.42,183.43Z"/><path class="cls-17" d="M208.38,183.41c-.55.37-1.38.36-1.44.12-.18-.65.48-.24.76-.32S208.1,183.32,208.38,183.41Z"/><path class="cls-17" d="M181.45,193.87c-.55.37-1.38.36-1.44.12-.18-.65.47-.25.76-.32S181.17,193.78,181.45,193.87Z"/><path class="cls-17" d="M202.77,193.74h1.65C203.85,194.3,203.35,194.11,202.77,193.74Z"/><path class="cls-18" d="M184.54,197a2.31,2.31,0,0,1,.14,1.86A1.7,1.7,0,0,1,184.54,197Z"/><path class="cls-17" d="M204.18,117.88h-1.32c-.31-1,.51-.47.8-.52S204.66,117.07,204.18,117.88Z"/><path class="cls-17" d="M181.24,117.88h-1.33c-.29-1,.52-.47.81-.52S181.72,117.08,181.24,117.88Z"/><path class="cls-19" d="M209.87,156c-.54.37-1.37.36-1.44.12-.18-.65.48-.25.76-.33S209.6,155.87,209.87,156Z"/><ellipse class="cls-20" cx="192.45" cy="157.33" rx="42.4" ry="84.09"/><path class="cls-20" d="M189.8,73.36H146.25S66.93,76.27,65.59,155.3s76,86.12,76,86.12h48.88"/><ellipse class="cls-21" cx="191.66" cy="157.23" rx="27.37" ry="67.38"/><circle cx="163.1" cy="141.71" r="19.7"/><circle cx="224.87" cy="141.71" r="19.7"/><circle class="cls-22" cx="169.9" cy="136.53" r="6.8"/><circle class="cls-22" cx="230.74" cy="137.46" r="7.73"/><circle class="cls-22" cx="160.13" cy="146.3" r="2.97"/><circle class="cls-22" cx="223.01" cy="146.3" r="2.97"/><path class="cls-23" d="M164.85,183s9.65,19,22.78,12.47a16.8,16.8,0,0,0,6.86-7s15.81,21.81,27.21-5"/><ellipse class="cls-24" cx="239.14" cy="169.15" rx="13.16" ry="4.53"/><ellipse class="cls-24" cx="148.34" cy="169.15" rx="12.79" ry="4.53"/><circle cx="183.8" cy="170.33" r="2.92"/><circle cx="211.71" cy="175.98" r="2.92"/><circle cx="212.76" cy="164.41" r="2.92"/><circle cx="173.1" cy="165.41" r="2.92"/><circle cx="202.06" cy="169.77" r="2.92"/><circle cx="174.1" cy="176.98" r="2.92"/><circle cx="201.06" cy="110.65" r="2.92"/><circle cx="206.49" cy="121.33" r="2.92"/><circle cx="191.96" cy="101.6" r="2.92"/><circle cx="191.96" cy="216.27" r="2.92"/></svg>